<svg width="52" height="48" viewBox="0 0 52 48" fill="none" xmlns="http://www.w3.org/2000/svg">
<mask id="mask0_89_2023" style="mask-type:luminance" maskUnits="userSpaceOnUse" x="0" y="0" width="52" height="48">
<path d="M51.302 0H0V47.557H51.302V0Z" fill="white"/>
</mask>
<g mask="url(#mask0_89_2023)">
<path d="M25.548 14.9991C25.9369 14.9946 26.3253 15.0298 26.7071 15.1041L29.22 12.5911C28.056 12.1133 26.8093 11.8693 25.5511 11.8731C23.5883 11.8717 21.6692 12.4526 20.0366 13.5422C18.404 14.6318 17.1313 16.1811 16.3796 17.9943C15.6278 19.8074 15.4308 21.8027 15.8133 23.7279C16.1959 25.653 17.1409 27.4214 18.5288 28.8093C19.9167 30.1972 21.6851 31.1422 23.6103 31.5248C25.5354 31.9074 27.5308 31.7103 29.3439 30.9586C31.157 30.2068 32.7064 28.9341 33.796 27.3015C34.8856 25.669 35.4664 23.7499 35.465 21.7871C35.4685 20.5289 35.2245 19.2822 34.7471 18.1181L32.229 20.6341C32.3053 21.0146 32.3421 21.402 32.3391 21.7901C32.3408 23.1358 31.9433 24.4517 31.1968 25.5714C30.4503 26.691 29.3884 27.564 28.1455 28.0797C26.9026 28.5955 25.5346 28.731 24.2146 28.4689C22.8947 28.2068 21.6823 27.559 20.7307 26.6074C19.7792 25.6559 19.1314 24.4434 18.8693 23.1235C18.6072 21.8036 18.7426 20.4356 19.2584 19.1927C19.7742 17.9498 20.6472 16.8879 21.7668 16.1413C22.8864 15.3948 24.2024 14.9973 25.548 14.9991Z" fill="white"/>
<path d="M26.9751 18.155C26.1305 17.8182 25.1957 17.783 24.3282 18.0554C23.4608 18.3279 22.7139 18.8912 22.2135 19.6504C21.7132 20.4096 21.4902 21.3182 21.582 22.2227C21.6738 23.1273 22.0748 23.9725 22.7174 24.6158C23.3601 25.259 24.2049 25.6608 25.1094 25.7534C26.0139 25.846 26.9227 25.6238 27.6823 25.1241C28.442 24.6245 29.006 23.8781 29.2792 23.0109C29.5524 22.1437 29.5181 21.2088 29.1821 20.364L39.7201 9.82598H42.9591C43.1129 9.82619 43.2652 9.796 43.4073 9.73714C43.5494 9.67827 43.6785 9.5919 43.7871 9.48298L46.9951 6.27598C47.1592 6.11227 47.271 5.90353 47.3164 5.67622C47.3617 5.4489 47.3386 5.21323 47.25 4.99906C47.1613 4.78488 47.0111 4.60184 46.8183 4.47312C46.6255 4.3444 46.3989 4.27579 46.1671 4.27598H43.0621V1.17098C43.0623 0.93918 42.9936 0.712537 42.8649 0.519761C42.7362 0.326984 42.5532 0.176747 42.339 0.0880794C42.1248 -0.000588149 41.8891 -0.0236968 41.6618 0.0216805C41.4345 0.0670578 41.2258 0.178879 41.0621 0.342981L37.8551 3.54998C37.636 3.76987 37.513 4.0676 37.5131 4.37798V7.61798L26.9751 18.155Z" fill="white"/>
<path d="M33.698 8.11892L31.398 10.4039C29.4471 9.39633 27.2696 8.90823 25.0753 8.98667C22.881 9.06511 20.7439 9.70744 18.8699 10.8518C16.996 11.9961 15.4484 13.6038 14.3763 15.52C13.3042 17.4362 12.7438 19.5962 12.749 21.7919C12.7407 23.1861 12.9724 24.5713 13.434 25.8869C12.3294 25.5481 11.1804 25.3762 10.025 25.3769C9.75825 24.2006 9.62408 22.9981 9.625 21.7919C9.62516 18.9785 10.3709 16.2153 11.7863 13.7838C13.2016 11.3523 15.2361 9.33935 17.6825 7.94986C20.1289 6.56036 22.8998 5.84399 25.7131 5.87369C28.5263 5.90339 31.2815 6.67809 33.698 8.11892Z" fill="white"/>
<path d="M50.358 46.607C50.052 46.915 49.6865 47.1576 49.2838 47.3198C48.8811 47.4821 48.4495 47.5607 48.0155 47.5509C47.5814 47.5411 47.1538 47.443 46.7589 47.2627C46.3639 47.0824 46.0098 46.8236 45.718 46.502L34.911 34.639C32.197 36.6378 28.9146 37.7154 25.544 37.714C24.4158 37.715 23.2906 37.5973 22.187 37.363C22.1717 36.2046 21.9822 35.0551 21.625 33.953C22.8874 34.3792 24.2117 34.5931 25.544 34.586C27.7369 34.5901 29.894 34.0294 31.8073 32.958C33.7207 31.8865 35.3258 30.3404 36.4683 28.4686C37.6107 26.5967 38.2518 24.4622 38.3298 22.2707C38.4079 20.0791 37.9203 17.9044 36.914 15.956L39.214 13.656C40.8044 16.3336 41.5739 19.4191 41.4271 22.53C41.2803 25.6408 40.2236 28.6401 38.388 31.156L50.249 41.969C50.5704 42.2608 50.8291 42.6148 51.0093 43.0097C51.1895 43.4046 51.2875 43.832 51.2973 44.266C51.3072 44.6999 51.2286 45.1313 51.0664 45.534C50.9043 45.9366 50.6619 46.302 50.354 46.608" fill="white"/>
<path d="M9.87101 27.8149C7.91871 27.8149 6.01025 28.3939 4.38697 29.4785C2.76369 30.5631 1.4985 32.1048 0.75139 33.9085C0.00427699 35.7122 -0.191202 37.6969 0.189673 39.6117C0.570548 41.5265 1.51067 43.2853 2.89115 44.6658C4.27164 46.0463 6.03048 46.9864 7.94527 47.3673C9.86005 47.7481 11.8448 47.5527 13.6485 46.8056C15.4522 46.0584 16.9938 44.7933 18.0784 43.17C19.1631 41.5467 19.742 39.6382 19.742 37.6859C19.7391 35.0689 18.6982 32.5598 16.8476 30.7093C14.9971 28.8588 12.4881 27.8179 9.87101 27.8149ZM15 36.0159L9.55 41.4659C9.27827 41.7376 8.90976 41.8902 8.52551 41.8902C8.14125 41.8902 7.77274 41.7376 7.501 41.4659L4.561 38.5249C4.42647 38.3903 4.31976 38.2305 4.24697 38.0547C4.17418 37.8789 4.13674 37.6904 4.13679 37.5001C4.13684 37.3098 4.17437 37.1213 4.24724 36.9455C4.32011 36.7697 4.4269 36.61 4.5615 36.4754C4.69611 36.3409 4.8559 36.2342 5.03174 36.1614C5.20758 36.0886 5.39604 36.0512 5.58636 36.0512C5.77667 36.0513 5.96511 36.0888 6.14092 36.1617C6.31673 36.2345 6.47647 36.3413 6.611 36.4759L8.52701 38.3919L12.952 33.9659C13.2251 33.7005 13.5917 33.5533 13.9726 33.5561C14.3534 33.5589 14.7178 33.7116 14.987 33.981C15.2561 34.2504 15.4084 34.615 15.4108 34.9958C15.4133 35.3766 15.2657 35.7431 15 36.0159Z" fill="white"/>
</g>
</svg>
