<svg width="49" height="49" viewBox="0 0 49 49" fill="none" xmlns="http://www.w3.org/2000/svg">
<mask id="mask0_89_2033" style="mask-type:luminance" maskUnits="userSpaceOnUse" x="0" y="0" width="49" height="49">
<path d="M48.615 0H0V48.615H48.615V0Z" fill="white"/>
</mask>
<g mask="url(#mask0_89_2033)">
<path d="M48.5399 16.0361L43.6749 6.68805C43.6304 6.60204 43.5631 6.52991 43.4804 6.47957C43.3977 6.42922 43.3027 6.40259 43.2059 6.40259C43.109 6.40259 43.0141 6.42922 42.9314 6.47957C42.8486 6.52991 42.7814 6.60204 42.7369 6.68805L37.8719 16.0361C37.8257 16.1115 37.8004 16.1979 37.7985 16.2863C37.7966 16.3748 37.8182 16.4622 37.8611 16.5396C37.904 16.6169 37.9666 16.6815 38.0427 16.7268C38.1187 16.772 38.2054 16.7963 38.2939 16.7971H40.7819V41.9631C40.7819 42.0957 40.8346 42.2228 40.9283 42.3166C41.0221 42.4104 41.1493 42.4631 41.2819 42.4631H45.1359C45.2685 42.4631 45.3957 42.4104 45.4894 42.3166C45.5832 42.2228 45.6359 42.0957 45.6359 41.9631V16.8001H48.1229C48.2114 16.7993 48.298 16.775 48.3741 16.7298C48.4501 16.6845 48.5128 16.6199 48.5557 16.5426C48.5986 16.4652 48.6202 16.3778 48.6183 16.2893C48.6164 16.2009 48.5911 16.1145 48.5449 16.0391" fill="white"/>
<path d="M37.724 27.2001L32.859 17.8521C32.8145 17.7661 32.7472 17.694 32.6645 17.6436C32.5818 17.5933 32.4868 17.5667 32.39 17.5667C32.2931 17.5667 32.1982 17.5933 32.1154 17.6436C32.0327 17.694 31.9654 17.7661 31.921 17.8521L27.056 27.2001C27.0098 27.2756 26.9844 27.3619 26.9825 27.4504C26.9806 27.5389 27.0022 27.6262 27.0452 27.7036C27.0881 27.781 27.1507 27.8456 27.2268 27.8908C27.3028 27.9361 27.3895 27.9603 27.478 27.9611H29.966V41.9631C29.966 42.0957 30.0186 42.2229 30.1124 42.3167C30.2062 42.4104 30.3334 42.4631 30.466 42.4631H34.32C34.4526 42.4631 34.5797 42.4104 34.6735 42.3167C34.7673 42.2229 34.82 42.0957 34.82 41.9631V27.9571H37.3C37.3884 27.9563 37.4751 27.9321 37.5512 27.8868C37.6272 27.8416 37.6899 27.777 37.7328 27.6996C37.7757 27.6222 37.7973 27.5349 37.7954 27.4464C37.7935 27.3579 37.7681 27.2716 37.722 27.1961" fill="white"/>
<path d="M5.43597 29.0001V32.7451H5.04697C4.62632 32.7454 4.22297 32.9125 3.92543 33.2099C3.6279 33.5072 3.4605 33.9105 3.45997 34.3311V41.9311C3.45997 42.0714 3.5157 42.206 3.61491 42.3052C3.71411 42.4044 3.84867 42.4601 3.98897 42.4601H25.519C25.6593 42.4601 25.7938 42.4044 25.893 42.3052C25.9922 42.206 26.048 42.0714 26.048 41.9311V34.3311C26.0474 33.9105 25.88 33.5072 25.5825 33.2099C25.285 32.9125 24.8816 32.7454 24.461 32.7451H23.732V29.3281C23.732 25.2561 22.252 22.3371 19.432 20.8781C18.4253 20.3208 17.5751 19.5192 16.9596 18.547C16.3441 17.5748 15.9831 16.4634 15.91 15.3151C16.037 15.3151 16.154 15.3251 16.28 15.3251H19.316C19.912 15.3276 20.4979 15.479 21.0205 15.7654C21.5432 16.0518 21.9861 16.4642 22.309 16.9651C22.6262 17.4625 23.0639 17.8716 23.5816 18.1545C24.0993 18.4374 24.6801 18.5848 25.27 18.5831C26.0257 18.5846 26.7611 18.3387 27.364 17.8831L28.02 17.3961V17.3861C28.5285 17.0093 28.8748 16.4533 28.9887 15.8307C29.1025 15.2081 28.9753 14.5655 28.633 14.0331L22.996 5.21311L25.249 3.07711C25.3044 3.02441 25.3474 2.95997 25.3747 2.88851C25.4021 2.81704 25.4131 2.74037 25.407 2.66411C25.3978 2.58784 25.3723 2.51444 25.3323 2.44888C25.2923 2.38332 25.2386 2.32712 25.175 2.28411C22.5357 0.605663 19.4282 -0.183216 16.308 0.0331074C9.62397 0.445107 3.30797 6.38911 2.52797 13.0331C2.21377 15.6131 2.57846 18.2303 3.58597 20.6261C4.75821 23.2651 5.38736 26.1129 5.43597 29.0001ZM6.01797 13.4431C6.59997 8.48311 11.518 3.85111 16.53 3.53411C16.7935 3.52474 17.0505 3.61731 17.2476 3.79257C17.4446 3.96782 17.5665 4.21228 17.588 4.47511C17.5964 4.60703 17.5787 4.73933 17.5359 4.86442C17.4932 4.98951 17.4262 5.10495 17.3388 5.20413C17.2514 5.30332 17.1453 5.38431 17.0266 5.44247C16.9079 5.50064 16.7789 5.53483 16.647 5.54311C12.67 5.78611 8.47197 9.74311 8.00597 13.6761C7.79656 15.3037 8.02687 16.9577 8.67297 18.4661C10.1308 21.7895 10.9074 25.3714 10.957 29.0001C10.957 29.2666 10.8511 29.5223 10.6626 29.7107C10.4741 29.8992 10.2185 30.0051 9.95197 30.0051C9.68542 30.0051 9.4298 29.8992 9.24132 29.7107C9.05285 29.5223 8.94697 29.2666 8.94697 29.0001C8.89797 25.6404 8.17538 22.3246 6.82197 19.2491C6.04932 17.4178 5.77337 15.4151 6.02197 13.4431" fill="white"/>
<path d="M28.017 45.6331H1.49097C1.10209 45.6431 0.732517 45.8047 0.461026 46.0833C0.189535 46.3619 0.0375977 46.7355 0.0375977 47.1246C0.0375977 47.5136 0.189535 47.8872 0.461026 48.1658C0.732517 48.4444 1.10209 48.606 1.49097 48.6161H28.017C28.4059 48.606 28.7754 48.4444 29.0469 48.1658C29.3184 47.8872 29.4704 47.5136 29.4704 47.1246C29.4704 46.7355 29.3184 46.3619 29.0469 46.0833C28.7754 45.8047 28.4059 45.6431 28.017 45.6331Z" fill="white"/>
</g>
</svg>
