<svg width="50" height="48" viewBox="0 0 50 48" fill="none" xmlns="http://www.w3.org/2000/svg">
<mask id="mask0_89_2008" style="mask-type:luminance" maskUnits="userSpaceOnUse" x="0" y="0" width="50" height="48">
<path d="M49.991 0H0V47.721H49.991V0Z" fill="white"/>
</mask>
<g mask="url(#mask0_89_2008)">
<path d="M24.996 11.8989C22.6302 11.8985 20.3175 12.5997 18.3502 13.9137C16.383 15.2278 14.8496 17.0957 13.944 19.2813C13.0384 21.4668 12.8013 23.8718 13.2625 26.1922C13.7238 28.5125 14.8629 30.6439 16.5356 32.3169C18.2082 33.9899 20.3395 35.1293 22.6598 35.591C24.98 36.0526 27.3851 35.8159 29.5708 34.9106C31.7565 34.0054 33.6247 32.4723 34.939 30.5053C36.2534 28.5383 36.955 26.2257 36.955 23.8599C36.9513 20.689 35.69 17.649 33.4479 15.4067C31.2058 13.1644 28.1669 11.9029 24.996 11.8989ZM31.215 21.8359L24.615 28.4359C24.2855 28.7649 23.839 28.9497 23.3735 28.9497C22.9079 28.9497 22.4614 28.7649 22.132 28.4359L18.568 24.8719C18.2386 24.5425 18.0535 24.0958 18.0535 23.6299C18.0535 23.1641 18.2386 22.7173 18.568 22.3879C18.8974 22.0585 19.3441 21.8735 19.81 21.8735C20.2758 21.8735 20.7226 22.0585 21.052 22.3879L23.373 24.7109L28.734 19.3479C29.0639 19.0189 29.511 18.8345 29.9769 18.8351C30.4429 18.8358 30.8895 19.0215 31.2185 19.3514C31.5475 19.6814 31.7319 20.1285 31.7313 20.5944C31.7306 21.0603 31.5449 21.5069 31.215 21.8359Z" fill="white"/>
<path d="M49.991 23.861C49.991 21.418 45.023 19.789 44.307 17.584C43.565 15.299 46.601 11.068 45.217 9.165C43.817 7.244 38.848 8.832 36.927 7.434C35.025 6.051 35.006 0.824002 32.721 0.0830023C30.517 -0.632998 27.439 3.56 25 3.56C22.561 3.56 19.474 -0.632998 17.269 0.0830023C14.984 0.825002 14.969 6.051 13.064 7.435C11.143 8.835 6.171 7.246 4.773 9.167C3.389 11.067 6.425 15.3 5.683 17.584C4.968 19.79 0 21.418 0 23.861C0 26.304 4.968 27.932 5.684 30.137C6.426 32.422 3.389 36.653 4.773 38.556C6.173 40.477 11.143 38.889 13.064 40.287C14.964 41.671 14.985 46.898 17.27 47.639C19.47 48.355 22.552 44.161 24.995 44.161C27.438 44.161 30.516 48.355 32.722 47.639C35.007 46.897 35.022 41.671 36.927 40.287C38.848 38.887 43.82 40.476 45.218 38.555C46.602 36.655 43.566 32.422 44.308 30.138C45.023 27.933 49.991 26.304 49.991 23.861ZM25 38.707C22.0635 38.708 19.1927 37.8381 16.7506 36.2074C14.3086 34.5767 12.4049 32.2584 11.2805 29.5458C10.1561 26.8331 9.86138 23.8479 10.4337 20.9678C11.0059 18.0876 12.4195 15.4418 14.4955 13.3651C16.5716 11.2883 19.2169 9.87387 22.0968 9.30063C24.9768 8.72739 27.9621 9.0211 30.6752 10.1446C33.3882 11.2681 35.7071 13.171 37.3386 15.6125C38.9702 18.054 39.841 20.9245 39.841 23.861C39.8368 27.7962 38.272 31.5692 35.4898 34.3523C32.7076 37.1354 28.9352 38.7014 25 38.707Z" fill="white"/>
</g>
</svg>
