<svg width="50" height="50" viewBox="0 0 50 50" fill="none" xmlns="http://www.w3.org/2000/svg">
<mask id="mask0_89_2015" style="mask-type:luminance" maskUnits="userSpaceOnUse" x="0" y="0" width="50" height="50">
<path d="M49.291 0H0V49.299H49.291V0Z" fill="white"/>
</mask>
<g mask="url(#mask0_89_2015)">
<path d="M44.1259 11.031C44.0784 11.1139 44.0096 11.1826 43.9266 11.2299C43.8436 11.2772 43.7494 11.3014 43.6539 11.3H40.9989V22.023C39.6922 21.6643 38.343 21.484 36.9879 21.487C35.8251 21.4828 34.6659 21.6171 33.5349 21.887V11.3H30.8759C30.7801 11.303 30.6853 11.2794 30.6021 11.2319C30.5188 11.1845 30.4502 11.115 30.4039 11.031C30.358 10.9468 30.3348 10.8521 30.3365 10.7562C30.3383 10.6603 30.3649 10.5665 30.4139 10.484L36.8169 0.233039C36.8679 0.161216 36.9354 0.10265 37.0137 0.0622353C37.092 0.0218209 37.1788 0.000732422 37.2669 0.000732422C37.355 0.000732422 37.4418 0.0218209 37.5201 0.0622353C37.5984 0.10265 37.6659 0.161216 37.7169 0.233039L44.1079 10.484C44.1586 10.5656 44.1871 10.6589 44.1908 10.7548C44.1945 10.8507 44.1732 10.9459 44.1289 11.031" fill="white"/>
<path d="M28.957 19.9209C28.9123 20.0046 28.8459 20.0748 28.7648 20.1241C28.6837 20.1733 28.5908 20.1999 28.496 20.2009H25.825V26.2369C23.4311 28.7116 21.931 31.914 21.5621 35.3372C21.1931 38.7604 21.9764 42.2089 23.788 45.1369H1.53695C1.13038 45.1369 0.740453 44.9754 0.45296 44.6879C0.165466 44.4004 0.00395425 44.0105 0.00395425 43.6039C0.00395425 43.1973 0.165466 42.8074 0.45296 42.5199C0.740453 42.2324 1.13038 42.0709 1.53695 42.0709H3.19995V29.0899H0.538954C0.442686 29.089 0.348349 29.0628 0.265473 29.0138C0.182597 28.9648 0.114118 28.8948 0.0669543 28.8109C0.0210858 28.7284 -0.00206496 28.6353 -0.000132326 28.5409C0.00180031 28.4466 0.0287471 28.3544 0.0779543 28.2739L6.47795 18.0119C6.52884 17.9399 6.59627 17.8811 6.67457 17.8406C6.75288 17.8 6.83977 17.7789 6.92795 17.7789C7.01614 17.7789 7.10303 17.8 7.18133 17.8406C7.25964 17.8811 7.32707 17.9399 7.37795 18.0119L13.769 28.2739C13.8197 28.3535 13.8484 28.4452 13.8521 28.5396C13.8558 28.6339 13.8343 28.7276 13.79 28.8109C13.743 28.8948 13.6747 28.9648 13.592 29.0138C13.5093 29.0628 13.4151 29.0891 13.319 29.0899H10.659V42.0759H18.369V20.2009H15.7C15.6048 20.2012 15.5114 20.1752 15.43 20.1258C15.3487 20.0764 15.2826 20.0055 15.239 19.9209C15.1904 19.8395 15.1655 19.7462 15.1673 19.6515C15.1691 19.5567 15.1974 19.4644 15.249 19.3849L21.643 9.1339C21.695 9.06162 21.7635 9.00276 21.8428 8.96216C21.9221 8.92156 22.0099 8.90039 22.099 8.90039C22.188 8.90039 22.2758 8.92156 22.3551 8.96216C22.4344 9.00276 22.5029 9.06162 22.555 9.1339L28.946 19.3849C28.9954 19.4652 29.0224 19.5572 29.0244 19.6514C29.0263 19.7456 29.003 19.8387 28.957 19.9209Z" fill="white"/>
<path d="M36.9899 24.71C34.5589 24.7111 32.1828 25.433 30.162 26.7844C28.1412 28.1357 26.5663 30.0558 25.6366 32.302C24.7068 34.5482 24.4639 37.0196 24.9384 39.4039C25.413 41.7881 26.5838 43.9781 28.3027 45.6971C30.0217 47.4161 32.2118 48.5869 34.596 49.0614C36.9802 49.536 39.4517 49.293 41.6978 48.3633C43.944 47.4335 45.8642 45.8587 47.2155 43.8379C48.5668 41.8171 49.2887 39.441 49.2899 37.01C49.2908 35.3944 48.9733 33.7946 48.3555 32.3019C47.7377 30.8091 46.8317 29.4528 45.6894 28.3105C44.547 27.1682 43.1907 26.2622 41.698 25.6444C40.2053 25.0266 38.6054 24.709 36.9899 24.71ZM35.6389 34.801C36.2346 35.2244 36.8981 35.5433 37.6009 35.744C38.0949 35.927 38.6089 36.109 39.1449 36.355C39.6237 36.5764 40.0522 36.8931 40.4044 37.2858C40.7565 37.6786 41.0248 38.139 41.1929 38.639C41.3725 39.1856 41.4395 39.7629 41.3898 40.336C41.3401 40.9092 41.1748 41.4664 40.9039 41.974C40.6348 42.4734 40.259 42.9075 39.8033 43.2453C39.3475 43.5832 38.823 43.8166 38.2669 43.929V45.023C38.2717 45.1936 38.2422 45.3635 38.1802 45.5225C38.1182 45.6816 38.0249 45.8266 37.9059 45.9489C37.7869 46.0713 37.6446 46.1686 37.4873 46.235C37.3301 46.3015 37.1611 46.3357 36.9904 46.3357C36.8197 46.3357 36.6507 46.3015 36.4935 46.235C36.3362 46.1686 36.1939 46.0713 36.0749 45.9489C35.9559 45.8266 35.8626 45.6816 35.8006 45.5225C35.7386 45.3635 35.7091 45.1936 35.7139 45.023V43.905C34.8661 43.7448 34.0951 43.3087 33.521 42.6646C32.9469 42.0205 32.6019 41.2046 32.5399 40.344C32.5399 40.0055 32.6743 39.681 32.9136 39.4417C33.1529 39.2024 33.4775 39.068 33.8159 39.068C34.1543 39.068 34.4789 39.2024 34.7182 39.4417C34.9575 39.681 35.0919 40.0055 35.0919 40.344C35.0919 40.934 36.0139 41.524 36.9469 41.524C37.273 41.5682 37.6051 41.5204 37.9055 41.386C38.2059 41.2515 38.4627 41.0357 38.6469 40.763C38.8557 40.3592 38.8984 39.8898 38.7659 39.455C38.7104 39.2828 38.6184 39.1247 38.4962 38.9913C38.374 38.8579 38.2245 38.7524 38.0579 38.682C37.6245 38.4827 37.1805 38.3075 36.7279 38.157C35.7411 37.8582 34.8153 37.3862 33.9939 36.763C33.4391 36.2997 33.0269 35.6888 32.805 35.0009C32.5831 34.3131 32.5606 33.5764 32.7401 32.8763C32.9195 32.1762 33.2936 31.5412 33.819 31.0449C34.3444 30.5486 34.9997 30.2113 35.7089 30.072V28.988C35.7182 28.6556 35.8568 28.34 36.0952 28.1082C36.3335 27.8764 36.6529 27.7467 36.9854 27.7467C37.3179 27.7467 37.6373 27.8764 37.8757 28.1082C38.114 28.34 38.2526 28.6556 38.2619 28.988V30.114C39.1096 30.2701 39.8814 30.7036 40.456 31.3462C41.0305 31.9888 41.3752 32.8041 41.4359 33.664C41.4359 34.0024 41.3015 34.3269 41.0622 34.5662C40.8229 34.8055 40.4983 34.94 40.1599 34.94C39.8215 34.94 39.4969 34.8055 39.2576 34.5662C39.0183 34.3269 38.8839 34.0024 38.8839 33.664C38.8839 33.074 37.9619 32.485 37.0289 32.485C35.6779 32.485 35.3889 33.106 35.2919 33.311C35.1843 33.5637 35.1596 33.844 35.2212 34.1117C35.2828 34.3794 35.4276 34.6207 35.6349 34.801" fill="white"/>
</g>
</svg>
