<svg width="49" height="49" viewBox="0 0 49 49" fill="none" xmlns="http://www.w3.org/2000/svg">
<mask id="mask0_89_2001" style="mask-type:luminance" maskUnits="userSpaceOnUse" x="0" y="0" width="49" height="49">
<path d="M48.615 0H0V48.615H48.615V0Z" fill="white"/>
</mask>
<g mask="url(#mask0_89_2001)">
<path d="M47.126 45.6371H45.971V17.3001C45.9705 16.8796 45.8032 16.4765 45.5059 16.1792C45.2086 15.8819 44.8055 15.7146 44.385 15.7141H40.155C39.7344 15.7146 39.3312 15.8819 39.0338 16.1792C38.7363 16.4765 38.5688 16.8795 38.568 17.3001V45.6371H34V28.0371C33.9995 27.6165 33.8321 27.2132 33.5345 26.9159C33.237 26.6185 32.8336 26.4514 32.413 26.4511H28.18C27.7594 26.4514 27.3562 26.6186 27.0588 26.9159C26.7614 27.2133 26.5943 27.6166 26.594 28.0371V45.6371H22.021V21.1871C22.0207 20.7665 21.8536 20.3631 21.5562 20.0656C21.2589 19.768 20.8556 19.6006 20.435 19.6001H16.2C15.7793 19.6006 15.3759 19.768 15.0784 20.0655C14.7809 20.363 14.6135 20.7664 14.613 21.1871V45.6371H10.047V33.0181C10.0462 32.5975 9.87872 32.1945 9.58124 31.8972C9.28376 31.5999 8.88056 31.4326 8.46 31.4321H4.23C3.80953 31.4326 3.40643 31.5999 3.10911 31.8972C2.8118 32.1945 2.64453 32.5976 2.644 33.0181V45.6371H1.489C1.09409 45.6371 0.71536 45.794 0.436118 46.0732C0.156876 46.3525 0 46.7312 0 47.1261C0 47.521 0.156876 47.8997 0.436118 48.179C0.71536 48.4582 1.09409 48.6151 1.489 48.6151H47.126C47.3215 48.6151 47.5152 48.5766 47.6958 48.5018C47.8765 48.4269 48.0406 48.3173 48.1789 48.179C48.3172 48.0407 48.4268 47.8766 48.5017 47.6959C48.5765 47.5153 48.615 47.3216 48.615 47.1261C48.615 46.9306 48.5765 46.7369 48.5017 46.5563C48.4268 46.3756 48.3172 46.2115 48.1789 46.0732C48.0406 45.935 47.8765 45.8253 47.6958 45.7505C47.5152 45.6756 47.3215 45.6371 47.126 45.6371Z" fill="white"/>
<path d="M42.27 0C41.2892 0.00158665 40.349 0.391917 39.6554 1.08546C38.9619 1.779 38.5716 2.71919 38.57 3.7C38.5757 4.08755 38.6432 4.47171 38.77 4.838L31.819 11.069C31.2228 10.7938 30.563 10.6856 29.9101 10.756C29.2573 10.8265 28.6358 11.0729 28.112 11.469L21.983 7.963C22.0031 7.83783 22.0161 7.71163 22.022 7.585C22.022 6.6037 21.6322 5.66259 20.9383 4.9687C20.2444 4.27482 19.3033 3.885 18.322 3.885C17.3407 3.885 16.3996 4.27482 15.7057 4.9687C15.0118 5.66259 14.622 6.6037 14.622 7.585C14.6232 8.03493 14.7076 8.48076 14.871 8.9L7.69999 15.981C6.96363 15.6915 6.15385 15.6456 5.3895 15.8501C4.62516 16.0547 3.94652 16.4989 3.45319 17.1175C2.95987 17.7361 2.67785 18.4966 2.64854 19.2873C2.61922 20.078 2.84415 20.8572 3.29031 21.5107C3.73647 22.1641 4.38036 22.6574 5.12746 22.9179C5.87456 23.1785 6.68551 23.1927 7.44129 22.9585C8.19707 22.7243 8.85785 22.254 9.32665 21.6166C9.79545 20.9791 10.0476 20.2082 10.046 19.417C10.0459 18.9666 9.96246 18.5201 9.79999 18.1L16.969 11.016C17.5496 11.2511 18.1813 11.3317 18.8024 11.25C19.4235 11.1684 20.0128 10.9272 20.513 10.55L26.637 14.05C26.6177 14.1753 26.6051 14.3014 26.599 14.428C26.599 15.4093 26.9888 16.3504 27.6827 17.0443C28.3766 17.7382 29.3177 18.128 30.299 18.128C31.2803 18.128 32.2214 17.7382 32.9153 17.0443C33.6092 16.3504 33.999 15.4093 33.999 14.428C33.9933 14.0401 33.9258 13.6556 33.799 13.289L40.749 7.058C41.2255 7.27997 41.7443 7.39662 42.27 7.4C42.7559 7.4 43.237 7.3043 43.6859 7.11835C44.1348 6.93241 44.5427 6.65987 44.8863 6.3163C45.2299 5.97272 45.5024 5.56483 45.6883 5.11593C45.8743 4.66702 45.97 4.18589 45.97 3.7C45.97 3.21411 45.8743 2.73298 45.6883 2.28407C45.5024 1.83517 45.2299 1.42728 44.8863 1.0837C44.5427 0.740128 44.1348 0.467588 43.6859 0.281646C43.237 0.0957033 42.7559 -7.24034e-09 42.27 0Z" fill="white"/>
</g>
</svg>
