<svg width="48" height="48" viewBox="0 0 48 48" fill="none" xmlns="http://www.w3.org/2000/svg">
<mask id="mask0_89_1993" style="mask-type:luminance" maskUnits="userSpaceOnUse" x="0" y="0" width="48" height="48">
<path d="M47.735 0H0V47.765H47.735V0Z" fill="white"/>
</mask>
<g mask="url(#mask0_89_1993)">
<path d="M46.611 8.16803C46.155 7.6179 45.5832 7.17526 44.9363 6.87171C44.2895 6.56816 43.5835 6.41119 42.869 6.41203H9.86901L9.415 3.73003C9.23106 2.68244 8.68279 1.73358 7.86706 1.05105C7.05132 0.368527 6.02061 -0.003735 4.957 2.82551e-05H1.517C1.116 2.82551e-05 0.731414 0.159328 0.447859 0.442883C0.164304 0.726438 0.00500488 1.11102 0.00500488 1.51203C0.00500488 1.91304 0.164304 2.29762 0.447859 2.58117C0.731414 2.86473 1.116 3.02403 1.517 3.02403H4.957C5.30905 3.02163 5.65073 3.14313 5.92222 3.36727C6.1937 3.59141 6.3777 3.90389 6.442 4.25003L7.05601 7.88803V7.91803C7.05437 8.09564 7.08591 8.27199 7.149 8.43803L11.181 32.175V32.186C11.249 33.2514 11.7195 34.2511 12.4972 34.9825C13.2748 35.714 14.3014 36.1224 15.369 36.125H42.5C42.6979 36.125 42.8939 36.086 43.0767 36.0103C43.2595 35.9346 43.4257 35.8236 43.5656 35.6836C43.7056 35.5437 43.8166 35.3776 43.8923 35.1947C43.968 35.0119 44.007 34.8159 44.007 34.618C44.007 34.4201 43.968 34.2242 43.8923 34.0413C43.8166 33.8585 43.7056 33.6924 43.5656 33.5524C43.4257 33.4125 43.2595 33.3015 43.0767 33.2257C42.8939 33.15 42.6979 33.111 42.5 33.111H15.37C15.0535 33.1097 14.7503 32.9834 14.5265 32.7596C14.3026 32.5357 14.1763 32.2326 14.175 31.916C14.1755 31.7593 14.2071 31.6042 14.2678 31.4596C14.3286 31.3151 14.4174 31.1841 14.529 31.074C14.7536 30.8539 15.0556 30.7308 15.37 30.731H39.761C40.8917 30.7331 41.9877 30.3409 42.8604 29.622C43.7331 28.903 44.3277 27.9022 44.542 26.792L47.649 12.211V12.17C47.7815 11.4679 47.757 10.7452 47.5774 10.0537C47.3978 9.36215 47.0674 8.71891 46.61 8.17003M21.2 23.185C21.2 23.586 21.0407 23.9706 20.7572 24.2542C20.4736 24.5377 20.089 24.697 19.688 24.697C19.287 24.697 18.9024 24.5377 18.6189 24.2542C18.3353 23.9706 18.176 23.586 18.176 23.185V13.957C18.176 13.556 18.3353 13.1714 18.6189 12.8879C18.9024 12.6043 19.287 12.445 19.688 12.445C20.089 12.445 20.4736 12.6043 20.7572 12.8879C21.0407 13.1714 21.2 13.556 21.2 13.957V23.185ZM29.119 23.185C29.119 23.5847 28.9602 23.968 28.6776 24.2506C28.395 24.5333 28.0117 24.692 27.612 24.692C27.2123 24.692 26.829 24.5333 26.5464 24.2506C26.2638 23.968 26.105 23.5847 26.105 23.185V13.957C26.105 13.5573 26.2638 13.174 26.5464 12.8914C26.829 12.6088 27.2123 12.45 27.612 12.45C28.0117 12.45 28.395 12.6088 28.6776 12.8914C28.9602 13.174 29.119 13.5573 29.119 13.957V23.185ZM37.048 23.185C37.048 23.5847 36.8892 23.968 36.6066 24.2506C36.324 24.5333 35.9407 24.692 35.541 24.692C35.1413 24.692 34.758 24.5333 34.4754 24.2506C34.1928 23.968 34.034 23.5847 34.034 23.185V13.957C34.034 13.5573 34.1928 13.174 34.4754 12.8914C34.758 12.6088 35.1413 12.45 35.541 12.45C35.9407 12.45 36.324 12.6088 36.6066 12.8914C36.8892 13.174 37.048 13.5573 37.048 13.957V23.185Z" fill="white"/>
<path d="M12.725 43.456C12.725 42.6036 12.9778 41.7703 13.4513 41.0615C13.9249 40.3527 14.5981 39.8003 15.3856 39.4741C16.1732 39.1479 17.0398 39.0625 17.8758 39.2288C18.7119 39.3951 19.4798 39.8056 20.0826 40.4084C20.6854 41.0111 21.0959 41.7791 21.2622 42.6152C21.4285 43.4512 21.3431 44.3178 21.0169 45.1054C20.6907 45.8929 20.1383 46.566 19.4295 47.0396C18.7207 47.5132 17.8874 47.766 17.035 47.766C15.8919 47.766 14.7956 47.3119 13.9873 46.5036C13.1791 45.6953 12.725 44.5991 12.725 43.456Z" fill="white"/>
<path d="M33.882 43.456C33.882 42.6036 34.1347 41.7703 34.6083 41.0615C35.0819 40.3527 35.755 39.8003 36.5426 39.4741C37.3301 39.1479 38.1967 39.0625 39.0328 39.2288C39.8689 39.3951 40.6368 39.8056 41.2396 40.4084C41.8424 41.0111 42.2528 41.7791 42.4191 42.6152C42.5854 43.4512 42.5001 44.3178 42.1739 45.1054C41.8477 45.8929 41.2952 46.566 40.5865 47.0396C39.8777 47.5132 39.0444 47.766 38.192 47.766C37.0489 47.766 35.9526 47.3119 35.1443 46.5036C34.336 45.6953 33.882 44.5991 33.882 43.456Z" fill="white"/>
</g>
</svg>
