<svg width="43" height="43" viewBox="0 0 43 43" fill="none" xmlns="http://www.w3.org/2000/svg">
<path fill-rule="evenodd" clip-rule="evenodd" d="M23.4001 28.7752C22.8962 29.2784 22.2131 29.5611 21.5009 29.5611C20.7887 29.5611 20.1057 29.2784 19.6018 28.7752L9.4645 18.6415C8.96058 18.1373 8.67757 17.4536 8.67773 16.7408C8.6779 16.028 8.96123 15.3444 9.4654 14.8405C9.96956 14.3366 10.6533 14.0535 11.3661 14.0537C12.0789 14.0539 12.7625 14.3372 13.2664 14.8414L21.5009 23.0759L29.7354 14.8414C30.2421 14.3516 30.9208 14.0804 31.6255 14.0862C32.3301 14.092 33.0043 14.3743 33.5028 14.8723C34.0014 15.3704 34.2843 16.0443 34.2908 16.749C34.2972 17.4536 34.0267 18.1326 33.5373 18.6397L23.4019 28.777L23.4001 28.7752Z" fill="#F5D247"/>
</svg>
