<svg width="129" height="32" viewBox="0 0 129 32" fill="none" xmlns="http://www.w3.org/2000/svg">
<path d="M5.86705 26.2032C4.85111 26.2032 3.9537 25.9577 3.17481 25.4666C2.39593 24.9587 1.78636 24.256 1.34612 23.3586C0.922812 22.4442 0.711158 21.3944 0.711158 20.2091H3.12402C3.12402 21.3605 3.36954 22.2918 3.86057 23.003C4.36854 23.6972 5.03737 24.0443 5.86705 24.0443H8.00053C8.86408 24.0443 9.54984 23.6803 10.0578 22.9522C10.5658 22.2241 10.8198 21.2251 10.8198 19.9552V8.22105H13.2326V20.006C13.2326 21.9193 12.767 23.4348 11.8357 24.5523C10.9214 25.6529 9.6599 26.2032 8.05133 26.2032H5.86705ZM22.4501 26.2032C21.2987 26.2032 20.2828 25.9577 19.4023 25.4666C18.5387 24.9587 17.8699 24.2475 17.3958 23.3332C16.9217 22.4188 16.6846 21.369 16.6846 20.1837V8.22105H19.0975V20.1837C19.0975 21.3351 19.4023 22.2664 20.0118 22.9776C20.6383 23.6887 21.4511 24.0443 22.4501 24.0443H25.1677C26.1667 24.0443 26.971 23.6887 27.5806 22.9776C28.2071 22.2664 28.5203 21.3351 28.5203 20.1837V8.22105H30.9332V20.1837C30.9332 21.369 30.6961 22.4188 30.222 23.3332C29.7479 24.2475 29.0706 24.9587 28.1902 25.4666C27.3266 25.9577 26.3191 26.2032 25.1677 26.2032H22.4501ZM36.5252 26C35.9326 26 35.4585 25.8307 35.1029 25.492C34.7643 25.1534 34.5949 24.6962 34.5949 24.1205V8.22105H37.0078V23.8665H46.6592V26H36.5252ZM68.8067 24.0443C68.8067 23.0792 68.9761 22.241 69.3147 21.5299C69.6703 20.8187 70.246 20.1922 71.0418 19.6504L77.3406 15.2056C77.7301 14.9347 78.0264 14.6215 78.2296 14.2659C78.4497 13.8934 78.5598 13.5124 78.5598 13.123V12.3102C78.5598 11.6668 78.3396 11.1503 77.8994 10.7609C77.4592 10.3715 76.8665 10.1767 76.1215 10.1767H73.7848C72.9721 10.1767 72.3202 10.4646 71.8292 11.0403C71.355 11.599 71.118 12.3695 71.118 13.3515H68.7051C68.7051 11.7091 69.1538 10.4138 70.0513 9.46557C70.9656 8.50043 72.1932 8.01786 73.734 8.01786H76.1215C77.5777 8.01786 78.746 8.41577 79.6265 9.21159C80.5239 9.99048 80.9726 11.0233 80.9726 12.3102V13.123C80.9726 14.6638 80.2615 15.9168 78.8391 16.8819L72.7181 21.0981C72.1763 21.4706 71.7868 21.86 71.5498 22.2664C71.3296 22.6728 71.2196 23.2062 71.2196 23.8665H81.1758V26H68.8067V24.0443ZM89.0095 26.2032C87.9258 26.2032 86.9691 25.9577 86.1394 25.4666C85.3097 24.9756 84.6663 24.2898 84.2091 23.4094C83.752 22.5119 83.5234 21.4875 83.5234 20.3361V13.8849C83.5234 12.7335 83.752 11.7176 84.2091 10.8371C84.6663 9.93968 85.3097 9.24545 86.1394 8.75442C86.9691 8.26338 87.9258 8.01786 89.0095 8.01786H91.7017C92.7684 8.01786 93.7082 8.26338 94.5209 8.75442C95.3506 9.24545 95.9856 9.93968 96.4258 10.8371C96.883 11.7176 97.1116 12.7335 97.1116 13.8849V20.3361C97.1116 21.4875 96.883 22.5119 96.4258 23.4094C95.9856 24.2898 95.3591 24.9756 94.5463 25.4666C93.7336 25.9577 92.7854 26.2032 91.7017 26.2032H89.0095ZM91.6509 24.0443C92.5652 24.0443 93.3018 23.7057 93.8606 23.0284C94.4193 22.3511 94.6987 21.4537 94.6987 20.3361V13.8849C94.6987 12.7674 94.4193 11.87 93.8606 11.1927C93.3018 10.5154 92.5652 10.1767 91.6509 10.1767H89.0603C88.129 10.1767 87.3755 10.5154 86.7998 11.1927C86.2241 11.87 85.9362 12.7674 85.9362 13.8849V20.3361C85.9362 21.4537 86.2241 22.3511 86.7998 23.0284C87.3755 23.7057 88.129 24.0443 89.0603 24.0443H91.6509ZM99.8108 24.0443C99.8108 23.0792 99.9801 22.241 100.319 21.5299C100.674 20.8187 101.25 20.1922 102.046 19.6504L108.345 15.2056C108.734 14.9347 109.03 14.6215 109.234 14.2659C109.454 13.8934 109.564 13.5124 109.564 13.123V12.3102C109.564 11.6668 109.344 11.1503 108.903 10.7609C108.463 10.3715 107.871 10.1767 107.126 10.1767H104.789C103.976 10.1767 103.324 10.4646 102.833 11.0403C102.359 11.599 102.122 12.3695 102.122 13.3515H99.7092C99.7092 11.7091 100.158 10.4138 101.055 9.46557C101.97 8.50043 103.197 8.01786 104.738 8.01786H107.126C108.582 8.01786 109.75 8.41577 110.631 9.21159C111.528 9.99048 111.977 11.0233 111.977 12.3102V13.123C111.977 14.6638 111.265 15.9168 109.843 16.8819L103.722 21.0981C103.18 21.4706 102.791 21.86 102.554 22.2664C102.334 22.6728 102.224 23.2062 102.224 23.8665H112.18V26H99.8108V24.0443ZM120.217 26.2032C119.082 26.2032 118.083 25.9577 117.22 25.4666C116.373 24.9756 115.713 24.2814 115.239 23.384C114.764 22.4696 114.527 21.4283 114.527 20.2599V13.9357C114.527 12.7335 114.756 11.6922 115.213 10.8117C115.687 9.91428 116.348 9.22852 117.194 8.75442C118.041 8.26338 119.023 8.01786 120.14 8.01786H122.325C123.781 8.01786 124.958 8.46657 125.855 9.36398C126.753 10.2614 127.201 11.4467 127.201 12.9198H124.839C124.839 12.0901 124.602 11.4297 124.128 10.9387C123.671 10.4307 123.07 10.1767 122.325 10.1767H120.14C119.158 10.1767 118.38 10.5154 117.804 11.1927C117.228 11.853 116.94 12.7674 116.94 13.9357V16.7041C117.381 16.0607 117.956 15.5612 118.667 15.2056C119.395 14.8331 120.132 14.6469 120.877 14.6469H122.528C124.103 14.6469 125.356 15.121 126.287 16.0692C127.235 17.0005 127.709 18.2281 127.709 19.752V20.7425C127.709 21.8262 127.472 22.7829 126.998 23.6125C126.541 24.4253 125.881 25.0603 125.017 25.5174C124.17 25.9746 123.188 26.2032 122.071 26.2032H120.217ZM122.071 24.0951C123.036 24.0951 123.815 23.7903 124.407 23.1808C125 22.5712 125.296 21.7584 125.296 20.7425V19.7266C125.296 18.8292 125.042 18.1095 124.534 17.5677C124.026 17.0259 123.349 16.7549 122.503 16.7549H120.826C119.878 16.7549 119.057 17.0682 118.363 17.6947C117.685 18.3212 117.254 19.1001 117.067 20.0314V20.9457C117.067 21.8939 117.355 22.6559 117.931 23.2316C118.523 23.8073 119.302 24.0951 120.267 24.0951H122.071Z" fill="white"/>
<circle cx="56.7127" cy="17.109" r="2.25764" fill="#F5A205"/>
</svg>
