<svg width="435" height="93" viewBox="0 0 435 93" fill="none" xmlns="http://www.w3.org/2000/svg">
<mask id="path-1-inside-1_915_126" fill="white">
<path d="M0.0008354 -38.7513H33.5241V90.1842H0.0008354V-38.7513ZM1.106 -56.0655L20.2621 -100.456H50.2857L20.2621 -56.0655H1.106ZM55.9424 -38.9355H89.4657L139.751 36.3997V-38.9355H173.274V90H139.751L89.4657 14.849V90H55.9424V-38.9355ZM262.324 25.5322C262.324 -17.2007 286.822 -41.6984 329.555 -41.6984C363.078 -41.6984 385.181 -26.7787 393.47 0.113515L358.842 10.6126C354.421 -3.75454 343.738 -12.0433 329.555 -12.0433C309.662 -12.0433 298.426 1.58707 298.426 25.5322C298.426 49.6616 309.662 63.2919 329.555 63.2919C345.764 63.2919 355.71 55.0032 357.921 40.2677H325.503V19.8222H393.47V90H373.025V77.659C363.078 87.9739 347.79 92.9471 329.555 92.9471C286.822 92.9471 262.324 68.4493 262.324 25.5322ZM413.357 90V-38.9355H477.457C514.479 -38.9355 535.662 -19.5952 535.662 5.45513C535.662 22.2167 526.084 36.3997 508.585 43.9516L534.925 90H496.613L473.404 49.6616H446.88V90H413.357ZM482.798 19.8222C493.85 19.8222 499.56 11.7177 499.56 5.45513C499.56 -0.807452 493.85 -9.09617 482.798 -9.09617H446.88V19.8222H482.798Z"/>
</mask>
<path d="M0.000835419 -38.7513V-40.1708H-1.41866V-38.7513H0.000835419ZM33.5241 -38.7513H34.9436V-40.1708H33.5241V-38.7513ZM33.5241 90.1842V91.6037H34.9436V90.1842H33.5241ZM0.000835419 90.1842H-1.41866V91.6037H0.000835419V90.1842ZM1.106 -56.0655L-0.197319 -56.628L-1.05259 -54.646H1.106V-56.0655ZM20.2621 -100.456V-101.876H19.3287L18.9588 -101.019L20.2621 -100.456ZM50.2857 -100.456L51.4615 -99.6609L52.9594 -101.876H50.2857V-100.456ZM20.2621 -56.0655V-54.646H21.0157L21.4379 -55.2703L20.2621 -56.0655ZM0.000835419 -38.7513V-37.3318H33.5241V-38.7513V-40.1708H0.000835419V-38.7513ZM33.5241 -38.7513H32.1046V90.1842H33.5241H34.9436V-38.7513H33.5241ZM33.5241 90.1842V88.7647H0.000835419V90.1842V91.6037H33.5241V90.1842ZM0.000835419 90.1842H1.42033V-38.7513H0.000835419H-1.41866V90.1842H0.000835419ZM1.106 -56.0655L2.40931 -55.5031L21.5654 -99.8938L20.2621 -100.456L18.9588 -101.019L-0.197319 -56.628L1.106 -56.0655ZM20.2621 -100.456V-99.0367H50.2857V-100.456V-101.876H20.2621V-100.456ZM50.2857 -100.456L49.1099 -101.251L19.0863 -56.8608L20.2621 -56.0655L21.4379 -55.2703L51.4615 -99.6609L50.2857 -100.456ZM20.2621 -56.0655V-57.485H1.106V-56.0655V-54.646H20.2621V-56.0655ZM55.9424 -38.9355V-40.355H54.523V-38.9355H55.9424ZM89.4657 -38.9355L90.6463 -39.7236L90.2249 -40.355H89.4657V-38.9355ZM139.751 36.3997L138.57 37.1877L141.17 41.0832V36.3997H139.751ZM139.751 -38.9355V-40.355H138.331V-38.9355H139.751ZM173.274 -38.9355H174.693V-40.355H173.274V-38.9355ZM173.274 90V91.4195H174.693V90H173.274ZM139.751 90L138.571 90.7894L138.992 91.4195H139.751V90ZM89.4657 14.849L90.6454 14.0596L88.0462 10.175V14.849H89.4657ZM89.4657 90V91.4195H90.8852V90H89.4657ZM55.9424 90H54.523V91.4195H55.9424V90ZM55.9424 -38.9355V-37.516H89.4657V-38.9355V-40.355H55.9424V-38.9355ZM89.4657 -38.9355L88.285 -38.1475L138.57 37.1877L139.751 36.3997L140.931 35.6116L90.6463 -39.7236L89.4657 -38.9355ZM139.751 36.3997H141.17V-38.9355H139.751H138.331V36.3997H139.751ZM139.751 -38.9355V-37.516H173.274V-38.9355V-40.355H139.751V-38.9355ZM173.274 -38.9355H171.854V90H173.274H174.693V-38.9355H173.274ZM173.274 90V88.5805H139.751V90V91.4195H173.274V90ZM139.751 90L140.93 89.2106L90.6454 14.0596L89.4657 14.849L88.2859 15.6384L138.571 90.7894L139.751 90ZM89.4657 14.849H88.0462V90H89.4657H90.8852V14.849H89.4657ZM89.4657 90V88.5805H55.9424V90V91.4195H89.4657V90ZM55.9424 90H57.3619V-38.9355H55.9424H54.523V90H55.9424ZM393.47 0.113514L393.882 1.47194L395.247 1.05818L394.827 -0.304592L393.47 0.113514ZM358.842 10.6126L357.485 11.03L357.901 12.3812L359.254 11.971L358.842 10.6126ZM357.921 40.2677L359.324 40.4783L359.569 38.8482H357.921V40.2677ZM325.503 40.2677H324.083V41.6872H325.503V40.2677ZM325.503 19.8222V18.4027H324.083V19.8222H325.503ZM393.47 19.8222H394.89V18.4027H393.47V19.8222ZM393.47 90V91.4195H394.89V90H393.47ZM373.025 90H371.605V91.4195H373.025V90ZM373.025 77.659H374.444V74.142L372.003 76.6737L373.025 77.659ZM262.324 25.5322H263.744C263.744 4.43392 269.786 -11.9723 280.918 -23.1042C292.05 -34.2362 308.457 -40.2789 329.555 -40.2789V-41.6984V-43.1179C307.92 -43.1179 290.711 -36.9118 278.911 -25.1117C267.111 -13.3115 260.905 3.89763 260.905 25.5322H262.324ZM329.555 -41.6984V-40.2789C346.11 -40.2789 359.727 -36.5953 370.194 -29.6921C380.646 -22.7985 388.057 -12.63 392.114 0.53162L393.47 0.113514L394.827 -0.304592C390.595 -14.0352 382.809 -24.7727 371.757 -32.062C360.719 -39.3417 346.523 -43.1179 329.555 -43.1179V-41.6984ZM393.47 0.113514L393.058 -1.24491L358.43 9.25412L358.842 10.6126L359.254 11.971L393.882 1.47194L393.47 0.113514ZM358.842 10.6126L360.198 10.1951C355.61 -4.71587 344.413 -13.4628 329.555 -13.4628V-12.0433V-10.6238C343.062 -10.6238 353.232 -2.79322 357.485 11.03L358.842 10.6126ZM329.555 -12.0433V-13.4628C319.26 -13.4628 311.047 -9.92011 305.437 -3.13981C299.86 3.60056 297.007 13.3599 297.007 25.5322H298.426H299.846C299.846 13.7594 302.61 4.73099 307.624 -1.33009C312.606 -7.35124 319.957 -10.6238 329.555 -10.6238V-12.0433ZM298.426 25.5322H297.007C297.007 37.7944 299.859 47.5995 305.435 54.3635C311.045 61.1685 319.26 64.7114 329.555 64.7114V63.2919V61.8724C319.957 61.8724 312.607 58.6002 307.626 52.5577C302.611 46.4741 299.846 37.3994 299.846 25.5322H298.426ZM329.555 63.2919V64.7114C337.898 64.7114 344.782 62.576 349.886 58.4047C354.998 54.2262 358.178 48.1244 359.324 40.4783L357.921 40.2677L356.517 40.0572C355.453 47.1465 352.555 52.5568 348.089 56.2065C343.615 59.8635 337.421 61.8724 329.555 61.8724V63.2919ZM357.921 40.2677V38.8482H325.503V40.2677V41.6872H357.921V40.2677ZM325.503 40.2677H326.922V19.8222H325.503H324.083V40.2677H325.503ZM325.503 19.8222V21.2417H393.47V19.8222V18.4027H325.503V19.8222ZM393.47 19.8222H392.051V90H393.47H394.89V19.8222H393.47ZM393.47 90V88.5805H373.025V90V91.4195H393.47V90ZM373.025 90H374.444V77.659H373.025H371.605V90H373.025ZM373.025 77.659L372.003 76.6737C362.415 86.6164 347.56 91.5276 329.555 91.5276V92.9471V94.3666C348.02 94.3666 363.741 89.3313 374.046 78.6443L373.025 77.659ZM329.555 92.9471V91.5276C308.457 91.5276 292.051 85.4849 280.919 74.3309C269.787 63.1765 263.744 46.7242 263.744 25.5322H262.324H260.905C260.905 47.2573 267.11 64.5126 278.91 76.3363C290.71 88.1604 307.92 94.3666 329.555 94.3666V92.9471ZM413.357 90H411.938V91.4195H413.357V90ZM413.357 -38.9355V-40.355H411.938V-38.9355H413.357ZM508.585 43.9516L508.023 42.6483L506.565 43.2777L507.353 44.6564L508.585 43.9516ZM534.925 90V91.4195H537.372L536.157 89.2952L534.925 90ZM496.613 90L495.382 90.7079L495.792 91.4195H496.613V90ZM473.404 49.6616L474.635 48.9537L474.225 48.2421H473.404V49.6616ZM446.88 49.6616V48.2421H445.461V49.6616H446.88ZM446.88 90V91.4195H448.3V90H446.88ZM446.88 -9.09617V-10.5157H445.461V-9.09617H446.88ZM446.88 19.8222H445.461V21.2417H446.88V19.8222ZM413.357 90H414.777V-38.9355H413.357H411.938V90H413.357ZM413.357 -38.9355V-37.516H477.457V-38.9355V-40.355H413.357V-38.9355ZM477.457 -38.9355V-37.516C495.731 -37.516 509.943 -32.743 519.554 -25.0271C529.143 -17.3291 534.242 -6.63795 534.242 5.45513H535.662H537.081C537.081 -7.50211 531.589 -19.0063 521.331 -27.241C511.096 -35.4579 496.205 -40.355 477.457 -40.355V-38.9355ZM535.662 5.45513H534.242C534.242 21.592 525.057 35.2969 508.023 42.6483L508.585 43.9516L509.148 45.2549C527.111 37.5025 537.081 22.8415 537.081 5.45513H535.662ZM508.585 43.9516L507.353 44.6564L533.693 90.7048L534.925 90L536.157 89.2952L509.817 43.2468L508.585 43.9516ZM534.925 90V88.5805H496.613V90V91.4195H534.925V90ZM496.613 90L497.843 89.2921L474.635 48.9537L473.404 49.6616L472.174 50.3695L495.382 90.7079L496.613 90ZM473.404 49.6616V48.2421H446.88V49.6616V51.0811H473.404V49.6616ZM446.88 49.6616H445.461V90H446.88H448.3V49.6616H446.88ZM446.88 90V88.5805H413.357V90V91.4195H446.88V90ZM482.798 19.8222V21.2417C494.634 21.2417 500.979 12.5017 500.979 5.45513H499.56H498.14C498.14 10.9338 493.066 18.4027 482.798 18.4027V19.8222ZM499.56 5.45513H500.979C500.979 -1.56956 494.655 -10.5157 482.798 -10.5157V-9.09617V-7.67668C493.044 -7.67668 498.14 -0.0453377 498.14 5.45513H499.56ZM482.798 -9.09617V-10.5157H446.88V-9.09617V-7.67668H482.798V-9.09617ZM446.88 -9.09617H445.461V19.8222H446.88H448.3V-9.09617H446.88ZM446.88 19.8222V21.2417H482.798V19.8222V18.4027H446.88V19.8222Z" fill="white" fill-opacity="0.09" mask="url(#path-1-inside-1_915_126)"/>
</svg>
