<svg width="59" height="59" viewBox="0 0 59 59" fill="none" xmlns="http://www.w3.org/2000/svg">
<g clip-path="url(#clip0_323_9)">
<path d="M29.3333 13.75C33.1244 13.75 36.2083 10.6661 36.2083 6.875C36.2083 3.0839 33.1244 0 29.3333 0C25.5422 0 22.4583 3.0839 22.4583 6.875C22.4583 10.6661 25.5422 13.75 29.3333 13.75ZM29.3333 4.58333C30.5969 4.58333 31.625 5.61145 31.625 6.875C31.625 8.13855 30.5969 9.16667 29.3333 9.16667C28.0698 9.16667 27.0417 8.13855 27.0417 6.875C27.0417 5.61145 28.0698 4.58333 29.3333 4.58333ZM41.9375 36.4483C41.9375 39.2493 40.4452 41.8847 38.0435 43.3259L37.8779 43.4253C36.848 44.0434 36.2083 45.1727 36.2083 46.3731V56.375C36.2083 57.6408 35.1825 58.6667 33.9167 58.6667C32.6509 58.6667 31.625 57.6408 31.625 56.375V46.3731C31.625 43.5721 33.1173 40.9367 35.5191 39.4955L35.6847 39.3961C36.7146 38.7784 37.3542 37.6487 37.3542 36.4483V26.2396C37.3542 21.5045 32.9611 20.5104 29.2761 20.5104C25.591 20.5104 21.1979 21.5045 21.1979 26.2396V36.4151C21.1979 37.6281 21.8474 38.7632 22.8925 39.3782L23.0872 39.4928C25.5266 40.9277 27.0417 43.5766 27.0417 46.4063V56.375C27.0417 57.6408 26.0158 58.6667 24.75 58.6667C23.4842 58.6667 22.4583 57.6408 22.4583 56.375V46.4063C22.4583 45.1933 21.8089 44.0582 20.7638 43.4437L20.5691 43.3291C18.1297 41.8941 16.6146 39.2448 16.6146 36.4151V26.2396C16.6146 22.7873 18.0084 20.0046 20.6456 18.1928C22.803 16.7104 25.7875 15.9271 29.2761 15.9271C32.7646 15.9271 35.7491 16.7104 37.9065 18.1928C40.5437 20.0046 41.9375 22.7873 41.9375 26.2396V36.4483ZM11.4583 18.3333C15.2494 18.3333 18.3333 15.2494 18.3333 11.4583C18.3333 7.66724 15.2494 4.58333 11.4583 4.58333C7.66724 4.58333 4.58333 7.66724 4.58333 11.4583C4.58333 15.2494 7.66724 18.3333 11.4583 18.3333ZM11.4583 9.16667C12.7219 9.16667 13.75 10.1948 13.75 11.4583C13.75 12.7219 12.7219 13.75 11.4583 13.75C10.1948 13.75 9.16667 12.7219 9.16667 11.4583C9.16667 10.1948 10.1948 9.16667 11.4583 9.16667ZM18.3333 48.3542V56.375C18.3333 57.6408 17.3075 58.6667 16.0417 58.6667C14.7759 58.6667 13.75 57.6408 13.75 56.375V48.3542C13.75 47.0884 14.7759 46.0625 16.0417 46.0625C17.3075 46.0625 18.3333 47.0884 18.3333 48.3542ZM13.5208 22.8594C13.5208 24.1252 12.495 25.1511 11.2292 25.1511C4.58333 25.1511 4.58333 28.2726 4.58333 29.4479V39.1875C4.58333 40.264 5.09717 41.2916 5.95834 41.9375C7.96712 43.4441 9.16667 45.8432 9.16667 48.3542V56.375C9.16667 57.6408 8.14079 58.6667 6.875 58.6667C5.60921 58.6667 4.58333 57.6408 4.58333 56.375V48.3542C4.58333 47.2777 4.0695 46.2501 3.20833 45.6042C1.19954 44.0976 0 41.6985 0 39.1875V29.4479C0 26.3501 1.27205 23.9023 3.67831 22.3697C5.5555 21.1738 8.09603 20.5677 11.2292 20.5677C12.495 20.5677 13.5208 21.5936 13.5208 22.8594ZM47.2084 18.3333C50.9994 18.3333 54.0834 15.2494 54.0834 11.4583C54.0834 7.66724 50.9994 4.58333 47.2084 4.58333C43.4173 4.58333 40.3333 7.66724 40.3333 11.4583C40.3333 15.2494 43.4173 18.3333 47.2084 18.3333ZM47.2084 9.16667C48.4719 9.16667 49.5 10.1948 49.5 11.4583C49.5 12.7219 48.4719 13.75 47.2084 13.75C45.9448 13.75 44.9167 12.7219 44.9167 11.4583C44.9167 10.1948 45.9448 9.16667 47.2084 9.16667ZM44.9167 48.3542V56.375C44.9167 57.6408 43.8908 58.6667 42.625 58.6667C41.3592 58.6667 40.3333 57.6408 40.3333 56.375V48.3542C40.3333 47.0884 41.3592 46.0625 42.625 46.0625C43.8908 46.0625 44.9167 47.0884 44.9167 48.3542ZM58.6667 29.4479V39.1875C58.6667 41.6985 57.4671 44.0976 55.4584 45.6042C54.5972 46.2501 54.0834 47.2777 54.0834 48.3542V56.375C54.0834 57.6408 53.0575 58.6667 51.7917 58.6667C50.5259 58.6667 49.5 57.6408 49.5 56.375V48.3542C49.5 45.8432 50.6996 43.4441 52.7084 41.9375C53.5695 41.2916 54.0834 40.264 54.0834 39.1875V29.4479C54.0834 28.2726 54.0834 25.1511 47.4375 25.1511C46.1717 25.1511 45.1458 24.1252 45.1458 22.8594C45.1458 21.5936 46.1717 20.5677 47.4375 20.5677C50.5707 20.5677 53.1112 21.1738 54.9884 22.3697C57.3946 23.9023 58.6667 26.3501 58.6667 29.4479Z" fill="white"/>
</g>
<defs>
<clipPath id="clip0_323_9">
<rect width="58.6667" height="58.6667" fill="white"/>
</clipPath>
</defs>
</svg>
