<svg width="45" height="64" viewBox="0 0 45 64" fill="none" xmlns="http://www.w3.org/2000/svg">
<path d="M22.4995 49.5262V61.5521M9.21787 40.609L4.30437 47.5801C1.72447 51.0805 1.84781 55.4399 4.1047 58.3472C5.50155 60.0361 8.0724 60.0906 9.53955 58.4624L12.1663 55.5473M22.4995 5.85893V2.39111M36.528 27.9059C36.5829 20.9155 33.3328 14.2077 27.6128 9.94743C24.5785 7.68749 20.4205 7.68749 17.3862 9.94743C10.5619 15.0301 7.25227 23.5967 8.87769 31.9705L10.7968 45.3013C11.6345 51.1203 16.6205 55.4399 22.4995 55.4399H28.5785C30.9685 55.4399 32.9954 53.6838 33.336 51.3182L33.5919 49.5405C34.0916 46.0693 38.4852 44.8567 40.6947 47.5801C43.2746 51.0805 43.1512 55.4399 40.8943 58.3472C39.4975 60.0361 36.9266 60.0906 35.4595 58.4624L32.8328 55.5473M27.2459 27.9059C27.2459 30.5378 25.1209 32.6715 22.4995 32.6715C19.8781 32.6715 17.7531 30.5378 17.7531 27.9059C17.7531 25.274 19.8781 23.1403 22.4995 23.1403C25.1209 23.1403 27.2459 25.274 27.2459 27.9059Z" stroke="white" stroke-width="4.78225" stroke-miterlimit="10" stroke-linecap="round" stroke-linejoin="round"/>
</svg>
