<svg width="65" height="65" viewBox="0 0 65 65" fill="none" xmlns="http://www.w3.org/2000/svg">
<path d="M39.0167 40.8854C35.1512 37.02 28.884 37.02 25.0185 40.8854M36.4798 56.896C39.6666 56.3318 42.6475 55.1743 45.304 53.5429M7.04861 36.4574C8.90047 46.8673 17.1485 55.0752 27.601 56.9043M27.5949 7.13092C17.1349 8.96401 8.88396 17.185 7.04323 27.6073M56.9902 27.5973C55.1471 17.1865 46.9076 8.97427 36.4608 7.13454M54.0264 44.5782C55.4556 42.0971 56.4745 39.3513 56.9908 36.4329M39.4338 30.5649C39.4338 34.6607 36.1135 37.9811 32.0176 37.9811C27.9217 37.9811 24.6014 34.6609 24.6014 30.5649C24.6014 26.469 27.9217 23.1488 32.0176 23.1488C36.1135 23.1488 39.4338 26.469 39.4338 30.5649ZM32.0176 2.50146C29.664 2.50146 27.7559 4.40272 27.7559 6.74796C27.7559 9.0932 29.664 10.9945 32.0176 10.9945C34.3712 10.9945 36.2792 9.0932 36.2792 6.74796C36.2792 4.40272 34.3712 2.50146 32.0176 2.50146ZM32.0176 53.0397C29.664 53.0397 27.7559 54.941 27.7559 57.2862C27.7559 59.6315 29.664 61.5327 32.0176 61.5327C34.3712 61.5327 36.2792 59.6315 36.2792 57.2862C36.2792 54.941 34.3712 53.0397 32.0176 53.0397ZM61.5332 32.0171C61.5332 29.6635 59.6319 27.7555 57.2867 27.7555C54.9415 27.7555 53.0402 29.6635 53.0402 32.0171C53.0402 34.3707 54.9415 36.2787 57.2867 36.2787C59.6319 36.2787 61.5332 34.3707 61.5332 32.0171ZM10.9949 32.0171C10.9949 29.6635 9.09369 27.7555 6.74845 27.7555C4.40321 27.7555 2.50195 29.6635 2.50195 32.0171C2.50195 34.3707 4.40321 36.2787 6.74845 36.2787C9.09369 36.2787 10.9949 34.3707 10.9949 32.0171Z" stroke="white" stroke-width="5.00265" stroke-miterlimit="10" stroke-linecap="round" stroke-linejoin="round"/>
</svg>
