<svg width="55" height="55" viewBox="0 0 55 55" fill="none" xmlns="http://www.w3.org/2000/svg">
<path fill-rule="evenodd" clip-rule="evenodd" d="M27.5 3.4375C22.4858 3.4375 17.6769 5.4294 14.1313 8.97501C10.5857 12.5206 8.59375 17.3295 8.59375 22.3438V25.7812C8.59375 27.5963 9.33281 29.3391 10.1166 30.6831C10.9106 32.0547 11.8662 33.2028 12.5331 33.8731L17.4041 38.7406L19.3875 44.6875H35.6125L37.5959 38.7406L42.4669 33.8731C43.1338 33.2028 44.0894 32.0512 44.8834 30.6831C45.6672 29.3391 46.4062 27.5963 46.4062 25.7812V22.3438C46.4062 17.3295 44.4143 12.5206 40.8687 8.97501C37.3231 5.4294 32.5142 3.4375 27.5 3.4375ZM32.1544 18.4044L29.7206 15.9706L23.3509 22.3438L26.7884 25.7812L22.8456 29.7206L25.2794 32.1544L31.6491 25.7812L28.2116 22.3438L32.1544 18.4044Z" fill="#E6483F"/>
<path d="M34.375 51.5625V48.125H20.625V51.5625H34.375Z" fill="#E6483F"/>
</svg>
