<svg width="186" height="185" viewBox="0 0 186 185" fill="none" xmlns="http://www.w3.org/2000/svg">
<path d="M91.4438 184.271L76.6348 168.457L56.6665 176.866C56.1348 177.103 55.5241 177.083 54.9727 176.866C54.441 176.63 54.0278 176.177 53.8309 175.626L46.7216 155.165L25.0595 154.731C24.4687 154.731 23.9173 154.475 23.5234 154.022C23.1296 153.589 22.9326 153.018 22.9917 152.427L24.823 130.844L5.20903 121.648C4.67733 121.392 4.28382 120.939 4.08689 120.387C3.90965 119.836 3.96841 119.225 4.2441 118.713L14.7011 99.7295L0.52238 83.3451C0.148217 82.8921 -0.0487296 82.3211 0.0103487 81.7304C0.0694271 81.1396 0.364665 80.6079 0.837292 80.2534L18.1079 67.1774L11.826 46.4408C11.6488 45.8894 11.7273 45.279 12.0227 44.767C12.318 44.255 12.8107 43.9005 13.3818 43.7626L34.4727 38.8394L37.1704 17.3349C37.2492 16.7441 37.5449 16.2322 38.0372 15.8777C38.5099 15.5429 39.1003 15.4051 39.6911 15.5035L60.9791 19.5799L72.1842 1.02925C72.4796 0.536927 72.9915 0.182457 73.5626 0.0446076C74.1337 -0.0735491 74.7247 0.0446941 75.217 0.379471L92.9996 12.7662L110.782 0.379471C111.255 0.0446941 111.866 -0.0735491 112.437 0.0446076C113.008 0.162764 113.5 0.517234 113.815 1.02925L125.02 19.5799L146.308 15.5035C146.879 15.3854 147.47 15.5232 147.962 15.8777C148.435 16.2322 148.75 16.7441 148.829 17.3349L151.527 38.8394L172.617 43.7626C173.189 43.9005 173.681 44.255 173.977 44.767C174.272 45.279 174.331 45.8894 174.173 46.4408L167.891 67.1774L185.162 80.2534C185.635 80.6079 185.93 81.1396 185.989 81.7304C186.048 82.3211 185.871 82.8921 185.477 83.3451L171.298 99.7295L181.755 118.713C182.031 119.225 182.09 119.836 181.912 120.387C181.735 120.939 181.322 121.411 180.79 121.648L161.176 130.844L163.008 152.427C163.067 153.018 162.87 153.589 162.476 154.022C162.082 154.456 161.531 154.712 160.94 154.731L139.278 155.165L132.168 175.626C131.971 176.177 131.558 176.63 131.026 176.866C130.495 177.103 129.884 177.103 129.333 176.866L109.364 168.457L94.5554 184.271C94.1616 184.704 93.5904 184.94 92.9996 184.94C92.4088 184.94 91.8574 184.704 91.4438 184.271ZM109.64 163.967L128.88 172.081L135.733 152.349C136.028 151.502 136.796 150.95 137.702 150.931L158.577 150.517L156.804 129.702C156.725 128.816 157.218 127.989 158.025 127.595L176.93 118.713L166.848 100.419C166.414 99.6508 166.513 98.6858 167.103 98.0162L180.77 82.2227L164.13 69.6192C163.421 69.0875 163.126 68.162 163.382 67.3152L169.447 47.327L149.104 42.5811C148.238 42.3842 147.588 41.6555 147.489 40.789L144.89 20.0723L124.39 24.0108C123.523 24.1684 122.637 23.7745 122.184 23.0262L111.393 5.14509L94.2597 17.0789C93.5311 17.5909 92.5662 17.5909 91.8376 17.0789L74.7049 5.14509L63.9133 23.0262C63.4604 23.7942 62.5745 24.188 61.708 24.0108L41.2075 20.0723L38.6079 40.789C38.4898 41.6752 37.8599 42.3842 36.9935 42.5811L16.6507 47.327L22.7162 67.3152C22.9722 68.162 22.6765 69.0875 21.9676 69.6192L5.3273 82.2227L18.994 98.0162C19.5651 98.6858 19.6835 99.6508 19.2502 100.419L9.1673 118.713L28.0726 127.595C28.88 127.969 29.3523 128.816 29.2933 129.702L27.5211 150.517L48.3956 150.931C49.2818 150.931 50.0695 151.522 50.3649 152.349L57.218 172.081L76.4579 163.967C77.285 163.633 78.2301 163.83 78.8209 164.479L93.0982 179.722L107.375 164.479C107.789 164.046 108.34 163.81 108.931 163.81C109.207 163.81 109.482 163.869 109.758 163.967H109.64Z" fill="url(#paint0_linear_393_24)"/>
<defs>
<linearGradient id="paint0_linear_393_24" x1="27.3242" y1="26.5314" x2="158.616" y2="157.823" gradientUnits="userSpaceOnUse">
<stop stop-color="#E69A3F"/>
<stop offset="1" stop-color="#F5D247"/>
</linearGradient>
</defs>
</svg>
