<svg width="92" height="22" viewBox="0 0 92 22" fill="none" xmlns="http://www.w3.org/2000/svg">
<path d="M8.26112 9.64706C7.38322 9.43609 6.7333 9.15026 6.31136 8.79297H0.390625C0.411041 8.84401 0.424626 8.89165 0.448445 8.94609C0.557333 9.19789 0.69686 9.43268 0.846581 9.66407H8.3292C8.30538 9.65727 8.28158 9.65386 8.25776 9.65046L8.26112 9.64706Z" fill="white"/>
<path d="M91.4687 11.9614H86.4395L86.9499 12.7951H91.9996L91.4687 11.9614Z" fill="white"/>
<path d="M90.4655 10.3784H85.4805L85.62 10.6166L86.0045 11.2461H91.0167L90.4655 10.3784Z" fill="white"/>
<path d="M16.4149 8.80998C15.9793 9.16387 15.3226 9.44629 14.4413 9.65726C14.4311 9.65726 14.4243 9.66067 14.4141 9.66407H21.8695C22.0226 9.43609 22.1587 9.19789 22.2744 8.94609C22.2982 8.89165 22.3118 8.84741 22.3357 8.79297H16.4353C16.4353 8.79297 16.4217 8.80318 16.4149 8.80998Z" fill="white"/>
<path d="M22.2743 4.01184C22.077 3.58309 21.8218 3.18837 21.5053 2.82768C21.1889 2.46699 20.7499 2.1063 20.1884 1.74561C19.627 1.38492 18.9703 1.07867 18.2182 0.830271C17.4662 0.58187 16.5339 0.381107 15.4246 0.227983C14.3153 0.0748598 13.0767 0 11.7122 0H11.0453C9.68078 0 8.43879 0.0748598 7.31249 0.227983C6.18958 0.381107 5.25042 0.58187 4.49841 0.830271C3.74641 1.07867 3.08967 1.38151 2.52821 1.74561C1.96676 2.1063 1.52781 2.46699 1.21135 2.82768C0.894899 3.18837 0.643103 3.58649 0.45255 4.02205C0.261996 4.4576 0.139512 4.84211 0.0850685 5.17218C0.0272219 5.50564 0 5.85953 0 6.23043V6.73744C0 7.09813 0.0272219 7.44861 0.0850685 7.78548C0.0986795 7.87736 0.132694 7.97944 0.156513 8.07812H5.64173C5.54986 7.95222 5.46821 7.82631 5.41037 7.70041C5.33551 7.54389 5.27425 7.38056 5.23001 7.21722C5.22661 7.19681 5.14835 6.89737 5.14494 6.55029C5.13814 5.69279 5.55326 4.9578 5.55326 4.9578C5.9786 4.20579 6.60811 3.84851 6.92116 3.67497C7.69359 3.24962 8.59871 3.19178 10.4056 3.07268C10.7629 3.04886 11.0759 3.04886 11.1235 3.04886C11.1235 3.04886 11.4604 3.04546 11.7871 3.05226C12.5935 3.07268 13.3149 3.14073 13.9512 3.25643C14.7237 3.39594 15.3362 3.57629 15.7853 3.79066C16.2345 4.00503 16.602 4.26364 16.881 4.56989C17.1634 4.87614 17.3505 5.16877 17.4492 5.4512C17.5479 5.73363 17.5956 6.03307 17.5956 6.34953V6.58772C17.5956 6.99264 17.5071 7.37715 17.3335 7.73784C17.2791 7.85354 17.2042 7.96583 17.1226 8.08152H22.584C22.6078 7.98284 22.6418 7.88076 22.6588 7.78889C22.7167 7.44861 22.7439 7.10153 22.7439 6.74084V6.23383C22.7439 5.86293 22.7167 5.50564 22.6588 5.16877C22.601 4.8285 22.4751 4.44739 22.2777 4.01864L22.2743 4.01184Z" fill="white"/>
<path d="M4.50836 12.1792C5.25356 12.4344 6.18931 12.6386 7.31222 12.7951C8.43852 12.9516 9.68052 13.0333 11.045 13.0333H11.7119C13.0764 13.0333 14.3151 12.955 15.4346 12.7951C16.5507 12.6386 17.483 12.431 18.2282 12.1792C18.4187 12.1145 18.5889 12.0363 18.7659 11.9614H3.9707C4.15105 12.0329 4.31781 12.1145 4.50836 12.1792Z" fill="white"/>
<path d="M2.53558 11.2461H20.1992C20.6484 10.9569 21.0125 10.6677 21.3017 10.3784H1.42969C1.72232 10.6677 2.08982 10.9569 2.53898 11.2461H2.53558Z" fill="white"/>
<path d="M38.4123 11.2461H44.9319V10.3784H37.3574L38.4123 11.2461Z" fill="white"/>
<path d="M25.5645 0.218262V8.07861H30.182V4.46829L34.5647 8.07861H40.2405L30.7842 0.218262H25.5645Z" fill="white"/>
<path d="M36.4904 9.66067H44.9326V8.79297H35.4355L36.4904 9.66067Z" fill="white"/>
<path d="M30.182 11.9614H25.5645V12.8121H30.182V11.9614Z" fill="white"/>
<path d="M40.3196 12.8121H44.9337V11.9614H39.2852L40.3196 12.8121Z" fill="white"/>
<path d="M30.182 8.79297H25.5645V9.66067H30.182V8.79297Z" fill="white"/>
<path d="M44.9359 0.218262H40.3184V8.0752H44.9359V0.218262Z" fill="white"/>
<path d="M30.182 10.3784H25.5645V11.2461H30.182V10.3784Z" fill="white"/>
<path d="M47.7773 12.7946H57.7168C59.3943 12.7946 60.8745 12.6653 62.1641 12.4033C62.8107 12.2706 63.3925 12.1243 63.9029 11.9575H47.7773V12.7912V12.7946Z" fill="white"/>
<path d="M59.2109 9.66067H67.3094C67.5306 9.36463 67.7076 9.0754 67.8403 8.79297H62.093C61.4125 9.23192 60.4495 9.52456 59.2109 9.66067Z" fill="white"/>
<path d="M47.7773 11.2461H65.5226C65.9616 10.9875 66.3529 10.7017 66.6898 10.3784H47.7773V11.2461Z" fill="white"/>
<path d="M52.4663 8.79297H47.7773V9.66067H52.4663V8.79297Z" fill="white"/>
<path d="M67.4549 3.34517C67.1725 2.8824 66.7641 2.46727 66.2265 2.09637C65.6889 1.72887 65.0457 1.3954 64.2937 1.09596C63.5417 0.796516 62.6025 0.568533 61.4762 0.408604C60.3499 0.248675 59.0875 0.17041 57.6924 0.17041H47.7734V8.07499H52.4624V3.15802H57.3317C61.3436 3.15802 63.3477 4.23669 63.3477 6.39744V6.49952C63.3477 7.11201 63.181 7.63604 62.8646 8.07499H68.0776C68.1899 7.62583 68.2613 7.15285 68.2613 6.65264V6.14223C68.2613 5.63182 68.1967 5.15544 68.0708 4.70968C67.9415 4.26392 67.7373 3.80795 67.4583 3.34517H67.4549Z" fill="white"/>
<path d="M89.4575 8.79297H71.3175L70.7969 9.66067H90.0088L89.4575 8.79297Z" fill="white"/>
<path d="M68.9199 12.7951H73.6906L74.1772 11.9614H69.4202L68.9199 12.7951Z" fill="white"/>
<path d="M40.3189 8.1397V8.07812H40.2402L40.3189 8.1397Z" fill="white"/>
<path d="M83.9931 0.174316H76.4866L71.75 8.0789H89.0087L83.9931 0.174316ZM76.9153 7.27925L79.3789 3.08026H79.9132H81.0225L83.5949 7.28265H76.9187L76.9153 7.27925Z" fill="white"/>
<path d="M69.8477 11.2461H74.5673L75.0743 10.3784H70.3682L69.8477 11.2461Z" fill="white"/>
<path d="M12.6484 21.3898V16.0543C12.6484 15.8672 12.7574 15.7583 12.9377 15.7583H16.8781C19.7636 15.7583 20.9273 16.6294 20.9273 18.7221C20.9273 20.8148 19.7636 21.6859 16.8781 21.6859H12.9377C12.754 21.6859 12.6484 21.577 12.6484 21.3898ZM14.1354 20.2976H16.7283C19.2123 20.2976 19.4812 19.6783 19.4812 18.7221C19.4812 17.7659 19.2157 17.1466 16.7283 17.1466H14.1354C14.0844 17.1466 14.0538 17.1806 14.0538 17.2317V20.2125C14.0538 20.2635 14.0878 20.2976 14.1354 20.2976Z" fill="white"/>
<path d="M24.9531 21.3898V16.0543C24.9531 15.8672 25.062 15.7583 25.2423 15.7583H26.0658C26.2496 15.7583 26.3551 15.8672 26.3551 16.0543V21.3898C26.3551 21.577 26.2462 21.6859 26.0658 21.6859H25.2423C25.0586 21.6859 24.9531 21.577 24.9531 21.3898Z" fill="white"/>
<path d="M37.3866 19.637H35.7737C35.5899 19.637 35.4844 19.5281 35.4844 19.341V18.6298C35.4844 18.4426 35.5933 18.3337 35.7737 18.3337H38.5401C38.7239 18.3337 38.8328 18.4426 38.8328 18.6298V20.9164C38.8328 20.9845 38.7817 21.0525 38.6898 21.1206C38.3155 21.3758 37.2267 21.7909 34.9979 21.7909C31.8878 21.7909 30.377 20.9675 30.377 18.7251C30.377 16.4826 31.8912 15.6592 34.9979 15.6592C37.2096 15.6592 38.2985 16.0743 38.6728 16.3295C38.8464 16.4486 38.8396 16.5575 38.7375 16.7378L38.404 17.3401C38.3223 17.4831 38.1624 17.4592 37.9957 17.398C37.4886 17.2108 36.7162 17.0067 35.0693 17.0067C32.5343 17.0067 31.8265 17.5817 31.8265 18.7251C31.8265 19.8684 32.5343 20.5047 35.0693 20.4434C36.233 20.4162 36.9578 20.3243 37.4648 20.2052V19.7221C37.4648 19.671 37.4308 19.637 37.3832 19.637H37.3866Z" fill="white"/>
<path d="M42.8848 21.3898V16.0543C42.8848 15.8672 42.9937 15.7583 43.174 15.7583H43.9975C44.1812 15.7583 44.2867 15.8672 44.2867 16.0543V21.3898C44.2867 21.577 44.1778 21.6859 43.9975 21.6859H43.174C42.9903 21.6859 42.8848 21.577 42.8848 21.3898Z" fill="white"/>
<path d="M51.8037 21.3898V17.2147C51.8037 17.1636 51.7697 17.1296 51.7221 17.1296H48.6051C48.4214 17.1296 48.3125 17.0207 48.3125 16.8336V16.0543C48.3125 15.8672 48.4214 15.7583 48.6051 15.7583H56.411C56.5947 15.7583 56.7037 15.8672 56.7037 16.0543V16.8336C56.7037 17.0207 56.5947 17.1296 56.411 17.1296H53.2941C53.2431 17.1296 53.2125 17.1636 53.2125 17.2147V21.3898C53.2125 21.577 53.1035 21.6859 52.9232 21.6859H52.0998C51.916 21.6859 51.8105 21.577 51.8105 21.3898H51.8037Z" fill="white"/>
<path d="M58.7556 21.332L62.5462 15.9455C62.6449 15.8093 62.7538 15.7583 62.9137 15.7583H63.8699C64.0264 15.7583 64.1353 15.8093 64.2374 15.9455L68.028 21.332C68.1709 21.526 68.0859 21.6893 67.8443 21.6893H66.7792C66.6295 21.6893 66.5036 21.6382 66.4288 21.5021L65.7312 20.4847H61.0592L60.3617 21.5021C60.28 21.6382 60.1609 21.6893 60.0112 21.6893H58.9393C58.6977 21.6893 58.616 21.5294 58.7556 21.332ZM64.9418 19.3414L63.3969 17.0956L61.8521 19.3414H64.9452H64.9418Z" fill="white"/>
<path d="M71.9507 21.3898V16.0543C71.9507 15.8672 72.0596 15.7583 72.2399 15.7583H73.0634C73.2471 15.7583 73.3526 15.8672 73.3526 16.0543V20.2295C73.3526 20.2806 73.3866 20.3146 73.4343 20.3146H79.0522C79.2359 20.3146 79.3414 20.4235 79.3414 20.6106V21.3898C79.3414 21.577 79.2325 21.6859 79.0522 21.6859H72.2365C72.0527 21.6859 71.9473 21.577 71.9473 21.3898H71.9507Z" fill="white"/>
</svg>
