<svg width="61" height="61" viewBox="0 0 61 61" fill="none" xmlns="http://www.w3.org/2000/svg">
<path d="M18.9977 53.3752C15.1428 53.3752 11.8598 52.0196 9.1487 49.3085C6.43759 46.5974 5.08203 43.3144 5.08203 39.4595C5.08203 35.8165 6.30034 32.6707 8.73695 30.0223C11.1736 27.3739 14.2125 25.9023 17.8539 25.6075L7.6237 5.0835H25.4154L30.4987 15.2502L35.582 5.0835H53.3737L43.207 25.4804C46.8077 25.8193 49.8264 27.3129 52.263 29.9613C54.6996 32.6097 55.9171 35.7546 55.9154 39.396C55.9154 43.2932 54.5598 46.5974 51.8487 49.3085C49.1376 52.0196 45.8334 53.3752 41.9362 53.3752C41.5549 53.3752 41.1635 53.365 40.7619 53.3447C40.3604 53.3243 39.9681 53.271 39.5852 53.1845C41.915 51.6595 43.7365 49.6796 45.0497 47.2447C46.3629 44.8097 47.0195 42.1935 47.0195 39.396C47.0195 34.7786 45.42 30.8712 42.2209 27.6738C39.0218 24.4764 35.1144 22.8769 30.4987 22.8752C25.883 22.8735 21.9756 24.473 18.7765 27.6738C15.5774 30.8746 13.9779 34.782 13.9779 39.396C13.9779 42.2766 14.5709 44.9877 15.757 47.5293C16.9431 50.071 18.807 51.9561 21.3487 53.1845C20.9674 53.2693 20.576 53.3226 20.1744 53.3447C19.7729 53.3667 19.3806 53.3769 18.9977 53.3752ZM30.4987 50.8335C27.3216 50.8335 24.6215 49.7219 22.3984 47.4988C20.1753 45.2757 19.0629 42.5748 19.0612 39.396C19.0595 36.2172 20.1719 33.5171 22.3984 31.2957C24.6249 29.0743 27.325 27.9619 30.4987 27.9585C33.6724 27.9551 36.3733 29.0675 38.6015 31.2957C40.8297 33.5239 41.9413 36.224 41.9362 39.396C41.9311 42.568 40.8196 45.2689 38.6015 47.4988C36.3835 49.7287 33.6826 50.8403 30.4987 50.8335ZM25.7966 46.3856L30.4987 42.8272L35.2008 46.3856L33.4216 40.6033L38.1237 37.2356H32.3414L30.4987 31.1356L28.656 37.2356H22.8737L27.5758 40.6033L25.7966 46.3856Z" fill="#F5D247"/>
</svg>
