<svg width="74" height="74" viewBox="0 0 74 74" fill="none" xmlns="http://www.w3.org/2000/svg">
<path d="M58.6945 44.2612L47.2266 38.7909L42.3772 36.4775C44.4951 35.1433 46.2153 33.084 47.3408 30.6037C48.2806 28.5362 48.7663 26.2913 48.7651 24.0203C48.7651 22.6823 48.5528 21.4118 48.2569 20.1859C46.8143 14.2454 42.1751 9.86914 36.6059 9.86914C31.1422 9.86914 26.5733 14.0894 25.0413 19.8607C24.6876 21.1848 24.4445 22.5615 24.4445 24.0203C24.4445 26.5533 25.0362 28.915 26.0416 30.9691C27.2038 33.3521 28.9269 35.3168 31.0243 36.5801L26.38 38.7426L14.54 44.2568C13.5119 44.7387 12.8359 45.8987 12.8359 47.1941V60.2036C12.8359 61.9472 14.0508 63.3606 15.5506 63.3606H33.1355V53.3997C33.1386 53.2971 33.1687 53.1971 33.2227 53.1097L33.2153 53.1053L36.0955 48.1168L36.1028 48.1212C36.2053 47.9455 36.3877 47.821 36.6059 47.821C36.8241 47.821 37.0065 47.9447 37.109 48.1212L37.1119 48.119L37.1383 48.1652L37.15 48.1857L39.9921 53.1075L39.9884 53.1097C40.0425 53.1973 40.0726 53.2976 40.0756 53.4004V63.3613H57.6605C59.1603 63.3613 60.3759 61.9479 60.3759 60.2043V47.1941C60.3781 45.9031 59.7132 44.7541 58.6945 44.2612ZM39.9906 40.9256L39.998 40.93L37.1171 45.9185L37.1097 45.9141C37.0595 46.0037 36.9866 46.0786 36.8983 46.1312C36.81 46.1837 36.7094 46.2122 36.6066 46.2136C36.5039 46.2122 36.4033 46.1837 36.315 46.1312C36.2267 46.0786 36.1538 46.0037 36.1035 45.9141L36.0999 45.9163L36.0706 45.8657L36.0618 45.8511L33.2197 40.9278L33.2227 40.9256C33.1686 40.838 33.1385 40.7377 33.1355 40.6349C33.1355 40.309 33.3999 40.0446 33.7257 40.0446H39.4861C39.812 40.0446 40.0763 40.309 40.0763 40.6349C40.0752 40.7378 40.0455 40.8385 39.9906 40.9256Z" fill="#12DB98"/>
</svg>
