<svg width="659" height="315" viewBox="0 0 659 315" fill="none" xmlns="http://www.w3.org/2000/svg">
<path d="M187.142 293.879V193.774H172.429V169.98H226.635V193.774H211.922V293.879H187.142ZM234.975 293.879V169.98H259.615V214.26H271.301V169.98H295.94V293.879H271.301V237.702H259.615V293.879H234.975ZM308.364 293.879V169.98H357.923V193.915H333.566V218.061H356.938V241.363H333.566V269.733H359.543V293.879H308.364ZM404.453 293.879V169.98H438.526C447.443 169.98 454.154 172.467 458.659 177.442C463.165 182.37 465.418 189.597 465.418 199.124V257.132C465.418 268.865 463.353 277.923 459.223 284.305C455.14 290.688 447.959 293.879 437.681 293.879H404.453ZM429.374 271.986H433.668C438.221 271.986 440.497 269.78 440.497 265.368V201.447C440.497 197.317 439.934 194.666 438.807 193.492C437.728 192.272 435.499 191.662 432.12 191.662H429.374V271.986ZM473.618 293.879L485.585 169.98H527.612L539.369 293.879H515.926L514.167 273.886H499.242L497.694 293.879H473.618ZM501.002 254.105H512.266L506.845 191.099H505.719L501.002 254.105ZM557.213 293.879V193.774H542.5V169.98H596.706V193.774H581.993V293.879H557.213ZM605.047 293.879V169.98H654.607V193.915H630.249V218.061H653.621V241.363H630.249V269.733H656.226V293.879H605.047Z" fill="white"/>
<path d="M297.87 94.5054C288.47 115.263 327.938 112.618 329.478 146.435C329.804 154.749 327.449 163.244 324.37 170.779C321.49 179.22 310.495 182.209 303.775 176.286C298.36 171.649 297.744 163.498 302.381 158.082C309.39 149.841 314.516 140.929 309.064 130.894C303.648 119.538 285.988 107.764 297.87 94.5054ZM298.251 94.6866C294.592 112.111 315.766 113.488 326.145 120.606C335.889 126.565 335.908 136.854 333.951 147.486C332.629 154.496 337.248 161.234 344.258 162.556C353.042 164.331 361.067 156.235 359.346 147.486C358.241 139.444 356.031 130.876 351.593 123.848C333.354 95.3386 300.497 117.346 298.251 94.6684V94.6866ZM298.685 94.6503C304.228 111.568 323.247 102.167 335.799 103.163C347.228 103.453 352.373 112.365 356.013 122.544C358.386 129.264 365.758 132.796 372.478 130.442C380.973 127.598 383.871 116.567 378.002 109.847C373.021 103.435 366.827 97.1318 359.473 93.2556C329.423 77.6784 311.98 113.18 298.685 94.6503ZM299.03 94.4148C312.288 106.297 324.062 88.6549 335.419 83.221C345.453 77.7509 354.365 82.895 362.606 89.9047C368.022 94.5416 376.173 93.9258 380.81 88.51C386.733 81.7901 383.744 70.7955 375.304 67.9156C367.787 64.8545 359.274 62.4816 350.96 62.8077C317.143 64.3473 319.787 103.815 299.03 94.4148ZM299.193 94.0163C316.617 97.6752 317.994 76.5011 325.113 66.1223C331.072 56.3775 341.36 56.3594 351.992 58.3156C359.002 59.6379 365.74 55.0191 367.062 48.0093C368.837 39.2245 360.74 31.2005 351.992 32.9212C343.95 34.0261 335.383 36.2359 328.355 40.6736C299.845 58.9134 321.852 91.7703 299.175 94.0163H299.193ZM299.156 93.5998C316.074 88.0572 306.673 69.0385 307.669 56.4862C307.959 45.0569 316.871 39.9128 327.05 36.2721C333.77 33.8993 337.302 26.5273 334.948 19.8074C332.104 11.3124 321.073 8.41431 314.353 14.2829C307.941 19.264 301.638 25.4586 297.762 32.8125C282.185 62.862 317.686 80.3048 299.156 93.5998ZM298.921 93.2556C310.803 79.9969 293.161 68.2235 287.727 56.8666C282.257 46.832 287.401 37.9204 294.411 29.679C299.048 24.2632 298.432 16.1123 293.016 11.4754C286.296 5.55245 275.302 8.54111 272.422 16.9818C269.361 24.4987 266.988 33.0118 267.314 41.3256C268.853 75.1426 308.322 72.4981 298.921 93.2556ZM298.54 93.0745C302.199 75.6498 281.025 74.2732 270.647 67.1548C260.902 61.1956 260.884 50.9074 262.84 40.2751C264.162 33.2654 259.543 26.5273 252.534 25.2051C243.749 23.43 235.725 31.5265 237.445 40.2751C238.55 48.3173 240.76 56.8847 245.198 63.9125C263.438 92.4224 296.294 70.4151 298.54 93.0926V93.0745ZM298.124 93.1107C292.581 76.1931 273.563 85.5938 261.01 84.5976C249.581 84.3078 244.437 75.3962 240.796 65.2167C238.424 58.4968 231.051 54.9647 224.332 57.3194C215.837 60.1632 212.939 71.194 218.807 77.9139C223.788 84.3259 229.983 90.6292 237.337 94.5054C267.386 110.083 284.829 74.5811 298.124 93.1107ZM297.78 93.3643C284.521 81.4822 272.747 99.1242 261.391 104.558C251.356 110.028 242.445 104.884 234.203 97.8744C228.788 93.2375 220.637 93.8534 216 99.2692C210.077 105.989 213.066 116.984 221.506 119.864C229.023 122.925 237.536 125.298 245.85 124.972C279.667 123.432 277.022 83.9637 297.78 93.3643ZM297.599 93.7447C280.174 90.0858 278.798 111.26 271.679 121.639C265.72 131.383 255.432 131.402 244.799 129.445C237.79 128.123 231.051 132.742 229.729 139.752C227.954 148.536 236.051 156.561 244.799 154.84C252.841 153.735 261.409 151.525 268.437 147.087C296.947 128.848 274.939 95.9907 297.617 93.7447H297.599ZM297.635 94.1613C280.717 99.7039 290.118 118.722 289.122 131.275C288.832 142.704 279.92 147.848 269.741 151.489C263.021 153.862 259.489 161.234 261.843 167.954C264.687 176.449 275.718 179.347 282.438 173.478C288.85 168.497 295.153 162.302 299.03 154.949C314.607 124.899 279.105 107.456 297.635 94.1613Z" fill="url(#paint0_linear_360_90)"/>
<path d="M34.9487 144.126C23.6382 144.126 15.472 141.31 10.4503 135.679C5.47559 130.047 2.98821 121.083 2.98821 108.787V96.6784H27.4866V112.166C27.4866 115.029 27.9089 117.281 28.7537 118.924C29.6454 120.52 31.1707 121.318 33.3296 121.318C35.5823 121.318 37.131 120.661 37.9758 119.346C38.8675 118.032 39.3133 115.873 39.3133 112.87C39.3133 109.068 38.9379 105.9 38.187 103.366C37.4361 100.785 36.122 98.3445 34.2447 96.0448C32.4144 93.6982 29.8566 90.9762 26.5714 87.8787L15.4486 77.3191C7.14166 69.4815 2.98821 60.5175 2.98821 50.4272C2.98821 39.8676 5.42866 31.8188 10.3096 26.2809C15.2374 20.7429 22.3475 17.9739 31.64 17.9739C42.9975 17.9739 51.0463 21.001 55.7864 27.0552C60.5734 33.1094 62.9669 42.308 62.9669 54.6511H37.7646V46.133C37.7646 44.4434 37.2718 43.1293 36.2863 42.1907C35.3476 41.2521 34.057 40.7827 32.4144 40.7827C30.4433 40.7827 28.9884 41.3459 28.0497 42.4723C27.158 43.5517 26.7122 44.9597 26.7122 46.6961C26.7122 48.4326 27.1815 50.3099 28.1201 52.3279C29.0588 54.346 30.9126 56.6691 33.6815 59.2973L47.9722 73.0248C50.8351 75.7469 53.4633 78.6332 55.8568 81.6837C58.2503 84.6874 60.1745 88.2072 61.6294 92.2434C63.0843 96.2326 63.8117 101.113 63.8117 106.886C63.8117 118.525 61.6528 127.653 57.3351 134.271C53.0643 140.841 45.6022 144.126 34.9487 144.126ZM70.1813 143L82.1488 19.1003H124.176L135.933 143H112.49L110.73 123.007H95.806L94.2572 143H70.1813ZM97.5659 103.225H108.83L103.409 40.2196H102.283L97.5659 103.225ZM153.284 143L138.008 19.0299H161.591L170.672 103.366L178.768 19.0299H202.351L187.075 143H153.284ZM211.044 143V19.1003H260.604V43.0355H236.246V67.1818H259.618V90.4834H236.246V118.854H262.223V143H211.044Z" fill="white"/>
<defs>
<linearGradient id="paint0_linear_360_90" x1="237.174" y1="32.6676" x2="359.618" y2="155.111" gradientUnits="userSpaceOnUse">
<stop stop-color="#D63278"/>
<stop offset="1" stop-color="#E9732E"/>
</linearGradient>
</defs>
</svg>
