<svg width="116" height="116" viewBox="0 0 116 116" fill="none" xmlns="http://www.w3.org/2000/svg">
<path d="M52.8825 1.6121C48.6313 -1.34902 42.7583 -0.0957587 40.0797 4.32749C38.1384 7.53435 34.4031 9.20536 30.717 8.49272C25.6303 7.52206 20.7772 11.0484 20.126 16.1843C19.6591 19.9072 16.919 22.9543 13.2698 23.8021C8.21995 24.9816 5.22217 30.179 6.72116 35.1305C7.81469 38.7183 6.54905 42.6132 3.55107 44.874C-0.577301 48.0071 -1.20406 53.9662 2.1871 57.8857C4.64446 60.724 5.07464 64.7909 3.2562 68.0837C0.749686 72.6176 2.60504 78.3309 7.2986 80.5303C10.7021 82.1276 12.7416 85.6662 12.4221 89.4137C11.9798 94.5741 15.9974 99.0342 21.1825 99.1448C24.9299 99.2185 28.2474 101.627 29.4761 105.165C31.1716 110.056 36.6518 112.501 41.4314 110.486C44.8963 109.023 48.8894 109.883 51.4573 112.611C54.9959 116.396 61.0041 116.396 64.5427 112.611C67.1106 109.871 71.1163 109.023 74.5689 110.486C79.3485 112.501 84.8284 110.056 86.5239 105.165C87.7526 101.614 91.0701 99.2185 94.8175 99.1448C100.003 99.0465 104.008 94.5864 103.578 89.4137C103.258 85.6785 105.311 82.1276 108.702 80.5303C113.395 78.3309 115.25 72.6176 112.744 68.0837C110.938 64.7909 111.356 60.724 113.813 57.8857C117.204 53.9662 116.577 47.9948 112.449 44.874C109.451 42.6132 108.198 38.7183 109.279 35.1305C110.778 30.1667 107.78 24.9693 102.73 23.8021C99.0687 22.9543 96.3409 19.9072 95.874 16.1843C95.2351 11.0484 90.3697 7.52206 85.283 8.49272C81.5969 9.20536 77.8616 7.53435 75.9203 4.32749C73.2417 -0.108046 67.3687 -1.34902 63.1175 1.6121C60.0335 3.76229 55.9419 3.76229 52.8702 1.6121H52.8825Z" fill="url(#paint0_linear_360_148)"/>
<defs>
<linearGradient id="paint0_linear_360_148" x1="17.0419" y1="16.6143" x2="98.9704" y2="98.5428" gradientUnits="userSpaceOnUse">
<stop stop-color="#D63278"/>
<stop offset="1" stop-color="#E9732E"/>
</linearGradient>
</defs>
</svg>
