<svg width="123" height="123" viewBox="0 0 123 123" fill="none" xmlns="http://www.w3.org/2000/svg">
<path d="M60.6003 122.129C59.9534 122 59.4749 121.444 59.4749 120.784C59.1385 95.8139 58.9574 86.434 58.1552 79.2794V79.1501C57.9353 77.4035 56.8355 75.9674 55.2054 75.2946C53.5752 74.6218 51.7899 74.8677 50.4055 75.9415L50.3149 76.0191C44.6869 80.5085 37.9206 87.0162 20.0147 104.443C19.536 104.909 18.8114 104.974 18.268 104.599C17.9963 104.418 17.7763 104.185 17.5952 103.926C17.22 103.383 17.2848 102.645 17.7506 102.166C35.1778 84.2734 41.6725 77.507 46.1619 71.8791L46.2396 71.7755C47.3264 70.3912 47.5592 68.6058 46.8865 66.9756C46.2137 65.3455 44.7777 64.2587 43.0311 64.0387H42.9145C35.7599 63.2237 26.3802 63.0296 1.39738 62.7061C0.737554 62.7061 0.168242 62.2275 0.0518016 61.5806C0.0259261 61.4124 0 61.2571 0 61.1019C0 60.9466 0.0129757 60.7784 0.0388512 60.6232C0.168229 59.9763 0.724604 59.4976 1.38443 59.4847C25.8368 59.1612 35.7599 58.9672 42.9016 58.165H43.0181C44.7647 57.9451 46.2008 56.8454 46.8735 55.2152C47.5463 53.585 47.3005 51.7996 46.2266 50.4282L46.1489 50.3247C41.6595 44.6968 35.1648 37.9303 17.7247 20.0244C17.2589 19.5457 17.1944 18.8083 17.5696 18.2649C17.6602 18.1355 17.7636 18.0062 17.8671 17.9027C17.9836 17.7862 18.0998 17.6827 18.2421 17.5921C18.7855 17.2169 19.5231 17.2816 20.0018 17.7474C37.5324 34.8123 44.6869 41.6952 50.289 46.1588L50.3796 46.2364C51.764 47.3232 53.5493 47.569 55.1795 46.8833C56.8096 46.2105 57.8964 44.7744 58.1164 43.0278V42.9114C58.9315 35.7697 59.1256 25.8594 59.449 1.39406C59.449 0.73423 59.9279 0.164957 60.5748 0.0485167C60.8853 -0.0161722 61.2216 -0.0161722 61.5321 0.0485167C62.179 0.177894 62.6576 0.73423 62.6576 1.39406C62.981 25.8594 63.1751 35.7697 63.9772 42.8984V43.0278C64.1972 44.7744 65.2969 46.2105 66.9271 46.8833C68.5573 47.556 70.3426 47.3102 71.727 46.2234L71.8176 46.1588C77.4326 41.6823 84.5871 34.8123 102.118 17.7345C102.596 17.2687 103.334 17.204 103.877 17.5792C104.007 17.6698 104.136 17.7733 104.24 17.8768C104.356 17.9932 104.447 18.1096 104.537 18.239C104.912 18.7824 104.848 19.5199 104.382 19.9986C87.317 37.5293 80.4341 44.6709 75.9576 50.2988L75.8929 50.3894C74.8061 51.7737 74.5732 53.5591 75.246 55.1893C75.9188 56.8195 77.3548 57.9063 79.1144 58.1262H79.218C86.3726 58.9413 96.283 59.1353 120.735 59.4588C121.395 59.4588 121.964 59.9375 122.081 60.5844C122.145 60.9078 122.145 61.2313 122.081 61.5418C121.951 62.1886 121.395 62.6544 120.735 62.6673C95.7655 63.0037 86.3855 63.1849 79.2309 63.987H79.1014C77.3548 64.207 75.9188 65.3067 75.246 66.9368C74.5732 68.567 74.8191 70.3524 75.9058 71.7367L75.9706 71.8273C80.46 77.4552 87.3299 84.6098 104.395 102.128C104.861 102.606 104.925 103.331 104.55 103.887C104.369 104.159 104.136 104.379 103.877 104.56C103.334 104.935 102.596 104.87 102.131 104.405C84.2378 86.9774 77.4714 80.4827 71.8306 75.9803L71.7399 75.9156C70.3556 74.8289 68.5702 74.5831 66.94 75.2688C65.3099 75.9415 64.2231 77.3776 64.0031 79.1242V79.2406C63.1881 86.3952 62.994 95.7751 62.6705 120.758C62.6705 121.418 62.192 121.987 61.5451 122.103C61.3898 122.129 61.2215 122.155 61.0662 122.155C60.911 122.155 60.743 122.142 60.5877 122.103L60.6003 122.129ZM73.4607 73.7421L73.577 73.8326C73.991 74.1561 74.4053 74.4925 74.8193 74.8418C74.4699 74.4148 74.1335 74.0008 73.8101 73.5998L73.7194 73.4963C72.0116 71.3098 71.6234 68.4764 72.6843 65.9147C73.7452 63.3531 76.0222 61.6194 78.778 61.283H78.9204C79.4379 61.2054 79.9684 61.1536 80.5118 61.1019C79.9684 61.0501 79.4379 60.9984 78.9204 60.9337H78.778C76.0222 60.5844 73.7452 58.8507 72.6843 56.289C71.6234 53.7273 72.0116 50.894 73.7194 48.7075L73.7453 48.6816L73.8101 48.604C74.1335 48.2029 74.4699 47.7889 74.8193 47.362C74.3923 47.7113 73.978 48.0477 73.564 48.3841L73.4737 48.4617C71.2872 50.1695 68.4537 50.5576 65.892 49.4967C63.3303 48.4358 61.5966 46.1588 61.2602 43.403V43.2607C61.1826 42.7432 61.1309 42.2127 61.0792 41.6694C61.0274 42.2127 60.9758 42.7432 60.9111 43.2607V43.3901C60.5618 46.1458 58.8281 48.4228 56.2664 49.4837C53.7047 50.5446 50.8712 50.1565 48.6847 48.4487L48.5814 48.3711C48.1803 48.0477 47.7661 47.7113 47.3391 47.362C47.6884 47.7889 48.0249 48.2029 48.3483 48.604L48.426 48.7075C50.1338 50.894 50.522 53.7273 49.4611 56.289C48.4002 58.8507 46.1232 60.5844 43.3675 60.9208H43.2379V60.9337C42.7204 60.9854 42.19 61.0501 41.6466 61.1019C42.19 61.1536 42.7204 61.2054 43.2379 61.2701H43.3804C46.1361 61.6194 48.4131 63.3531 49.474 65.9147C50.5349 68.4764 50.1467 71.3098 48.439 73.4963L48.3483 73.6127C48.0249 74.0138 47.6884 74.4278 47.3391 74.8547C47.7661 74.5054 48.1803 74.169 48.5814 73.8456L48.6847 73.768C50.8712 72.0602 53.7047 71.672 56.2664 72.7329C58.8281 73.7938 60.5618 76.0709 60.8982 78.8266V78.9689C60.9758 79.4865 61.0274 80.0169 61.0792 80.5603C61.1309 80.0169 61.1825 79.4864 61.2472 78.956V78.8266C61.5965 76.0709 63.3303 73.7938 65.892 72.7329C66.8494 72.3319 67.8456 72.1378 68.8289 72.1378C70.4849 72.1378 72.1023 72.6941 73.4737 73.755L73.4607 73.7421Z" fill="url(#paint0_linear_530_113)"/>
<defs>
<linearGradient id="paint0_linear_530_113" x1="17.88" y1="17.9156" x2="104.253" y2="104.288" gradientUnits="userSpaceOnUse">
<stop stop-color="#D63278"/>
<stop offset="1" stop-color="#E9732E"/>
</linearGradient>
</defs>
</svg>
