<svg width="117" height="117" viewBox="0 0 117 117" fill="none" xmlns="http://www.w3.org/2000/svg">
<path d="M67.0316 116.607L66.8089 116.656C66.4995 116.743 66.2395 116.335 66.4499 116.099C67.6753 114.54 68.7894 112.894 69.7053 111.136C75.4237 100.727 74.3963 87.1736 67.1803 77.7421C66.0168 76.1454 64.6678 74.6848 63.2196 73.3233C63.1453 73.2491 63.0957 73.1501 63.1081 73.0387C63.1205 72.8406 63.2938 72.7045 63.4919 72.7169C64.7915 72.8159 66.0417 73.1377 67.2546 73.5709C80.2261 78.5342 84.756 96.0729 77.9361 107.633C75.5349 111.767 71.7474 115.344 67.044 116.595L67.0316 116.607ZM85.3997 110.715C89.4471 108.017 91.8606 103.4 92.7889 98.7093C95.4872 85.5645 85.5112 70.4518 71.6239 69.9567C70.3242 69.9319 69.0493 70.0434 67.7868 70.3652C67.6011 70.4147 67.4774 70.6003 67.5269 70.786C67.5517 70.8974 67.6258 70.984 67.7248 71.0212C69.5319 71.8381 71.277 72.7787 72.9109 73.9051C82.8004 80.4774 88.1723 92.9662 86.1425 104.663C85.8454 106.618 85.3253 108.537 84.6817 110.406C84.558 110.703 84.9419 111 85.2018 110.814L85.3997 110.691V110.715ZM100.871 99.1672C103.817 95.3055 104.609 90.1442 103.966 85.416C102.245 72.1104 87.9 61.045 74.6191 65.0924C73.3814 65.4885 72.2054 66.0083 71.1162 66.7262C70.9553 66.8376 70.906 67.048 71.005 67.2089C71.0669 67.308 71.1659 67.3575 71.2649 67.3698C73.2453 67.5555 75.2008 67.8773 77.1069 68.4219C88.5931 71.4296 97.7275 81.4924 99.6089 93.2137C99.9678 95.157 100.092 97.1373 100.092 99.1301C100.079 99.4519 100.525 99.6128 100.723 99.3529L100.871 99.1672ZM111.739 83.2252C113.274 78.6085 112.345 73.4843 110.192 69.2141C104.238 57.1833 87.083 51.3783 75.832 59.5226C74.7924 60.3024 73.8517 61.1688 73.0595 62.1961C72.9358 62.3447 72.9606 62.5674 73.1215 62.6912C73.2081 62.7655 73.3195 62.7779 73.4185 62.7531C75.3494 62.2828 77.305 61.961 79.2854 61.8496C91.1305 60.9584 103.037 67.5184 108.62 77.9896C109.585 79.7101 110.352 81.5419 110.996 83.4233C111.083 83.7327 111.565 83.7327 111.664 83.4233L111.739 83.2005V83.2252ZM116.863 64.6221C116.813 59.7578 114.276 55.2029 110.848 51.8734C101.317 42.4295 83.2089 42.5161 75.2008 53.8662C74.4705 54.943 73.8641 56.0693 73.4433 57.3071C73.3814 57.4927 73.4803 57.6908 73.6536 57.7527C73.765 57.7898 73.8764 57.7774 73.9631 57.7155C75.634 56.6511 77.3792 55.698 79.211 54.9554C90.1278 50.2644 103.52 52.6037 112.197 60.6985C113.67 62.0105 114.994 63.4958 116.207 65.0677C116.393 65.3276 116.851 65.1791 116.838 64.8572V64.6221H116.863ZM115.65 45.3629C114.028 40.7833 110.142 37.3053 105.822 35.2507C93.742 29.4086 76.6366 35.3744 72.7625 48.7048C72.4159 49.9549 72.2056 51.2174 72.218 52.5294C72.218 52.7275 72.3789 52.8884 72.5646 52.8884C72.676 52.8884 72.7749 52.8389 72.8368 52.7522C74.0746 51.1927 75.4237 49.7322 76.909 48.4449C85.7093 40.4615 99.1263 38.3202 109.981 43.1722C111.801 43.9396 113.533 44.905 115.192 46.0066C115.452 46.1922 115.836 45.9075 115.724 45.5981L115.65 45.3753V45.3629ZM108.261 27.5396C105.241 23.7397 100.438 21.6975 95.6853 21.1653C82.3549 19.5686 68.121 30.7577 68.777 44.6327C68.8637 45.9323 69.0742 47.1948 69.495 48.4201C69.5569 48.6058 69.7548 48.7048 69.9404 48.6429C70.0518 48.6058 70.126 48.5192 70.1631 48.4325C70.8315 46.5636 71.6236 44.7441 72.6138 43.036C78.3445 32.639 90.3507 26.2523 102.183 27.3044C104.151 27.4406 106.107 27.7995 108.038 28.2822C108.347 28.3812 108.62 27.9728 108.409 27.7252L108.261 27.5396ZM95.475 13.0829C91.3781 10.4712 86.1796 10.0999 81.5134 11.1396C68.3934 13.9493 58.5532 29.161 63.6898 42.0706C64.1849 43.2712 64.8038 44.3975 65.6084 45.4248C65.7321 45.5734 65.9424 45.6105 66.1033 45.4867C66.19 45.4125 66.2396 45.3134 66.2396 45.2144C66.2644 43.2217 66.4252 41.2537 66.8089 39.3104C68.8512 27.6139 78.1341 17.6749 89.6574 14.8281C91.5635 14.3206 93.5315 14.0235 95.5119 13.8626C95.8337 13.8626 95.9576 13.3799 95.6853 13.219L95.4874 13.0829H95.475ZM78.6913 3.55229C73.9631 2.41357 68.9256 3.75032 64.8535 6.25054C53.355 13.1695 48.9857 30.7453 58.0336 41.2908C58.8876 42.2562 59.8405 43.135 60.9297 43.8405C61.0906 43.9519 61.3135 43.9024 61.4126 43.7415C61.4745 43.6425 61.4869 43.5311 61.4497 43.4321C60.8309 41.5507 60.3356 39.6199 60.0633 37.6642C58.1943 25.9305 63.7518 13.5284 73.728 7.09223C75.3618 5.99065 77.1317 5.07472 78.9512 4.2702C79.2482 4.1588 79.211 3.67607 78.9016 3.60181L78.6789 3.5399L78.6913 3.55229ZM59.7291 0C54.8896 0.457962 50.5577 3.35426 47.5128 7.04271C38.8858 17.3283 40.4701 35.3621 52.439 42.4048C53.5653 43.0484 54.741 43.5559 56.0035 43.8777C56.1892 43.9272 56.3873 43.8158 56.4369 43.6301C56.4616 43.5187 56.4368 43.4073 56.3749 43.3331C55.1743 41.7488 54.085 40.0902 53.1938 38.3326C47.624 27.8366 48.8372 14.3082 56.1894 4.97568C57.3776 3.40375 58.7515 1.95562 60.212 0.618867C60.4595 0.408452 60.2736 -0.0247426 59.9518 0.0123894L59.7167 0.0247411L59.7291 0ZM40.631 2.7849C36.1999 4.79003 33.0437 8.93643 31.3727 13.417C26.5456 25.9429 33.8978 42.4914 47.5128 45.2639C48.7877 45.4991 50.0624 45.6105 51.362 45.4867C51.5601 45.4743 51.6962 45.3011 51.6838 45.103C51.6838 44.9916 51.6097 44.8926 51.5231 44.8307C49.8769 43.7291 48.305 42.5038 46.894 41.1299C38.2175 33.0228 34.9743 19.8161 38.898 8.61462C39.5168 6.73326 40.3339 4.92619 41.287 3.18098C41.4479 2.90868 41.126 2.54975 40.8413 2.6859L40.631 2.77251V2.7849ZM23.4882 11.6347C19.9483 14.9642 18.3145 19.9152 18.1783 24.6928C17.6832 38.1098 30.0113 51.3659 43.7872 49.5712C45.0745 49.3856 46.3122 49.0638 47.5005 48.5315C47.6737 48.4573 47.7603 48.2469 47.686 48.0736C47.6365 47.9746 47.5499 47.9003 47.4509 47.8755C45.5324 47.3681 43.651 46.7245 41.8687 45.8828C31.0262 41.0309 23.6738 29.5942 23.7481 17.7244C23.7234 15.744 23.9092 13.776 24.2434 11.8203C24.3176 11.5109 23.8845 11.2758 23.6617 11.4986L23.4882 11.6595V11.6347ZM10.133 25.5592C7.86798 29.8541 7.93001 35.065 9.35341 39.6322C13.2399 52.4799 29.2068 61.0203 41.646 54.844C42.7971 54.2499 43.8737 53.5444 44.8268 52.6532C44.9753 52.5171 44.9877 52.2943 44.8515 52.1581C44.7773 52.0715 44.6659 52.0343 44.5669 52.0467C42.5865 52.1952 40.5937 52.1952 38.6381 51.9724C26.8053 50.8956 16.1485 42.479 12.361 31.2156C11.6926 29.359 11.2348 27.4282 10.913 25.4602C10.8758 25.1384 10.4055 25.0517 10.2569 25.3488L10.1454 25.5592H10.133ZM2.02612 43.0731C1.2711 47.8755 3.02849 52.7894 5.85052 56.6387C13.6978 67.5308 31.5708 70.4271 41.3366 60.5376C42.2277 59.5969 43.0197 58.5819 43.6386 57.4432C43.7376 57.27 43.6759 57.0595 43.5026 56.9605C43.4036 56.911 43.2922 56.8986 43.1932 56.9481C41.3613 57.7279 39.4923 58.3715 37.5614 58.8047C26.0257 61.6268 13.2028 57.1214 5.96203 47.7023C4.7243 46.1675 3.6597 44.4842 2.71902 42.7389C2.58287 42.4543 2.10012 42.5285 2.06299 42.838L2.02612 43.0731ZM0.0456255 62.2704C0.899662 67.0604 4.14251 71.1326 8.07851 73.8556C19.0325 81.6038 36.8804 78.5466 42.9082 66.0207C43.4528 64.8449 43.8739 63.6319 44.0719 62.3446C44.109 62.1466 43.9729 61.9733 43.7872 61.9362C43.6758 61.9115 43.5645 61.9486 43.4902 62.0228C42.0173 63.3472 40.4453 64.5726 38.762 65.6123C28.7735 72.0361 15.1831 71.9371 5.26883 65.3771C3.59789 64.325 2.05068 63.0749 0.590156 61.7258C0.367364 61.503 -0.0658068 61.7258 0.00845719 62.0352L0.0456255 62.2704ZM4.40247 81.0716C6.76654 85.317 11.1604 88.1143 15.7524 89.4263C28.6372 93.2014 44.5174 84.5001 46.1512 70.7117C46.2874 69.4245 46.2873 68.1373 46.0645 66.85C46.0397 66.652 45.8543 66.5282 45.6562 66.5529C45.5448 66.5653 45.458 66.6396 45.4084 66.7262C44.443 68.4591 43.3539 70.13 42.1038 71.6524C34.7393 80.9726 21.8546 85.2922 10.356 82.2969C8.43756 81.839 6.56854 81.1706 4.74907 80.3661C4.4644 80.2175 4.13006 80.5765 4.29097 80.8488L4.40247 81.0592V81.0716ZM14.6262 97.4344C18.2403 100.69 23.3025 101.903 28.0802 101.655C41.4848 101.036 53.689 87.6563 50.7555 74.0784C50.4585 72.8159 50.0376 71.6029 49.4187 70.4642C49.3321 70.2909 49.1094 70.229 48.9361 70.3157C48.8371 70.3652 48.7753 70.4642 48.7506 70.5632C48.404 72.5188 47.921 74.4497 47.2279 76.2939C43.2795 87.4954 32.4989 95.7758 20.6538 96.6794C18.6858 96.865 16.7057 96.8403 14.7253 96.6794C14.4035 96.6422 14.2052 97.0755 14.4527 97.2859L14.6262 97.4468V97.4344ZM29.615 109.589C34.0832 111.495 39.2694 111 43.7129 109.205C56.1893 104.267 63.3927 87.6563 56.2015 75.7617C55.5083 74.6601 54.7286 73.6451 53.7632 72.7787C53.6146 72.6426 53.392 72.655 53.2682 72.7911C53.1939 72.8778 53.1567 72.9892 53.1815 73.0882C53.4909 75.0562 53.6519 77.0365 53.6024 79.0045C53.5158 90.8868 46.0028 102.212 35.0859 106.915C33.2912 107.732 31.3975 108.351 29.479 108.834C29.1695 108.896 29.12 109.379 29.417 109.49L29.6273 109.589H29.615ZM47.7355 116.223C52.5875 116.57 57.3279 114.416 60.9421 111.285C71.141 102.559 72.552 84.5125 61.9075 75.6008C60.905 74.7839 59.8283 74.0784 58.6277 73.5709C58.4544 73.4966 58.2438 73.5709 58.1572 73.7442C58.1077 73.8432 58.12 73.9546 58.1572 74.0536C59.0855 75.8112 59.8778 77.6307 60.4719 79.512C64.247 90.7754 60.806 103.933 52.0181 111.916C50.5823 113.277 48.998 114.466 47.3394 115.555C47.0671 115.716 47.1786 116.186 47.5005 116.198L47.7355 116.223Z" fill="url(#paint0_linear_530_117)"/>
<defs>
<linearGradient id="paint0_linear_530_117" x1="17.4605" y1="17.6377" x2="99.9554" y2="100.12" gradientUnits="userSpaceOnUse">
<stop stop-color="#79E3A3"/>
<stop offset="1" stop-color="#1B3342"/>
</linearGradient>
</defs>
</svg>
