<svg width="125" height="125" viewBox="0 0 125 125" fill="none" xmlns="http://www.w3.org/2000/svg">
<path d="M72.2913 31.7234C72.1324 31.7234 72.0129 31.6042 72.0129 31.4453C72.0129 31.2864 72.1324 31.1673 72.2913 31.1673C72.4501 31.1673 72.5693 31.2864 72.5693 31.4453C72.5693 31.6042 72.4501 31.7234 72.2913 31.7234ZM72.066 27.1158C72.066 26.8113 71.8145 26.5597 71.51 26.5597C71.2055 26.5597 70.954 26.8113 70.954 27.1158C70.954 27.4203 71.2055 27.6719 71.51 27.6719C71.8145 27.6719 72.066 27.4203 72.066 27.1158ZM71.285 22.8392C71.285 22.3758 70.9141 21.9919 70.4375 21.9919C69.9608 21.9919 69.5902 22.3626 69.5902 22.8392C69.5902 23.3159 69.9608 23.6866 70.4375 23.6866C70.9141 23.6866 71.285 23.3159 71.285 22.8392ZM70.2787 18.6289C70.2787 18.0066 69.7755 17.5035 69.1532 17.5035C68.5309 17.5035 68.0277 18.0066 68.0277 18.6289C68.0277 19.2512 68.5309 19.7543 69.1532 19.7543C69.7755 19.7543 70.2787 19.2512 70.2787 18.6289ZM69.1002 14.4715C69.1002 13.7036 68.4778 13.068 67.6967 13.068C66.9155 13.068 66.2934 13.6903 66.2934 14.4715C66.2934 15.2526 66.9155 15.8749 67.6967 15.8749C68.4778 15.8749 69.1002 15.2526 69.1002 14.4715ZM67.7762 10.3803C67.7762 9.45345 67.0215 8.69878 66.0947 8.69878C65.1678 8.69878 64.4131 9.45345 64.4131 10.3803C64.4131 11.3071 65.1678 12.0618 66.0947 12.0618C67.0215 12.0618 67.7762 11.3071 67.7762 10.3803ZM66.32 6.32878C66.32 5.24309 65.4458 4.36925 64.3601 4.36925C63.2744 4.36925 62.4006 5.24309 62.4006 6.32878C62.4006 7.41447 63.2744 8.28834 64.3601 8.28834C65.4458 8.28834 66.32 7.41447 66.32 6.32878ZM64.7441 2.23759C64.7441 0.993013 63.738 0 62.5066 0C61.2753 0 60.2691 1.00625 60.2691 2.23759C60.2691 3.46892 61.2753 4.47517 62.5066 4.47517C63.738 4.47517 64.7441 3.46892 64.7441 2.23759ZM52.9738 93.5283C52.9738 93.3695 52.8547 93.2503 52.6958 93.2503C52.5369 93.2503 52.4178 93.3695 52.4178 93.5283C52.4178 93.6872 52.5369 93.8064 52.6958 93.8064C52.8547 93.8064 52.9738 93.6872 52.9738 93.5283ZM54.0463 97.8711C54.0463 97.5666 53.7945 97.315 53.49 97.315C53.1855 97.315 52.934 97.5666 52.934 97.8711C52.934 98.1756 53.1855 98.4272 53.49 98.4272C53.7945 98.4272 54.0463 98.1756 54.0463 97.8711ZM55.3836 102.148C55.3836 101.684 55.0127 101.3 54.536 101.3C54.0594 101.3 53.6888 101.671 53.6888 102.148C53.6888 102.624 54.0594 102.995 54.536 102.995C55.0127 102.995 55.3836 102.624 55.3836 102.148ZM56.9591 106.345C56.9591 105.722 56.4558 105.219 55.8335 105.219C55.2113 105.219 54.7083 105.722 54.7083 106.345C54.7083 106.967 55.2113 107.47 55.8335 107.47C56.4558 107.47 56.9591 106.967 56.9591 106.345ZM58.6936 110.515C58.6936 109.734 58.0713 109.112 57.2901 109.112C56.5089 109.112 55.8866 109.734 55.8866 110.515C55.8866 111.297 56.5089 111.919 57.2901 111.919C58.0713 111.919 58.6936 111.297 58.6936 110.515ZM60.5869 114.607C60.5869 113.68 59.8322 112.925 58.9053 112.925C57.9785 112.925 57.2238 113.68 57.2238 114.607C57.2238 115.533 57.9785 116.288 58.9053 116.288C59.8322 116.288 60.5869 115.533 60.5869 114.607ZM62.5861 118.658C62.5861 117.572 61.7123 116.699 60.6266 116.699C59.5409 116.699 58.6671 117.572 58.6671 118.658C58.6671 119.744 59.5409 120.618 60.6266 120.618C61.7123 120.618 62.5861 119.744 62.5861 118.658ZM64.7441 122.749C64.7441 121.505 63.738 120.512 62.5066 120.512C61.2753 120.512 60.2691 121.518 60.2691 122.749C60.2691 123.981 61.2753 124.987 62.5066 124.987C63.738 124.987 64.7441 123.981 64.7441 122.749ZM93.8194 72.2912C93.8194 72.1323 93.6871 72.0131 93.5414 72.0131C93.3958 72.0131 93.2634 72.1323 93.2634 72.2912C93.2634 72.45 93.3958 72.5692 93.5414 72.5692C93.6871 72.5692 93.8194 72.45 93.8194 72.2912ZM98.4273 71.4967C98.4273 71.1922 98.1755 70.9407 97.871 70.9407C97.5665 70.9407 97.315 71.1922 97.315 71.4967C97.315 71.8013 97.5665 72.0528 97.871 72.0528C98.1755 72.0528 98.4273 71.8013 98.4273 71.4967ZM102.995 70.4375C102.995 69.9741 102.624 69.5901 102.148 69.5901C101.671 69.5901 101.3 69.9609 101.3 70.4375C101.3 70.9142 101.671 71.2849 102.148 71.2849C102.624 71.2849 102.995 70.9142 102.995 70.4375ZM107.483 69.1532C107.483 68.531 106.98 68.0278 106.358 68.0278C105.736 68.0278 105.233 68.531 105.233 69.1532C105.233 69.7755 105.736 70.2787 106.358 70.2787C106.98 70.2787 107.483 69.7755 107.483 69.1532ZM111.919 67.6836C111.919 66.9156 111.297 66.2801 110.515 66.2801C109.734 66.2801 109.112 66.9024 109.112 67.6836C109.112 68.4647 109.734 69.087 110.515 69.087C111.297 69.087 111.919 68.4647 111.919 67.6836ZM116.288 66.0815C116.288 65.1547 115.533 64.4 114.607 64.4C113.68 64.4 112.925 65.1547 112.925 66.0815C112.925 67.0083 113.68 67.763 114.607 67.763C115.533 67.763 116.288 67.0083 116.288 66.0815ZM120.618 64.3603C120.618 63.2746 119.744 62.4008 118.658 62.4008C117.572 62.4008 116.698 63.2746 116.698 64.3603C116.698 65.446 117.572 66.3198 118.658 66.3198C119.744 66.3198 120.618 65.446 120.618 64.3603ZM125 62.4935C125 61.2489 123.994 60.2559 122.762 60.2559C121.531 60.2559 120.525 61.2621 120.525 62.4935C120.525 63.7248 121.531 64.731 122.762 64.731C123.994 64.731 125 63.7248 125 62.4935ZM31.7366 52.6957C31.7366 52.5368 31.6042 52.4177 31.4586 52.4177C31.3129 52.4177 31.1806 52.5368 31.1806 52.6957C31.1806 52.8546 31.3129 52.9738 31.4586 52.9738C31.6042 52.9738 31.7366 52.8546 31.7366 52.6957ZM27.685 53.4769C27.685 53.1724 27.4335 52.9208 27.129 52.9208C26.8245 52.9208 26.573 53.1724 26.573 53.4769C26.573 53.7815 26.8245 54.033 27.129 54.033C27.4335 54.033 27.685 53.7815 27.685 53.4769ZM23.6865 54.5494C23.6865 54.086 23.3159 53.702 22.8392 53.702C22.3626 53.702 21.9917 54.0727 21.9917 54.5494C21.9917 55.026 22.3626 55.3967 22.8392 55.3967C23.3159 55.3967 23.6865 55.026 23.6865 54.5494ZM19.7542 55.8204C19.7542 55.1981 19.2512 54.695 18.629 54.695C18.0067 54.695 17.5034 55.1981 17.5034 55.8204C17.5034 56.4427 18.0067 56.9458 18.629 56.9458C19.2512 56.9458 19.7542 56.4427 19.7542 55.8204ZM15.8749 57.2901C15.8749 56.5089 15.2525 55.8866 14.4714 55.8866C13.6902 55.8866 13.0678 56.5089 13.0678 57.2901C13.0678 58.0712 13.6902 58.6935 14.4714 58.6935C15.2525 58.6935 15.8749 58.0712 15.8749 57.2901ZM12.0616 58.8921C12.0616 57.9653 11.3072 57.2106 10.3804 57.2106C9.45357 57.2106 8.69886 57.9653 8.69886 58.8921C8.69886 59.8189 9.45357 60.5736 10.3804 60.5736C11.3072 60.5736 12.0616 59.8189 12.0616 58.8921ZM8.28834 60.6266C8.28834 59.5409 7.41451 58.667 6.32882 58.667C5.24313 58.667 4.36931 59.5409 4.36931 60.6266C4.36931 61.7123 5.24313 62.5861 6.32882 62.5861C7.41451 62.5861 8.28834 61.7123 8.28834 60.6266ZM4.47501 62.4935C4.47501 61.2489 3.46884 60.2559 2.23751 60.2559C1.00617 60.2559 0 61.2621 0 62.4935C0 63.7248 1.00617 64.731 2.23751 64.731C3.46884 64.731 4.47501 63.7248 4.47501 62.4935ZM47.744 33.6035C47.744 33.4446 47.6249 33.3254 47.466 33.3254C47.3071 33.3254 47.1877 33.4578 47.1877 33.6035C47.1877 33.7491 47.3071 33.8815 47.466 33.8815C47.6249 33.8815 47.744 33.7624 47.744 33.6035ZM44.4075 31.1011C44.4075 30.7965 44.1557 30.545 43.8512 30.545C43.5466 30.545 43.2952 30.7965 43.2952 31.1011C43.2952 31.4056 43.5466 31.6572 43.8512 31.6572C44.1557 31.6572 44.4075 31.4056 44.4075 31.1011ZM40.9119 28.8238C40.9119 28.3604 40.5413 27.9764 40.0647 27.9764C39.588 27.9764 39.2171 28.3471 39.2171 28.8238C39.2171 29.3004 39.588 29.6712 40.0647 29.6712C40.5413 29.6712 40.9119 29.3004 40.9119 28.8238ZM37.3106 26.7583C37.3106 26.136 36.8077 25.6329 36.1854 25.6329C35.5631 25.6329 35.0599 26.136 35.0599 26.7583C35.0599 27.3806 35.5631 27.8837 36.1854 27.8837C36.8077 27.8837 37.3106 27.3806 37.3106 26.7583ZM33.6166 24.8517C33.6166 24.0838 32.9945 23.4483 32.2134 23.4483C31.4322 23.4483 30.8098 24.0706 30.8098 24.8517C30.8098 25.6329 31.4322 26.2552 32.2134 26.2552C32.9945 26.2552 33.6166 25.6329 33.6166 24.8517ZM29.8698 23.0908C29.8698 22.164 29.1151 21.4093 28.1883 21.4093C27.2615 21.4093 26.5068 22.164 26.5068 23.0908C26.5068 24.0176 27.2615 24.7723 28.1883 24.7723C29.1151 24.7723 29.8698 24.0176 29.8698 23.0908ZM26.0565 21.449C26.0565 20.3633 25.1827 19.4895 24.097 19.4895C23.0113 19.4895 22.1375 20.3633 22.1375 21.449C22.1375 22.5347 23.0113 23.4086 24.097 23.4086C25.1827 23.4086 26.0565 22.5347 26.0565 21.449ZM22.1242 19.8867C22.1242 18.6421 21.118 17.6491 19.8867 17.6491C18.6554 17.6491 17.6492 18.6553 17.6492 19.8867C17.6492 21.118 18.6554 22.1243 19.8867 22.1243C21.118 22.1243 22.1242 21.118 22.1242 19.8867ZM77.799 91.3702C77.799 91.2113 77.6799 91.0921 77.5211 91.0921C77.3622 91.0921 77.2431 91.2113 77.2431 91.3702C77.2431 91.5291 77.3622 91.6482 77.5211 91.6482C77.6799 91.6482 77.799 91.5291 77.799 91.3702ZM81.7048 93.8858C81.7048 93.5813 81.4534 93.3297 81.1488 93.3297C80.8443 93.3297 80.5925 93.5813 80.5925 93.8858C80.5925 94.1903 80.8443 94.4419 81.1488 94.4419C81.4534 94.4419 81.7048 94.1903 81.7048 93.8858ZM85.7564 96.1499C85.7564 95.6865 85.3855 95.3025 84.9221 95.3025C84.4587 95.3025 84.0749 95.6732 84.0749 96.1499C84.0749 96.6265 84.4454 96.9972 84.9221 96.9972C85.3987 96.9972 85.7564 96.6265 85.7564 96.1499ZM89.9269 98.2153C89.9269 97.593 89.424 97.0899 88.8017 97.0899C88.1794 97.0899 87.6761 97.593 87.6761 98.2153C87.6761 98.8376 88.1794 99.3407 88.8017 99.3407C89.424 99.3407 89.9269 98.8376 89.9269 98.2153ZM94.1769 100.122C94.1769 99.354 93.5549 98.7185 92.7737 98.7185C91.9925 98.7185 91.3702 99.3407 91.3702 100.122C91.3702 100.903 91.9925 101.525 92.7737 101.525C93.5549 101.525 94.1769 100.903 94.1769 100.122ZM98.48 101.883C98.48 100.956 97.7253 100.201 96.7984 100.201C95.8716 100.201 95.1172 100.956 95.1172 101.883C95.1172 102.81 95.8716 103.564 96.7984 103.564C97.7253 103.564 98.48 102.81 98.48 101.883ZM102.849 103.525C102.849 102.439 101.975 101.565 100.89 101.565C99.8041 101.565 98.9302 102.439 98.9302 103.525C98.9302 104.61 99.8041 105.484 100.89 105.484C101.975 105.484 102.849 104.61 102.849 103.525ZM107.351 105.1C107.351 103.856 106.345 102.863 105.113 102.863C103.882 102.863 102.876 103.869 102.876 105.1C102.876 106.332 103.882 107.338 105.113 107.338C106.345 107.338 107.351 106.332 107.351 105.1ZM91.6614 47.4659C91.6614 47.307 91.5423 47.1879 91.3834 47.1879C91.2246 47.1879 91.1054 47.307 91.1054 47.4659C91.1054 47.6248 91.2246 47.7439 91.3834 47.7439C91.5423 47.7439 91.6614 47.6248 91.6614 47.4659ZM94.442 43.8381C94.442 43.5336 94.1902 43.282 93.8857 43.282C93.5812 43.282 93.3297 43.5336 93.3297 43.8381C93.3297 44.1426 93.5812 44.3942 93.8857 44.3942C94.1902 44.3942 94.442 44.1426 94.442 43.8381ZM96.9972 40.0647C96.9972 39.6013 96.6263 39.2173 96.1497 39.2173C95.673 39.2173 95.3025 39.588 95.3025 40.0647C95.3025 40.5413 95.673 40.912 96.1497 40.912C96.6263 40.912 96.9972 40.5413 96.9972 40.0647ZM99.3408 36.1853C99.3408 35.563 98.8375 35.0599 98.2152 35.0599C97.5929 35.0599 97.09 35.563 97.09 36.1853C97.09 36.8076 97.5929 37.3107 98.2152 37.3107C98.8375 37.3107 99.3408 36.8076 99.3408 36.1853ZM101.525 32.2133C101.525 31.4321 100.903 30.8098 100.122 30.8098C99.3406 30.8098 98.7185 31.4321 98.7185 32.2133C98.7185 32.9944 99.3406 33.6167 100.122 33.6167C100.903 33.6167 101.525 32.9944 101.525 32.2133ZM103.564 28.1883C103.564 27.2615 102.81 26.5067 101.883 26.5067C100.956 26.5067 100.201 27.2615 100.201 28.1883C100.201 29.1151 100.956 29.8697 101.883 29.8697C102.81 29.8697 103.564 29.1151 103.564 28.1883ZM105.497 24.0971C105.497 23.0114 104.623 22.1375 103.538 22.1375C102.452 22.1375 101.578 23.0114 101.578 24.0971C101.578 25.1828 102.452 26.0566 103.538 26.0566C104.623 26.0566 105.497 25.1828 105.497 24.0971ZM107.351 19.8867C107.351 18.6421 106.345 17.6491 105.113 17.6491C103.882 17.6491 102.876 18.6553 102.876 19.8867C102.876 21.118 103.882 22.1243 105.113 22.1243C106.345 22.1243 107.351 21.118 107.351 19.8867ZM33.8949 77.521C33.8949 77.3621 33.7754 77.243 33.6166 77.243C33.4577 77.243 33.3386 77.3621 33.3386 77.521C33.3386 77.6799 33.4577 77.799 33.6166 77.799C33.7754 77.799 33.8949 77.6799 33.8949 77.521ZM31.6703 81.1356C31.6703 80.831 31.4188 80.5795 31.1143 80.5795C30.8098 80.5795 30.5583 80.831 30.5583 81.1356C30.5583 81.4401 30.8098 81.6917 31.1143 81.6917C31.4188 81.6917 31.6703 81.4401 31.6703 81.1356ZM29.671 84.909C29.671 84.4456 29.3004 84.0749 28.8238 84.0749C28.3472 84.0749 27.9762 84.4456 27.9762 84.909C27.9762 85.3724 28.3472 85.7563 28.8238 85.7563C29.3004 85.7563 29.671 85.3856 29.671 84.909ZM27.8838 88.8016C27.8838 88.1793 27.3805 87.6762 26.7583 87.6762C26.136 87.6762 25.6327 88.1793 25.6327 88.8016C25.6327 89.4239 26.136 89.927 26.7583 89.927C27.3805 89.927 27.8838 89.4239 27.8838 88.8016ZM26.2685 92.7736C26.2685 92.0057 25.6462 91.3702 24.865 91.3702C24.0838 91.3702 23.4615 91.9925 23.4615 92.7736C23.4615 93.5548 24.0838 94.1771 24.865 94.1771C25.6462 94.1771 26.2685 93.5548 26.2685 92.7736ZM24.7855 96.7987C24.7855 95.8718 24.0308 95.1171 23.104 95.1171C22.1772 95.1171 21.4224 95.8718 21.4224 96.7987C21.4224 97.7255 22.1772 98.4801 23.104 98.4801C24.0308 98.4801 24.7855 97.7255 24.7855 96.7987ZM23.4217 100.89C23.4217 99.8042 22.5479 98.9303 21.4622 98.9303C20.3765 98.9303 19.5027 99.8042 19.5027 100.89C19.5027 101.976 20.3765 102.849 21.4622 102.849C22.5479 102.849 23.4217 101.976 23.4217 100.89ZM22.1242 105.1C22.1242 103.856 21.118 102.863 19.8867 102.863C18.6554 102.863 17.6492 103.869 17.6492 105.1C17.6492 106.332 18.6554 107.338 19.8867 107.338C21.118 107.338 22.1242 106.332 22.1242 105.1ZM41.6799 6.81868C41.6799 5.57411 40.6737 4.5811 39.4424 4.5811C38.2111 4.5811 37.2049 5.58735 37.2049 6.81868C37.2049 8.05001 38.2111 9.05625 39.4424 9.05625C40.6737 9.05625 41.6799 8.05001 41.6799 6.81868ZM44.6324 9.82418C44.6324 8.73849 43.7586 7.86464 42.6729 7.86464C41.5872 7.86464 40.7134 8.73849 40.7134 9.82418C40.7134 10.9099 41.5872 11.7837 42.6729 11.7837C43.7586 11.7837 44.6324 10.9099 44.6324 9.82418ZM47.5054 12.9091C47.5054 11.9823 46.7507 11.2276 45.8239 11.2276C44.8971 11.2276 44.1427 11.9823 44.1427 12.9091C44.1427 13.8359 44.8971 14.5906 45.8239 14.5906C46.7507 14.5906 47.5054 13.8359 47.5054 12.9091ZM50.286 16.1C50.286 15.3321 49.6636 14.6966 48.8825 14.6966C48.1013 14.6966 47.4789 15.3188 47.4789 16.1C47.4789 16.8812 48.1013 17.5035 48.8825 17.5035C49.6636 17.5035 50.286 16.8812 50.286 16.1ZM52.9605 19.3836C52.9605 18.7613 52.4573 18.2582 51.835 18.2582C51.2127 18.2582 50.7098 18.7613 50.7098 19.3836C50.7098 20.0059 51.2127 20.509 51.835 20.509C52.4573 20.509 52.9605 20.0059 52.9605 19.3836ZM55.476 22.7863C55.476 22.3229 55.1055 21.9389 54.6288 21.9389C54.1522 21.9389 53.7813 22.3096 53.7813 22.7863C53.7813 23.2629 54.1522 23.6336 54.6288 23.6336C55.1055 23.6336 55.476 23.2629 55.476 22.7863ZM57.8461 26.3479C57.8461 26.0433 57.5946 25.7918 57.2901 25.7918C56.9856 25.7918 56.7341 26.0433 56.7341 26.3479C56.7341 26.6524 56.9856 26.904 57.2901 26.904C57.5946 26.904 57.8461 26.6524 57.8461 26.3479ZM59.9116 29.9889C59.9116 29.83 59.7925 29.7109 59.6336 29.7109C59.4747 29.7109 59.3556 29.83 59.3556 29.9889C59.3556 30.1478 59.4747 30.267 59.6336 30.267C59.7925 30.267 59.9116 30.1478 59.9116 29.9889ZM87.7954 118.155C87.7954 116.91 86.7889 115.917 85.5576 115.917C84.3262 115.917 83.3201 116.924 83.3201 118.155C83.3201 119.386 84.3262 120.393 85.5576 120.393C86.7889 120.393 87.7954 119.386 87.7954 118.155ZM84.2866 115.149C84.2866 114.064 83.4128 113.19 82.3271 113.19C81.2414 113.19 80.3676 114.064 80.3676 115.149C80.3676 116.235 81.2414 117.109 82.3271 117.109C83.4128 117.109 84.2866 116.235 84.2866 115.149ZM80.8443 112.065C80.8443 111.138 80.0896 110.383 79.1628 110.383C78.236 110.383 77.4813 111.138 77.4813 112.065C77.4813 112.991 78.236 113.746 79.1628 113.746C80.0896 113.746 80.8443 112.991 80.8443 112.065ZM77.5078 108.887C77.5078 108.119 76.8854 107.483 76.1043 107.483C75.3231 107.483 74.7007 108.106 74.7007 108.887C74.7007 109.668 75.3231 110.29 76.1043 110.29C76.8854 110.29 77.5078 109.668 77.5078 108.887ZM74.2773 105.603C74.2773 104.981 73.774 104.478 73.1517 104.478C72.5295 104.478 72.0262 104.981 72.0262 105.603C72.0262 106.226 72.5295 106.729 73.1517 106.729C73.774 106.729 74.2773 106.226 74.2773 105.603ZM71.1922 102.187C71.1922 101.724 70.8213 101.34 70.3579 101.34C69.8945 101.34 69.5107 101.711 69.5107 102.187C69.5107 102.664 69.8813 103.035 70.3579 103.035C70.8346 103.035 71.1922 102.664 71.1922 102.187ZM68.2662 98.6258C68.2662 98.3212 68.0144 98.0697 67.7099 98.0697C67.4054 98.0697 67.1539 98.3212 67.1539 98.6258C67.1539 98.9303 67.4054 99.1819 67.7099 99.1819C68.0144 99.1819 68.2662 98.9303 68.2662 98.6258ZM65.6447 94.998C65.6447 94.8391 65.5253 94.7199 65.3664 94.7199C65.2075 94.7199 65.0884 94.8391 65.0884 94.998C65.0884 95.1569 65.2075 95.276 65.3664 95.276C65.5253 95.276 65.6447 95.1569 65.6447 94.998ZM95.1964 59.66C95.1964 59.5012 95.0773 59.382 94.9184 59.382C94.7596 59.382 94.6405 59.5012 94.6405 59.66C94.6405 59.8189 94.7596 59.9381 94.9184 59.9381C95.0773 59.9381 95.1964 59.8189 95.1964 59.66ZM99.1817 57.2768C99.1817 56.9723 98.9303 56.7207 98.6257 56.7207C98.3212 56.7207 98.0698 56.9723 98.0698 57.2768C98.0698 57.5814 98.3212 57.8329 98.6257 57.8329C98.9303 57.8329 99.1817 57.5814 99.1817 57.2768ZM103.008 54.6553C103.008 54.1919 102.637 53.8079 102.161 53.8079C101.684 53.8079 101.314 54.1786 101.314 54.6553C101.314 55.1319 101.684 55.5027 102.161 55.5027C102.637 55.5027 103.008 55.1319 103.008 54.6553ZM106.689 51.8616C106.689 51.2393 106.186 50.7362 105.564 50.7362C104.941 50.7362 104.438 51.2393 104.438 51.8616C104.438 52.4839 104.941 52.987 105.564 52.987C106.186 52.987 106.689 52.4839 106.689 51.8616ZM110.251 48.9223C110.251 48.1412 109.628 47.5189 108.847 47.5189C108.066 47.5189 107.444 48.1412 107.444 48.9223C107.444 49.7035 108.066 50.3258 108.847 50.3258C109.628 50.3258 110.251 49.7035 110.251 48.9223ZM113.693 45.8771C113.693 44.9503 112.938 44.1956 112.012 44.1956C111.085 44.1956 110.33 44.9503 110.33 45.8771C110.33 46.8039 111.085 47.5586 112.012 47.5586C112.938 47.5586 113.693 46.8039 113.693 45.8771ZM117.069 42.7259C117.069 41.6402 116.195 40.7664 115.11 40.7664C114.024 40.7664 113.15 41.6402 113.15 42.7259C113.15 43.8116 114.024 44.6855 115.11 44.6855C116.195 44.6855 117.069 43.8116 117.069 42.7259ZM120.406 39.4291C120.406 38.1846 119.4 37.1915 118.168 37.1915C116.937 37.1915 115.931 38.1978 115.931 39.4291C115.931 40.6605 116.937 41.6667 118.168 41.6667C119.4 41.6667 120.406 40.6605 120.406 39.4291ZM30.3463 65.3136C30.3463 65.1547 30.2272 65.0355 30.0683 65.0355C29.9094 65.0355 29.7903 65.1547 29.7903 65.3136C29.7903 65.4725 29.9094 65.5916 30.0683 65.5916C30.2272 65.5916 30.3463 65.4725 30.3463 65.3136ZM26.9305 67.6968C26.9305 67.3923 26.6788 67.1407 26.3742 67.1407C26.0697 67.1407 25.8183 67.3923 25.8183 67.6968C25.8183 68.0013 26.0697 68.2529 26.3742 68.2529C26.6788 68.2529 26.9305 68.0013 26.9305 67.6968ZM23.66 70.3184C23.66 69.855 23.2894 69.471 22.826 69.471C22.3626 69.471 21.9788 69.8417 21.9788 70.3184C21.9788 70.795 22.3493 71.1657 22.826 71.1657C23.3026 71.1657 23.66 70.795 23.66 70.3184ZM20.5487 73.112C20.5487 72.4897 20.0455 71.9866 19.4232 71.9866C18.8009 71.9866 18.298 72.4897 18.298 73.112C18.298 73.7343 18.8009 74.2374 19.4232 74.2374C20.0455 74.2374 20.5487 73.7343 20.5487 73.112ZM17.5432 76.0646C17.5432 75.2967 16.9208 74.6611 16.1396 74.6611C15.3585 74.6611 14.7361 75.2834 14.7361 76.0646C14.7361 76.8458 15.3585 77.468 16.1396 77.468C16.9208 77.468 17.5432 76.8458 17.5432 76.0646ZM14.6569 79.1098C14.6569 78.183 13.9022 77.4283 12.9754 77.4283C12.0486 77.4283 11.2939 78.183 11.2939 79.1098C11.2939 80.0366 12.0486 80.7913 12.9754 80.7913C13.9022 80.7913 14.6569 80.0366 14.6569 79.1098ZM11.8499 82.261C11.8499 81.1753 10.976 80.3014 9.89034 80.3014C8.80465 80.3014 7.93083 81.1753 7.93083 82.261C7.93083 83.3467 8.80465 84.2205 9.89034 84.2205C10.976 84.2205 11.8499 83.3467 11.8499 82.261ZM9.06962 85.5445C9.06962 84.3 8.06313 83.307 6.83179 83.307C5.60046 83.307 4.59429 84.3132 4.59429 85.5445C4.59429 86.7759 5.60046 87.7821 6.83179 87.7821C8.06313 87.7821 9.06962 86.7759 9.06962 85.5445ZM37.8537 41.5608C37.8537 41.4019 37.7342 41.2827 37.5753 41.2827C37.4165 41.2827 37.2974 41.4019 37.2974 41.5608C37.2974 41.7197 37.4297 41.8388 37.5753 41.8388C37.721 41.8388 37.8537 41.7197 37.8537 41.5608ZM33.8286 40.6207C33.8286 40.3162 33.5768 40.0647 33.2723 40.0647C32.9678 40.0647 32.7163 40.3162 32.7163 40.6207C32.7163 40.9253 32.9678 41.1768 33.2723 41.1768C33.5768 41.1768 33.8286 40.9253 33.8286 40.6207ZM29.7505 39.972C29.7505 39.5086 29.38 39.1246 28.9033 39.1246C28.4267 39.1246 28.0558 39.4953 28.0558 39.972C28.0558 40.4486 28.4267 40.8194 28.9033 40.8194C29.38 40.8194 29.7505 40.4486 29.7505 39.972ZM25.646 39.5483C25.646 38.926 25.143 38.4229 24.5208 38.4229C23.8985 38.4229 23.3952 38.926 23.3952 39.5483C23.3952 40.1706 23.8985 40.6737 24.5208 40.6737C25.143 40.6737 25.646 40.1706 25.646 39.5483ZM21.5285 39.31C21.5285 38.542 20.9061 37.9065 20.1249 37.9065C19.3438 37.9065 18.7214 38.5288 18.7214 39.31C18.7214 40.0911 19.3438 40.7134 20.1249 40.7134C20.9061 40.7134 21.5285 40.0911 21.5285 39.31ZM17.4106 39.2305C17.4106 38.3037 16.6559 37.549 15.7291 37.549C14.8023 37.549 14.0476 38.3037 14.0476 39.2305C14.0476 40.1573 14.8023 40.912 15.7291 40.912C16.6559 40.912 17.4106 40.1573 17.4106 39.2305ZM13.2799 39.2702C13.2799 38.1846 12.4061 37.3107 11.3204 37.3107C10.2347 37.3107 9.36087 38.1846 9.36087 39.2702C9.36087 40.3559 10.2347 41.2298 11.3204 41.2298C12.4061 41.2298 13.2799 40.3559 13.2799 39.2702ZM9.06962 39.4291C9.06962 38.1846 8.06313 37.1915 6.83179 37.1915C5.60046 37.1915 4.59429 38.1978 4.59429 39.4291C4.59429 40.6605 5.60046 41.6667 6.83179 41.6667C8.06313 41.6667 9.06962 40.6605 9.06962 39.4291ZM87.7026 83.4261C87.7026 83.2672 87.5835 83.148 87.4247 83.148C87.2658 83.148 87.1467 83.2672 87.1467 83.4261C87.1467 83.585 87.2658 83.7041 87.4247 83.7041C87.5835 83.7041 87.7026 83.585 87.7026 83.4261ZM92.2837 84.3529C92.2837 84.0484 92.0322 83.7968 91.7277 83.7968C91.4232 83.7968 91.1714 84.0484 91.1714 84.3529C91.1714 84.6574 91.4232 84.909 91.7277 84.909C92.0322 84.909 92.2837 84.6574 92.2837 84.3529ZM96.931 85.0017C96.931 84.5383 96.5604 84.1543 96.0837 84.1543C95.6071 84.1543 95.2362 84.525 95.2362 85.0017C95.2362 85.4783 95.6071 85.849 96.0837 85.849C96.5604 85.849 96.931 85.4783 96.931 85.0017ZM101.592 85.4253C101.592 84.8031 101.088 84.3 100.466 84.3C99.8437 84.3 99.3408 84.8031 99.3408 85.4253C99.3408 86.0476 99.8437 86.5508 100.466 86.5508C101.088 86.5508 101.592 86.0476 101.592 85.4253ZM106.265 85.6637C106.265 84.8958 105.643 84.2602 104.862 84.2602C104.081 84.2602 103.458 84.8825 103.458 85.6637C103.458 86.4449 104.081 87.0671 104.862 87.0671C105.643 87.0671 106.265 86.4449 106.265 85.6637ZM110.939 85.7563C110.939 84.8295 110.184 84.0749 109.258 84.0749C108.331 84.0749 107.576 84.8295 107.576 85.7563C107.576 86.6832 108.331 87.4379 109.258 87.4379C110.184 87.4379 110.939 86.6832 110.939 85.7563ZM115.639 85.7034C115.639 84.6177 114.765 83.7439 113.68 83.7439C112.594 83.7439 111.72 84.6177 111.72 85.7034C111.72 86.7891 112.594 87.6629 113.68 87.6629C114.765 87.6629 115.639 86.7891 115.639 85.7034ZM120.406 85.5445C120.406 84.3 119.4 83.307 118.168 83.307C116.937 83.307 115.931 84.3132 115.931 85.5445C115.931 86.7759 116.937 87.7821 118.168 87.7821C119.4 87.7821 120.406 86.7759 120.406 85.5445ZM83.7041 37.5623C83.7041 37.4034 83.585 37.2842 83.4261 37.2842C83.2672 37.2842 83.1481 37.4034 83.1481 37.5623C83.1481 37.7211 83.2672 37.8403 83.4261 37.8403C83.585 37.8403 83.7041 37.7211 83.7041 37.5623ZM84.9221 33.2592C84.9221 32.9547 84.6706 32.7032 84.3661 32.7032C84.0616 32.7032 83.8101 32.9547 83.8101 33.2592C83.8101 33.5637 84.0616 33.8153 84.3661 33.8153C84.6706 33.8153 84.9221 33.5637 84.9221 33.2592ZM85.8492 28.9032C85.8492 28.4398 85.4782 28.0559 85.0016 28.0559C84.525 28.0559 84.1544 28.4266 84.1544 28.9032C84.1544 29.3799 84.525 29.7506 85.0016 29.7506C85.4782 29.7506 85.8492 29.3799 85.8492 28.9032ZM86.5506 24.5207C86.5506 23.8984 86.0477 23.3953 85.4254 23.3953C84.8031 23.3953 84.2998 23.8984 84.2998 24.5207C84.2998 25.143 84.8031 25.6461 85.4254 25.6461C86.0477 25.6461 86.5506 25.143 86.5506 24.5207ZM87.0804 20.1118C87.0804 19.3438 86.458 18.7083 85.6769 18.7083C84.8957 18.7083 84.2733 19.3306 84.2733 20.1118C84.2733 20.8929 84.8957 21.5152 85.6769 21.5152C86.458 21.5152 87.0804 20.8929 87.0804 20.1118ZM87.4379 15.716C87.4379 14.7892 86.6832 14.0346 85.7564 14.0346C84.8296 14.0346 84.0749 14.7892 84.0749 15.716C84.0749 16.6428 84.8296 17.3975 85.7564 17.3975C86.6832 17.3975 87.4379 16.6428 87.4379 15.716ZM87.6761 11.3203C87.6761 10.2346 86.8023 9.36079 85.7166 9.36079C84.6309 9.36079 83.7571 10.2346 83.7571 11.3203C83.7571 12.406 84.6309 13.2799 85.7166 13.2799C86.8023 13.2799 87.6761 12.406 87.6761 11.3203ZM87.7954 6.81868C87.7954 5.57411 86.7889 4.5811 85.5576 4.5811C84.3262 4.5811 83.3201 5.58735 83.3201 6.81868C83.3201 8.05001 84.3262 9.05625 85.5576 9.05625C86.7889 9.05625 87.7954 8.05001 87.7954 6.81868ZM41.839 87.4114C41.839 87.2525 41.7195 87.1333 41.5606 87.1333C41.4018 87.1333 41.2826 87.2525 41.2826 87.4114C41.2826 87.5702 41.4018 87.6894 41.5606 87.6894C41.7195 87.6894 41.839 87.5702 41.839 87.4114ZM41.1899 91.7144C41.1899 91.4099 40.9384 91.1583 40.6339 91.1583C40.3294 91.1583 40.0779 91.4099 40.0779 91.7144C40.0779 92.0189 40.3294 92.2705 40.6339 92.2705C40.9384 92.2705 41.1899 92.0189 41.1899 91.7144ZM40.8194 96.0837C40.8194 95.6203 40.4485 95.2363 39.9719 95.2363C39.4952 95.2363 39.1247 95.607 39.1247 96.0837C39.1247 96.5603 39.4952 96.931 39.9719 96.931C40.4485 96.931 40.8194 96.5603 40.8194 96.0837ZM40.6737 100.466C40.6737 99.8439 40.1704 99.3407 39.5481 99.3407C38.9258 99.3407 38.4229 99.8439 38.4229 100.466C38.4229 101.088 38.9258 101.592 39.5481 101.592C40.1704 101.592 40.6737 101.088 40.6737 100.466ZM40.7134 104.862C40.7134 104.094 40.091 103.458 39.3099 103.458C38.5287 103.458 37.9063 104.081 37.9063 104.862C37.9063 105.643 38.5287 106.265 39.3099 106.265C40.091 106.265 40.7134 105.643 40.7134 104.862ZM40.9119 109.258C40.9119 108.331 40.1572 107.576 39.2304 107.576C38.3036 107.576 37.5488 108.331 37.5488 109.258C37.5488 110.184 38.3036 110.939 39.2304 110.939C40.1572 110.939 40.9119 110.184 40.9119 109.258ZM41.2429 113.667C41.2429 112.581 40.3691 111.707 39.2834 111.707C38.1977 111.707 37.3239 112.581 37.3239 113.667C37.3239 114.752 38.1977 115.626 39.2834 115.626C40.3691 115.626 41.2429 114.752 41.2429 113.667ZM41.6799 118.155C41.6799 116.91 40.6737 115.917 39.4424 115.917C38.2111 115.917 37.2049 116.924 37.2049 118.155C37.2049 119.386 38.2111 120.393 39.4424 120.393C40.6737 120.393 41.6799 119.386 41.6799 118.155ZM66.3332 30.1346C66.3332 29.9757 66.2138 29.8565 66.0549 29.8565C65.896 29.8565 65.7769 29.9889 65.7769 30.1346C65.7769 30.2802 65.896 30.4126 66.0549 30.4126C66.2138 30.4126 66.3332 30.2934 66.3332 30.1346ZM64.9959 26.0434C64.9959 25.7388 64.7442 25.4873 64.4396 25.4873C64.1351 25.4873 63.8837 25.7388 63.8837 26.0434C63.8837 26.3479 64.1351 26.5994 64.4396 26.5994C64.7442 26.5994 64.9959 26.3479 64.9959 26.0434ZM63.3936 22.0448C63.3936 21.5814 63.023 21.1975 62.5464 21.1975C62.0697 21.1975 61.7121 21.5682 61.7121 22.0448C61.7121 22.5215 62.083 22.8922 62.5464 22.8922C63.0098 22.8922 63.3936 22.5215 63.3936 22.0448ZM61.5931 18.1787C61.5931 17.5564 61.0899 17.0533 60.4676 17.0533C59.8453 17.0533 59.3424 17.5564 59.3424 18.1787C59.3424 18.801 59.8453 19.3041 60.4676 19.3041C61.0899 19.3041 61.5931 18.801 61.5931 18.1787ZM59.6336 14.3788C59.6336 13.5976 59.0113 12.9753 58.2301 12.9753C57.4489 12.9753 56.8266 13.5976 56.8266 14.3788C56.8266 15.16 57.4489 15.7822 58.2301 15.7822C59.0113 15.7822 59.6336 15.16 59.6336 14.3788ZM57.5416 10.6848C57.5416 9.75799 56.7869 9.0033 55.8601 9.0033C54.9332 9.0033 54.1785 9.75799 54.1785 10.6848C54.1785 11.6116 54.9332 12.3663 55.8601 12.3663C56.7869 12.3663 57.5416 11.6116 57.5416 10.6848ZM55.3306 7.04376C55.3306 5.95807 54.4568 5.08421 53.3711 5.08421C52.2854 5.08421 51.4115 5.95807 51.4115 7.04376C51.4115 8.12945 52.2854 9.0033 53.3711 9.0033C54.4568 9.0033 55.3306 8.12945 55.3306 7.04376ZM52.987 3.38947C52.987 2.1449 51.9809 1.15189 50.7495 1.15189C49.5182 1.15189 48.5117 2.15814 48.5117 3.38947C48.5117 4.6208 49.5182 5.62706 50.7495 5.62706C51.9809 5.62706 52.987 4.6208 52.987 3.38947ZM59.2231 94.8391C59.2231 94.6802 59.104 94.5611 58.9451 94.5611C58.7862 94.5611 58.6671 94.6802 58.6671 94.8391C58.6671 94.998 58.7862 95.1171 58.9451 95.1171C59.104 95.1171 59.2231 94.9847 59.2231 94.8391ZM61.1163 98.9436C61.1163 98.639 60.8649 98.3874 60.5604 98.3874C60.2558 98.3874 60.0044 98.639 60.0044 98.9436C60.0044 99.2481 60.2558 99.4996 60.5604 99.4996C60.8649 99.4996 61.1163 99.2481 61.1163 98.9436ZM63.2747 102.929C63.2747 102.465 62.9038 102.081 62.4271 102.081C61.9505 102.081 61.5799 102.452 61.5799 102.929C61.5799 103.405 61.9505 103.776 62.4271 103.776C62.9038 103.776 63.2747 103.405 63.2747 102.929ZM65.6314 106.808C65.6314 106.186 65.1282 105.683 64.5059 105.683C63.8836 105.683 63.3804 106.186 63.3804 106.808C63.3804 107.43 63.8836 107.934 64.5059 107.934C65.1282 107.934 65.6314 107.43 65.6314 106.808ZM68.1602 110.595C68.1602 109.814 67.5378 109.191 66.7567 109.191C65.9755 109.191 65.3531 109.814 65.3531 110.595C65.3531 111.376 65.9755 111.998 66.7567 111.998C67.5378 111.998 68.1602 111.376 68.1602 110.595ZM70.8215 114.302C70.8215 113.375 70.0668 112.621 69.1399 112.621C68.2131 112.621 67.4584 113.375 67.4584 114.302C67.4584 115.229 68.2131 115.984 69.1399 115.984C70.0668 115.984 70.8215 115.229 70.8215 114.302ZM73.5888 117.943C73.5888 116.857 72.715 115.984 71.6293 115.984C70.5436 115.984 69.6694 116.857 69.6694 117.943C69.6694 119.029 70.5436 119.903 71.6293 119.903C72.715 119.903 73.5888 119.029 73.5888 117.943ZM76.4883 121.584C76.4883 120.34 75.4821 119.347 74.2508 119.347C73.0194 119.347 72.0129 120.353 72.0129 121.584C72.0129 122.816 73.0194 123.822 74.2508 123.822C75.4821 123.822 76.4883 122.816 76.4883 121.584ZM95.1305 66.0418C95.1305 65.8829 95.0111 65.7638 94.8522 65.7638C94.6933 65.7638 94.5742 65.8829 94.5742 66.0418C94.5742 66.2007 94.7065 66.3198 94.8522 66.3198C94.9978 66.3198 95.1305 66.2007 95.1305 66.0418ZM99.4995 64.4265C99.4995 64.122 99.248 63.8704 98.9435 63.8704C98.639 63.8704 98.3875 64.122 98.3875 64.4265C98.3875 64.731 98.639 64.9826 98.9435 64.9826C99.248 64.9826 99.4995 64.731 99.4995 64.4265ZM103.776 62.5464C103.776 62.083 103.405 61.699 102.929 61.699C102.452 61.699 102.082 62.0697 102.082 62.5464C102.082 63.023 102.452 63.3938 102.929 63.3938C103.405 63.3938 103.776 63.023 103.776 62.5464ZM107.934 60.4677C107.934 59.8454 107.43 59.3423 106.808 59.3423C106.186 59.3423 105.683 59.8454 105.683 60.4677C105.683 61.09 106.186 61.5931 106.808 61.5931C107.43 61.5931 107.934 61.09 107.934 60.4677ZM112.012 58.2169C112.012 57.449 111.389 56.8134 110.608 56.8134C109.827 56.8134 109.205 57.4357 109.205 58.2169C109.205 58.998 109.827 59.6203 110.608 59.6203C111.389 59.6203 112.012 58.998 112.012 58.2169ZM115.984 55.8469C115.984 54.9201 115.229 54.1654 114.302 54.1654C113.375 54.1654 112.621 54.9201 112.621 55.8469C112.621 56.7737 113.375 57.5284 114.302 57.5284C115.229 57.5284 115.984 56.7737 115.984 55.8469ZM119.903 53.3577C119.903 52.272 119.029 51.3982 117.943 51.3982C116.858 51.3982 115.984 52.272 115.984 53.3577C115.984 54.4434 116.858 55.3173 117.943 55.3173C119.029 55.3173 119.903 54.4434 119.903 53.3577ZM123.835 50.7362C123.835 49.4916 122.829 48.4986 121.598 48.4986C120.366 48.4986 119.36 49.5049 119.36 50.7362C119.36 51.9675 120.366 52.9738 121.598 52.9738C122.829 52.9738 123.835 51.9675 123.835 50.7362ZM30.4258 58.9319C30.4258 58.773 30.2935 58.6538 30.1478 58.6538C30.0022 58.6538 29.8698 58.773 29.8698 58.9319C29.8698 59.0907 29.9889 59.2099 30.1478 59.2099C30.3067 59.2099 30.4258 59.0907 30.4258 58.9319ZM26.5995 60.5472C26.5995 60.2426 26.3478 59.9911 26.0432 59.9911C25.7387 59.9911 25.4873 60.2426 25.4873 60.5472C25.4873 60.8517 25.7387 61.1032 26.0432 61.1032C26.3478 61.1032 26.5995 60.8517 26.5995 60.5472ZM22.8922 62.4272C22.8922 61.9638 22.5213 61.5799 22.0447 61.5799C21.5681 61.5799 21.1975 61.9506 21.1975 62.4272C21.1975 62.9039 21.5681 63.2746 22.0447 63.2746C22.5213 63.2746 22.8922 62.9039 22.8922 62.4272ZM19.3042 64.5059C19.3042 63.8837 18.801 63.3805 18.1787 63.3805C17.5564 63.3805 17.0531 63.8837 17.0531 64.5059C17.0531 65.1282 17.5564 65.6314 18.1787 65.6314C18.801 65.6314 19.3042 65.1282 19.3042 64.5059ZM15.7821 66.7568C15.7821 65.9889 15.1598 65.3533 14.3786 65.3533C13.5974 65.3533 12.9754 65.9756 12.9754 66.7568C12.9754 67.5379 13.5974 68.1602 14.3786 68.1602C15.1598 68.1602 15.7821 67.5379 15.7821 66.7568ZM12.3664 69.1267C12.3664 68.1999 11.6117 67.4453 10.6849 67.4453C9.75807 67.4453 9.00336 68.1999 9.00336 69.1267C9.00336 70.0536 9.75807 70.8083 10.6849 70.8083C11.6117 70.8083 12.3664 70.0536 12.3664 69.1267ZM9.00336 71.6159C9.00336 70.5302 8.12953 69.6564 7.04384 69.6564C5.95815 69.6564 5.08433 70.5302 5.08433 71.6159C5.08433 72.7016 5.95815 73.5754 7.04384 73.5754C8.12953 73.5754 9.00336 72.7016 9.00336 71.6159ZM5.64031 74.2507C5.64031 73.0061 4.63414 72.0131 3.40281 72.0131C2.17147 72.0131 1.16498 73.0194 1.16498 74.2507C1.16498 75.482 2.17147 76.4883 3.40281 76.4883C4.63414 76.4883 5.64031 75.482 5.64031 74.2507ZM42.4082 37.0988C42.4082 36.94 42.2891 36.8208 42.1302 36.8208C41.9713 36.8208 41.8519 36.94 41.8519 37.0988C41.8519 37.2577 41.9713 37.3769 42.1302 37.3769C42.2891 37.3769 42.4082 37.2577 42.4082 37.0988ZM38.6479 35.3379C38.6479 35.0334 38.3964 34.7818 38.0919 34.7818C37.7874 34.7818 37.5359 35.0334 37.5359 35.3379C37.5359 35.6424 37.7874 35.894 38.0919 35.894C38.3964 35.894 38.6479 35.6424 38.6479 35.3379ZM34.7819 33.855C34.7819 33.3916 34.411 33.0076 33.9343 33.0076C33.4577 33.0076 33.0871 33.3784 33.0871 33.855C33.0871 34.3317 33.4577 34.7024 33.9343 34.7024C34.411 34.7024 34.7819 34.3317 34.7819 33.855ZM30.8496 32.584C30.8496 31.9617 30.3463 31.4586 29.724 31.4586C29.1018 31.4586 28.5988 31.9617 28.5988 32.584C28.5988 33.2063 29.1018 33.7094 29.724 33.7094C30.3463 33.7094 30.8496 33.2063 30.8496 32.584ZM26.851 31.485C26.851 30.7171 26.2287 30.0816 25.4475 30.0816C24.6663 30.0816 24.044 30.7039 24.044 31.485C24.044 32.2662 24.6663 32.8885 25.4475 32.8885C26.2287 32.8885 26.851 32.2662 26.851 31.485ZM22.8525 30.545C22.8525 29.6182 22.0978 28.8635 21.171 28.8635C20.2442 28.8635 19.4894 29.6182 19.4894 30.545C19.4894 31.4718 20.2442 32.2265 21.171 32.2265C22.0978 32.2265 22.8525 31.4718 22.8525 30.545ZM18.8009 29.7373C18.8009 28.6516 17.9271 27.7778 16.8414 27.7778C15.7557 27.7778 14.8819 28.6516 14.8819 29.7373C14.8819 30.823 15.7557 31.6969 16.8414 31.6969C17.9271 31.6969 18.8009 30.823 18.8009 29.7373ZM14.6304 29.0091C14.6304 27.7646 13.6239 26.7716 12.3926 26.7716C11.1613 26.7716 10.1551 27.7778 10.1551 29.0091C10.1551 30.2405 11.1613 31.2467 12.3926 31.2467C13.6239 31.2467 14.6304 30.2405 14.6304 29.0091ZM83.1481 87.888C83.1481 87.7291 83.029 87.61 82.8701 87.61C82.7112 87.61 82.5918 87.7291 82.5918 87.888C82.5918 88.0469 82.7112 88.1661 82.8701 88.1661C83.029 88.1661 83.1481 88.0469 83.1481 87.888ZM87.4644 89.6357C87.4644 89.3312 87.2126 89.0796 86.9081 89.0796C86.6036 89.0796 86.3521 89.3312 86.3521 89.6357C86.3521 89.9403 86.6036 90.1918 86.9081 90.1918C87.2126 90.1918 87.4644 89.9403 87.4644 89.6357ZM91.8864 91.1319C91.8864 90.6685 91.5158 90.2845 91.0392 90.2845C90.5625 90.2845 90.2049 90.6552 90.2049 91.1319C90.2049 91.6085 90.5758 91.9792 91.0392 91.9792C91.5026 91.9792 91.8864 91.6085 91.8864 91.1319ZM96.3882 92.4029C96.3882 91.7806 95.885 91.2775 95.2627 91.2775C94.6404 91.2775 94.1375 91.7806 94.1375 92.4029C94.1375 93.0252 94.6404 93.5283 95.2627 93.5283C95.885 93.5283 96.3882 93.0252 96.3882 92.4029ZM100.943 93.4886C100.943 92.7207 100.32 92.0851 99.5392 92.0851C98.7581 92.0851 98.1357 92.7075 98.1357 93.4886C98.1357 94.2698 98.7581 94.8921 99.5392 94.8921C100.32 94.8921 100.943 94.2698 100.943 93.4886ZM105.511 94.4287C105.511 93.5018 104.756 92.7471 103.829 92.7471C102.902 92.7471 102.148 93.5018 102.148 94.4287C102.148 95.3555 102.902 96.1101 103.829 96.1101C104.756 96.1101 105.511 95.3555 105.511 94.4287ZM110.118 95.2495C110.118 94.1638 109.244 93.29 108.159 93.29C107.073 93.29 106.199 94.1638 106.199 95.2495C106.199 96.3352 107.073 97.2091 108.159 97.2091C109.244 97.2091 110.118 96.3352 110.118 95.2495ZM114.845 95.9645C114.845 94.7199 113.839 93.7269 112.607 93.7269C111.376 93.7269 110.37 94.7332 110.37 95.9645C110.37 97.1959 111.376 98.2021 112.607 98.2021C113.839 98.2021 114.845 97.1959 114.845 95.9645ZM88.1662 42.1169C88.1662 41.958 88.0467 41.8388 87.8879 41.8388C87.729 41.8388 87.6099 41.958 87.6099 42.1169C87.6099 42.2757 87.729 42.3949 87.8879 42.3949C88.0467 42.3949 88.1662 42.2757 88.1662 42.1169ZM90.2049 38.0786C90.2049 37.7741 89.9534 37.5225 89.6489 37.5225C89.3444 37.5225 89.0929 37.7741 89.0929 38.0786C89.0929 38.3832 89.3444 38.6347 89.6489 38.6347C89.9534 38.6347 90.2049 38.3832 90.2049 38.0786ZM91.9792 33.9345C91.9792 33.4711 91.6086 33.0871 91.132 33.0871C90.6553 33.0871 90.2844 33.4578 90.2844 33.9345C90.2844 34.4111 90.6553 34.7818 91.132 34.7818C91.6086 34.7818 91.9792 34.4111 91.9792 33.9345ZM93.5282 29.7241C93.5282 29.1018 93.0252 28.5987 92.403 28.5987C91.7807 28.5987 91.2774 29.1018 91.2774 29.7241C91.2774 30.3464 91.7807 30.8495 92.403 30.8495C93.0252 30.8495 93.5282 30.3464 93.5282 29.7241ZM94.8919 25.4475C94.8919 24.6796 94.2696 24.0441 93.4884 24.0441C92.7072 24.0441 92.0852 24.6664 92.0852 25.4475C92.0852 26.2287 92.7072 26.851 93.4884 26.851C94.2696 26.851 94.8919 26.2287 94.8919 25.4475ZM96.1235 21.1578C96.1235 20.2309 95.3688 19.4762 94.442 19.4762C93.5152 19.4762 92.7605 20.2309 92.7605 21.1578C92.7605 22.0846 93.5152 22.8392 94.442 22.8392C95.3688 22.8392 96.1235 22.0846 96.1235 21.1578ZM97.209 16.8282C97.209 15.7425 96.3351 14.8687 95.2495 14.8687C94.1638 14.8687 93.2899 15.7425 93.2899 16.8282C93.2899 17.9139 94.1638 18.7878 95.2495 18.7878C96.3351 18.7878 97.209 17.9139 97.209 16.8282ZM98.2152 12.3928C98.2152 11.1482 97.2091 10.1552 95.9777 10.1552C94.7464 10.1552 93.7402 11.1614 93.7402 12.3928C93.7402 13.6241 94.7464 14.6304 95.9777 14.6304C97.2091 14.6304 98.2152 13.6241 98.2152 12.3928ZM37.3769 82.8568C37.3769 82.6979 37.2578 82.5787 37.0989 82.5787C36.94 82.5787 36.8209 82.6979 36.8209 82.8568C36.8209 83.0157 36.94 83.1348 37.0989 83.1348C37.2578 83.1348 37.3769 83.0157 37.3769 82.8568ZM35.9071 86.895C35.9071 86.5905 35.6556 86.3389 35.3511 86.3389C35.0466 86.3389 34.7951 86.5905 34.7951 86.895C34.7951 87.1995 35.0466 87.4511 35.3511 87.4511C35.6556 87.4511 35.9071 87.1995 35.9071 86.895ZM34.7023 91.0524C34.7023 90.589 34.3318 90.2051 33.8551 90.2051C33.3785 90.2051 33.0076 90.5758 33.0076 91.0524C33.0076 91.529 33.3785 91.8998 33.8551 91.8998C34.3318 91.8998 34.7023 91.529 34.7023 91.0524ZM33.7093 95.2628C33.7093 94.6405 33.2061 94.1374 32.5838 94.1374C31.9615 94.1374 31.4586 94.6405 31.4586 95.2628C31.4586 95.8851 31.9615 96.3882 32.5838 96.3882C33.2061 96.3882 33.7093 95.8851 33.7093 95.2628ZM32.9019 99.5261C32.9019 98.7582 32.2795 98.1227 31.4983 98.1227C30.7172 98.1227 30.0948 98.7449 30.0948 99.5261C30.0948 100.307 30.7172 100.93 31.4983 100.93C32.2795 100.93 32.9019 100.307 32.9019 99.5261ZM32.2399 103.816C32.2399 102.889 31.4851 102.134 30.5583 102.134C29.6315 102.134 28.8768 102.889 28.8768 103.816C28.8768 104.743 29.6315 105.497 30.5583 105.497C31.4851 105.497 32.2399 104.743 32.2399 103.816ZM31.6968 108.159C31.6968 107.073 30.823 106.199 29.7373 106.199C28.6516 106.199 27.7778 107.073 27.7778 108.159C27.7778 109.244 28.6516 110.118 29.7373 110.118C30.823 110.118 31.6968 109.244 31.6968 108.159ZM31.2598 112.594C31.2598 111.35 30.2536 110.357 29.0223 110.357C27.7909 110.357 26.7848 111.363 26.7848 112.594C26.7848 113.825 27.7909 114.832 29.0223 114.832C30.2536 114.832 31.2598 113.825 31.2598 112.594ZM53.6756 31.2335C53.6756 31.0746 53.5564 30.9554 53.3976 30.9554C53.2387 30.9554 53.1193 31.0746 53.1193 31.2335C53.1193 31.3924 53.2387 31.5115 53.3976 31.5115C53.5564 31.5115 53.6756 31.3791 53.6756 31.2335ZM50.895 28.0691C50.895 27.7646 50.6435 27.513 50.339 27.513C50.0345 27.513 49.783 27.7646 49.783 28.0691C49.783 28.3736 50.0345 28.6252 50.339 28.6252C50.6435 28.6252 50.895 28.3736 50.895 28.0691ZM47.916 25.1033C47.916 24.6399 47.5454 24.2559 47.0687 24.2559C46.5921 24.2559 46.2212 24.6266 46.2212 25.1033C46.2212 25.5799 46.5921 25.9507 47.0687 25.9507C47.5454 25.9507 47.916 25.5799 47.916 25.1033ZM44.7915 22.3096C44.7915 21.6874 44.2882 21.1842 43.6659 21.1842C43.0437 21.1842 42.5404 21.6874 42.5404 22.3096C42.5404 22.9319 43.0437 23.4351 43.6659 23.4351C44.2882 23.4351 44.7915 22.9319 44.7915 22.3096ZM41.5341 19.6749C41.5341 18.8937 40.9121 18.2714 40.1309 18.2714C39.3498 18.2714 38.7274 18.8937 38.7274 19.6749C38.7274 20.456 39.3498 21.0783 40.1309 21.0783C40.9121 21.0783 41.5341 20.456 41.5341 19.6749ZM38.2108 17.1592C38.2108 16.2324 37.4565 15.4777 36.5296 15.4777C35.6028 15.4777 34.8481 16.2324 34.8481 17.1592C34.8481 18.086 35.6028 18.8407 36.5296 18.8407C37.4565 18.8407 38.2108 18.086 38.2108 17.1592ZM34.8084 14.7495C34.8084 13.6638 33.9345 12.79 32.8489 12.79C31.7632 12.79 30.8893 13.6638 30.8893 14.7495C30.8893 15.8352 31.7632 16.709 32.8489 16.709C33.9345 16.709 34.8084 15.8352 34.8084 14.7495ZM31.2598 12.3928C31.2598 11.1482 30.2536 10.1552 29.0223 10.1552C27.7909 10.1552 26.7848 11.1614 26.7848 12.3928C26.7848 13.6241 27.7909 14.6304 29.0223 14.6304C30.2536 14.6304 31.2598 13.6241 31.2598 12.3928ZM98.2152 112.594C98.2152 111.35 97.2091 110.357 95.9777 110.357C94.7464 110.357 93.7402 111.363 93.7402 112.594C93.7402 113.825 94.7464 114.832 95.9777 114.832C97.2091 114.832 98.2152 113.825 98.2152 112.594ZM94.1769 110.277C94.1769 109.191 93.3031 108.318 92.2174 108.318C91.1317 108.318 90.2579 109.191 90.2579 110.277C90.2579 111.363 91.1317 112.237 92.2174 112.237C93.3031 112.237 94.1769 111.363 94.1769 110.277ZM90.2049 107.854C90.2049 106.927 89.4502 106.173 88.5234 106.173C87.5965 106.173 86.8422 106.927 86.8422 107.854C86.8422 108.781 87.5965 109.536 88.5234 109.536C89.4502 109.536 90.2049 108.781 90.2049 107.854ZM86.2991 105.339C86.2991 104.557 85.6767 103.935 84.8956 103.935C84.1144 103.935 83.4924 104.557 83.4924 105.339C83.4924 106.12 84.1144 106.742 84.8956 106.742C85.6767 106.742 86.2991 106.12 86.2991 105.339ZM82.4861 102.69C82.4861 102.068 81.9828 101.565 81.3606 101.565C80.7383 101.565 80.2353 102.068 80.2353 102.69C80.2353 103.313 80.7383 103.816 81.3606 103.816C81.9828 103.816 82.4861 103.313 82.4861 102.69ZM78.7921 99.8968C78.7921 99.4334 78.4212 99.0495 77.9445 99.0495C77.4679 99.0495 77.0973 99.4202 77.0973 99.8968C77.0973 100.373 77.4679 100.744 77.9445 100.744C78.4212 100.744 78.7921 100.373 78.7921 99.8968ZM75.2305 96.9178C75.2305 96.6133 74.9788 96.3617 74.6742 96.3617C74.3697 96.3617 74.1182 96.6133 74.1182 96.9178C74.1182 97.2223 74.3697 97.4739 74.6742 97.4739C74.9788 97.4739 75.2305 97.2223 75.2305 96.9178ZM71.9338 93.8196C71.9338 93.6607 71.8143 93.5415 71.6554 93.5415C71.4966 93.5415 71.3774 93.6607 71.3774 93.8196C71.3774 93.9785 71.4966 94.0977 71.6554 94.0977C71.8143 94.0977 71.9338 93.9785 71.9338 93.8196ZM94.0315 53.3842C94.0315 53.2254 93.9124 53.1062 93.7535 53.1062C93.5946 53.1062 93.4755 53.2254 93.4755 53.3842C93.4755 53.5431 93.5946 53.6623 93.7535 53.6623C93.9124 53.6623 94.0315 53.5431 94.0315 53.3842ZM97.4737 50.3258C97.4737 50.0212 97.2222 49.7697 96.9177 49.7697C96.6132 49.7697 96.3617 50.0212 96.3617 50.3258C96.3617 50.6303 96.6132 50.8818 96.9177 50.8818C97.2222 50.8818 97.4737 50.6303 97.4737 50.3258ZM100.718 47.0687C100.718 46.6053 100.347 46.2213 99.8702 46.2213C99.3936 46.2213 99.023 46.592 99.023 47.0687C99.023 47.5453 99.3936 47.9161 99.8702 47.9161C100.347 47.9161 100.718 47.5453 100.718 47.0687ZM103.789 43.6527C103.789 43.0304 103.286 42.5273 102.664 42.5273C102.042 42.5273 101.539 43.0304 101.539 43.6527C101.539 44.275 102.042 44.7781 102.664 44.7781C103.286 44.7781 103.789 44.275 103.789 43.6527ZM106.716 40.1308C106.716 39.3629 106.093 38.7274 105.312 38.7274C104.531 38.7274 103.909 39.3497 103.909 40.1308C103.909 40.912 104.531 41.5343 105.312 41.5343C106.093 41.5343 106.716 40.912 106.716 40.1308ZM109.509 36.5295C109.509 35.6027 108.754 34.848 107.828 34.848C106.901 34.848 106.146 35.6027 106.146 36.5295C106.146 37.4563 106.901 38.2111 107.828 38.2111C108.754 38.2111 109.509 37.4563 109.509 36.5295ZM112.197 32.8355C112.197 31.7498 111.323 30.876 110.237 30.876C109.152 30.876 108.278 31.7498 108.278 32.8355C108.278 33.9212 109.152 34.7951 110.237 34.7951C111.323 34.7951 112.197 33.9212 112.197 32.8355ZM114.845 29.0091C114.845 27.7646 113.839 26.7716 112.607 26.7716C111.376 26.7716 110.37 27.7778 110.37 29.0091C110.37 30.2405 111.376 31.2467 112.607 31.2467C113.839 31.2467 114.845 30.2405 114.845 29.0091ZM31.5116 71.5894C31.5116 71.4305 31.3925 71.3114 31.2336 71.3114C31.0747 71.3114 30.9553 71.4438 30.9553 71.5894C30.9553 71.7351 31.0747 71.8675 31.2336 71.8675C31.3925 71.8675 31.5116 71.7483 31.5116 71.5894ZM28.625 74.6479C28.625 74.3434 28.3735 74.0918 28.069 74.0918C27.7645 74.0918 27.513 74.3434 27.513 74.6479C27.513 74.9524 27.7645 75.204 28.069 75.204C28.3735 75.204 28.625 74.9524 28.625 74.6479ZM25.9508 77.9182C25.9508 77.4548 25.5799 77.0708 25.1032 77.0708C24.6266 77.0708 24.256 77.4416 24.256 77.9182C24.256 78.3949 24.6266 78.7656 25.1032 78.7656C25.5799 78.7656 25.9508 78.3949 25.9508 77.9182ZM23.4482 81.3209C23.4482 80.6986 22.945 80.1955 22.3227 80.1955C21.7004 80.1955 21.1975 80.6986 21.1975 81.3209C21.1975 81.9432 21.7004 82.4463 22.3227 82.4463C22.945 82.4463 23.4482 81.9432 23.4482 81.3209ZM21.0782 84.8428C21.0782 84.0616 20.4558 83.4393 19.6747 83.4393C18.8935 83.4393 18.2715 84.0616 18.2715 84.8428C18.2715 85.624 18.8935 86.2463 19.6747 86.2463C20.4558 86.2463 21.0782 85.624 21.0782 84.8428ZM18.8539 88.4573C18.8539 87.5305 18.0992 86.7759 17.1724 86.7759C16.2456 86.7759 15.4909 87.5305 15.4909 88.4573C15.4909 89.3842 16.2456 90.1389 17.1724 90.1389C18.0992 90.1389 18.8539 89.3842 18.8539 88.4573ZM16.7221 92.1381C16.7221 91.0524 15.8483 90.1786 14.7626 90.1786C13.6769 90.1786 12.8031 91.0524 12.8031 92.1381C12.8031 93.2238 13.6769 94.0977 14.7626 94.0977C15.8483 94.0977 16.7221 93.2238 16.7221 92.1381ZM14.6304 95.9645C14.6304 94.7199 13.6239 93.7269 12.3926 93.7269C11.1613 93.7269 10.1551 94.7332 10.1551 95.9645C10.1551 97.1959 11.1613 98.2021 12.3926 98.2021C13.6239 98.2021 14.6304 97.1959 14.6304 95.9645ZM34.2388 46.8171C34.2388 46.6583 34.1197 46.5391 33.9608 46.5391C33.8019 46.5391 33.6828 46.6583 33.6828 46.8171C33.6828 46.976 33.8019 47.0952 33.9608 47.0952C34.1197 47.0952 34.2388 46.976 34.2388 46.8171ZM30.1213 46.7509C30.1213 46.4464 29.8698 46.1949 29.5653 46.1949C29.2608 46.1949 29.009 46.4464 29.009 46.7509C29.009 47.0554 29.2608 47.307 29.5653 47.307C29.8698 47.307 30.1213 47.0554 30.1213 46.7509ZM26.0035 46.9628C26.0035 46.4994 25.6329 46.1154 25.1563 46.1154C24.6796 46.1154 24.3087 46.4861 24.3087 46.9628C24.3087 47.4394 24.6796 47.8102 25.1563 47.8102C25.6329 47.8102 26.0035 47.4394 26.0035 46.9628ZM21.8992 47.3997C21.8992 46.7774 21.396 46.2743 20.7737 46.2743C20.1514 46.2743 19.6485 46.7774 19.6485 47.3997C19.6485 48.022 20.1514 48.5251 20.7737 48.5251C21.396 48.5251 21.8992 48.022 21.8992 47.3997ZM17.8212 48.022C17.8212 47.254 17.1988 46.6185 16.4176 46.6185C15.6365 46.6185 15.0144 47.2408 15.0144 48.022C15.0144 48.8031 15.6365 49.4254 16.4176 49.4254C17.1988 49.4254 17.8212 48.8031 17.8212 48.022ZM13.7696 48.7899C13.7696 47.8631 13.0149 47.1084 12.0881 47.1084C11.1613 47.1084 10.4066 47.8631 10.4066 48.7899C10.4066 49.7167 11.1613 50.4714 12.0881 50.4714C13.0149 50.4714 13.7696 49.7167 13.7696 48.7899ZM9.73163 49.7035C9.73163 48.6178 8.85748 47.7439 7.77179 47.7439C6.6861 47.7439 5.81228 48.6178 5.81228 49.7035C5.81228 50.7892 6.6861 51.663 7.77179 51.663C8.85748 51.663 9.73163 50.7892 9.73163 49.7035ZM5.64031 50.7362C5.64031 49.4916 4.63414 48.4986 3.40281 48.4986C2.17147 48.4986 1.16498 49.5049 1.16498 50.7362C1.16498 51.9675 2.17147 52.9738 3.40281 52.9738C4.63414 52.9738 5.64031 51.9675 5.64031 50.7362ZM91.3039 78.1565C91.3039 77.9976 91.1848 77.8785 91.0259 77.8785C90.867 77.8785 90.7479 77.9976 90.7479 78.1565C90.7479 78.3154 90.867 78.4346 91.0259 78.4346C91.1848 78.4346 91.3039 78.3154 91.3039 78.1565ZM95.991 78.236C95.991 77.9314 95.7395 77.6799 95.435 77.6799C95.1305 77.6799 94.8787 77.9314 94.8787 78.236C94.8787 78.5405 95.1305 78.7921 95.435 78.7921C95.7395 78.7921 95.991 78.5405 95.991 78.236ZM100.678 78.0241C100.678 77.5607 100.307 77.1768 99.8305 77.1768C99.3538 77.1768 98.9833 77.5475 98.9833 78.0241C98.9833 78.5008 99.3538 78.8715 99.8305 78.8715C100.307 78.8715 100.678 78.5008 100.678 78.0241ZM105.339 77.5872C105.339 76.9649 104.835 76.4618 104.213 76.4618C103.591 76.4618 103.088 76.9649 103.088 77.5872C103.088 78.2095 103.591 78.7126 104.213 78.7126C104.835 78.7126 105.339 78.2095 105.339 77.5872ZM109.986 76.9517C109.986 76.1837 109.364 75.5482 108.582 75.5482C107.801 75.5482 107.179 76.1705 107.179 76.9517C107.179 77.7328 107.801 78.3551 108.582 78.3551C109.364 78.3551 109.986 77.7328 109.986 76.9517ZM114.58 76.1838C114.58 75.2569 113.825 74.5022 112.899 74.5022C111.972 74.5022 111.217 75.2569 111.217 76.1838C111.217 77.1106 111.972 77.8652 112.899 77.8652C113.825 77.8652 114.58 77.1106 114.58 76.1838ZM119.174 75.2834C119.174 74.1977 118.301 73.3239 117.215 73.3239C116.129 73.3239 115.255 74.1977 115.255 75.2834C115.255 76.3691 116.129 77.243 117.215 77.243C118.301 77.243 119.174 76.3691 119.174 75.2834ZM123.835 74.2507C123.835 73.0061 122.829 72.0131 121.598 72.0131C120.366 72.0131 119.36 73.0194 119.36 74.2507C119.36 75.482 120.366 76.4883 121.598 76.4883C122.829 76.4883 123.835 75.482 123.835 74.2507ZM78.4478 33.9609C78.4478 33.8021 78.3287 33.6829 78.1698 33.6829C78.0109 33.6829 77.8918 33.8153 77.8918 33.9609C77.8918 34.1066 78.0109 34.239 78.1698 34.239C78.3287 34.239 78.4478 34.1198 78.4478 33.9609ZM78.7921 29.552C78.7921 29.2475 78.5406 28.9959 78.2361 28.9959C77.9315 28.9959 77.6798 29.2475 77.6798 29.552C77.6798 29.8565 77.9315 30.1081 78.2361 30.1081C78.5406 30.1081 78.7921 29.8565 78.7921 29.552ZM78.8716 25.1563C78.8716 24.6929 78.5007 24.3089 78.024 24.3089C77.5474 24.3089 77.1768 24.6796 77.1768 25.1563C77.1768 25.6329 77.5474 26.0036 78.024 26.0036C78.5007 26.0036 78.8716 25.6329 78.8716 25.1563ZM78.7125 20.7738C78.7125 20.1515 78.2096 19.6484 77.5873 19.6484C76.965 19.6484 76.4618 20.1515 76.4618 20.7738C76.4618 21.3961 76.965 21.8992 77.5873 21.8992C78.2096 21.8992 78.7125 21.3961 78.7125 20.7738ZM78.3683 16.4045C78.3683 15.6366 77.7459 15.0011 76.9647 15.0011C76.1836 15.0011 75.5615 15.6234 75.5615 16.4045C75.5615 17.1857 76.1836 17.808 76.9647 17.808C77.7459 17.808 78.3683 17.1857 78.3683 16.4045ZM77.8653 12.0883C77.8653 11.1614 77.1106 10.4067 76.1838 10.4067C75.257 10.4067 74.5023 11.1614 74.5023 12.0883C74.5023 13.0151 75.257 13.7698 76.1838 13.7698C77.1106 13.7698 77.8653 13.0151 77.8653 12.0883ZM77.2431 7.77195C77.2431 6.68626 76.3689 5.81242 75.2832 5.81242C74.1975 5.81242 73.3237 6.68626 73.3237 7.77195C73.3237 8.85764 74.1975 9.73151 75.2832 9.73151C76.3689 9.73151 77.2431 8.85764 77.2431 7.77195ZM76.4883 3.38947C76.4883 2.1449 75.4821 1.15189 74.2508 1.15189C73.0194 1.15189 72.0129 2.15814 72.0129 3.38947C72.0129 4.6208 73.0194 5.62706 74.2508 5.62706C75.4821 5.62706 76.4883 4.6208 76.4883 3.38947ZM47.1085 91.0259C47.1085 90.8671 46.9891 90.7479 46.8302 90.7479C46.6713 90.7479 46.5522 90.8671 46.5522 91.0259C46.5522 91.1848 46.6713 91.304 46.8302 91.304C46.9891 91.304 47.1085 91.1848 47.1085 91.0259ZM47.3202 95.4217C47.3202 95.1171 47.0688 94.8656 46.7642 94.8656C46.4597 94.8656 46.2079 95.1171 46.2079 95.4217C46.2079 95.7262 46.4597 95.9777 46.7642 95.9777C47.0688 95.9777 47.3202 95.7262 47.3202 95.4217ZM47.8099 99.8306C47.8099 99.3672 47.4394 98.9833 46.9627 98.9833C46.4861 98.9833 46.1155 99.354 46.1155 99.8306C46.1155 100.307 46.4861 100.678 46.9627 100.678C47.4394 100.678 47.8099 100.307 47.8099 99.8306ZM48.525 104.213C48.525 103.591 48.022 103.088 47.3997 103.088C46.7775 103.088 46.2742 103.591 46.2742 104.213C46.2742 104.835 46.7775 105.339 47.3997 105.339C48.022 105.339 48.525 104.835 48.525 104.213ZM49.4255 108.569C49.4255 107.801 48.8032 107.166 48.022 107.166C47.2408 107.166 46.6185 107.788 46.6185 108.569C46.6185 109.35 47.2408 109.973 48.022 109.973C48.8032 109.973 49.4255 109.35 49.4255 108.569ZM50.4845 112.899C50.4845 111.972 49.7298 111.217 48.803 111.217C47.8761 111.217 47.1218 111.972 47.1218 112.899C47.1218 113.825 47.8761 114.58 48.803 114.58C49.7298 114.58 50.4845 113.825 50.4845 112.899ZM51.663 117.215C51.663 116.129 50.7892 115.255 49.7035 115.255C48.6178 115.255 47.744 116.129 47.744 117.215C47.744 118.301 48.6178 119.174 49.7035 119.174C50.7892 119.174 51.663 118.301 51.663 117.215ZM52.987 121.584C52.987 120.34 51.9809 119.347 50.7495 119.347C49.5182 119.347 48.5117 120.353 48.5117 121.584C48.5117 122.816 49.5182 123.822 50.7495 123.822C51.9809 123.822 52.987 122.816 52.987 121.584Z" fill="url(#paint0_linear_360_146)"/>
<defs>
<linearGradient id="paint0_linear_360_146" x1="18.2978" y1="18.2979" x2="106.689" y2="106.689" gradientUnits="userSpaceOnUse">
<stop stop-color="#79E3A3"/>
<stop offset="1" stop-color="#1B3342"/>
</linearGradient>
</defs>
</svg>
