<svg width="121" height="121" viewBox="0 0 121 121" fill="none" xmlns="http://www.w3.org/2000/svg">
<path d="M72.6744 37.1382C72.6744 36.7025 73.033 36.3436 73.4688 36.3436C73.9045 36.3436 74.2634 36.7025 74.2634 37.1382C74.2634 37.5739 73.9045 37.9327 73.4688 37.9327C73.033 37.9327 72.6744 37.5739 72.6744 37.1382ZM72.1362 30.0642C73.0205 30.0642 73.7253 29.3466 73.7253 28.4752C73.7253 27.6037 73.0077 26.8861 72.1362 26.8861C71.2648 26.8861 70.5472 27.6037 70.5472 28.4752C70.5472 29.3466 71.2648 30.0642 72.1362 30.0642ZM69.5604 22.4649C70.8804 22.4649 71.9438 21.4012 71.9438 20.0813C71.9438 18.7613 70.8804 17.6977 69.5604 17.6977C68.2404 17.6977 67.1767 18.7613 67.1767 20.0813C67.1767 21.4012 68.2404 22.4649 69.5604 22.4649ZM66.2412 15.1346C67.9968 15.1346 69.4193 13.7122 69.4193 11.9565C69.4193 10.2008 67.9968 8.77835 66.2412 8.77835C64.4855 8.77835 63.0631 10.2008 63.0631 11.9565C63.0631 13.7122 64.4855 15.1346 66.2412 15.1346ZM62.4351 7.97099C64.6393 7.97099 66.4204 6.18971 66.4204 3.98552C66.4204 1.78132 64.6393 0 62.4351 0C60.2309 0 58.4495 1.78132 58.4495 3.98552C58.4495 6.18971 60.2309 7.97099 62.4351 7.97099ZM47.5182 84.6694C47.9539 84.6694 48.3129 84.3106 48.3129 83.8749C48.3129 83.4391 47.9539 83.0803 47.5182 83.0803C47.0825 83.0803 46.7238 83.4391 46.7238 83.8749C46.7238 84.3106 47.0825 84.6694 47.5182 84.6694ZM48.851 94.1397C49.7352 94.1397 50.4401 93.4221 50.4401 92.5507C50.4401 91.6792 49.7224 90.9616 48.851 90.9616C47.9796 90.9616 47.2619 91.6792 47.2619 92.5507C47.2619 93.4221 47.9796 94.1397 48.851 94.1397ZM51.4397 103.328C52.7596 103.328 53.8234 102.264 53.8234 100.945C53.8234 99.6246 52.7596 98.561 51.4397 98.561C50.1197 98.561 49.0562 99.6246 49.0562 100.945C49.0562 102.264 50.1197 103.328 51.4397 103.328ZM54.7589 112.247C56.5146 112.247 57.937 110.825 57.937 109.069C57.937 107.314 56.5146 105.891 54.7589 105.891C53.0032 105.891 51.5808 107.314 51.5808 109.069C51.5808 110.825 53.0032 112.247 54.7589 112.247ZM58.5521 121C60.7563 121 62.5378 119.219 62.5378 117.015C62.5378 114.81 60.7563 113.029 58.5521 113.029C56.3479 113.029 54.5665 114.81 54.5665 117.015C54.5665 119.219 56.3479 121 58.5521 121ZM83.8619 74.2763C84.2977 74.2763 84.6566 73.9175 84.6566 73.4818C84.6566 73.0461 84.2977 72.6873 83.8619 72.6873C83.4262 72.6873 83.0673 73.0461 83.0673 73.4818C83.0673 73.9175 83.4262 74.2763 83.8619 74.2763ZM92.5378 73.7381C93.422 73.7381 94.1268 73.0205 94.1268 72.149C94.1268 71.2776 93.4092 70.5599 92.5378 70.5599C91.6664 70.5599 90.9487 71.2776 90.9487 72.149C90.9487 73.0205 91.6664 73.7381 92.5378 73.7381ZM100.919 71.9568C102.239 71.9568 103.302 70.8932 103.302 69.5732C103.302 68.2532 102.239 67.1896 100.919 67.1896C99.599 67.1896 98.5352 68.2532 98.5352 69.5732C98.5352 70.8932 99.599 71.9568 100.919 71.9568ZM109.056 69.4322C110.812 69.4322 112.234 68.0098 112.234 66.2541C112.234 64.4984 110.812 63.0759 109.056 63.0759C107.301 63.0759 105.878 64.4984 105.878 66.2541C105.878 68.0098 107.301 69.4322 109.056 69.4322ZM117.015 66.4335C119.206 66.4335 121 64.6522 121 62.448C121 60.2438 119.219 58.4625 117.015 58.4625C114.811 58.4625 113.029 60.2438 113.029 62.448C113.029 64.6522 114.811 66.4335 117.015 66.4335ZM3.98532 62.5505C6.18952 62.5505 7.97095 60.7692 7.97095 58.565C7.97095 56.3608 6.18952 54.5795 3.98532 54.5795C1.78112 54.5795 0 56.3608 0 58.565C0 60.7692 1.78112 62.5505 3.98532 62.5505ZM11.9309 57.9499C13.6866 57.9499 15.1091 56.5274 15.1091 54.7717C15.1091 53.0161 13.6866 51.5936 11.9309 51.5936C10.1753 51.5936 8.7525 53.0161 8.7525 54.7717C8.7525 56.5274 10.1753 57.9499 11.9309 57.9499ZM20.0683 53.8363C21.3883 53.8363 22.4521 52.7726 22.4521 51.4526C22.4521 50.1327 21.3883 49.069 20.0683 49.069C18.7484 49.069 17.6849 50.1327 17.6849 51.4526C17.6849 52.7726 18.7484 53.8363 20.0683 53.8363ZM28.4623 50.453C29.3465 50.453 30.0513 49.7354 30.0513 48.864C30.0513 47.9926 29.3337 47.2749 28.4623 47.2749C27.5909 47.2749 26.8732 47.9926 26.8732 48.864C26.8732 49.7354 27.5909 50.453 28.4623 50.453ZM37.151 48.3257C37.5867 48.3257 37.9453 47.9669 37.9453 47.5312C37.9453 47.0955 37.5867 46.7367 37.151 46.7367C36.7152 46.7367 36.3563 47.0955 36.3563 47.5312C36.3563 47.9669 36.7152 48.3257 37.151 48.3257ZM53.1827 35.6003C53.6184 35.6003 53.977 35.2415 53.977 34.8058C53.977 34.3701 53.6184 34.0113 53.1827 34.0113C52.747 34.0113 52.388 34.3701 52.388 34.8058C52.388 35.2415 52.747 35.6003 53.1827 35.6003ZM46.1087 31.2176C46.9929 31.2176 47.6978 30.4999 47.6978 29.6285C47.6978 28.7571 46.9801 28.0394 46.1087 28.0394C45.2373 28.0394 44.5196 28.7571 44.5196 29.6285C44.5196 30.4999 45.2373 31.2176 46.1087 31.2176ZM38.3299 27.9113C39.6498 27.9113 40.7136 26.8477 40.7136 25.5277C40.7136 24.2077 39.6498 23.1441 38.3299 23.1441C37.0099 23.1441 35.9464 24.2077 35.9464 25.5277C35.9464 26.8477 37.0099 27.9113 38.3299 27.9113ZM30.2306 25.297C31.9863 25.297 33.4087 23.8745 33.4087 22.1189C33.4087 20.3632 31.9863 18.9407 30.2306 18.9407C28.475 18.9407 27.0525 20.3632 27.0525 22.1189C27.0525 23.8745 28.475 25.297 30.2306 25.297ZM21.9008 23.1569C24.105 23.1569 25.8864 21.3756 25.8864 19.1714C25.8864 16.9672 24.105 15.1859 21.9008 15.1859C19.6966 15.1859 17.9155 16.9672 17.9155 19.1714C17.9155 21.3756 19.6966 23.1569 21.9008 23.1569ZM67.8046 87.0017C68.2403 87.0017 68.5993 86.6429 68.5993 86.2072C68.5993 85.7715 68.2403 85.4126 67.8046 85.4126C67.3689 85.4126 67.0102 85.7715 67.0102 86.2072C67.0102 86.6429 67.3689 87.0017 67.8046 87.0017ZM74.8914 92.9864C75.7756 92.9864 76.4804 92.2687 76.4804 91.3973C76.4804 90.5259 75.7628 89.8083 74.8914 89.8083C74.0199 89.8083 73.3023 90.5259 73.3023 91.3973C73.3023 92.2687 74.0199 92.9864 74.8914 92.9864ZM82.6574 97.8818C83.9773 97.8818 85.0408 96.8181 85.0408 95.4981C85.0408 94.1782 83.9773 93.1145 82.6574 93.1145C81.3374 93.1145 80.2737 94.1782 80.2737 95.4981C80.2737 96.8181 81.3374 97.8818 82.6574 97.8818ZM90.7563 102.085C92.512 102.085 93.9347 100.663 93.9347 98.9069C93.9347 97.1513 92.512 95.7288 90.7563 95.7288C89.0006 95.7288 87.5782 97.1513 87.5782 98.9069C87.5782 100.663 89.0006 102.085 90.7563 102.085ZM99.0861 105.827C101.29 105.827 103.072 104.046 103.072 101.842C103.072 99.6374 101.29 97.8561 99.0861 97.8561C96.8819 97.8561 95.1008 99.6374 95.1008 101.842C95.1008 104.046 96.8819 105.827 99.0861 105.827ZM19.1585 103.072C21.3627 103.072 23.1441 101.291 23.1441 99.0864C23.1441 96.8822 21.3627 95.1009 19.1585 95.1009C16.9543 95.1009 15.1729 96.8822 15.1729 99.0864C15.1729 101.291 16.9543 103.072 19.1585 103.072ZM22.0932 93.9732C23.8489 93.9732 25.2713 92.5507 25.2713 90.795C25.2713 89.0393 23.8489 87.6168 22.0932 87.6168C20.3376 87.6168 18.9151 89.0393 18.9151 90.795C18.9151 92.5507 20.3376 93.9732 22.0932 93.9732ZM25.5019 85.0667C26.8219 85.0667 27.8857 84.003 27.8857 82.683C27.8857 81.3631 26.8219 80.2994 25.5019 80.2994C24.182 80.2994 23.1185 81.3631 23.1185 82.683C23.1185 84.003 24.182 85.0667 25.5019 85.0667ZM29.6155 76.4933C30.4998 76.4933 31.2046 75.7757 31.2046 74.9043C31.2046 74.0329 30.4869 73.3152 29.6155 73.3152C28.7441 73.3152 28.0265 74.0329 28.0265 74.9043C28.0265 75.7757 28.7441 76.4933 29.6155 76.4933ZM34.8057 68.5992C35.2414 68.5992 35.6004 68.2404 35.6004 67.8047C35.6004 67.369 35.2414 67.0102 34.8057 67.0102C34.37 67.0102 34.0113 67.369 34.0113 67.8047C34.0113 68.2404 34.37 68.5992 34.8057 68.5992ZM86.1944 53.99C86.6301 53.99 86.9887 53.6312 86.9887 53.1955C86.9887 52.7598 86.6301 52.401 86.1944 52.401C85.7587 52.401 85.3997 52.7598 85.3997 53.1955C85.3997 53.6312 85.7587 53.99 86.1944 53.99ZM91.3717 47.7106C92.256 47.7106 92.9608 46.993 92.9608 46.1215C92.9608 45.2501 92.2431 44.5325 91.3717 44.5325C90.5003 44.5325 89.7827 45.2501 89.7827 46.1215C89.7827 46.993 90.5003 47.7106 91.3717 47.7106ZM95.4853 40.7264C96.8053 40.7264 97.8688 39.6628 97.8688 38.3428C97.8688 37.0228 96.8053 35.9592 95.4853 35.9592C94.1654 35.9592 93.1016 37.0228 93.1016 38.3428C93.1016 39.6628 94.1654 40.7264 95.4853 40.7264ZM98.894 33.4218C100.65 33.4218 102.072 31.9993 102.072 30.2436C102.072 28.488 100.65 27.0655 98.894 27.0655C97.1384 27.0655 95.7159 28.488 95.7159 30.2436C95.7159 31.9993 97.1384 33.4218 98.894 33.4218ZM101.829 25.8993C104.02 25.8993 105.814 24.118 105.814 21.9138C105.814 19.7096 104.033 17.9283 101.829 17.9283C99.6245 17.9283 97.8431 19.7096 97.8431 21.9138C97.8431 24.118 99.6245 25.8993 101.829 25.8993ZM37.074 115.951C39.2782 115.951 41.0596 114.17 41.0596 111.966C41.0596 109.761 39.2782 107.98 37.074 107.98C34.8698 107.98 33.0884 109.761 33.0884 111.966C33.0884 114.17 34.8698 115.951 37.074 115.951ZM36.6125 106.365C38.3682 106.365 39.7909 104.943 39.7909 103.187C39.7909 101.432 38.3682 100.009 36.6125 100.009C34.8568 100.009 33.4344 101.432 33.4344 103.187C33.4344 104.943 34.8568 106.365 36.6125 106.365ZM36.651 96.7796C37.971 96.7796 39.0347 95.716 39.0347 94.396C39.0347 93.0761 37.971 92.0125 36.651 92.0125C35.331 92.0125 34.2676 93.0761 34.2676 94.396C34.2676 95.716 35.331 96.7796 36.651 96.7796ZM37.4713 87.2324C38.3556 87.2324 39.0604 86.5148 39.0604 85.6433C39.0604 84.7719 38.3428 84.0542 37.4713 84.0542C36.5999 84.0542 35.8823 84.7719 35.8823 85.6433C35.8823 86.5148 36.5999 87.2324 37.4713 87.2324ZM39.5601 77.8902C39.9958 77.8902 40.3547 77.5314 40.3547 77.0956C40.3547 76.6599 39.9958 76.3011 39.5601 76.3011C39.1243 76.3011 38.7657 76.6599 38.7657 77.0956C38.7657 77.5314 39.1243 77.8902 39.5601 77.8902ZM83.9132 13.0201C86.1174 13.0201 87.8986 11.2389 87.8986 9.03467C87.8986 6.83047 86.1174 5.04915 83.9132 5.04915C81.7091 5.04915 79.9276 6.83047 79.9276 9.03467C79.9276 11.2389 81.7091 13.0201 83.9132 13.0201ZM84.3872 21.0168C86.1429 21.0168 87.5654 19.5943 87.5654 17.8386C87.5654 16.083 86.1429 14.6605 84.3872 14.6605C82.6316 14.6605 81.2091 16.083 81.2091 17.8386C81.2091 19.5943 82.6316 21.0168 84.3872 21.0168ZM84.3363 29.0134C85.6562 29.0134 86.7197 27.9497 86.7197 26.6298C86.7197 25.3098 85.6562 24.2462 84.3363 24.2462C83.0163 24.2462 81.9525 25.3098 81.9525 26.6298C81.9525 27.9497 83.0163 29.0134 84.3363 29.0134ZM83.5159 36.9716C84.4001 36.9716 85.105 36.2539 85.105 35.3825C85.105 34.5111 84.3873 33.7934 83.5159 33.7934C82.6445 33.7934 81.9268 34.5111 81.9268 35.3825C81.9268 36.2539 82.6445 36.9716 83.5159 36.9716ZM81.44 44.7247C81.8757 44.7247 82.2344 44.3659 82.2344 43.9302C82.2344 43.4945 81.8757 43.1356 81.44 43.1356C81.0043 43.1356 80.6453 43.4945 80.6453 43.9302C80.6453 44.3659 81.0043 44.7247 81.44 44.7247ZM77.0955 82.2473C77.5312 82.2473 77.8902 81.8885 77.8902 81.4528C77.8902 81.0171 77.5312 80.6582 77.0955 80.6582C76.6598 80.6582 76.3012 81.0171 76.3012 81.4528C76.3012 81.8885 76.6598 82.2473 77.0955 82.2473ZM85.6178 85.1179C86.502 85.1179 87.2068 84.4002 87.2068 83.5288C87.2068 82.6574 86.4892 81.9398 85.6178 81.9398C84.7463 81.9398 84.0284 82.6574 84.0284 83.5288C84.0284 84.4002 84.7463 85.1179 85.6178 85.1179ZM94.3703 86.7326C95.6902 86.7326 96.754 85.669 96.754 84.349C96.754 83.0291 95.6902 81.9654 94.3703 81.9654C93.0503 81.9654 91.9868 83.0291 91.9868 84.349C91.9868 85.669 93.0503 86.7326 94.3703 86.7326ZM103.149 87.5784C104.904 87.5784 106.327 86.1559 106.327 84.4003C106.327 82.6446 104.904 81.2221 103.149 81.2221C101.393 81.2221 99.9706 82.6446 99.9706 84.4003C99.9706 86.1559 101.393 87.5784 103.149 87.5784ZM111.965 87.9116C114.157 87.9116 115.951 86.1303 115.951 83.9261C115.951 81.7219 114.17 79.9406 111.965 79.9406C109.761 79.9406 107.98 81.7219 107.98 83.9261C107.98 86.1303 109.761 87.9116 111.965 87.9116ZM43.8917 40.3547C44.3274 40.3547 44.6861 39.9959 44.6861 39.5602C44.6861 39.1245 44.3274 38.7657 43.8917 38.7657C43.456 38.7657 43.097 39.1245 43.097 39.5602C43.097 39.9959 43.456 40.3547 43.8917 40.3547ZM35.3695 39.0732C36.2537 39.0732 36.9585 38.3556 36.9585 37.4842C36.9585 36.6127 36.2409 35.8951 35.3695 35.8951C34.4981 35.8951 33.7804 36.6127 33.7804 37.4842C33.7804 38.3556 34.4981 39.0732 35.3695 39.0732ZM26.6298 39.0476C27.9498 39.0476 29.0132 37.984 29.0132 36.664C29.0132 35.3441 27.9498 34.2804 26.6298 34.2804C25.3099 34.2804 24.2461 35.3441 24.2461 36.664C24.2461 37.984 25.3099 39.0476 26.6298 39.0476ZM17.8385 39.8037C19.5942 39.8037 21.0166 38.3812 21.0166 36.6256C21.0166 34.8699 19.5942 33.4474 17.8385 33.4474C16.0828 33.4474 14.6604 34.8699 14.6604 36.6256C14.6604 38.3812 16.0828 39.8037 17.8385 39.8037ZM9.02188 41.0596C11.2261 41.0596 13.0072 39.2783 13.0072 37.0741C13.0072 34.8699 11.2261 33.0886 9.02188 33.0886C6.81768 33.0886 5.03625 34.8699 5.03625 37.0741C5.03625 39.2783 6.81768 41.0596 9.02188 41.0596ZM57.4245 87.8475C57.8603 87.8475 58.2189 87.4887 58.2189 87.053C58.2189 86.6173 57.8603 86.2584 57.4245 86.2584C56.9888 86.2584 56.6299 86.6173 56.6299 87.053C56.6299 87.4887 56.9888 87.8475 57.4245 87.8475ZM61.9736 96.1389C62.8579 96.1389 63.5627 95.4212 63.5627 94.5498C63.5627 93.6784 62.8451 92.9608 61.9736 92.9608C61.1022 92.9608 60.3846 93.6784 60.3846 94.5498C60.3846 95.4212 61.1022 96.1389 61.9736 96.1389ZM67.5868 103.7C68.9068 103.7 69.9703 102.636 69.9703 101.316C69.9703 99.9962 68.9068 98.9326 67.5868 98.9326C66.2669 98.9326 65.2031 99.9962 65.2031 101.316C65.2031 102.636 66.2669 103.7 67.5868 103.7ZM73.7638 110.748C75.5195 110.748 76.9419 109.326 76.9419 107.57C76.9419 105.814 75.5195 104.392 73.7638 104.392C72.0081 104.392 70.5854 105.814 70.5854 107.57C70.5854 109.326 72.0081 110.748 73.7638 110.748ZM80.325 117.438C82.5292 117.438 84.3106 115.656 84.3106 113.452C84.3106 111.248 82.5292 109.467 80.325 109.467C78.1208 109.467 76.3393 111.248 76.3393 113.452C76.3393 115.656 78.1208 117.438 80.325 117.438ZM40.6623 11.5336C42.8665 11.5336 44.6476 9.75231 44.6476 7.54811C44.6476 5.34392 42.8665 3.5626 40.6623 3.5626C38.4581 3.5626 36.6767 5.34392 36.6767 7.54811C36.6767 9.75231 38.4581 11.5336 40.6623 11.5336ZM47.2106 16.6212C48.9663 16.6212 50.3887 15.1987 50.3887 13.443C50.3887 11.6874 48.9663 10.2649 47.2106 10.2649C45.455 10.2649 44.0325 11.6874 44.0325 13.443C44.0325 15.1987 45.455 16.6212 47.2106 16.6212ZM53.4004 22.0804C54.7204 22.0804 55.7842 21.0168 55.7842 19.6968C55.7842 18.3768 54.7204 17.3132 53.4004 17.3132C52.0805 17.3132 51.017 18.3768 51.017 19.6968C51.017 21.0168 52.0805 22.0804 53.4004 22.0804ZM59.0136 28.0523C59.8978 28.0523 60.6027 27.3346 60.6027 26.4632C60.6027 25.5917 59.885 24.8741 59.0136 24.8741C58.1422 24.8741 57.4245 25.5917 57.4245 26.4632C57.4245 27.3346 58.1422 28.0523 59.0136 28.0523ZM63.5755 34.7674C64.0112 34.7674 64.3702 34.4086 64.3702 33.9728C64.3702 33.5371 64.0112 33.1783 63.5755 33.1783C63.1398 33.1783 62.7812 33.5371 62.7812 33.9728C62.7812 34.4086 63.1398 34.7674 63.5755 34.7674ZM7.53513 84.3234C9.73933 84.3234 11.5208 82.5421 11.5208 80.3379C11.5208 78.1337 9.73933 76.3524 7.53513 76.3524C5.33093 76.3524 3.54981 78.1337 3.54981 80.3379C3.54981 82.5421 5.33093 84.3234 7.53513 84.3234ZM13.4302 76.9675C15.1859 76.9675 16.6083 75.545 16.6083 73.7894C16.6083 72.0337 15.1859 70.6112 13.4302 70.6112C11.6745 70.6112 10.2521 72.0337 10.2521 73.7894C10.2521 75.545 11.6745 76.9675 13.4302 76.9675ZM19.6838 69.9961C21.0038 69.9961 22.0676 68.9324 22.0676 67.6125C22.0676 66.2925 21.0038 65.2289 19.6838 65.2289C18.3639 65.2289 17.3004 66.2925 17.3004 67.6125C17.3004 68.9324 18.3639 69.9961 19.6838 69.9961ZM26.4502 63.5885C27.3345 63.5885 28.0393 62.8709 28.0393 61.9995C28.0393 61.128 27.3217 60.4104 26.4502 60.4104C25.5788 60.4104 24.8612 61.128 24.8612 61.9995C24.8612 62.8709 25.5788 63.5885 26.4502 63.5885ZM33.96 58.219C34.3957 58.219 34.7544 57.8602 34.7544 57.4245C34.7544 56.9888 34.3957 56.6299 33.96 56.6299C33.5243 56.6299 33.1653 56.9888 33.1653 57.4245C33.1653 57.8602 33.5243 58.219 33.96 58.219ZM87.0401 64.3831C87.4758 64.3831 87.8347 64.0242 87.8347 63.5885C87.8347 63.1528 87.4758 62.794 87.0401 62.794C86.6043 62.794 86.2457 63.1528 86.2457 63.5885C86.2457 64.0242 86.6043 64.3831 87.0401 64.3831ZM94.537 60.6155C95.4213 60.6155 96.1261 59.8978 96.1261 59.0264C96.1261 58.1549 95.4084 57.4373 94.537 57.4373C93.6656 57.4373 92.948 58.1549 92.948 59.0264C92.948 59.8978 93.6656 60.6155 94.537 60.6155ZM101.303 55.8098C102.623 55.8098 103.687 54.7461 103.687 53.4262C103.687 52.1062 102.623 51.0426 101.303 51.0426C99.9835 51.0426 98.9197 52.1062 98.9197 53.4262C98.9197 54.7461 99.9835 55.8098 101.303 55.8098ZM107.544 50.4274C109.3 50.4274 110.722 49.0049 110.722 47.2493C110.722 45.4936 109.3 44.0712 107.544 44.0712C105.789 44.0712 104.366 45.4936 104.366 47.2493C104.366 49.0049 105.789 50.4274 107.544 50.4274ZM113.452 44.6478C115.656 44.6478 117.437 42.8665 117.437 40.6623C117.437 38.4581 115.656 36.6768 113.452 36.6768C111.248 36.6768 109.466 38.4581 109.466 40.6623C109.466 42.8665 111.248 44.6478 113.452 44.6478Z" fill="url(#paint0_linear_530_114)"/>
<defs>
<linearGradient id="paint0_linear_530_114" x1="17.7105" y1="17.7361" x2="103.264" y2="103.29" gradientUnits="userSpaceOnUse">
<stop stop-color="#E69A3F"/>
<stop offset="1" stop-color="#F5D247"/>
</linearGradient>
</defs>
</svg>
