<svg width="642" height="630" viewBox="0 0 642 630" fill="none" xmlns="http://www.w3.org/2000/svg">
<path d="M0 784.488L7.18257 776.722C205.415 986.479 526.136 984.629 722.243 772.598C918.349 560.567 916.62 217.522 718.388 7.76557L725.57 -0.000227245C927.785 213.97 929.549 563.991 729.504 780.281C529.458 996.571 202.215 998.458 0 784.488ZM698.742 747.731C881.95 549.646 880.411 228.945 695.139 32.9021L687.956 40.6679C869.169 232.415 870.827 546.139 691.559 739.965C512.29 933.79 218.983 935.564 37.693 743.735L30.5085 751.502C215.703 947.462 515.534 945.816 698.819 747.648L698.742 747.731ZM667.903 715.099C834.35 535.136 832.882 243.921 664.63 65.8879L657.448 73.6537C821.718 247.473 823.15 531.712 660.642 707.416C498.134 883.12 232.394 884.652 68.1241 710.832L60.9416 718.598C229.193 896.631 501.455 895.062 667.903 715.099ZM637.063 682.466C786.672 520.708 785.353 258.897 634.122 98.8738L626.937 106.642C774.187 262.451 775.472 517.284 629.802 674.783C484.132 832.282 245.882 833.656 98.6326 677.846L91.4501 685.612C242.682 845.635 487.453 844.224 637.063 682.466ZM606.301 649.916C739.15 506.28 737.978 273.874 603.689 131.778L596.506 139.544C726.736 277.344 727.95 502.856 599.04 642.233C470.131 781.611 259.371 782.827 129.064 644.944L121.881 652.71C256.17 794.806 473.452 793.553 606.301 649.916ZM575.462 617.284C691.473 491.853 690.449 288.85 573.18 164.764L565.998 172.53C679.285 292.403 680.272 488.428 568.201 609.601C456.129 730.773 272.859 731.831 159.572 611.958L152.39 619.724C269.659 743.81 459.451 742.716 575.462 617.284ZM544.7 584.734C643.95 477.424 643.076 303.825 542.749 197.666L535.567 205.432C631.833 307.295 632.75 474 537.439 577.051C442.128 680.102 286.35 680.999 190.005 579.054L182.821 586.822C283.147 692.981 445.45 692.044 544.7 584.734ZM513.86 552.102C596.273 462.997 595.547 318.801 512.241 230.652L505.058 238.418C584.382 322.354 585.073 459.573 506.599 544.419C428.126 629.264 299.838 630.004 220.514 546.068L213.331 553.834C296.637 641.983 431.448 641.206 513.86 552.102ZM483.021 519.469C548.596 448.57 548.018 333.777 481.732 263.638L474.548 271.406C536.852 337.332 537.395 445.145 475.76 511.786C414.124 578.427 313.326 579.008 251.022 513.082L243.84 520.848C310.126 590.987 417.446 590.369 483.021 519.469ZM452.259 486.919C501.073 434.141 500.643 348.754 451.299 296.542L444.117 304.308C489.4 352.224 489.873 430.717 444.998 479.236C400.123 527.755 326.815 528.179 281.454 480.18L274.271 487.946C323.614 540.158 403.445 539.697 452.259 486.919ZM421.419 454.287C453.396 419.714 453.114 363.73 420.791 329.528L413.608 337.294C441.949 367.283 442.196 416.29 414.159 446.604C386.121 476.918 340.305 477.181 311.964 447.192L304.78 454.96C337.103 489.162 389.443 488.86 421.419 454.287ZM390.658 421.737C405.874 405.286 405.74 378.705 390.359 362.431L383.177 370.196C394.498 382.175 394.674 401.862 383.397 414.054C372.12 426.246 353.794 426.351 342.395 414.29L335.211 422.058C350.591 438.332 375.442 438.188 390.658 421.737ZM1092.63 1164.52C896.525 1376.55 575.803 1378.4 377.571 1168.64L370.388 1176.41C572.603 1390.38 899.847 1388.49 1099.89 1172.2C1299.94 955.911 1298.17 605.89 1095.96 391.92L1088.78 399.685C1287.01 609.442 1288.74 952.487 1092.63 1164.52ZM400.819 1143.51C586.014 1339.47 885.845 1337.82 1069.13 1139.65C1252.42 941.483 1250.8 620.865 1065.53 424.822L1058.34 432.588C1239.56 624.334 1241.22 938.059 1061.95 1131.88C882.678 1325.71 589.372 1327.48 408.081 1135.65L400.897 1143.42L400.819 1143.51ZM431.33 1110.52C599.582 1288.55 871.844 1286.98 1038.29 1107.02C1204.74 927.056 1203.27 635.841 1035.02 457.808L1027.84 465.574C1192.11 639.393 1193.54 923.632 1031.03 1099.34C868.522 1275.04 602.782 1276.57 438.512 1102.75L431.33 1110.52ZM461.761 1077.62C612.992 1237.64 857.765 1236.23 1007.37 1074.47C1156.98 912.712 1155.66 650.9 1004.43 490.877L997.248 498.645C1144.5 654.455 1145.78 909.288 1000.11 1066.79C854.443 1224.29 616.193 1225.66 468.944 1069.85L461.761 1077.62ZM492.269 1044.63C626.559 1186.73 843.841 1185.47 976.69 1041.84C1109.54 898.2 1108.37 665.794 974.077 523.698L966.895 531.464C1097.12 669.264 1098.34 894.776 969.429 1034.15C840.519 1173.53 629.759 1174.75 499.452 1036.86L492.269 1044.63ZM522.778 1011.64C640.047 1135.73 829.839 1134.64 945.85 1009.2C1061.86 883.773 1060.84 680.77 943.569 556.684L936.386 564.45C1049.67 684.322 1050.66 880.349 938.589 1001.52C826.517 1122.69 643.248 1123.75 529.961 1003.88L522.778 1011.64ZM553.209 978.742C653.458 1084.82 815.838 1083.96 915.088 976.654C1014.34 869.345 1013.46 695.745 913.137 589.586L905.955 597.352C1002.22 699.215 1003.14 865.92 907.827 968.971C812.516 1072.02 656.738 1072.92 560.394 970.974L553.209 978.742ZM583.72 945.754C667.026 1033.9 801.836 1033.13 884.249 944.022C966.661 854.917 965.935 710.721 882.629 622.572L875.446 630.338C954.771 714.274 955.461 851.493 876.988 936.339C798.514 1021.18 670.226 1021.92 590.902 937.988L583.72 945.754ZM614.228 912.768C680.514 982.907 787.834 982.289 853.409 911.389C918.984 840.49 918.406 725.697 852.12 655.558L844.936 663.326C907.24 729.252 907.784 837.066 846.148 903.706C784.512 970.347 683.715 970.928 621.411 905.002L614.228 912.768ZM644.659 879.866C694.003 932.078 773.833 931.618 822.648 878.84C871.462 826.062 871.031 740.674 821.687 688.462L814.505 696.228C859.788 744.144 860.261 822.637 815.386 871.156C770.511 919.675 697.203 920.098 651.842 872.1L644.659 879.866ZM682.352 839.112L675.168 846.88C707.491 881.082 759.831 880.78 791.808 846.207C823.784 811.634 823.502 755.65 791.179 721.448L783.996 729.214C812.338 759.203 812.584 808.21 784.547 838.524C756.51 868.838 710.693 869.101 682.352 839.112ZM760.67 754.434L753.488 762.2C764.809 774.179 764.985 793.865 753.708 806.058C742.431 818.25 724.105 818.355 712.706 806.293L705.523 814.059C720.904 830.334 745.753 830.192 760.969 813.741C776.185 797.289 776.051 770.709 760.67 754.434Z" fill="url(#paint0_linear_745_108)"/>
<defs>
<linearGradient id="paint0_linear_745_108" x1="-0.644215" y1="672.106" x2="1248.23" y2="665.81" gradientUnits="userSpaceOnUse">
<stop stop-color="#D63278"/>
<stop offset="1" stop-color="#E9732E"/>
</linearGradient>
</defs>
</svg>
