<svg width="176" height="172" viewBox="0 0 176 172" fill="none" xmlns="http://www.w3.org/2000/svg">
<path d="M111.551 50.2921C120.968 43.0785 125.31 31.5151 125.616 17.0249C139.685 20.5035 151.981 19.3222 161.398 12.1086C198.633 -16.4144 156.74 -112.737 98.3944 -188.905C40.0484 -265.073 -42.0409 -330.604 -79.2764 -302.081C-88.6934 -294.867 -93.0359 -283.304 -93.3412 -268.814C-107.411 -272.292 -119.706 -271.111 -129.123 -263.898C-138.54 -256.684 -142.883 -245.12 -143.188 -230.63C-157.258 -234.109 -169.553 -232.927 -178.97 -225.714C-188.387 -218.5 -192.73 -206.937 -193.035 -192.447C-207.105 -195.925 -219.4 -194.744 -228.817 -187.53C-238.234 -180.317 -242.577 -168.753 -242.882 -154.263C-256.952 -157.742 -269.247 -156.56 -278.664 -149.347C-315.9 -120.824 -274.008 -24.5016 -215.662 51.6665C-157.316 127.835 -75.2256 193.366 -37.9901 164.843C-28.573 157.629 -24.2306 146.066 -23.9252 131.576C-9.85547 135.054 2.43984 133.873 11.8569 126.659C21.2739 119.446 25.6164 107.882 25.9217 93.3921C39.9915 96.8707 52.2868 95.6894 61.7038 88.4758C71.1208 81.2622 75.4633 69.6988 75.7686 55.2085C89.8384 58.6872 102.134 57.5057 111.551 50.2921ZM-67.7472 -287.099C-58.3302 -294.313 -36.1803 -287.73 -9.95125 -269.963C20.3128 -249.48 53.4777 -216.593 83.4791 -177.427C113.481 -138.262 136.563 -97.6506 148.493 -63.122C158.816 -33.1712 159.403 -10.0721 149.986 -2.85852C144.728 1.16887 135.528 0.877316 123.842 -3.21246C116.303 -45.3815 85.8212 -102.132 48.6063 -150.714C11.3913 -199.297 -35.4621 -243.505 -74.2131 -261.764C-75.1184 -274.113 -73.0048 -283.072 -67.7472 -287.099ZM102.114 -13.6561C98.8412 -15.5846 95.5334 -17.6967 92.1313 -20.0012C61.8672 -40.485 28.7019 -73.3728 -1.29948 -112.538C-31.3009 -151.704 -54.3833 -192.314 -66.3125 -226.843C-67.6515 -230.727 -68.7967 -234.497 -69.8398 -238.134C-66.5927 -236.239 -63.2591 -234.092 -59.857 -231.788C-29.5929 -211.304 3.572 -178.417 33.5734 -139.251C63.5748 -100.086 86.6576 -59.4749 98.5868 -24.9462C99.9258 -21.0614 101.071 -17.2924 102.114 -13.6561ZM-117.627 -248.89C-112.37 -252.918 -103.17 -252.625 -91.4832 -248.535C-88.1321 -229.823 -80.284 -208.274 -69.3246 -185.833C-88.1371 -202.258 -106.925 -215.48 -124.093 -223.555C-124.999 -235.904 -122.885 -244.863 -117.627 -248.89ZM-16.248 -101.035C13.7534 -61.8691 36.8362 -21.258 48.7654 13.2706C50.1044 17.1554 51.249 20.9246 52.2921 24.5609C49.0196 22.6324 45.712 20.5201 42.3099 18.2156C12.0458 -2.2682 -21.1197 -35.1558 -51.1211 -74.3213C-81.1225 -113.487 -104.205 -154.097 -116.134 -188.626C-117.473 -192.511 -118.618 -196.28 -119.661 -199.917C-116.414 -198.022 -113.08 -195.875 -109.678 -193.571C-79.4143 -173.087 -46.2494 -140.2 -16.248 -101.035ZM-167.508 -210.681C-162.25 -214.708 -153.05 -214.416 -141.363 -210.326C-138.012 -191.614 -130.164 -170.065 -119.205 -147.624C-138.018 -164.049 -156.805 -177.271 -173.974 -185.346C-174.879 -197.695 -172.765 -206.654 -167.508 -210.681ZM-66.0952 -62.851C-36.0938 -23.6855 -13.0107 16.9255 -1.08153 51.4542C0.257463 55.339 1.40211 59.1082 2.44514 62.7445C-0.827366 60.816 -4.13493 58.7036 -7.53703 56.3992C-37.8011 35.9153 -70.9666 3.0277 -100.968 -36.1378C-130.969 -75.3033 -154.052 -115.914 -165.981 -150.442C-167.32 -154.327 -168.465 -158.097 -169.508 -161.733C-166.261 -159.838 -162.927 -157.692 -159.525 -155.387C-129.261 -134.903 -96.0965 -102.016 -66.0952 -62.851ZM-217.355 -172.497C-212.097 -176.525 -202.897 -176.232 -191.21 -172.143C-187.859 -153.431 -180.011 -131.881 -169.052 -109.44C-187.864 -125.865 -206.652 -139.088 -223.821 -147.163C-224.726 -159.511 -222.612 -168.47 -217.355 -172.497ZM-115.975 -24.6419C-85.974 14.5236 -62.8911 55.1347 -50.962 89.6634C-49.623 93.5482 -48.4781 97.3172 -47.4351 100.954C-50.7076 99.025 -54.0154 96.9128 -57.4175 94.6084C-87.6815 74.1245 -120.847 41.2368 -150.848 2.07125C-180.85 -37.0942 -203.932 -77.7044 -215.861 -112.233C-217.2 -116.118 -218.346 -119.888 -219.389 -123.524C-216.142 -121.629 -212.808 -119.483 -209.406 -117.178C-179.142 -96.6942 -145.977 -63.8074 -115.975 -24.6419ZM-49.5022 149.952C-58.9192 157.166 -81.0687 150.584 -107.298 132.817C-137.562 112.334 -170.727 79.4458 -200.728 40.2803C-230.73 1.11481 -253.812 -39.4953 -265.741 -74.024C-276.065 -103.975 -276.652 -127.075 -267.235 -134.288C-261.977 -138.316 -252.777 -138.023 -241.091 -133.934C-233.552 -91.7646 -203.071 -35.0154 -165.856 13.5671C-128.641 62.1497 -81.7866 106.359 -43.0357 124.618C-42.1304 136.967 -44.2446 145.925 -49.5022 149.952ZM0.378076 111.743C-4.87949 115.771 -14.0792 115.479 -25.7658 111.389C-29.1168 92.6774 -36.9653 71.1268 -47.9248 48.686C-29.1123 65.1112 -10.3236 78.3343 6.84457 86.4093C7.74987 98.7577 5.63564 107.716 0.378076 111.743ZM50.225 73.5597C44.9674 77.5871 35.768 77.2954 24.0814 73.2056C20.7303 54.4937 12.8816 32.9432 1.92213 10.5025C20.7347 26.9277 39.5233 40.1508 56.6915 48.2258C57.5968 60.5742 55.4826 69.5324 50.225 73.5597ZM51.7771 -27.7401C70.5896 -11.3148 89.378 1.90842 106.546 9.9834C107.452 22.3318 105.338 31.2907 100.081 35.318C94.823 39.3454 85.6227 39.053 73.9361 34.9633C70.5851 16.2513 62.7365 -5.29926 51.7771 -27.7401Z" fill="url(#paint0_linear_915_4)"/>
<defs>
<linearGradient id="paint0_linear_915_4" x1="-90.0029" y1="168.147" x2="-27.2452" y2="-305.293" gradientUnits="userSpaceOnUse">
<stop stop-color="#79E3A3"/>
<stop offset="1" stop-color="#1B3342"/>
</linearGradient>
</defs>
</svg>
