<svg width="396" height="369" viewBox="0 0 396 369" fill="none" xmlns="http://www.w3.org/2000/svg">
<path d="M414.922 0L419.584 5.56475C267.649 132.857 247.608 359.957 374.9 511.891C502.193 663.826 729.292 683.868 881.227 556.576L885.889 562.14C730.903 691.99 499.185 671.54 369.335 516.554C239.486 361.567 259.935 129.849 414.922 0ZM392.912 496.801C511.832 638.742 724.135 657.534 866.136 538.564L861.474 532.999C722.585 649.362 514.891 631.088 398.528 492.198C282.165 353.309 300.439 145.616 439.388 29.2029L434.725 23.6367C292.784 142.557 273.992 354.859 392.963 496.861L392.912 496.801ZM416.549 476.997C524.59 605.954 717.377 622.968 846.333 514.927L841.671 509.362C715.767 614.846 527.598 598.239 422.114 472.335C316.63 346.431 333.237 158.264 459.141 52.7796L454.479 47.2149C325.523 155.256 308.508 348.041 416.549 476.997ZM440.186 457.194C537.298 573.105 710.619 588.402 826.53 491.29L821.867 485.724C709.008 580.278 540.306 565.391 445.751 452.532C351.197 339.673 366.085 170.971 478.944 76.4163L474.282 70.8516C358.371 167.963 343.075 341.283 440.186 457.194ZM463.763 437.441C549.995 540.366 703.851 553.944 806.776 467.712L802.114 462.147C702.3 545.772 553.004 532.652 469.329 432.778C385.653 332.905 398.824 183.668 498.697 99.9931L494.035 94.4283C391.109 180.66 377.531 334.515 463.763 437.441ZM487.4 417.638C562.703 507.518 697.093 519.378 786.973 444.075L782.311 438.511C695.482 511.256 565.711 499.803 492.966 412.975C420.22 326.147 431.672 196.376 518.5 123.63L513.838 118.065C423.958 193.368 412.098 327.757 487.4 417.638ZM510.977 397.885C575.401 474.779 690.325 484.922 767.22 420.499L762.558 414.934C688.775 476.75 578.409 467.065 516.542 393.222C454.676 319.379 464.411 209.074 538.254 147.208L533.591 141.642C456.696 206.065 446.554 320.99 510.977 397.885ZM534.614 378.081C588.108 441.931 683.567 450.356 747.417 396.862L742.755 391.297C681.957 442.234 591.117 434.217 540.18 373.419C489.242 312.621 497.26 221.782 558.057 170.845L553.395 165.28C489.545 218.774 481.12 314.231 534.614 378.081ZM558.251 358.278C600.816 409.082 676.81 415.79 727.614 373.225L722.951 367.659C675.198 407.667 603.824 401.368 563.817 353.615C523.809 305.863 530.108 234.489 577.86 194.481L573.198 188.917C522.394 231.481 515.687 307.473 558.251 358.278ZM581.828 338.525C613.514 376.344 670.041 381.332 707.86 349.647L703.198 344.082C668.49 373.161 616.522 368.63 587.394 333.862C558.265 299.095 562.846 247.186 597.613 218.058L592.951 212.493C555.132 244.179 550.143 300.706 581.828 338.525ZM605.465 318.721C626.221 343.495 663.283 346.766 688.057 326.01L683.395 320.446C661.673 338.645 629.229 335.781 611.031 314.059C592.832 292.337 595.695 259.895 617.418 241.696L612.754 236.13C587.98 256.886 584.71 293.948 605.465 318.721ZM629.043 298.968C638.919 310.757 656.515 312.31 668.304 302.434L663.642 296.869C654.965 304.138 641.927 303.042 634.608 294.306C627.288 285.569 628.434 272.593 637.17 265.273L632.507 259.707C620.718 269.583 619.166 287.18 629.043 298.968ZM91.0176 749.731C-36.275 597.797 -16.2334 370.697 135.701 243.405L131.039 237.84C-23.9475 367.689 -44.397 599.407 85.4525 754.394C215.302 909.381 447.02 929.83 602.006 799.98L597.344 794.416C445.409 921.708 218.31 901.666 91.0176 749.731ZM150.792 261.417C8.8506 380.337 -9.94061 592.64 109.03 734.641C228 876.642 440.252 895.374 582.254 776.404L577.591 770.839C438.702 887.202 231.008 868.928 114.645 730.038C-1.71829 591.149 16.5562 383.456 155.506 267.043L150.842 261.477L150.792 261.417ZM170.596 285.055C41.6402 393.096 24.6256 585.882 132.666 714.838C240.707 843.794 433.494 860.808 562.45 752.767L557.788 747.202C431.884 852.686 243.715 836.079 138.232 710.175C32.7476 584.271 49.3543 396.104 175.258 290.62L170.596 285.055ZM190.349 308.632C74.4383 405.743 59.1419 579.063 156.253 694.974C253.365 810.885 426.686 826.182 542.597 729.07L537.934 723.504C425.075 818.059 256.373 803.171 161.818 690.312C67.2639 577.453 82.1524 408.751 195.011 314.196L190.349 308.632ZM210.152 332.268C107.227 418.5 93.6485 572.356 179.881 675.281C266.113 778.207 419.968 791.784 522.893 705.552L518.231 699.987C418.417 783.612 269.121 770.492 185.446 670.619C101.77 570.745 114.941 421.508 214.814 337.833L210.152 332.268ZM229.955 355.905C140.075 431.208 128.215 565.598 203.517 655.478C278.82 745.358 413.21 757.218 503.09 681.915L498.428 676.351C411.6 749.096 281.828 737.644 209.083 650.815C136.337 563.987 147.789 434.216 234.617 361.47L229.955 355.905ZM249.708 379.482C172.873 443.855 162.671 558.83 227.095 635.725C291.518 712.62 406.442 722.762 483.337 658.339L478.675 652.774C404.892 714.59 294.526 704.905 232.66 631.062C170.793 557.219 180.529 446.914 254.372 385.048L249.708 379.482ZM269.512 403.12C205.663 456.614 197.238 552.072 250.732 615.921C304.226 679.771 399.685 688.196 463.534 634.702L458.872 629.137C398.074 680.074 307.234 672.057 256.297 611.259C205.36 550.461 213.377 459.622 274.175 408.685L269.512 403.12ZM289.315 426.757C238.511 469.321 231.804 545.314 274.368 596.118C316.933 646.923 392.927 653.63 443.731 611.065L439.068 605.499C391.315 645.507 319.941 639.208 279.934 591.455C239.926 543.703 246.225 472.329 293.978 432.321L289.315 426.757ZM309.068 450.333C271.249 482.019 266.26 538.546 297.946 576.365C329.631 614.184 386.158 619.172 423.977 587.487L419.315 581.922C384.608 611.001 332.639 606.47 303.511 571.702C274.382 536.935 278.963 485.026 313.731 455.898L309.068 450.333ZM333.535 479.536L328.871 473.97C304.097 494.726 300.827 531.788 321.583 556.562C342.338 581.336 379.4 584.606 404.174 563.85L399.512 558.286C377.79 576.485 345.347 573.621 327.148 551.899C308.949 530.177 311.813 497.735 333.535 479.536ZM384.371 540.214L379.709 534.649C371.032 541.919 357.994 540.823 350.675 532.086C343.355 523.349 344.501 510.373 353.237 503.053L348.575 497.488C336.787 507.365 335.233 524.96 345.11 536.748C354.986 548.537 372.583 550.09 384.371 540.214Z" fill="url(#paint0_linear_716_796)"/>
<defs>
<linearGradient id="paint0_linear_716_796" x1="489.325" y1="6.51074" x2="411.284" y2="890.822" gradientUnits="userSpaceOnUse">
<stop stop-color="#D63278"/>
<stop offset="1" stop-color="#E9732E"/>
</linearGradient>
</defs>
</svg>
