<svg width="54" height="54" viewBox="0 0 54 54" fill="none" xmlns="http://www.w3.org/2000/svg">
<path d="M26.2431 52.8831L21.9931 48.345L16.2625 50.7582C16.1099 50.826 15.9347 50.8203 15.7764 50.7582C15.6238 50.6904 15.5052 50.5604 15.4487 50.4021L13.4085 44.5302L7.19174 44.4058C7.02219 44.4058 6.86393 44.3323 6.7509 44.2024C6.63787 44.078 6.58134 43.9141 6.5983 43.7446L7.12385 37.5505L1.49492 34.9112C1.34233 34.8377 1.2294 34.7078 1.17288 34.5495C1.12202 34.3913 1.13888 34.216 1.218 34.0691L4.21901 28.621L0.149916 23.9189C0.0425364 23.7889 -0.0139847 23.625 0.00296994 23.4555C0.0199246 23.2859 0.104654 23.1334 0.240291 23.0316L5.19672 19.279L3.39391 13.3279C3.34304 13.1696 3.36557 12.9944 3.45034 12.8475C3.53511 12.7006 3.67651 12.5988 3.8404 12.5593L9.8932 11.1464L10.6674 4.97489C10.69 4.80534 10.7749 4.65841 10.9162 4.55668C11.0518 4.4606 11.2213 4.42104 11.3908 4.4493L17.5002 5.61917L20.7159 0.29538C20.8007 0.154091 20.9476 0.0523627 21.1115 0.0128018C21.2754 -0.0211076 21.445 0.0128266 21.5862 0.108903L26.6896 3.66372L31.793 0.108903C31.9286 0.0128266 32.1039 -0.0211076 32.2678 0.0128018C32.4317 0.0467111 32.5729 0.148439 32.6634 0.29538L35.8791 5.61917L41.9884 4.4493C42.1523 4.41539 42.3218 4.45495 42.4631 4.55668C42.5987 4.65841 42.6892 4.80534 42.7118 4.97489L43.486 11.1464L49.5388 12.5593C49.7027 12.5988 49.8441 12.7006 49.9289 12.8475C50.0137 12.9944 50.0305 13.1696 49.9853 13.3279L48.1825 19.279L53.1389 23.0316C53.2746 23.1334 53.3593 23.2859 53.3763 23.4555C53.3932 23.625 53.3424 23.7889 53.2293 23.9189L49.1602 28.621L52.1612 34.0691C52.2404 34.216 52.2572 34.3913 52.2064 34.5495C52.1555 34.7078 52.0369 34.8434 51.8843 34.9112L46.2554 37.5505L46.7809 43.7446C46.7979 43.9141 46.7414 44.078 46.6283 44.2024C46.5153 44.3267 46.357 44.4001 46.1875 44.4058L39.9708 44.5302L37.9305 50.4021C37.874 50.5604 37.7554 50.6904 37.6028 50.7582C37.4502 50.826 37.275 50.826 37.1167 50.7582L31.3861 48.345L27.1361 52.8831C27.0231 53.0075 26.8592 53.0753 26.6896 53.0753C26.5201 53.0753 26.3618 53.0075 26.2431 52.8831ZM31.4652 47.0564L36.9867 49.3849L38.9535 43.722C39.0382 43.479 39.2587 43.3207 39.5186 43.3151L45.5093 43.1964L45.0006 37.2227C44.978 36.9684 45.1194 36.731 45.3511 36.618L50.7766 34.0691L47.883 28.8188C47.7586 28.5984 47.7868 28.3215 47.9564 28.1293L51.8787 23.5968L47.1031 19.9798C46.8997 19.8272 46.8148 19.5616 46.8883 19.3186L48.629 13.5822L42.7909 12.2202C42.5422 12.1637 42.3557 11.9545 42.3274 11.7059L41.5815 5.76046L35.6982 6.89077C35.4495 6.93599 35.1953 6.82296 35.0653 6.6082L31.9682 1.47657L27.0513 4.90141C26.8422 5.04836 26.5652 5.04836 26.3561 4.90141L21.4393 1.47657L18.3423 6.6082C18.2123 6.82861 17.958 6.94164 17.7094 6.89077L11.826 5.76046L11.0799 11.7059C11.046 11.9602 10.8653 12.1637 10.6166 12.2202L4.77851 13.5822L6.51923 19.3186C6.59271 19.5616 6.50786 19.8272 6.3044 19.9798L1.52886 23.5968L5.45101 28.1293C5.61491 28.3215 5.64889 28.5984 5.52455 28.8188L2.63089 34.0691L8.05644 36.618C8.28816 36.7253 8.42372 36.9684 8.40677 37.2227L7.89818 43.1964L13.8889 43.3151C14.1432 43.3151 14.3693 43.4846 14.454 43.722L16.4208 49.3849L21.9424 47.0564C22.1797 46.9603 22.451 47.0168 22.6205 47.2033L26.7179 51.5776L30.8153 47.2033C30.934 47.079 31.0922 47.0112 31.2618 47.0112C31.3409 47.0112 31.42 47.0281 31.4991 47.0564H31.4652Z" fill="url(#paint0_linear_1081_34)"/>
<defs>
<linearGradient id="paint0_linear_1081_34" x1="7.84168" y1="7.61415" x2="45.5206" y2="45.2931" gradientUnits="userSpaceOnUse">
<stop stop-color="#E69A3F"/>
<stop offset="1" stop-color="#F5D247"/>
</linearGradient>
</defs>
</svg>
