<svg width="202" height="190" viewBox="0 0 202 190" fill="none" xmlns="http://www.w3.org/2000/svg">
<path d="M-50.8378 216.119C-49.6712 227.676 -48.3147 236.792 -46.7955 243.222C-45.2219 249.923 -43.0515 256.136 -37.951 256.136C-32.8505 256.136 -30.6801 249.923 -29.1065 243.222C-27.5873 236.792 -26.2308 227.676 -25.0642 216.119C-24.7386 212.972 -24.44 209.662 -24.1687 206.243C-23.5989 209.797 -22.9751 213.243 -22.324 216.526C-16.9794 243.195 -9.92566 256.136 -0.755665 256.136C8.41433 256.136 15.4958 243.168 20.8133 216.526C22.414 208.577 23.7433 199.732 24.8285 190.237C26.4835 199.868 28.5182 208.848 30.9328 216.906C38.6378 242.571 49.0826 256.163 61.1827 256.163C73.2827 256.163 83.7276 242.598 91.4326 216.906C94.5797 206.406 97.1028 194.388 98.9477 181.365C107.277 225.859 125.861 256.163 147.945 256.163C178.059 256.163 201.663 199.895 201.663 128.081C201.663 56.2678 178.059 0 147.945 0C125.861 0 107.277 30.3044 98.9477 74.7979C97.1028 61.7754 94.5797 49.7566 91.4326 39.2573C83.7276 13.5921 73.2827 0 61.1827 0C49.0826 0 38.6378 13.565 30.9328 39.2573C28.5182 47.3149 26.4835 56.295 24.8285 65.9263C23.7433 56.4307 22.3869 47.5863 20.8133 39.6371C15.4687 12.9682 8.41433 0.0271567 -0.755665 0.0271567C-9.92566 0.0271567 -17.0065 12.9953 -22.324 39.6371C-22.9751 42.9199 -23.5989 46.3653 -24.1687 49.9194C-24.44 46.501 -24.7386 43.1912 -25.0642 40.0441C-26.2308 28.4867 -27.5873 19.3708 -29.1065 12.941C-30.6801 6.23982 -32.8505 0.0271567 -37.951 0.0271567C-43.0515 0.0271567 -45.2219 6.23982 -46.7955 12.941C-48.3147 19.3708 -49.6712 28.4867 -50.8378 40.0441C-53.1981 63.5931 -54.5 94.8469 -54.5 128.081C-54.5 161.316 -53.1981 192.597 -50.8378 216.119ZM116.718 41.9703C125.291 20.5374 136.659 8.27466 147.945 8.27466C159.231 8.27466 170.599 20.5646 179.172 41.9703C188.342 64.8953 193.388 95.4709 193.388 128.081C193.388 160.692 188.342 191.241 179.172 214.193C170.599 235.625 159.231 247.888 147.945 247.888C136.659 247.888 125.291 235.598 116.718 214.193C107.548 191.268 102.502 160.692 102.502 128.081C102.502 95.4709 107.548 64.9224 116.718 41.9703ZM38.8546 41.6176C45.1217 20.7273 53.4777 8.24751 61.1827 8.24751C68.8877 8.24751 77.2437 20.7273 83.5108 41.6176C90.4289 64.6511 94.227 95.3624 94.227 128.081C94.227 160.8 90.4289 191.485 83.5108 214.545C77.2437 235.436 68.8877 247.915 61.1827 247.915C53.4777 247.915 45.1217 235.436 38.8546 214.545C31.9364 191.512 28.1384 160.8 28.1384 128.081C28.1384 95.3624 31.9364 64.6782 38.8546 41.6176ZM-14.2664 41.2379C-8.86753 14.1891 -2.70906 8.24751 -0.782822 8.24751C1.14342 8.24751 7.27542 14.162 12.7014 41.2379C17.3407 64.3799 19.8907 95.2269 19.8907 128.054C19.8907 160.882 17.3407 191.729 12.7014 214.871C7.30255 241.92 1.14342 247.861 -0.782822 247.861C-2.70906 247.861 -8.8404 241.947 -14.2664 214.871C-18.9057 191.729 -21.4557 160.882 -21.4557 128.054C-21.4557 95.2269 -18.9057 64.3799 -14.2664 41.2379ZM-43.0512 45.5515C-41.2877 26.0178 -39.3075 16.4137 -37.951 11.8016C-36.5945 16.4408 -34.6136 26.0449 -32.8502 45.5515C-30.8154 68.2052 -29.6762 97.5058 -29.6762 128.054C-29.6762 158.603 -30.7883 187.903 -32.8502 210.557C-34.6136 230.091 -36.5945 239.695 -37.951 244.307C-39.3075 239.668 -41.2877 230.064 -43.0512 210.557C-45.0859 187.903 -46.2258 158.603 -46.2258 128.054C-46.2258 97.5058 -45.113 68.2052 -43.0512 45.5515Z" fill="url(#paint0_linear_360_145)"/>
<defs>
<linearGradient id="paint0_linear_360_145" x1="-54.5" y1="14.1619" x2="173.312" y2="241.947" gradientUnits="userSpaceOnUse">
<stop stop-color="#E69A3F"/>
<stop offset="1" stop-color="#F5D247"/>
</linearGradient>
</defs>
</svg>
