<svg width="979" height="104" viewBox="0 0 979 104" fill="none" xmlns="http://www.w3.org/2000/svg">
<path d="M147.249 -50.0689C198.523 -54.9042 244.744 -79.353 277.621 -118.947C310.397 -158.561 325.926 -208.607 321.07 -259.78L337.328 -261.276C342.568 -205.694 325.779 -151.462 290.218 -108.496C254.656 -65.5296 204.43 -39.0306 148.847 -33.7906L147.348 -50.049L147.249 -50.0689ZM186.693 -0.629408C241.404 -11.5395 288.624 -43.0798 319.594 -89.5024C350.564 -135.925 361.724 -191.603 350.814 -246.314L334.738 -243.09C344.817 -192.667 334.513 -141.256 305.983 -98.5718C277.433 -55.7857 233.87 -26.6828 183.467 -16.7056L186.693 -0.629408ZM227.893 28.4483C337.951 -5.50385 399.902 -122.654 365.869 -232.834L350.217 -228.045C381.552 -126.544 324.503 -18.5564 223.002 12.7779L227.791 28.428L227.893 28.4483ZM271.779 53.0974C323.081 31.2526 362.908 -9.27321 383.74 -61.0042C404.572 -112.735 404.027 -169.596 382.182 -220.898L367.161 -214.503C387.26 -167.144 387.766 -114.835 368.582 -67.1071C349.398 -19.3789 312.741 17.9775 265.383 38.0763L271.779 53.0974ZM317.963 73.134C366.808 46.1467 402.144 1.65607 417.632 -51.8858C433.12 -105.428 426.702 -161.987 399.694 -210.73L385.425 -202.81C410.321 -157.766 416.173 -105.76 402.049 -56.3833C387.802 -6.92554 355.189 33.9894 310.246 58.9055L318.163 73.1743L317.963 73.134ZM366.057 88.3752C460.622 22.5718 483.928 -107.926 418.124 -202.491L404.727 -193.129C465.473 -106.023 443.902 14.2533 356.797 74.9996L366.158 88.3955L366.057 88.3752ZM415.395 98.4761C457.68 62.0364 483.164 11.3434 487.353 -44.3574C491.421 -99.977 473.704 -153.939 437.264 -196.224L424.884 -185.601C458.5 -146.63 474.859 -96.9557 471.017 -45.6239C467.175 5.70779 443.642 52.4587 404.691 85.9735L415.314 98.354L415.395 98.4761ZM465.526 103.557C544.573 19.7421 540.789 -112.698 456.974 -191.745L445.71 -179.841C522.943 -106.975 526.47 15.1621 453.603 92.3955L465.506 103.659L465.526 103.557ZM515.864 103.396C549.8 59.047 564.394 4.16314 557.081 -51.0955C549.788 -106.456 521.277 -155.606 477.03 -189.522L467.129 -176.499C508.003 -145.268 534.219 -99.9591 541.005 -48.9277C547.792 2.1037 534.278 52.6595 503.046 93.5341L516.067 103.436L515.864 103.396ZM565.981 98.0111C595.164 50.4903 604.087 -5.63536 591.084 -59.9209C578.08 -114.206 544.712 -160.209 497.171 -189.289L488.67 -175.352C532.534 -148.488 563.242 -106.084 575.191 -56.0258C587.139 -5.9677 578.908 45.647 552.044 89.5109L565.981 98.0111ZM615.307 87.6069C639.45 37.2795 642.564 -19.377 624.052 -72.0188C605.541 -124.661 567.617 -166.926 517.289 -191.07L510.212 -176.319C556.577 -154.026 591.575 -115.095 608.584 -66.5586C625.593 -18.0225 622.726 34.2444 600.536 80.6301L615.287 87.7086L615.307 87.6069ZM663.212 72.1621C682.093 19.6174 679.293 -37.0619 655.496 -87.5924C631.68 -138.021 589.67 -176.245 537.105 -195.024L531.592 -179.643C579.992 -162.226 618.812 -127.073 640.78 -80.6078C662.729 -34.0408 665.267 18.1469 647.932 66.6685L663.314 72.1825L663.212 72.1621ZM709.352 51.8188C736.854 -60.0828 668.274 -173.488 556.474 -200.97L552.565 -185.161C655.689 -159.735 718.866 -55.2334 693.542 47.9104L709.352 51.8188ZM736.88 24.6804L753.013 26.963C768.912 -87.1586 688.971 -192.907 574.951 -208.786L572.667 -192.652C677.847 -178.016 751.516 -80.5 736.88 24.6804ZM777.717 -2.96066L794.077 -2.32367C798.129 -117.446 707.758 -214.4 592.656 -218.553L592.019 -202.195C698.119 -198.471 781.44 -109.06 777.717 -2.96066ZM815.468 -34.7081L831.747 -35.7783C823.931 -150.743 724.085 -237.865 609.242 -230.13L610.314 -213.852C716.276 -221.041 808.278 -140.67 815.468 -34.7081ZM849.828 -70.0943L865.924 -72.8921C846.402 -186.399 738.079 -262.855 624.572 -243.333L627.368 -227.237C732.014 -245.259 831.826 -174.842 849.848 -70.1961L849.828 -70.0943ZM880.309 -108.795L895.998 -113.259C880.881 -167.017 845.865 -211.659 797.124 -238.972C748.485 -266.265 692.133 -273.015 638.395 -258L642.862 -242.309C692.352 -256.168 744.373 -249.968 789.213 -224.811C834.053 -199.654 866.389 -158.508 880.329 -108.896L880.309 -108.795ZM906.643 -150.545L921.804 -156.595C901.239 -208.486 861.751 -249.268 810.61 -271.461C759.367 -293.675 702.589 -294.593 650.698 -274.029L656.749 -258.865C704.615 -277.806 756.964 -276.93 804.123 -256.487C851.282 -236.043 887.703 -198.412 906.663 -150.647L906.643 -150.545ZM928.589 -194.655L943.102 -202.209C889.921 -304.39 763.595 -344.295 661.313 -291.135L668.866 -276.622C763.12 -325.579 879.612 -288.807 928.589 -194.655ZM945.882 -240.86L959.521 -249.857C928.813 -296.489 881.822 -328.313 827.12 -339.594C772.601 -350.733 716.67 -340.068 670.059 -309.462L679.057 -295.822C721.684 -323.95 772.717 -333.906 822.807 -323.866C823.111 -323.805 823.415 -323.744 823.72 -323.683C874.073 -313.379 917.429 -283.975 945.699 -241.002L945.882 -240.86ZM687.274 -315.734C769.444 -382.965 891.068 -370.741 958.299 -288.571L970.943 -298.93C898.025 -388.052 766.14 -401.277 676.916 -328.379L687.274 -315.734ZM693.32 -336.399C729.59 -372.882 777.922 -393.102 829.317 -393.264C880.711 -393.425 929.153 -373.57 965.636 -337.3L977.141 -348.838C895.441 -429.998 762.942 -429.607 681.68 -347.926L693.219 -336.419L693.32 -336.399ZM697.272 -357.695C729.6 -397.715 775.517 -422.753 826.711 -428.239C877.904 -433.724 928.093 -418.909 968.113 -386.58L978.381 -399.317C934.988 -434.33 880.513 -450.428 825.011 -444.538C769.509 -438.647 719.667 -411.437 684.655 -368.044L697.394 -357.776L697.272 -357.695ZM699.049 -379.215C756.943 -468.221 876.385 -493.634 965.513 -435.821L974.38 -449.474C877.796 -512.269 748.088 -484.686 685.394 -388.081L699.049 -379.215ZM698.507 -400.777C746.934 -495.274 863.214 -532.841 957.711 -484.414L965.174 -498.982C862.611 -551.456 736.517 -510.784 684.043 -408.221L698.609 -400.757L698.507 -400.777ZM695.835 -422.238C734.285 -521.271 846.036 -570.525 945.069 -532.075L950.969 -547.273C898.893 -567.434 842.213 -566.219 791.094 -543.703C740.076 -521.167 700.776 -480.113 680.636 -428.138L695.835 -422.238ZM690.866 -443.314C718.893 -545.705 824.977 -606.24 927.469 -578.193L931.785 -593.92C820.677 -624.328 705.525 -558.635 675.117 -447.527L690.845 -443.212L690.866 -443.314ZM667.809 -466.43L683.965 -463.72C692.338 -514.461 720.056 -558.893 761.891 -588.871C803.727 -618.848 854.719 -630.715 905.439 -622.24L908.148 -638.395C853.12 -647.522 797.798 -634.621 752.405 -602.186C707.012 -569.751 677.059 -521.539 667.911 -466.41L667.809 -466.43ZM658.509 -484.358L674.787 -483.314C677.898 -534.687 700.84 -581.662 739.385 -615.787C777.929 -649.911 827.421 -666.941 878.773 -663.728L879.817 -680.006C824.177 -683.443 770.478 -664.933 728.619 -627.985C686.862 -591.016 661.947 -539.998 658.489 -484.256L658.509 -484.358ZM647.399 -501.169L663.698 -501.812C659.272 -607.854 741.981 -697.805 848.044 -702.333L847.399 -718.631C732.293 -713.803 642.571 -616.275 647.399 -501.169ZM634.582 -516.843L650.701 -519.213C635.402 -624.264 708.42 -722.287 813.471 -737.586L811.1 -753.702C697.107 -737.025 617.906 -630.836 634.582 -516.843ZM620.324 -531.115L636.135 -535.132C610.065 -638.114 672.62 -742.99 775.602 -769.06L771.586 -784.872C659.925 -756.631 592.083 -642.776 620.324 -531.115ZM604.58 -543.782L619.865 -549.384C583.409 -649.059 634.809 -759.975 734.483 -796.431L728.88 -811.715C620.649 -772.113 564.957 -651.911 604.458 -543.7L604.58 -543.782ZM587.656 -554.783L602.311 -561.991C579.773 -608.254 576.605 -660.462 593.331 -709.106C610.056 -757.75 644.761 -796.977 691.024 -819.515L683.816 -834.17C633.671 -809.662 596.098 -767.205 577.908 -714.416C559.718 -661.628 563.27 -605.009 587.656 -554.783ZM569.757 -564.078L583.64 -572.709C527.528 -662.901 555.176 -781.854 645.369 -837.966L636.737 -851.85C538.922 -790.925 508.934 -661.873 569.757 -564.078ZM550.92 -571.341L563.809 -581.334C532.327 -621.991 518.449 -672.436 524.872 -723.462C531.295 -774.488 557.225 -820.018 597.882 -851.5L587.889 -864.388C543.837 -830.205 515.669 -780.896 508.675 -725.44C501.702 -670.086 516.716 -615.291 550.9 -571.239L550.92 -571.341ZM531.495 -576.714L543.265 -587.988C507.697 -625.131 488.738 -673.953 489.959 -725.387C491.078 -776.842 512.193 -824.711 549.438 -860.259L538.164 -872.03C497.788 -833.517 474.903 -781.564 473.64 -725.699C472.397 -669.936 492.961 -616.988 531.475 -576.612L531.495 -576.714ZM511.561 -580.075L522.195 -592.528C483.008 -625.853 459.169 -672.482 455.065 -723.715C450.961 -774.949 466.977 -824.791 500.301 -863.978L487.847 -874.612C451.636 -832.094 434.258 -778.085 438.746 -722.442C443.234 -666.798 469.144 -616.266 511.561 -580.075ZM491.403 -581.263L500.654 -594.732C413.152 -654.862 390.828 -774.954 450.978 -862.557L437.509 -871.809C372.296 -776.872 396.486 -646.577 491.423 -581.364L491.403 -581.263ZM471.16 -580.459L479.01 -594.843C433.845 -619.431 401.002 -660.15 386.391 -709.58C371.861 -758.887 377.431 -810.929 402.019 -856.095L387.634 -863.945C360.911 -814.98 354.873 -758.487 370.661 -704.912C386.449 -651.337 422.094 -607.203 471.059 -580.479L471.16 -580.459ZM451.243 -577.582L457.55 -592.698C410.065 -612.573 373.216 -649.656 353.687 -697.218C334.157 -744.779 334.301 -797.169 354.176 -844.653L339.061 -850.959C317.538 -799.472 317.352 -742.652 338.505 -691.066C359.659 -639.48 399.756 -599.104 451.243 -577.582ZM431.653 -572.63L436.373 -588.277C334.715 -618.904 276.924 -726.554 307.572 -828.314L291.925 -833.035C258.612 -722.721 321.339 -605.944 431.673 -572.732L431.653 -572.63ZM411.002 -566.096C411.51 -565.994 412.119 -565.872 412.627 -565.77L415.844 -581.823C415.235 -581.945 414.728 -582.047 414.22 -582.149C310.789 -602.88 243.037 -703.544 262.996 -807.34L246.943 -810.558C225.313 -697.902 298.854 -588.68 411.022 -566.197L411.002 -566.096ZM371.146 -560.24C378.767 -558.713 386.57 -557.571 394.475 -556.938L395.946 -573.235C344.736 -577.687 298.23 -601.91 265.224 -641.288C232.115 -680.686 216.325 -730.563 220.899 -781.854L204.6 -783.324C199.801 -727.745 216.851 -673.6 252.782 -630.888C283.575 -594.174 325.06 -569.689 371.289 -560.423L371.146 -560.24ZM332.49 -550.339C347.121 -547.406 362.057 -545.998 377.34 -546.316L377.122 -562.635C325.707 -561.844 277.024 -581.008 240.033 -616.851C203.021 -652.593 182.233 -700.724 181.442 -752.139L165.123 -751.922C165.993 -696.158 188.631 -644.064 228.71 -605.171C257.819 -576.931 293.699 -558.22 332.51 -550.441L332.49 -550.339ZM295.254 -536.455C316.692 -532.158 339.026 -531.274 361.32 -533.886L359.397 -550.124C308.284 -543.988 257.974 -558.194 217.526 -589.975C177.078 -621.755 151.451 -667.369 145.315 -718.481L129.077 -716.557C135.719 -661.116 163.54 -611.681 207.34 -577.115C233.445 -556.558 263.453 -542.829 295.153 -536.475L295.254 -536.455ZM260.029 -518.891C287.868 -513.311 317.357 -513.318 346.806 -519.992L343.235 -535.926C239.623 -512.518 136.354 -577.816 112.926 -681.326L96.9921 -677.756C115.674 -594.854 181.592 -534.613 260.029 -518.891ZM226.165 -497.567C261.624 -490.459 298.426 -492.7 333.67 -504.553L328.435 -520.081C279.696 -503.641 227.449 -507.138 181.409 -529.999C135.369 -552.861 100.899 -592.32 84.4584 -641.06L68.9314 -635.823C86.7518 -582.897 124.065 -540.225 174.148 -515.391C190.87 -507.072 208.385 -501.13 226.165 -497.567ZM194.839 -473.092C237.613 -464.518 281.734 -469.519 322.224 -488.036L315.481 -502.915C268.711 -481.535 216.342 -479.667 168.166 -497.672C119.991 -515.678 81.6977 -551.359 60.3183 -598.129L45.4395 -591.389C68.6664 -540.655 110.149 -501.904 162.47 -482.433C173.097 -478.507 183.988 -475.373 194.859 -473.193L194.839 -473.092ZM165.767 -445.629C214.332 -435.894 266.542 -443.29 312.522 -470.218L304.256 -484.345C259.923 -458.25 208.079 -451.098 158.255 -464.044C108.431 -476.99 66.6615 -508.506 40.6885 -552.921L26.5619 -544.656C57.9369 -491.338 109.398 -457.033 165.787 -445.73L165.767 -445.629ZM139.68 -415.137C142.931 -414.485 146.182 -413.834 149.474 -413.385C204.644 -404.969 259.783 -418.541 304.77 -451.586L295.042 -464.738C253.633 -434.252 202.723 -421.735 151.961 -429.479C101.099 -437.243 56.3192 -464.29 25.8537 -505.801L12.7007 -496.072C43.7552 -453.81 88.6553 -425.258 139.761 -415.015L139.68 -415.137ZM117.149 -382.347C180.04 -369.741 247.882 -386.051 298.91 -432.364L287.92 -444.501C209.244 -373.082 87.3145 -379.026 15.8753 -457.601L3.73904 -446.612C34.8172 -412.377 74.8826 -390.819 117.149 -382.347ZM98.0323 -347.076C115.203 -343.634 132.901 -342.306 150.866 -343.355C206.55 -346.461 257.752 -370.968 295.04 -412.531L282.853 -423.429C211.936 -344.325 90.0199 -337.691 10.8956 -408.506L-0.000183349 -396.316C28.1351 -371.126 61.8622 -354.326 98.0323 -347.076ZM82.8363 -310.279C160.46 -294.72 243.832 -324.193 293.324 -392.372L280.14 -401.99C217.776 -315.993 97.1555 -296.84 11.1589 -359.204L1.54191 -346.019C26.5506 -327.902 54.3066 -316.103 82.8566 -310.38L82.8363 -310.279ZM71.8659 -271.895C102.854 -265.684 135.166 -266.605 166.648 -274.985C220.568 -289.33 265.659 -323.939 293.622 -372.233L279.522 -380.449C253.796 -335.934 212.223 -304.107 162.53 -290.818C112.837 -277.528 60.9586 -284.439 16.444 -310.165L8.22783 -296.065C28.301 -284.432 49.8185 -276.314 71.9676 -271.875L71.8659 -271.895ZM64.2492 -232.84C157.722 -214.104 255.287 -261.657 295.949 -352.215L281.015 -358.907C237.607 -262.03 123.419 -218.549 26.441 -261.977L19.7502 -247.043C34.298 -240.534 49.1918 -235.752 64.2288 -232.738L64.2492 -232.84ZM61.3261 -192.949C106.844 -183.825 153.87 -190.146 195.946 -211.304C245.786 -236.401 282.831 -279.386 300.331 -332.42L284.867 -337.527C251.558 -236.723 142.568 -181.737 41.6431 -214.966L36.5363 -199.503C44.7656 -196.797 52.9948 -194.619 61.3261 -192.949ZM61.6958 -153.138C172.949 -130.838 282.433 -202.001 306.744 -313.274L290.751 -316.796C268.049 -213.021 165.131 -147.201 61.4581 -169.884L57.9353 -153.891C59.1545 -153.647 60.3748 -153.403 61.5941 -153.158L61.6958 -153.138ZM84.0719 -110.818C139.569 -104.556 194.078 -120.262 237.724 -155.055C281.371 -189.849 308.869 -239.503 315.131 -295L298.914 -296.877C293.101 -245.729 267.759 -199.974 227.508 -167.883C187.257 -135.791 137.016 -121.343 85.8683 -127.156L83.9906 -110.94L84.0719 -110.818ZM114.377 -70.6081C170.181 -70.0968 222.823 -91.2503 262.691 -130.394C302.538 -169.436 324.751 -221.736 325.262 -277.54L308.925 -277.749C308.436 -226.274 287.909 -178.181 251.193 -142.105C214.496 -106.13 165.96 -86.4784 114.485 -86.9676L114.275 -70.6285L114.377 -70.6081Z" fill="url(#paint0_linear_864_625)"/>
<defs>
<linearGradient id="paint0_linear_864_625" x1="217.875" y1="-792.077" x2="760.23" y2="22.0698" gradientUnits="userSpaceOnUse">
<stop stop-color="#893DF5"/>
<stop offset="1" stop-color="#E6483F"/>
</linearGradient>
</defs>
</svg>
