<svg width="110" height="110" viewBox="0 0 110 110" fill="none" xmlns="http://www.w3.org/2000/svg">
<path d="M54.2186 54.9584C48.2197 68.2045 73.4057 66.517 74.3882 88.0967C74.5963 93.4021 73.0936 98.8231 71.1286 103.631C69.2908 109.018 62.2749 110.925 57.9867 107.145C54.5307 104.186 54.1377 98.9849 57.0967 95.5289C61.5698 90.2698 64.8408 84.583 61.3617 78.1795C57.9057 70.9323 46.6362 63.4193 54.2186 54.9584ZM54.4613 55.074C52.1265 66.1933 65.6383 67.0718 72.2613 71.6143C78.4798 75.4171 78.4914 81.9823 77.2431 88.7672C76.3994 93.2403 79.3467 97.5401 83.8199 98.3839C89.4258 99.5166 94.5463 94.3499 93.4482 88.7672C92.7431 83.6352 91.333 78.168 88.5011 73.6832C76.8617 55.4901 55.8946 69.5338 54.4613 55.0625V55.074ZM54.7387 55.0509C58.2756 65.8466 70.4121 59.8477 78.4221 60.4834C85.7156 60.6684 88.9984 66.3551 91.3216 72.851C92.8358 77.1392 97.5399 79.3932 101.828 77.8906C107.249 76.0759 109.099 69.0367 105.354 64.7485C102.175 60.6568 98.222 56.6344 93.5292 54.1609C74.3536 44.2206 63.2227 66.8753 54.7387 55.0509ZM54.9582 54.9006C63.4191 62.483 70.9322 51.225 78.1794 47.7575C84.5829 44.2668 90.2697 47.5494 95.5288 52.0226C98.9848 54.9815 104.186 54.5886 107.145 51.1326C110.925 46.8444 109.018 39.8283 103.631 37.9905C98.8346 36.0371 93.4021 34.523 88.0967 34.731C66.517 35.7135 68.2043 60.8995 54.9582 54.9006ZM55.0624 54.6463C66.1817 56.9812 67.0602 43.4692 71.6027 36.8462C75.4055 30.6277 81.9705 30.6162 88.7554 31.8645C93.2285 32.7083 97.5284 29.7608 98.3722 25.2877C99.5049 19.6818 94.3382 14.5614 88.7554 15.6594C83.6234 16.3645 78.1564 17.7746 73.6717 20.6065C55.4786 32.2459 69.5221 53.2131 55.0508 54.6463H55.0624ZM55.0392 54.3805C65.8349 50.8436 59.836 38.7071 60.4717 30.6971C60.6566 23.4036 66.3434 20.121 72.8393 17.7978C77.1275 16.2836 79.3815 11.5793 77.8789 7.29104C76.0642 1.87009 69.0252 0.0207209 64.737 3.76569C60.6453 6.94428 56.6227 10.8973 54.1492 15.5901C44.2089 34.7657 66.8636 45.8966 55.0392 54.3805ZM54.8891 54.1609C62.4715 45.7001 51.2133 38.187 47.7457 30.9398C44.255 24.5364 47.5379 18.8496 52.011 13.5904C54.97 10.1344 54.577 4.93309 51.121 1.97411C46.8328 -1.80553 39.8166 0.101637 37.9788 5.48791C36.0254 10.2847 34.5112 15.7172 34.7192 21.0226C35.7017 42.6024 60.888 40.9148 54.8891 54.1609ZM54.6461 54.0453C56.981 42.926 43.4691 42.0476 36.8461 37.5051C30.6276 33.7023 30.616 27.137 31.8643 20.3522C32.7081 15.879 29.7607 11.5793 25.2876 10.7355C19.6817 9.60274 14.5612 14.7694 15.6592 20.3522C16.3643 25.4842 17.7745 30.9514 20.6063 35.4361C32.2458 53.6292 53.2129 39.5856 54.6461 54.0569V54.0453ZM54.3803 54.0684C50.8434 43.2727 38.707 49.2716 30.6969 48.6359C23.4035 48.451 20.1209 42.7642 17.7977 36.2683C16.2835 31.9801 11.5791 29.7262 7.29086 31.2288C1.8699 33.0435 0.0207636 40.0826 3.76573 44.3708C6.94433 48.4625 10.8973 52.4849 15.5901 54.9584C34.7657 64.8988 45.8963 42.244 54.3803 54.0684ZM54.1608 54.2302C45.6999 46.6479 38.1868 57.9059 30.9396 61.3734C24.5361 64.8641 18.8496 61.5815 13.5905 57.1083C10.1345 54.1493 4.93308 54.5423 1.9741 57.9983C-1.80554 62.2866 0.101662 69.3026 5.48794 71.1404C10.2847 73.0938 15.7172 74.608 21.0225 74.3999C42.6023 73.4174 40.9147 48.2314 54.1608 54.2302ZM54.0454 54.473C42.926 52.1381 42.0475 65.6501 37.505 72.2731C33.7023 78.4916 27.1369 78.5032 20.3521 77.2549C15.8789 76.4111 11.579 79.3585 10.7353 83.8316C9.60254 89.4375 14.7693 94.558 20.3521 93.4599C25.484 92.7548 30.9513 91.3447 35.436 88.5129C53.6291 76.8734 39.5854 55.9062 54.0566 54.473H54.0454ZM54.0682 54.7388C43.2725 58.2757 49.2715 70.4122 48.6358 78.4222C48.4508 85.7157 42.7641 88.9983 36.2682 91.3216C31.98 92.8357 29.7259 97.5401 31.2285 101.828C33.0432 107.249 40.0825 109.099 44.3707 105.354C48.4624 102.175 52.4847 98.222 54.9582 93.5293C64.8986 74.3537 42.2438 63.2228 54.0682 54.7388Z" fill="url(#paint0_linear_530_176)"/>
<defs>
<linearGradient id="paint0_linear_530_176" x1="15.486" y1="15.4976" x2="93.6217" y2="93.6333" gradientUnits="userSpaceOnUse">
<stop stop-color="#D63278"/>
<stop offset="1" stop-color="#E9732E"/>
</linearGradient>
</defs>
</svg>
