<svg width="104" height="104" viewBox="0 0 104 104" fill="none" xmlns="http://www.w3.org/2000/svg">
<path d="M50.987 102.967C50.4633 102.847 50.0922 102.378 50.0813 101.832C49.9722 91.9688 49.623 85.1821 48.9356 79.8248C48.4883 76.3115 46.2734 73.4092 43.0001 72.0562C39.7377 70.7032 36.1154 71.1942 33.3112 73.3546C29.045 76.6606 23.9933 81.2106 16.9447 88.1063C16.5629 88.4882 15.9627 88.5537 15.5044 88.27C15.3517 88.1718 15.2097 88.0626 15.0897 87.9426C14.9696 87.8226 14.8498 87.6807 14.7625 87.528C14.4789 87.0697 14.5442 86.4697 14.9261 86.0878C21.8219 79.0393 26.3718 73.9875 29.6778 69.7213C31.8491 66.9172 32.3291 63.2947 30.9761 60.0323C29.6232 56.7699 26.721 54.5441 23.2076 54.0967C17.8503 53.4203 11.0635 53.0601 1.19999 52.951C0.654436 52.951 0.196398 52.5692 0.065466 52.0455C-0.021822 51.6963 -0.021822 51.3362 0.065466 50.9871C0.185487 50.4633 0.654436 50.0924 1.19999 50.0815C11.0635 49.9724 17.8503 49.6232 23.2076 48.9358C26.721 48.4884 29.6232 46.2735 30.9761 43.0002C32.3291 39.7378 31.8382 36.1154 29.6778 33.3112C26.3718 29.045 21.8219 23.9932 14.9261 16.9447C14.5442 16.5629 14.4789 15.9628 14.7625 15.5046C14.948 15.199 15.1989 14.948 15.5044 14.7625C15.9627 14.4789 16.5629 14.5444 16.9447 14.9262C23.9933 21.822 29.045 26.3719 33.3112 29.6779C36.1154 31.8492 39.7377 32.3293 43.0001 30.9763C46.2625 29.6234 48.4883 26.7211 48.9356 23.2077C49.6121 17.8504 49.9722 11.0637 50.0813 1.20018C50.0813 0.654633 50.4633 0.196395 50.987 0.0654633C51.1616 0.0218193 51.3361 0 51.4998 0C51.4998 0 51.4998 0 51.5107 0C51.6853 0 51.8598 0.0218193 52.0344 0.0654633C52.5581 0.185484 52.9292 0.654633 52.9401 1.20018C53.0492 11.0637 53.3984 17.8613 54.0858 23.2077C54.5332 26.7211 56.748 29.6234 60.0213 30.9763C63.2837 32.3293 66.9061 31.8383 69.7102 29.6779C73.9764 26.3719 79.0282 21.822 86.0767 14.9262C86.4695 14.5444 87.0587 14.4789 87.517 14.7735C87.6698 14.8717 87.8115 14.9808 87.9315 15.1008C88.0515 15.2208 88.1716 15.3627 88.2589 15.5154C88.5426 15.9737 88.4772 16.5738 88.0953 16.9557C81.1887 24.0151 76.6387 29.056 73.3436 33.3222C71.1723 36.1263 70.6923 39.7487 72.0453 43.0111C73.3982 46.2735 76.3004 48.4994 79.8138 48.9467C85.1711 49.6232 91.9579 49.9832 101.821 50.0924C102.356 50.0924 102.825 50.4743 102.956 50.998C103.043 51.3471 103.043 51.7072 102.956 52.0564C102.836 52.5801 102.367 52.951 101.821 52.962C91.9579 53.0711 85.1711 53.4202 79.8138 54.1076C76.3004 54.555 73.3982 56.7699 72.0453 60.0432C70.6923 63.3056 71.1833 66.928 73.3436 69.7322C76.6497 73.9984 81.1996 79.0501 88.0953 86.0986C88.4772 86.4805 88.5426 87.0807 88.2589 87.5389C88.0734 87.8444 87.8225 88.0954 87.5061 88.2918C87.0478 88.5755 86.4585 88.51 86.0658 88.1282C79.0063 81.2324 73.9655 76.6825 69.6993 73.3765C66.8951 71.2052 63.2728 70.7251 60.0104 72.078C56.748 73.431 54.5223 76.3333 54.0749 79.8467C53.3984 85.1931 53.0383 91.9797 52.9292 101.854C52.9292 102.4 52.5472 102.858 52.0235 102.989C51.8489 103.033 51.6744 103.054 51.4889 103.054C51.3143 103.054 51.1397 103.033 50.9652 102.989L50.987 102.967ZM71.1505 71.5107C71.6961 71.9362 72.2526 72.3727 72.8308 72.8418C72.3617 72.2635 71.9253 71.707 71.4997 71.1615C68.8047 67.6918 68.2046 63.1856 69.8849 59.1376C71.5652 55.0787 75.1657 52.3292 79.5301 51.7727C80.2175 51.6854 80.9266 51.609 81.6577 51.5217C80.9266 51.4453 80.2175 51.3581 79.5301 51.2708C75.1657 50.7143 71.5652 47.9647 69.8849 43.9058C68.2046 39.847 68.8047 35.3516 71.4997 31.8819C71.9253 31.3364 72.3617 30.7799 72.8308 30.2016C72.2635 30.6708 71.6961 31.1073 71.1505 31.5328C67.6808 34.2278 63.1745 34.8279 59.1266 33.1476C55.0677 31.4673 52.3181 27.8667 51.7616 23.5023C51.6744 22.8149 51.598 22.1056 51.5107 21.3746C51.4343 22.1056 51.3471 22.8149 51.2707 23.5023C50.7142 27.8667 47.9647 31.4673 43.9058 33.1476C39.8469 34.8279 35.3515 34.2278 31.8818 31.5328C31.3363 31.1073 30.7798 30.6708 30.2015 30.2016C30.6707 30.769 31.1071 31.3364 31.5326 31.8819C34.2276 35.3516 34.8277 39.8579 33.1474 43.9058C31.4671 47.9647 27.8667 50.7143 23.5023 51.2708C22.8149 51.3581 22.1054 51.4344 21.3744 51.5217C22.1054 51.5981 22.8149 51.6854 23.5023 51.7727C27.8667 52.3292 31.4671 55.0787 33.1474 59.1376C34.8277 63.1965 34.2276 67.6918 31.5326 71.1615C31.1071 71.707 30.6707 72.2635 30.2015 72.8418C30.7689 72.3727 31.3363 71.9362 31.8818 71.5107C35.3624 68.8156 39.8578 68.2156 43.9058 69.8958C47.9647 71.5761 50.7142 75.1768 51.2707 79.5412C51.358 80.2286 51.4343 80.9378 51.5216 81.6688C51.598 80.9378 51.6853 80.2286 51.7726 79.5412C52.329 75.1768 55.0786 71.5761 59.1375 69.8958C60.6541 69.263 62.2362 68.9575 63.7965 68.9575C66.4151 68.9575 68.9901 69.8195 71.1614 71.5107H71.1505Z" fill="url(#paint0_linear_522_84)"/>
<defs>
<linearGradient id="paint0_linear_522_84" x1="15.0899" y1="15.1117" x2="87.9317" y2="87.9425" gradientUnits="userSpaceOnUse">
<stop stop-color="#79E3A3"/>
<stop offset="1" stop-color="#1B3342"/>
</linearGradient>
</defs>
</svg>
