<svg width="305" height="297" viewBox="0 0 305 297" fill="none" xmlns="http://www.w3.org/2000/svg">
<path d="M199.241 297.622C141.367 230.205 43.4391 225.815 -19.5051 287.706L94.4997 175.609L-10.24 53.5967C-68.1134 -13.8206 -166.041 -18.2102 -228.986 43.6809C-291.978 105.62 -296.079 210.426 -238.25 277.792C-296.123 210.375 -394.051 205.985 -456.995 267.876C-519.988 329.815 -524.088 434.621 -466.259 501.987L-361.52 623.999L-247.515 511.901C-310.507 573.84 -314.608 678.647 -256.779 746.012L-152.039 868.024L304.028 419.587L199.289 297.575L199.241 297.622ZM-28.7691 521.817C-86.6426 454.4 -184.571 450.01 -247.515 511.901L-19.4567 287.659C-82.4492 349.597 -86.5499 454.404 -28.7208 521.77L-28.7691 521.817Z" fill="url(#paint0_linear_761_326)"/>
<defs>
<linearGradient id="paint0_linear_761_326" x1="-119.973" y1="869.577" x2="-80.6392" y2="1.80967" gradientUnits="userSpaceOnUse">
<stop stop-color="#893DF5"/>
<stop offset="1" stop-color="#E6483F"/>
</linearGradient>
</defs>
</svg>
