<svg width="429" height="647" viewBox="0 0 429 647" fill="none" xmlns="http://www.w3.org/2000/svg">
<path d="M286.701 560.652C208.601 439.001 46.7462 403.792 -74.811 481.832L145.354 340.486L4.00841 120.322C-74.0915 -1.32839 -235.946 -36.5373 -357.504 41.5028C-479.154 119.603 -514.362 281.458 -436.322 403.015C-514.421 281.365 -676.276 246.156 -797.834 324.196C-919.484 402.296 -954.692 564.151 -876.652 685.708L-735.306 905.872L-515.141 764.525C-636.791 842.625 -671.999 1004.48 -593.959 1126.04L-452.613 1346.2L428.14 780.755L286.794 560.592L286.701 560.652ZM-153.629 843.345C-231.729 721.694 -393.584 686.485 -515.141 764.525L-74.7176 481.772C-196.368 559.872 -231.576 721.727 -153.536 843.285L-153.629 843.345Z" fill="url(#paint0_linear_897_653)"/>
<defs>
<linearGradient id="paint0_linear_897_653" x1="-399.645" y1="1357.91" x2="-107.417" y2="17.5609" gradientUnits="userSpaceOnUse">
<stop stop-color="#893DF5"/>
<stop offset="1" stop-color="#E6483F"/>
</linearGradient>
</defs>
</svg>
