<svg width="189" height="206" viewBox="0 0 189 206" fill="none" xmlns="http://www.w3.org/2000/svg">
<path d="M168.37 -12.1146C168 -12.1146 167.722 -12.3921 167.722 -12.7621C167.722 -13.1322 168 -13.4097 168.37 -13.4097C168.74 -13.4097 169.018 -13.1322 169.018 -12.7621C169.018 -12.3921 168.74 -12.1146 168.37 -12.1146ZM167.846 -22.8458C167.846 -23.555 167.26 -24.141 166.551 -24.141C165.841 -24.141 165.256 -23.555 165.256 -22.8458C165.256 -22.1365 165.841 -21.5507 166.551 -21.5507C167.26 -21.5507 167.846 -22.1365 167.846 -22.8458ZM166.027 -32.8062C166.027 -33.8855 165.163 -34.7797 164.053 -34.7797C162.943 -34.7797 162.079 -33.9163 162.079 -32.8062C162.079 -31.696 162.943 -30.8326 164.053 -30.8326C165.163 -30.8326 166.027 -31.696 166.027 -32.8062ZM163.683 -42.6123C163.683 -44.0617 162.511 -45.2335 161.062 -45.2335C159.612 -45.2335 158.44 -44.0617 158.44 -42.6123C158.44 -41.163 159.612 -39.9912 161.062 -39.9912C162.511 -39.9912 163.683 -41.163 163.683 -42.6123ZM160.938 -52.2951C160.938 -54.0837 159.489 -55.5639 157.669 -55.5639C155.85 -55.5639 154.401 -54.1145 154.401 -52.2951C154.401 -50.4758 155.85 -49.0264 157.669 -49.0264C159.489 -49.0264 160.938 -50.4758 160.938 -52.2951ZM157.854 -61.8238C157.854 -63.9824 156.097 -65.7401 153.938 -65.7401C151.779 -65.7401 150.022 -63.9824 150.022 -61.8238C150.022 -59.6652 151.779 -57.9075 153.938 -57.9075C156.097 -57.9075 157.854 -59.6652 157.854 -61.8238ZM154.463 -71.2599C154.463 -73.7886 152.427 -75.8238 149.898 -75.8238C147.37 -75.8238 145.334 -73.7886 145.334 -71.2599C145.334 -68.7313 147.37 -66.696 149.898 -66.696C152.427 -66.696 154.463 -68.7313 154.463 -71.2599ZM150.793 -80.7885C150.793 -83.6872 148.449 -86 145.581 -86C142.714 -86 140.37 -83.6564 140.37 -80.7885C140.37 -77.9207 142.714 -75.5771 145.581 -75.5771C148.449 -75.5771 150.793 -77.9207 150.793 -80.7885ZM123.379 131.833C123.379 131.463 123.101 131.185 122.731 131.185C122.361 131.185 122.084 131.463 122.084 131.833C122.084 132.203 122.361 132.48 122.731 132.48C123.101 132.48 123.379 132.203 123.379 131.833ZM125.877 141.947C125.877 141.238 125.29 140.652 124.581 140.652C123.872 140.652 123.286 141.238 123.286 141.947C123.286 142.656 123.872 143.242 124.581 143.242C125.29 143.242 125.877 142.656 125.877 141.947ZM128.991 151.907C128.991 150.828 128.128 149.934 127.017 149.934C125.907 149.934 125.044 150.797 125.044 151.907C125.044 153.018 125.907 153.881 127.017 153.881C128.128 153.881 128.991 153.018 128.991 151.907ZM132.661 161.683C132.661 160.233 131.489 159.062 130.039 159.062C128.59 159.062 127.419 160.233 127.419 161.683C127.419 163.132 128.59 164.304 130.039 164.304C131.489 164.304 132.661 163.132 132.661 161.683ZM136.701 171.396C136.701 169.577 135.251 168.128 133.432 168.128C131.612 168.128 130.163 169.577 130.163 171.396C130.163 173.216 131.612 174.665 133.432 174.665C135.251 174.665 136.701 173.216 136.701 171.396ZM141.11 180.925C141.11 178.766 139.352 177.009 137.194 177.009C135.035 177.009 133.277 178.766 133.277 180.925C133.277 183.084 135.035 184.841 137.194 184.841C139.352 184.841 141.11 183.084 141.11 180.925ZM145.767 190.361C145.767 187.833 143.731 185.797 141.203 185.797C138.674 185.797 136.639 187.833 136.639 190.361C136.639 192.89 138.674 194.925 141.203 194.925C143.731 194.925 145.767 192.89 145.767 190.361ZM150.793 199.89C150.793 196.991 148.449 194.678 145.581 194.678C142.714 194.678 140.37 197.022 140.37 199.89C140.37 202.758 142.714 205.101 145.581 205.101C148.449 205.101 150.793 202.758 150.793 199.89ZM218.511 82.37C218.511 82 218.202 81.7225 217.863 81.7225C217.524 81.7225 217.216 82 217.216 82.37C217.216 82.7401 217.524 83.0176 217.863 83.0176C218.202 83.0176 218.511 82.7401 218.511 82.37ZM229.243 80.5198C229.243 79.8105 228.656 79.2247 227.947 79.2247C227.238 79.2247 226.652 79.8105 226.652 80.5198C226.652 81.229 227.238 81.815 227.947 81.815C228.656 81.815 229.243 81.229 229.243 80.5198ZM239.881 78.0529C239.881 76.9736 239.017 76.0793 237.907 76.0793C236.797 76.0793 235.934 76.9427 235.934 78.0529C235.934 79.163 236.797 80.0264 237.907 80.0264C239.017 80.0264 239.881 79.163 239.881 78.0529ZM250.335 75.0617C250.335 73.6124 249.163 72.4405 247.714 72.4405C246.265 72.4405 245.092 73.6124 245.092 75.0617C245.092 76.511 246.265 77.6828 247.714 77.6828C249.163 77.6828 250.335 76.511 250.335 75.0617ZM260.665 71.6387C260.665 69.8502 259.216 68.37 257.396 68.37C255.577 68.37 254.127 69.8193 254.127 71.6387C254.127 73.4581 255.577 74.9074 257.396 74.9074C259.216 74.9074 260.665 73.4581 260.665 71.6387ZM270.842 67.9075C270.842 65.7489 269.084 63.9912 266.925 63.9912C264.767 63.9912 263.009 65.7489 263.009 67.9075C263.009 70.0661 264.767 71.8237 266.925 71.8237C269.084 71.8237 270.842 70.0661 270.842 67.9075ZM280.925 63.8987C280.925 61.3701 278.889 59.3348 276.361 59.3348C273.832 59.3348 271.797 61.3701 271.797 63.8987C271.797 66.4273 273.832 68.4625 276.361 68.4625C278.889 68.4625 280.925 66.4273 280.925 63.8987ZM291.132 59.5507C291.132 56.652 288.788 54.3392 285.921 54.3392C283.053 54.3392 280.709 56.6828 280.709 59.5507C280.709 62.4185 283.053 64.7621 285.921 64.7621C288.788 64.7621 291.132 62.4185 291.132 59.5507ZM73.9162 36.7312C73.9162 36.3612 73.6079 36.0837 73.2687 36.0837C72.9295 36.0837 72.6213 36.3612 72.6213 36.7312C72.6213 37.1013 72.9295 37.3789 73.2687 37.3789C73.6079 37.3789 73.9162 37.1013 73.9162 36.7312ZM64.4799 38.5507C64.4799 37.8414 63.8942 37.2555 63.185 37.2555C62.4757 37.2555 61.8901 37.8414 61.8901 38.5507C61.8901 39.2599 62.4757 39.8458 63.185 39.8458C63.8942 39.8458 64.4799 39.2599 64.4799 38.5507ZM55.1671 41.0485C55.1671 39.9692 54.304 39.0749 53.1938 39.0749C52.0837 39.0749 51.2198 39.9383 51.2198 41.0485C51.2198 42.1586 52.0837 43.022 53.1938 43.022C54.304 43.022 55.1671 42.1586 55.1671 41.0485ZM46.0086 44.0088C46.0086 42.5595 44.8372 41.3876 43.3879 41.3876C41.9385 41.3876 40.7664 42.5595 40.7664 44.0088C40.7664 45.4581 41.9385 46.63 43.3879 46.63C44.8372 46.63 46.0086 45.4581 46.0086 44.0088ZM36.9735 47.4317C36.9735 45.6123 35.524 44.1629 33.7046 44.1629C31.8852 44.1629 30.4357 45.6123 30.4357 47.4317C30.4357 49.2511 31.8852 50.7005 33.7046 50.7005C35.524 50.7005 36.9735 49.2511 36.9735 47.4317ZM28.0921 51.163C28.0921 49.0044 26.3351 47.2466 24.1765 47.2466C22.0179 47.2466 20.2601 49.0044 20.2601 51.163C20.2601 53.3216 22.0179 55.0793 24.1765 55.0793C26.3351 55.0793 28.0921 53.3216 28.0921 51.163ZM19.304 55.2027C19.304 52.674 17.2688 50.6387 14.7402 50.6387C12.2115 50.6387 10.1764 52.674 10.1764 55.2027C10.1764 57.7313 12.2115 59.7665 14.7402 59.7665C17.2688 59.7665 19.304 57.7313 19.304 55.2027ZM10.4225 59.5507C10.4225 56.652 8.07911 54.3392 5.21127 54.3392C2.34343 54.3392 0 56.6828 0 59.5507C0 62.4185 2.34343 64.7621 5.21127 64.7621C8.07911 64.7621 10.4225 62.4185 10.4225 59.5507ZM111.198 -7.73568C111.198 -8.10573 110.921 -8.38323 110.551 -8.38323C110.181 -8.38323 109.903 -8.07489 109.903 -7.73568C109.903 -7.39648 110.181 -7.08813 110.551 -7.08813C110.921 -7.08813 111.198 -7.36564 111.198 -7.73568ZM103.427 -13.5639C103.427 -14.2732 102.841 -14.859 102.132 -14.859C101.423 -14.859 100.837 -14.2732 100.837 -13.5639C100.837 -12.8547 101.423 -12.2687 102.132 -12.2687C102.841 -12.2687 103.427 -12.8547 103.427 -13.5639ZM95.286 -18.8679C95.286 -19.9472 94.4229 -20.8414 93.3128 -20.8414C92.2027 -20.8414 91.3388 -19.978 91.3388 -18.8679C91.3388 -17.7578 92.2027 -16.8943 93.3128 -16.8943C94.4229 -16.8943 95.286 -17.7578 95.286 -18.8679ZM86.8985 -23.6785C86.8985 -25.1278 85.7271 -26.2995 84.2778 -26.2995C82.8284 -26.2995 81.6563 -25.1278 81.6563 -23.6785C81.6563 -22.2291 82.8284 -21.0573 84.2778 -21.0573C85.7271 -21.0573 86.8985 -22.2291 86.8985 -23.6785ZM78.2948 -28.119C78.2948 -29.9075 76.846 -31.3877 75.0267 -31.3877C73.2073 -31.3877 71.7578 -29.9384 71.7578 -28.119C71.7578 -26.2996 73.2073 -24.8502 75.0267 -24.8502C76.846 -24.8502 78.2948 -26.2996 78.2948 -28.119ZM69.5685 -32.2203C69.5685 -34.3789 67.8107 -36.1365 65.6521 -36.1365C63.4935 -36.1365 61.7357 -34.3789 61.7357 -32.2203C61.7357 -30.0617 63.4935 -28.304 65.6521 -28.304C67.8107 -28.304 69.5685 -30.0617 69.5685 -32.2203ZM60.687 -36.044C60.687 -38.5727 58.6518 -40.6079 56.1232 -40.6079C53.5946 -40.6079 51.5594 -38.5727 51.5594 -36.044C51.5594 -33.5154 53.5946 -31.4802 56.1232 -31.4802C58.6518 -31.4802 60.687 -33.5154 60.687 -36.044ZM51.5285 -39.6829C51.5285 -42.5815 49.1851 -44.8943 46.3172 -44.8943C43.4494 -44.8943 41.106 -42.5507 41.106 -39.6829C41.106 -36.815 43.4494 -34.4714 46.3172 -34.4714C49.1851 -34.4714 51.5285 -36.815 51.5285 -39.6829ZM181.198 126.806C181.198 126.436 180.921 126.159 180.551 126.159C180.181 126.159 179.903 126.436 179.903 126.806C179.903 127.176 180.181 127.454 180.551 127.454C180.921 127.454 181.198 127.176 181.198 126.806ZM190.295 132.665C190.295 131.956 189.709 131.37 189 131.37C188.291 131.37 187.704 131.956 187.704 132.665C187.704 133.374 188.291 133.96 189 133.96C189.709 133.96 190.295 133.374 190.295 132.665ZM199.731 137.938C199.731 136.859 198.867 135.965 197.788 135.965C196.709 135.965 195.815 136.828 195.815 137.938C195.815 139.048 196.678 139.912 197.788 139.912C198.898 139.912 199.731 139.048 199.731 137.938ZM209.445 142.749C209.445 141.299 208.273 140.128 206.824 140.128C205.375 140.128 204.203 141.299 204.203 142.749C204.203 144.198 205.375 145.37 206.824 145.37C208.273 145.37 209.445 144.198 209.445 142.749ZM219.343 147.189C219.343 145.401 217.894 143.921 216.075 143.921C214.256 143.921 212.806 145.37 212.806 147.189C212.806 149.009 214.256 150.458 216.075 150.458C217.894 150.458 219.343 149.009 219.343 147.189ZM229.365 151.291C229.365 149.132 227.607 147.374 225.449 147.374C223.29 147.374 221.533 149.132 221.533 151.291C221.533 153.449 223.29 155.207 225.449 155.207C227.607 155.207 229.365 153.449 229.365 151.291ZM239.542 155.115C239.542 152.586 237.506 150.551 234.978 150.551C232.449 150.551 230.414 152.586 230.414 155.115C230.414 157.643 232.449 159.678 234.978 159.678C237.506 159.678 239.542 157.643 239.542 155.115ZM250.027 158.784C250.027 155.885 247.682 153.573 244.815 153.573C241.947 153.573 239.603 155.916 239.603 158.784C239.603 161.652 241.947 163.996 244.815 163.996C247.682 163.996 250.027 161.652 250.027 158.784ZM213.484 24.5507C213.484 24.1806 213.207 23.9031 212.837 23.9031C212.467 23.9031 212.19 24.1806 212.19 24.5507C212.19 24.9207 212.467 25.1982 212.837 25.1982C213.207 25.1982 213.484 24.9207 213.484 24.5507ZM219.961 16.1014C219.961 15.3921 219.374 14.8062 218.665 14.8062C217.956 14.8062 217.37 15.3921 217.37 16.1014C217.37 16.8106 217.956 17.3965 218.665 17.3965C219.374 17.3965 219.961 16.8106 219.961 16.1014ZM225.912 7.31279C225.912 6.2335 225.048 5.33918 223.938 5.33918C222.828 5.33918 221.965 6.20266 221.965 7.31279C221.965 8.42292 222.828 9.28631 223.938 9.28631C225.048 9.28631 225.912 8.42292 225.912 7.31279ZM231.37 -1.72243C231.37 -3.17177 230.198 -4.34359 228.749 -4.34359C227.299 -4.34359 226.128 -3.17177 226.128 -1.72243C226.128 -0.273087 227.299 0.898643 228.749 0.898643C230.198 0.898643 231.37 -0.273087 231.37 -1.72243ZM236.458 -10.9735C236.458 -12.7929 235.008 -14.2423 233.189 -14.2423C231.37 -14.2423 229.921 -12.7929 229.921 -10.9735C229.921 -9.15414 231.37 -7.70481 233.189 -7.70481C235.008 -7.70481 236.458 -9.15414 236.458 -10.9735ZM241.207 -20.348C241.207 -22.5066 239.449 -24.2644 237.291 -24.2644C235.132 -24.2644 233.374 -22.5066 233.374 -20.348C233.374 -18.1894 235.132 -16.4317 237.291 -16.4317C239.449 -16.4317 241.207 -18.1894 241.207 -20.348ZM245.709 -29.8766C245.709 -32.4053 243.674 -34.4405 241.145 -34.4405C238.617 -34.4405 236.581 -32.4053 236.581 -29.8766C236.581 -27.348 238.617 -25.3128 241.145 -25.3128C243.674 -25.3128 245.709 -27.348 245.709 -29.8766ZM250.027 -39.6829C250.027 -42.5815 247.682 -44.8943 244.815 -44.8943C241.947 -44.8943 239.603 -42.5507 239.603 -39.6829C239.603 -36.815 241.947 -34.4714 244.815 -34.4714C247.682 -34.4714 250.027 -36.815 250.027 -39.6829ZM78.943 94.5506C78.943 94.1806 78.6649 93.903 78.2948 93.903C77.9248 93.903 77.6474 94.1806 77.6474 94.5506C77.6474 94.9206 77.9248 95.1982 78.2948 95.1982C78.6649 95.1982 78.943 94.9206 78.943 94.5506ZM73.7619 102.969C73.7619 102.26 73.1762 101.674 72.4669 101.674C71.7577 101.674 71.172 102.26 71.172 102.969C71.172 103.678 71.7577 104.264 72.4669 104.264C73.1762 104.264 73.7619 103.678 73.7619 102.969ZM69.1054 111.758C69.1054 110.678 68.2423 109.815 67.1322 109.815C66.0221 109.815 65.1582 110.678 65.1582 111.758C65.1582 112.837 66.0221 113.731 67.1322 113.731C68.2423 113.731 69.1054 112.868 69.1054 111.758ZM64.9429 120.824C64.9429 119.374 63.7708 118.203 62.3215 118.203C60.8721 118.203 59.7 119.374 59.7 120.824C59.7 122.273 60.8721 123.445 62.3215 123.445C63.7708 123.445 64.9429 122.273 64.9429 120.824ZM61.1809 130.075C61.1809 128.286 59.7314 126.806 57.912 126.806C56.0926 126.806 54.6431 128.255 54.6431 130.075C54.6431 131.894 56.0926 133.344 57.912 133.344C59.7314 133.344 61.1809 131.894 61.1809 130.075ZM57.7268 139.449C57.7268 137.291 55.969 135.533 53.8104 135.533C51.6518 135.533 49.8941 137.291 49.8941 139.449C49.8941 141.608 51.6518 143.366 53.8104 143.366C55.969 143.366 57.7268 141.608 57.7268 139.449ZM54.5505 148.978C54.5505 146.449 52.5153 144.414 49.9867 144.414C47.458 144.414 45.4228 146.449 45.4228 148.978C45.4228 151.507 47.458 153.542 49.9867 153.542C52.5153 153.542 54.5505 151.507 54.5505 148.978ZM51.5285 158.784C51.5285 155.885 49.1851 153.573 46.3172 153.573C43.4494 153.573 41.106 155.916 41.106 158.784C41.106 161.652 43.4494 163.996 46.3172 163.996C49.1851 163.996 51.5285 161.652 51.5285 158.784ZM97.0748 -70.1189C97.0748 -73.0176 94.7314 -75.3304 91.8635 -75.3304C88.9957 -75.3304 86.6523 -72.9868 86.6523 -70.1189C86.6523 -67.2511 88.9957 -64.9075 91.8635 -64.9075C94.7314 -64.9075 97.0748 -67.2511 97.0748 -70.1189ZM103.951 -63.119C103.951 -65.6476 101.916 -67.6828 99.3876 -67.6828C96.859 -67.6828 94.8238 -65.6476 94.8238 -63.119C94.8238 -60.5903 96.859 -58.555 99.3876 -58.555C101.916 -58.555 103.951 -60.5903 103.951 -63.119ZM110.643 -55.9339C110.643 -58.0925 108.885 -59.8502 106.726 -59.8502C104.568 -59.8502 102.811 -58.0925 102.811 -55.9339C102.811 -53.7753 104.568 -52.0176 106.726 -52.0176C108.885 -52.0176 110.643 -53.7753 110.643 -55.9339ZM117.119 -48.5022C117.119 -50.2907 115.669 -51.7709 113.85 -51.7709C112.031 -51.7709 110.581 -50.3216 110.581 -48.5022C110.581 -46.6828 112.031 -45.2335 113.85 -45.2335C115.669 -45.2335 117.119 -46.6828 117.119 -48.5022ZM123.348 -40.8546C123.348 -42.3039 122.176 -43.4757 120.727 -43.4757C119.277 -43.4757 118.106 -42.3039 118.106 -40.8546C118.106 -39.4053 119.277 -38.2335 120.727 -38.2335C122.176 -38.2335 123.348 -39.4053 123.348 -40.8546ZM129.207 -32.9296C129.207 -34.0088 128.344 -34.9031 127.233 -34.9031C126.123 -34.9031 125.259 -34.0397 125.259 -32.9296C125.259 -31.8194 126.123 -30.9559 127.233 -30.9559C128.344 -30.9559 129.207 -31.8194 129.207 -32.9296ZM134.727 -24.6344C134.727 -25.3436 134.141 -25.9295 133.432 -25.9295C132.723 -25.9295 132.137 -25.3436 132.137 -24.6344C132.137 -23.9251 132.723 -23.3392 133.432 -23.3392C134.141 -23.3392 134.727 -23.9251 134.727 -24.6344ZM139.537 -16.1542C139.537 -16.5243 139.26 -16.8018 138.89 -16.8018C138.52 -16.8018 138.243 -16.5243 138.243 -16.1542C138.243 -15.7842 138.52 -15.5066 138.89 -15.5066C139.26 -15.5066 139.537 -15.7842 139.537 -16.1542ZM204.48 189.189C204.48 186.291 202.136 183.978 199.268 183.978C196.4 183.978 194.057 186.322 194.057 189.189C194.057 192.057 196.4 194.401 199.268 194.401C202.136 194.401 204.48 192.057 204.48 189.189ZM196.308 182.189C196.308 179.661 194.273 177.625 191.744 177.625C189.216 177.625 187.18 179.661 187.18 182.189C187.18 184.718 189.216 186.753 191.744 186.753C194.273 186.753 196.308 184.718 196.308 182.189ZM188.291 175.004C188.291 172.846 186.533 171.088 184.375 171.088C182.216 171.088 180.458 172.846 180.458 175.004C180.458 177.163 182.216 178.921 184.375 178.921C186.533 178.921 188.291 177.163 188.291 175.004ZM180.52 167.603C180.52 165.815 179.07 164.335 177.251 164.335C175.432 164.335 173.982 165.784 173.982 167.603C173.982 169.423 175.432 170.872 177.251 170.872C179.07 170.872 180.52 169.423 180.52 167.603ZM172.996 159.956C172.996 158.507 171.824 157.335 170.374 157.335C168.925 157.335 167.753 158.507 167.753 159.956C167.753 161.405 168.925 162.577 170.374 162.577C171.824 162.577 172.996 161.405 172.996 159.956ZM165.811 152C165.811 150.921 164.947 150.026 163.867 150.026C162.788 150.026 161.894 150.89 161.894 152C161.894 153.11 162.757 153.974 163.867 153.974C164.978 153.974 165.811 153.11 165.811 152ZM158.996 143.705C158.996 142.996 158.409 142.41 157.7 142.41C156.991 142.41 156.405 142.996 156.405 143.705C156.405 144.414 156.991 145 157.7 145C158.409 145 158.996 144.414 158.996 143.705ZM152.89 135.255C152.89 134.885 152.612 134.608 152.242 134.608C151.872 134.608 151.594 134.885 151.594 135.255C151.594 135.626 151.872 135.903 152.242 135.903C152.612 135.903 152.89 135.626 152.89 135.255ZM221.718 52.9515C221.718 52.5815 221.44 52.304 221.07 52.304C220.7 52.304 220.423 52.5815 220.423 52.9515C220.423 53.3215 220.7 53.5991 221.07 53.5991C221.44 53.5991 221.718 53.3215 221.718 52.9515ZM231 47.4009C231 46.6916 230.414 46.1057 229.705 46.1057C228.996 46.1057 228.41 46.6916 228.41 47.4009C228.41 48.1101 228.996 48.696 229.705 48.696C230.414 48.696 231 48.1101 231 47.4009ZM239.912 41.2951C239.912 40.2158 239.048 39.3216 237.938 39.3216C236.828 39.3216 235.965 40.185 235.965 41.2951C235.965 42.4053 236.828 43.2687 237.938 43.2687C239.048 43.2687 239.912 42.4053 239.912 41.2951ZM248.485 34.7886C248.485 33.3392 247.313 32.1674 245.863 32.1674C244.414 32.1674 243.242 33.3392 243.242 34.7886C243.242 36.2379 244.414 37.4096 245.863 37.4096C247.313 37.4096 248.485 36.2379 248.485 34.7886ZM256.78 27.9427C256.78 26.1234 255.33 24.674 253.511 24.674C251.691 24.674 250.242 26.1234 250.242 27.9427C250.242 29.7621 251.691 31.2115 253.511 31.2115C255.33 31.2115 256.78 29.7621 256.78 27.9427ZM264.797 20.8502C264.797 18.6916 263.04 16.9339 260.881 16.9339C258.723 16.9339 256.965 18.6916 256.965 20.8502C256.965 23.0088 258.723 24.7665 260.881 24.7665C263.04 24.7665 264.797 23.0088 264.797 20.8502ZM272.661 13.511C272.661 10.9823 270.625 8.94715 268.097 8.94715C265.568 8.94715 263.533 10.9823 263.533 13.511C263.533 16.0396 265.568 18.0749 268.097 18.0749C270.625 18.0749 272.661 16.0396 272.661 13.511ZM280.431 5.83258C280.431 2.9339 278.088 0.621117 275.22 0.621117C272.352 0.621117 270.009 2.96474 270.009 5.83258C270.009 8.70042 272.352 11.044 275.22 11.044C278.088 11.044 280.431 8.70042 280.431 5.83258ZM70.6782 66.119C70.6782 65.7489 70.4007 65.4713 70.0307 65.4713C69.6607 65.4713 69.3832 65.7489 69.3832 66.119C69.3832 66.489 69.6607 66.7665 70.0307 66.7665C70.4007 66.7665 70.6782 66.489 70.6782 66.119ZM62.7227 71.6696C62.7227 70.9603 62.1363 70.3744 61.4271 70.3744C60.7178 70.3744 60.1321 70.9603 60.1321 71.6696C60.1321 72.3788 60.7178 72.9647 61.4271 72.9647C62.1363 72.9647 62.7227 72.3788 62.7227 71.6696ZM55.1053 77.7754C55.1053 76.6961 54.2423 75.8017 53.163 75.8017C52.0837 75.8017 51.1897 76.6652 51.1897 77.7754C51.1897 78.8855 52.0528 79.7489 53.163 79.7489C54.2731 79.7489 55.1053 78.8855 55.1053 77.7754ZM47.8591 84.2819C47.8591 82.8326 46.687 81.6608 45.2376 81.6608C43.7883 81.6608 42.6169 82.8326 42.6169 84.2819C42.6169 85.7312 43.7883 86.9031 45.2376 86.9031C46.687 86.9031 47.8591 85.7312 47.8591 84.2819ZM40.859 91.1586C40.859 89.3701 39.4095 87.8899 37.5901 87.8899C35.7707 87.8899 34.3212 89.3392 34.3212 91.1586C34.3212 92.978 35.7707 94.4273 37.5901 94.4273C39.4095 94.4273 40.859 92.978 40.859 91.1586ZM34.1368 98.2511C34.1368 96.0925 32.379 94.3348 30.2204 94.3348C28.0618 94.3348 26.3041 96.0925 26.3041 98.2511C26.3041 100.41 28.0618 102.167 30.2204 102.167C32.379 102.167 34.1368 100.41 34.1368 98.2511ZM27.599 105.59C27.599 103.062 25.5638 101.026 23.0351 101.026C20.5065 101.026 18.4713 103.062 18.4713 105.59C18.4713 108.119 20.5065 110.154 23.0351 110.154C25.5638 110.154 27.599 108.119 27.599 105.59ZM21.1236 113.238C21.1236 110.339 18.7795 108.026 15.9116 108.026C13.0438 108.026 10.7003 110.37 10.7003 113.238C10.7003 116.106 13.0438 118.449 15.9116 118.449C18.7795 118.449 21.1236 116.106 21.1236 113.238ZM88.1633 10.7974C88.1633 10.4273 87.8851 10.1497 87.515 10.1497C87.145 10.1497 86.8676 10.4273 86.8676 10.7974C86.8676 11.1674 87.1758 11.4449 87.515 11.4449C87.8542 11.4449 88.1633 11.1674 88.1633 10.7974ZM78.7887 8.60789C78.7887 7.89864 78.2023 7.31279 77.493 7.31279C76.7838 7.31279 76.1981 7.89864 76.1981 8.60789C76.1981 9.31715 76.7838 9.90308 77.493 9.90308C78.2023 9.90308 78.7887 9.31715 78.7887 8.60789ZM69.2906 7.09691C69.2906 6.01762 68.4275 5.1233 67.3174 5.1233C66.2073 5.1233 65.3434 5.98678 65.3434 7.09691C65.3434 8.20704 66.2073 9.07052 67.3174 9.07052C68.4275 9.07052 69.2906 8.20704 69.2906 7.09691ZM59.7309 6.1101C59.7309 4.66077 58.5595 3.48894 57.1102 3.48894C55.6608 3.48894 54.4887 4.66077 54.4887 6.1101C54.4887 7.55944 55.6608 8.73126 57.1102 8.73126C58.5595 8.73126 59.7309 7.55944 59.7309 6.1101ZM50.141 5.55506C50.141 3.76651 48.6915 2.28635 46.8721 2.28635C45.0527 2.28635 43.6032 3.73568 43.6032 5.55506C43.6032 7.37444 45.0527 8.82378 46.8721 8.82378C48.6915 8.82378 50.141 7.37444 50.141 5.55506ZM40.5504 5.37004C40.5504 3.21146 38.7926 1.45378 36.634 1.45378C34.4754 1.45378 32.7176 3.21146 32.7176 5.37004C32.7176 7.52863 34.4754 9.28631 36.634 9.28631C38.7926 9.28631 40.5504 7.52863 40.5504 5.37004ZM30.9296 5.46255C30.9296 2.93391 28.8944 0.898643 26.3658 0.898643C23.8372 0.898643 21.802 2.93391 21.802 5.46255C21.802 7.99119 23.8372 10.0265 26.3658 10.0265C28.8944 10.0265 30.9296 7.99119 30.9296 5.46255ZM21.1236 5.83258C21.1236 2.9339 18.7795 0.621117 15.9116 0.621117C13.0438 0.621117 10.7003 2.96474 10.7003 5.83258C10.7003 8.70042 13.0438 11.044 15.9116 11.044C18.7795 11.044 21.1236 8.70042 21.1236 5.83258ZM204.264 108.304C204.264 107.934 203.987 107.656 203.617 107.656C203.247 107.656 202.969 107.934 202.969 108.304C202.969 108.674 203.247 108.952 203.617 108.952C203.987 108.952 204.264 108.674 204.264 108.304ZM214.934 110.462C214.934 109.753 214.348 109.167 213.639 109.167C212.93 109.167 212.343 109.753 212.343 110.462C212.343 111.172 212.93 111.758 213.639 111.758C214.348 111.758 214.934 111.172 214.934 110.462ZM225.758 111.974C225.758 110.894 224.894 110 223.784 110C222.674 110 221.81 110.863 221.81 111.974C221.81 113.084 222.674 113.947 223.784 113.947C224.894 113.947 225.758 113.084 225.758 111.974ZM236.612 112.96C236.612 111.511 235.44 110.339 233.991 110.339C232.541 110.339 231.37 111.511 231.37 112.96C231.37 114.41 232.541 115.581 233.991 115.581C235.44 115.581 236.612 114.41 236.612 112.96ZM247.498 113.515C247.498 111.727 246.048 110.247 244.229 110.247C242.41 110.247 240.96 111.696 240.96 113.515C240.96 115.335 242.41 116.784 244.229 116.784C246.048 116.784 247.498 115.335 247.498 113.515ZM258.383 113.731C258.383 111.573 256.626 109.815 254.467 109.815C252.308 109.815 250.551 111.573 250.551 113.731C250.551 115.89 252.308 117.648 254.467 117.648C256.626 117.648 258.383 115.89 258.383 113.731ZM269.331 113.608C269.331 111.079 267.295 109.044 264.766 109.044C262.237 109.044 260.202 111.079 260.202 113.608C260.202 116.137 262.237 118.172 264.766 118.172C267.295 118.172 269.331 116.137 269.331 113.608ZM280.431 113.238C280.431 110.339 278.088 108.026 275.22 108.026C272.352 108.026 270.009 110.37 270.009 113.238C270.009 116.106 272.352 118.449 275.22 118.449C278.088 118.449 280.431 116.106 280.431 113.238ZM194.951 1.48455C194.951 1.11451 194.674 0.836998 194.304 0.836998C193.934 0.836998 193.657 1.11451 193.657 1.48455C193.657 1.8546 193.934 2.13219 194.304 2.13219C194.674 2.13219 194.951 1.8546 194.951 1.48455ZM197.788 -8.53748C197.788 -9.24673 197.203 -9.83257 196.493 -9.83257C195.784 -9.83257 195.198 -9.24673 195.198 -8.53748C195.198 -7.82822 195.784 -7.24228 196.493 -7.24228C197.203 -7.24228 197.788 -7.82822 197.788 -8.53748ZM199.947 -18.6828C199.947 -19.7621 199.084 -20.6564 197.973 -20.6564C196.863 -20.6564 196 -19.7929 196 -18.6828C196 -17.5726 196.863 -16.7093 197.973 -16.7093C199.084 -16.7093 199.947 -17.5726 199.947 -18.6828ZM201.581 -28.8899C201.581 -30.3392 200.41 -31.511 198.96 -31.511C197.511 -31.511 196.339 -30.3392 196.339 -28.8899C196.339 -27.4406 197.511 -26.2687 198.96 -26.2687C200.41 -26.2687 201.581 -27.4406 201.581 -28.8899ZM202.815 -39.1586C202.815 -40.9471 201.365 -42.4273 199.546 -42.4273C197.727 -42.4273 196.277 -40.978 196.277 -39.1586C196.277 -37.3392 197.727 -35.8899 199.546 -35.8899C201.365 -35.8899 202.815 -37.3392 202.815 -39.1586ZM203.648 -49.3965C203.648 -51.5551 201.89 -53.3128 199.731 -53.3128C197.573 -53.3128 195.815 -51.5551 195.815 -49.3965C195.815 -47.2379 197.573 -45.4802 199.731 -45.4802C201.89 -45.4802 203.648 -47.2379 203.648 -49.3965ZM204.203 -59.6344C204.203 -62.163 202.167 -64.1982 199.639 -64.1982C197.11 -64.1982 195.075 -62.163 195.075 -59.6344C195.075 -57.1057 197.11 -55.0705 199.639 -55.0705C202.167 -55.0705 204.203 -57.1057 204.203 -59.6344ZM204.48 -70.1189C204.48 -73.0176 202.136 -75.3304 199.268 -75.3304C196.4 -75.3304 194.057 -72.9868 194.057 -70.1189C194.057 -67.2511 196.4 -64.9075 199.268 -64.9075C202.136 -64.9075 204.48 -67.2511 204.48 -70.1189ZM97.4452 117.586C97.4452 117.216 97.1671 116.938 96.797 116.938C96.427 116.938 96.1496 117.216 96.1496 117.586C96.1496 117.956 96.427 118.233 96.797 118.233C97.1671 118.233 97.4452 117.956 97.4452 117.586ZM95.9335 127.608C95.9335 126.899 95.3478 126.313 94.6386 126.313C93.9293 126.313 93.3437 126.899 93.3437 127.608C93.3437 128.317 93.9293 128.903 94.6386 128.903C95.3478 128.903 95.9335 128.317 95.9335 127.608ZM95.0707 137.784C95.0707 136.705 94.2069 135.811 93.0967 135.811C91.9866 135.811 91.1235 136.674 91.1235 137.784C91.1235 138.894 91.9866 139.758 93.0967 139.758C94.2069 139.758 95.0707 138.894 95.0707 137.784ZM94.7312 147.991C94.7312 146.542 93.5591 145.37 92.1097 145.37C90.6604 145.37 89.489 146.542 89.489 147.991C89.489 149.441 90.6604 150.612 92.1097 150.612C93.5591 150.612 94.7312 149.441 94.7312 147.991ZM94.8238 158.229C94.8238 156.441 93.3743 154.96 91.5549 154.96C89.7355 154.96 88.286 156.41 88.286 158.229C88.286 160.048 89.7355 161.498 91.5549 161.498C93.3743 161.498 94.8238 160.048 94.8238 158.229ZM95.286 168.467C95.286 166.308 93.5283 164.551 91.3697 164.551C89.2111 164.551 87.4533 166.308 87.4533 168.467C87.4533 170.625 89.2111 172.383 91.3697 172.383C93.5283 172.383 95.286 170.625 95.286 168.467ZM96.057 178.736C96.057 176.207 94.0218 174.172 91.4931 174.172C88.9645 174.172 86.9293 176.207 86.9293 178.736C86.9293 181.264 88.9645 183.3 91.4931 183.3C94.0218 183.3 96.057 181.264 96.057 178.736ZM97.0748 189.189C97.0748 186.291 94.7314 183.978 91.8635 183.978C88.9957 183.978 86.6523 186.322 86.6523 189.189C86.6523 192.057 88.9957 194.401 91.8635 194.401C94.7314 194.401 97.0748 192.057 97.0748 189.189ZM154.494 -15.815C154.494 -16.185 154.215 -16.4626 153.845 -16.4626C153.475 -16.4626 153.198 -16.1542 153.198 -15.815C153.198 -15.4758 153.475 -15.1674 153.845 -15.1674C154.215 -15.1674 154.494 -15.4449 154.494 -15.815ZM151.379 -25.3436C151.379 -26.0528 150.793 -26.6388 150.083 -26.6388C149.374 -26.6388 148.789 -26.0528 148.789 -25.3436C148.789 -24.6343 149.374 -24.0485 150.083 -24.0485C150.793 -24.0485 151.379 -24.6343 151.379 -25.3436ZM147.647 -34.6564C147.647 -35.7357 146.784 -36.6299 145.674 -36.6299C144.564 -36.6299 143.731 -35.7665 143.731 -34.6564C143.731 -33.5463 144.595 -32.6828 145.674 -32.6828C146.753 -32.6828 147.647 -33.5463 147.647 -34.6564ZM143.454 -43.6608C143.454 -45.1101 142.282 -46.2819 140.832 -46.2819C139.383 -46.2819 138.212 -45.1101 138.212 -43.6608C138.212 -42.2114 139.383 -41.0396 140.832 -41.0396C142.282 -41.0396 143.454 -42.2114 143.454 -43.6608ZM138.89 -52.511C138.89 -54.3304 137.44 -55.7797 135.621 -55.7797C133.802 -55.7797 132.352 -54.3304 132.352 -52.511C132.352 -50.6916 133.802 -49.2423 135.621 -49.2423C137.44 -49.2423 138.89 -50.6916 138.89 -52.511ZM134.017 -61.1145C134.017 -63.2731 132.26 -65.0308 130.101 -65.0308C127.943 -65.0308 126.185 -63.2731 126.185 -61.1145C126.185 -58.9559 127.943 -57.1983 130.101 -57.1983C132.26 -57.1983 134.017 -58.9559 134.017 -61.1145ZM128.868 -69.5947C128.868 -72.1233 126.833 -74.1586 124.304 -74.1586C121.775 -74.1586 119.74 -72.1233 119.74 -69.5947C119.74 -67.0661 121.775 -65.0308 124.304 -65.0308C126.833 -65.0308 128.868 -67.0661 128.868 -69.5947ZM123.41 -78.1057C123.41 -81.0044 121.066 -83.3172 118.198 -83.3172C115.331 -83.3172 112.986 -80.9736 112.986 -78.1057C112.986 -75.2379 115.331 -72.8943 118.198 -72.8943C121.066 -72.8943 123.41 -75.2379 123.41 -78.1057ZM137.934 134.885C137.934 134.515 137.656 134.238 137.286 134.238C136.916 134.238 136.639 134.515 136.639 134.885C136.639 135.255 136.916 135.533 137.286 135.533C137.656 135.533 137.934 135.225 137.934 134.885ZM142.343 144.445C142.343 143.736 141.758 143.15 141.048 143.15C140.339 143.15 139.753 143.736 139.753 144.445C139.753 145.154 140.339 145.74 141.048 145.74C141.758 145.74 142.343 145.154 142.343 144.445ZM147.37 153.727C147.37 152.648 146.506 151.753 145.396 151.753C144.286 151.753 143.423 152.617 143.423 153.727C143.423 154.837 144.286 155.7 145.396 155.7C146.506 155.7 147.37 154.837 147.37 153.727ZM152.859 162.762C152.859 161.313 151.687 160.141 150.238 160.141C148.788 160.141 147.616 161.313 147.616 162.762C147.616 164.211 148.788 165.383 150.238 165.383C151.687 165.383 152.859 164.211 152.859 162.762ZM158.749 171.581C158.749 169.762 157.299 168.313 155.48 168.313C153.661 168.313 152.211 169.762 152.211 171.581C152.211 173.401 153.661 174.85 155.48 174.85C157.299 174.85 158.749 173.401 158.749 171.581ZM164.947 180.216C164.947 178.057 163.189 176.299 161.031 176.299C158.872 176.299 157.114 178.057 157.114 180.216C157.114 182.374 158.872 184.132 161.031 184.132C163.189 184.132 164.947 182.374 164.947 180.216ZM171.392 188.696C171.392 186.167 169.357 184.132 166.828 184.132C164.3 184.132 162.264 186.167 162.264 188.696C162.264 191.225 164.3 193.26 166.828 193.26C169.357 193.26 171.392 191.225 171.392 188.696ZM178.145 197.176C178.145 194.278 175.802 191.965 172.934 191.965C170.066 191.965 167.722 194.308 167.722 197.176C167.722 200.044 170.066 202.388 172.934 202.388C175.802 202.388 178.145 200.044 178.145 197.176ZM221.564 67.815C221.564 67.4449 221.286 67.1674 220.916 67.1674C220.546 67.1674 220.268 67.4449 220.268 67.815C220.268 68.185 220.577 68.4625 220.916 68.4625C221.255 68.4625 221.564 68.185 221.564 67.815ZM231.74 64.0529C231.74 63.3436 231.154 62.7577 230.445 62.7577C229.736 62.7577 229.15 63.3436 229.15 64.0529C229.15 64.7621 229.736 65.3481 230.445 65.3481C231.154 65.3481 231.74 64.7621 231.74 64.0529ZM241.7 59.674C241.7 58.5947 240.837 57.7004 239.727 57.7004C238.617 57.7004 237.754 58.5638 237.754 59.674C237.754 60.7841 238.617 61.6476 239.727 61.6476C240.837 61.6476 241.7 60.7841 241.7 59.674ZM251.383 54.8326C251.383 53.3833 250.211 52.2115 248.762 52.2115C247.312 52.2115 246.141 53.3833 246.141 54.8326C246.141 56.282 247.312 57.4537 248.762 57.4537C250.211 57.4537 251.383 56.282 251.383 54.8326ZM260.881 49.5903C260.881 47.8017 259.432 46.3216 257.612 46.3216C255.793 46.3216 254.344 47.7709 254.344 49.5903C254.344 51.4097 255.793 52.859 257.612 52.859C259.432 52.859 260.881 51.4097 260.881 49.5903ZM270.132 44.0704C270.132 41.9118 268.375 40.1542 266.216 40.1542C264.057 40.1542 262.3 41.9118 262.3 44.0704C262.3 46.229 264.057 47.9868 266.216 47.9868C268.375 47.9868 270.132 46.229 270.132 44.0704ZM279.26 38.2731C279.26 35.7444 277.225 33.7093 274.696 33.7093C272.168 33.7093 270.132 35.7444 270.132 38.2731C270.132 40.8017 272.168 42.837 274.696 42.837C277.225 42.837 279.26 40.8017 279.26 38.2731ZM288.419 32.1674C288.419 29.2687 286.075 26.9559 283.207 26.9559C280.339 26.9559 277.995 29.2996 277.995 32.1674C277.995 35.0352 280.339 37.3789 283.207 37.3789C286.075 37.3789 288.419 35.0352 288.419 32.1674ZM70.8634 51.2555C70.8634 50.8855 70.5551 50.6079 70.2159 50.6079C69.8767 50.6079 69.5685 50.8855 69.5685 51.2555C69.5685 51.6256 69.8459 51.9031 70.2159 51.9031C70.586 51.9031 70.8634 51.6256 70.8634 51.2555ZM61.9518 55.0176C61.9518 54.3084 61.3654 53.7224 60.6561 53.7224C59.9469 53.7224 59.3612 54.3084 59.3612 55.0176C59.3612 55.7269 59.9469 56.3127 60.6561 56.3127C61.3654 56.3127 61.9518 55.7269 61.9518 55.0176ZM53.3173 59.3964C53.3173 58.3171 52.4534 57.4229 51.3433 57.4229C50.2332 57.4229 49.3701 58.2863 49.3701 59.3964C49.3701 60.5066 50.2332 61.37 51.3433 61.37C52.4534 61.37 53.3173 60.5066 53.3173 59.3964ZM44.9606 64.2379C44.9606 62.7885 43.7885 61.6167 42.3391 61.6167C40.8898 61.6167 39.7177 62.7885 39.7177 64.2379C39.7177 65.6872 40.8898 66.859 42.3391 66.859C43.7885 66.859 44.9606 65.6872 44.9606 64.2379ZM36.7575 69.4802C36.7575 67.6917 35.3079 66.2115 33.4886 66.2115C31.6692 66.2115 30.2204 67.6608 30.2204 69.4802C30.2204 71.2996 31.6692 72.7489 33.4886 72.7489C35.3079 72.7489 36.7575 71.2996 36.7575 69.4802ZM28.802 75C28.802 72.8414 27.0443 71.0837 24.8857 71.0837C22.7271 71.0837 20.9693 72.8414 20.9693 75C20.9693 77.1585 22.7271 78.9163 24.8857 78.9163C27.0443 78.9163 28.802 77.1585 28.802 75ZM20.9693 80.7973C20.9693 78.2687 18.9341 76.2335 16.4055 76.2335C13.8769 76.2335 11.8417 78.2687 11.8417 80.7973C11.8417 83.326 13.8769 85.3612 16.4055 85.3612C18.9341 85.3612 20.9693 83.326 20.9693 80.7973ZM13.1366 86.9339C13.1366 84.0353 10.7932 81.7225 7.92532 81.7225C5.05748 81.7225 2.71329 84.0661 2.71329 86.9339C2.71329 89.8018 5.05748 92.1453 7.92532 92.1453C10.7932 92.1453 13.1366 89.8018 13.1366 86.9339ZM98.771 0.405235C98.771 0.0351944 98.4936 -0.24231 98.1235 -0.24231C97.7535 -0.24231 97.4753 0.0351944 97.4753 0.405235C97.4753 0.775284 97.7535 1.05289 98.1235 1.05289C98.4936 1.05289 98.771 0.775284 98.771 0.405235ZM90.013 -3.69604C90.013 -4.40529 89.4274 -4.99123 88.7181 -4.99123C88.0089 -4.99123 87.4232 -4.40529 87.4232 -3.69604C87.4232 -2.98679 88.0089 -2.40085 88.7181 -2.40085C89.4274 -2.40085 90.013 -2.98679 90.013 -3.69604ZM81.0089 -7.14977C81.0089 -8.22906 80.145 -9.12338 79.0349 -9.12338C77.9247 -9.12338 77.0616 -8.2599 77.0616 -7.14977C77.0616 -6.03963 77.9247 -5.17625 79.0349 -5.17625C80.145 -5.17625 81.0089 -6.03963 81.0089 -7.14977ZM71.8504 -10.1101C71.8504 -11.5594 70.6783 -12.7313 69.2289 -12.7313C67.7796 -12.7313 66.6082 -11.5594 66.6082 -10.1101C66.6082 -8.66076 67.7796 -7.48903 69.2289 -7.48903C70.6783 -7.48903 71.8504 -8.66076 71.8504 -10.1101ZM62.5375 -12.6696C62.5375 -14.4582 61.088 -15.9383 59.2686 -15.9383C57.4492 -15.9383 55.9997 -14.489 55.9997 -12.6696C55.9997 -10.8502 57.4492 -9.4009 59.2686 -9.4009C61.088 -9.4009 62.5375 -10.8502 62.5375 -12.6696ZM53.2247 -14.859C53.2247 -17.0176 51.4669 -18.7754 49.3083 -18.7754C47.1497 -18.7754 45.392 -17.0176 45.392 -14.859C45.392 -12.7004 47.1497 -10.9428 49.3083 -10.9428C51.4669 -10.9428 53.2247 -12.7004 53.2247 -14.859ZM43.7884 -16.7401C43.7884 -19.2688 41.7532 -21.3039 39.2246 -21.3039C36.6959 -21.3039 34.6608 -19.2688 34.6608 -16.7401C34.6608 -14.2115 36.6959 -12.1762 39.2246 -12.1762C41.7532 -12.1762 43.7884 -14.2115 43.7884 -16.7401ZM34.075 -18.4361C34.075 -21.3348 31.7309 -23.6476 28.863 -23.6476C25.9952 -23.6476 23.6517 -21.304 23.6517 -18.4361C23.6517 -15.5683 25.9952 -13.2247 28.863 -13.2247C31.7309 -13.2247 34.075 -15.5683 34.075 -18.4361ZM193.657 118.696C193.657 118.326 193.379 118.048 193.009 118.048C192.639 118.048 192.361 118.326 192.361 118.696C192.361 119.066 192.639 119.344 193.009 119.344C193.379 119.344 193.657 119.066 193.657 118.696ZM203.709 122.767C203.709 122.057 203.123 121.471 202.414 121.471C201.704 121.471 201.119 122.057 201.119 122.767C201.119 123.476 201.704 124.062 202.414 124.062C203.123 124.062 203.709 123.476 203.709 122.767ZM214.008 126.251C214.008 125.172 213.145 124.278 212.035 124.278C210.925 124.278 210.092 125.141 210.092 126.251C210.092 127.361 210.956 128.225 212.035 128.225C213.115 128.225 214.008 127.361 214.008 126.251ZM224.493 129.211C224.493 127.762 223.321 126.59 221.872 126.59C220.423 126.59 219.251 127.762 219.251 129.211C219.251 130.661 220.423 131.833 221.872 131.833C223.321 131.833 224.493 130.661 224.493 129.211ZM235.101 131.74C235.101 129.952 233.652 128.471 231.832 128.471C230.013 128.471 228.563 129.921 228.563 131.74C228.563 133.559 230.013 135.009 231.832 135.009C233.652 135.009 235.101 133.559 235.101 131.74ZM245.74 133.93C245.74 131.771 243.982 130.013 241.824 130.013C239.665 130.013 237.907 131.771 237.907 133.93C237.907 136.088 239.665 137.846 241.824 137.846C243.982 137.846 245.74 136.088 245.74 133.93ZM256.471 135.841C256.471 133.313 254.436 131.277 251.907 131.277C249.379 131.277 247.343 133.313 247.343 135.841C247.343 138.37 249.379 140.405 251.907 140.405C254.436 140.405 256.471 138.37 256.471 135.841ZM267.48 137.507C267.48 134.608 265.137 132.295 262.269 132.295C259.401 132.295 257.057 134.639 257.057 137.507C257.057 140.374 259.401 142.718 262.269 142.718C265.137 142.718 267.48 140.374 267.48 137.507ZM205.344 12.0925C205.344 11.7224 205.066 11.4449 204.696 11.4449C204.326 11.4449 204.048 11.7224 204.048 12.0925C204.048 12.4625 204.326 12.74 204.696 12.74C205.066 12.74 205.344 12.4625 205.344 12.0925ZM210.092 2.68724C210.092 1.97799 209.506 1.39204 208.797 1.39204C208.088 1.39204 207.502 1.97799 207.502 2.68724C207.502 3.39649 208.088 3.98234 208.797 3.98234C209.506 3.98234 210.092 3.39649 210.092 2.68724ZM214.225 -6.96475C214.225 -8.04405 213.361 -8.93837 212.251 -8.93837C211.141 -8.93837 210.277 -8.07489 210.277 -6.96475C210.277 -5.85462 211.141 -4.99123 212.251 -4.99123C213.361 -4.99123 214.225 -5.85462 214.225 -6.96475ZM217.832 -16.7709C217.832 -18.2202 216.661 -19.3921 215.212 -19.3921C213.762 -19.3921 212.59 -18.2202 212.59 -16.7709C212.59 -15.3216 213.762 -14.1498 215.212 -14.1498C216.661 -14.1498 217.832 -15.3216 217.832 -16.7709ZM221.009 -26.7313C221.009 -28.5198 219.559 -30 217.74 -30C215.92 -30 214.471 -28.5507 214.471 -26.7313C214.471 -24.9119 215.92 -23.4626 217.74 -23.4626C219.559 -23.4626 221.009 -24.9119 221.009 -26.7313ZM223.877 -36.7224C223.877 -38.881 222.119 -40.6388 219.961 -40.6388C217.802 -40.6388 216.044 -38.881 216.044 -36.7224C216.044 -34.5639 217.802 -32.8062 219.961 -32.8062C222.119 -32.8062 223.877 -34.5639 223.877 -36.7224ZM226.405 -46.8062C226.405 -49.3348 224.37 -51.3701 221.841 -51.3701C219.313 -51.3701 217.277 -49.3348 217.277 -46.8062C217.277 -44.2775 219.313 -42.2423 221.841 -42.2423C224.37 -42.2423 226.405 -44.2775 226.405 -46.8062ZM228.749 -57.1366C228.749 -60.0352 226.405 -62.348 223.537 -62.348C220.67 -62.348 218.326 -60.0044 218.326 -57.1366C218.326 -54.2687 220.67 -51.9251 223.537 -51.9251C226.405 -51.9251 228.749 -54.2687 228.749 -57.1366ZM87.0528 106.978C87.0528 106.608 86.7754 106.33 86.4053 106.33C86.0353 106.33 85.7579 106.608 85.7579 106.978C85.7579 107.348 86.0353 107.626 86.4053 107.626C86.7754 107.626 87.0528 107.348 87.0528 106.978ZM83.6295 116.383C83.6295 115.674 83.0439 115.088 82.3346 115.088C81.6254 115.088 81.0397 115.674 81.0397 116.383C81.0397 117.092 81.6254 117.678 82.3346 117.678C83.0439 117.678 83.6295 117.092 83.6295 116.383ZM80.8237 126.066C80.8237 124.987 79.9605 124.092 78.8504 124.092C77.7403 124.092 76.8764 124.956 76.8764 126.066C76.8764 127.176 77.7403 128.04 78.8504 128.04C79.9605 128.04 80.8237 127.176 80.8237 126.066ZM78.5109 135.872C78.5109 134.423 77.3388 133.251 75.8894 133.251C74.4401 133.251 73.2687 134.423 73.2687 135.872C73.2687 137.322 74.4401 138.493 75.8894 138.493C77.3388 138.493 78.5109 137.322 78.5109 135.872ZM76.6302 145.802C76.6302 144.013 75.1807 142.533 73.3613 142.533C71.542 142.533 70.0924 143.982 70.0924 145.802C70.0924 147.621 71.542 149.07 73.3613 149.07C75.1807 149.07 76.6302 147.621 76.6302 145.802ZM75.0884 155.793C75.0884 153.634 73.3306 151.877 71.172 151.877C69.0134 151.877 67.2557 153.634 67.2557 155.793C67.2557 157.952 69.0134 159.709 71.172 159.709C73.3306 159.709 75.0884 157.952 75.0884 155.793ZM73.8236 165.907C73.8236 163.379 71.7884 161.344 69.2598 161.344C66.7311 161.344 64.696 163.379 64.696 165.907C64.696 168.436 66.7311 170.471 69.2598 170.471C71.7884 170.471 73.8236 168.436 73.8236 165.907ZM72.8057 176.238C72.8057 173.339 70.4623 171.026 67.5945 171.026C64.7266 171.026 62.3832 173.37 62.3832 176.238C62.3832 179.106 64.7266 181.449 67.5945 181.449C70.4623 181.449 72.8057 179.106 72.8057 176.238ZM125.013 -13.2555C125.013 -13.6256 124.736 -13.9031 124.366 -13.9031C123.996 -13.9031 123.718 -13.6256 123.718 -13.2555C123.718 -12.8855 123.996 -12.608 124.366 -12.608C124.736 -12.608 125.013 -12.9163 125.013 -13.2555ZM118.537 -20.6255C118.537 -21.3348 117.952 -21.9207 117.242 -21.9207C116.533 -21.9207 115.947 -21.3348 115.947 -20.6255C115.947 -19.9163 116.533 -19.3304 117.242 -19.3304C117.952 -19.3304 118.537 -19.9163 118.537 -20.6255ZM111.599 -27.5331C111.599 -28.6124 110.736 -29.5066 109.626 -29.5066C108.516 -29.5066 107.652 -28.6432 107.652 -27.5331C107.652 -26.4229 108.516 -25.5595 109.626 -25.5595C110.736 -25.5595 111.599 -26.4229 111.599 -27.5331ZM104.322 -34.0396C104.322 -35.489 103.15 -36.6608 101.7 -36.6608C100.251 -36.6608 99.0789 -35.489 99.0789 -34.0396C99.0789 -32.5903 100.251 -31.4185 101.7 -31.4185C103.15 -31.4185 104.322 -32.5903 104.322 -34.0396ZM96.7353 -40.1762C96.7353 -41.9956 95.2865 -43.445 93.4671 -43.445C91.6477 -43.445 90.1982 -41.9956 90.1982 -40.1762C90.1982 -38.3568 91.6477 -36.9075 93.4671 -36.9075C95.2865 -36.9075 96.7353 -38.3568 96.7353 -40.1762ZM88.9952 -46.0352C88.9952 -48.1938 87.2381 -49.9515 85.0796 -49.9515C82.921 -49.9515 81.1632 -48.1938 81.1632 -46.0352C81.1632 -43.8766 82.921 -42.1189 85.0796 -42.1189C87.2381 -42.1189 88.9952 -43.8766 88.9952 -46.0352ZM81.0706 -51.6476C81.0706 -54.1762 79.0354 -56.2114 76.5068 -56.2114C73.9781 -56.2114 71.943 -54.1762 71.943 -51.6476C71.943 -49.1189 73.9781 -47.0837 76.5068 -47.0837C79.0354 -47.0837 81.0706 -49.1189 81.0706 -51.6476ZM72.8057 -57.1366C72.8057 -60.0352 70.4623 -62.348 67.5945 -62.348C64.7266 -62.348 62.3832 -60.0044 62.3832 -57.1366C62.3832 -54.2687 64.7266 -51.9251 67.5945 -51.9251C70.4623 -51.9251 72.8057 -54.2687 72.8057 -57.1366ZM228.749 176.238C228.749 173.339 226.405 171.026 223.537 171.026C220.67 171.026 218.326 173.37 218.326 176.238C218.326 179.106 220.67 181.449 223.537 181.449C226.405 181.449 228.749 179.106 228.749 176.238ZM219.343 170.841C219.343 168.313 217.308 166.277 214.779 166.277C212.251 166.277 210.216 168.313 210.216 170.841C210.216 173.37 212.251 175.405 214.779 175.405C217.308 175.405 219.343 173.37 219.343 170.841ZM210.092 165.198C210.092 163.04 208.334 161.282 206.176 161.282C204.017 161.282 202.26 163.04 202.26 165.198C202.26 167.357 204.017 169.115 206.176 169.115C208.334 169.115 210.092 167.357 210.092 165.198ZM200.995 159.339C200.995 157.52 199.546 156.07 197.726 156.07C195.907 156.07 194.458 157.52 194.458 159.339C194.458 161.159 195.907 162.608 197.726 162.608C199.546 162.608 200.995 161.159 200.995 159.339ZM192.115 153.172C192.115 151.722 190.943 150.551 189.493 150.551C188.044 150.551 186.873 151.722 186.873 153.172C186.873 154.621 188.044 155.793 189.493 155.793C190.943 155.793 192.115 154.621 192.115 153.172ZM183.511 146.665C183.511 145.586 182.647 144.692 181.537 144.692C180.427 144.692 179.564 145.555 179.564 146.665C179.564 147.775 180.427 148.639 181.537 148.639C182.647 148.639 183.511 147.775 183.511 146.665ZM175.216 139.727C175.216 139.018 174.63 138.432 173.92 138.432C173.211 138.432 172.625 139.018 172.625 139.727C172.625 140.436 173.211 141.022 173.92 141.022C174.63 141.022 175.216 140.436 175.216 139.727ZM167.538 132.511C167.538 132.141 167.259 131.863 166.889 131.863C166.519 131.863 166.242 132.141 166.242 132.511C166.242 132.881 166.519 133.159 166.889 133.159C167.259 133.159 167.538 132.881 167.538 132.511ZM219.004 38.3348C219.004 37.9648 218.727 37.6873 218.357 37.6873C217.987 37.6873 217.71 37.9648 217.71 38.3348C217.71 38.7048 217.987 38.9824 218.357 38.9824C218.727 38.9824 219.004 38.7048 219.004 38.3348ZM227.022 31.2115C227.022 30.5022 226.436 29.9163 225.727 29.9163C225.017 29.9163 224.432 30.5022 224.432 31.2115C224.432 31.9207 225.017 32.5066 225.727 32.5066C226.436 32.5066 227.022 31.9207 227.022 31.2115ZM234.577 23.6255C234.577 22.5462 233.713 21.652 232.603 21.652C231.493 21.652 230.63 22.5154 230.63 23.6255C230.63 24.7356 231.493 25.5991 232.603 25.5991C233.713 25.5991 234.577 24.7356 234.577 23.6255ZM241.731 15.6696C241.731 14.2203 240.56 13.0484 239.11 13.0484C237.661 13.0484 236.489 14.2203 236.489 15.6696C236.489 17.1189 237.661 18.2908 239.11 18.2908C240.56 18.2908 241.731 17.1189 241.731 15.6696ZM248.547 7.46693C248.547 5.67839 247.097 4.19823 245.278 4.19823C243.458 4.19823 242.009 5.64755 242.009 7.46693C242.009 9.28632 243.458 10.7356 245.278 10.7356C247.097 10.7356 248.547 9.28632 248.547 7.46693ZM255.053 -0.920731C255.053 -3.07932 253.295 -4.837 251.136 -4.837C248.978 -4.837 247.22 -3.07932 247.22 -0.920731C247.22 1.23786 248.978 2.99563 251.136 2.99563C253.295 2.99563 255.053 1.23786 255.053 -0.920731ZM261.313 -9.52428C261.313 -12.0529 259.278 -14.0881 256.749 -14.0881C254.22 -14.0881 252.185 -12.0529 252.185 -9.52428C252.185 -6.99564 254.22 -4.96037 256.749 -4.96037C259.278 -4.96037 261.313 -6.99564 261.313 -9.52428ZM267.48 -18.4361C267.48 -21.3348 265.137 -23.6476 262.269 -23.6476C259.401 -23.6476 257.057 -21.304 257.057 -18.4361C257.057 -15.5683 259.401 -13.2247 262.269 -13.2247C265.137 -13.2247 267.48 -15.5683 267.48 -18.4361ZM73.3922 80.7357C73.3922 80.3656 73.1148 80.0881 72.7448 80.0881C72.3747 80.0881 72.0965 80.3965 72.0965 80.7357C72.0965 81.0749 72.3747 81.3832 72.7448 81.3832C73.1148 81.3832 73.3922 81.1057 73.3922 80.7357ZM66.6692 87.859C66.6692 87.1498 66.0835 86.5638 65.3743 86.5638C64.665 86.5638 64.0794 87.1498 64.0794 87.859C64.0794 88.5683 64.665 89.1541 65.3743 89.1541C66.0835 89.1541 66.6692 88.5683 66.6692 87.859ZM60.4408 95.4758C60.4408 94.3965 59.577 93.5022 58.4668 93.5022C57.3567 93.5022 56.4936 94.3656 56.4936 95.4758C56.4936 96.5859 57.3567 97.4493 58.4668 97.4493C59.577 97.4493 60.4408 96.5859 60.4408 95.4758ZM54.6122 103.401C54.6122 101.952 53.4401 100.78 51.9908 100.78C50.5414 100.78 49.3701 101.952 49.3701 103.401C49.3701 104.85 50.5414 106.022 51.9908 106.022C53.4401 106.022 54.6122 104.85 54.6122 103.401ZM49.0923 111.604C49.0923 109.784 47.6427 108.335 45.8234 108.335C44.004 108.335 42.5552 109.784 42.5552 111.604C42.5552 113.423 44.004 114.872 45.8234 114.872C47.6427 114.872 49.0923 113.423 49.0923 111.604ZM43.9119 120.022C43.9119 117.863 42.1541 116.106 39.9955 116.106C37.8369 116.106 36.0791 117.863 36.0791 120.022C36.0791 122.181 37.8369 123.938 39.9955 123.938C42.1541 123.938 43.9119 122.181 43.9119 120.022ZM38.9468 128.595C38.9468 126.066 36.9116 124.031 34.383 124.031C31.8543 124.031 29.8191 126.066 29.8191 128.595C29.8191 131.123 31.8543 133.159 34.383 133.159C36.9116 133.159 38.9468 131.123 38.9468 128.595ZM34.075 137.507C34.075 134.608 31.7309 132.295 28.863 132.295C25.9952 132.295 23.6517 134.639 23.6517 137.507C23.6517 140.374 25.9952 142.718 28.863 142.718C31.7309 142.718 34.075 140.374 34.075 137.507ZM79.7441 23.0397C79.7441 22.6696 79.4666 22.392 79.0966 22.392C78.7266 22.392 78.4491 22.6696 78.4491 23.0397C78.4491 23.4097 78.7266 23.6872 79.0966 23.6872C79.4666 23.6872 79.7441 23.4097 79.7441 23.0397ZM70.1542 22.8854C70.1542 22.1762 69.5685 21.5903 68.8593 21.5903C68.15 21.5903 67.5636 22.1762 67.5636 22.8854C67.5636 23.5947 68.15 24.1806 68.8593 24.1806C69.5685 24.1806 70.1542 23.5947 70.1542 22.8854ZM60.5635 23.3788C60.5635 22.2995 59.7004 21.4053 58.5903 21.4053C57.4802 21.4053 56.6163 22.2687 56.6163 23.3788C56.6163 24.489 57.4802 25.3525 58.5903 25.3525C59.7004 25.3525 60.5635 24.489 60.5635 23.3788ZM51.0045 24.3964C51.0045 22.9471 49.8324 21.7754 48.3831 21.7754C46.9337 21.7754 45.7624 22.9471 45.7624 24.3964C45.7624 25.8458 46.9337 27.0176 48.3831 27.0176C49.8324 27.0176 51.0045 25.8458 51.0045 24.3964ZM41.5065 25.8458C41.5065 24.0572 40.057 22.577 38.2376 22.577C36.4182 22.577 34.9694 24.0264 34.9694 25.8458C34.9694 27.6651 36.4182 29.1146 38.2376 29.1146C40.057 29.1146 41.5065 27.6651 41.5065 25.8458ZM32.0702 27.6344C32.0702 25.4758 30.3124 23.7181 28.1538 23.7181C25.9952 23.7181 24.2375 25.4758 24.2375 27.6344C24.2375 29.793 25.9952 31.5506 28.1538 31.5506C30.3124 31.5506 32.0702 29.793 32.0702 27.6344ZM22.6655 29.7621C22.6655 27.2335 20.6296 25.1982 18.1009 25.1982C15.5723 25.1982 13.5371 27.2335 13.5371 29.7621C13.5371 32.2908 15.5723 34.3259 18.1009 34.3259C20.6296 34.3259 22.6655 32.2908 22.6655 29.7621ZM13.1366 32.1674C13.1366 29.2687 10.7932 26.9559 7.92532 26.9559C5.05748 26.9559 2.71329 29.2996 2.71329 32.1674C2.71329 35.0352 5.05748 37.3789 7.92532 37.3789C10.7932 37.3789 13.1366 35.0352 13.1366 32.1674ZM212.652 96.0308C212.652 95.6608 212.374 95.3833 212.004 95.3833C211.634 95.3833 211.357 95.6608 211.357 96.0308C211.357 96.4008 211.634 96.6784 212.004 96.6784C212.374 96.6784 212.652 96.4008 212.652 96.0308ZM223.568 96.2158C223.568 95.5066 222.983 94.9207 222.273 94.9207C221.564 94.9207 220.978 95.5066 220.978 96.2158C220.978 96.9251 221.564 97.511 222.273 97.511C222.983 97.511 223.568 96.9251 223.568 96.2158ZM234.485 95.7224C234.485 94.6431 233.621 93.7489 232.511 93.7489C231.401 93.7489 230.537 94.6123 230.537 95.7224C230.537 96.8326 231.401 97.696 232.511 97.696C233.621 97.696 234.485 96.8326 234.485 95.7224ZM245.339 94.7048C245.339 93.2555 244.167 92.0837 242.718 92.0837C241.269 92.0837 240.096 93.2555 240.096 94.7048C240.096 96.1542 241.269 97.326 242.718 97.326C244.167 97.326 245.339 96.1542 245.339 94.7048ZM256.163 93.2246C256.163 91.4361 254.714 89.9559 252.894 89.9559C251.075 89.9559 249.625 91.4052 249.625 93.2246C249.625 95.044 251.075 96.4933 252.894 96.4933C254.714 96.4933 256.163 95.044 256.163 93.2246ZM266.864 91.4361C266.864 89.2775 265.106 87.5198 262.947 87.5198C260.789 87.5198 259.031 89.2775 259.031 91.4361C259.031 93.5947 260.789 95.3524 262.947 95.3524C265.106 95.3524 266.864 93.5947 266.864 91.4361ZM277.564 89.3392C277.564 86.8106 275.529 84.7753 273 84.7753C270.471 84.7753 268.436 86.8106 268.436 89.3392C268.436 91.8679 270.471 93.903 273 93.903C275.529 93.903 277.564 91.8679 277.564 89.3392ZM288.419 86.9339C288.419 84.0353 286.075 81.7225 283.207 81.7225C280.339 81.7225 277.995 84.0661 277.995 86.9339C277.995 89.8018 280.339 92.1453 283.207 92.1453C286.075 92.1453 288.419 89.8018 288.419 86.9339ZM182.709 -6.90311C182.709 -7.27316 182.432 -7.55067 182.062 -7.55067C181.692 -7.55067 181.414 -7.24232 181.414 -6.90311C181.414 -6.56391 181.692 -6.25547 182.062 -6.25547C182.432 -6.25547 182.709 -6.53307 182.709 -6.90311ZM183.511 -17.1718C183.511 -17.881 182.925 -18.467 182.216 -18.467C181.507 -18.467 180.92 -17.881 180.92 -17.1718C180.92 -16.4625 181.507 -15.8767 182.216 -15.8767C182.925 -15.8767 183.511 -16.4625 183.511 -17.1718ZM183.696 -27.4097C183.696 -28.489 182.832 -29.3832 181.722 -29.3832C180.612 -29.3832 179.749 -28.5198 179.749 -27.4097C179.749 -26.2996 180.612 -25.4361 181.722 -25.4361C182.832 -25.4361 183.696 -26.2996 183.696 -27.4097ZM183.326 -37.6167C183.326 -39.0661 182.154 -40.2379 180.705 -40.2379C179.256 -40.2379 178.084 -39.0661 178.084 -37.6167C178.084 -36.1674 179.256 -34.9956 180.705 -34.9956C182.154 -34.9956 183.326 -36.1674 183.326 -37.6167ZM182.524 -47.793C182.524 -49.5815 181.074 -51.0617 179.255 -51.0617C177.436 -51.0617 175.987 -49.6123 175.987 -47.793C175.987 -45.9736 177.436 -44.5242 179.255 -44.5242C181.074 -44.5242 182.524 -45.9736 182.524 -47.793ZM181.353 -57.8458C181.353 -60.0044 179.595 -61.7621 177.436 -61.7621C175.278 -61.7621 173.52 -60.0044 173.52 -57.8458C173.52 -55.6872 175.278 -53.9295 177.436 -53.9295C179.595 -53.9295 181.353 -55.6872 181.353 -57.8458ZM179.903 -67.8987C179.903 -70.4273 177.867 -72.4626 175.339 -72.4626C172.81 -72.4626 170.775 -70.4273 170.775 -67.8987C170.775 -65.3701 172.81 -63.3348 175.339 -63.3348C177.867 -63.3348 179.903 -65.3701 179.903 -67.8987ZM178.145 -78.1057C178.145 -81.0044 175.802 -83.3172 172.934 -83.3172C170.066 -83.3172 167.722 -80.9736 167.722 -78.1057C167.722 -75.2379 170.066 -72.8943 172.934 -72.8943C175.802 -72.8943 178.145 -75.2379 178.145 -78.1057ZM109.718 126.004C109.718 125.634 109.44 125.357 109.07 125.357C108.7 125.357 108.423 125.634 108.423 126.004C108.423 126.374 108.7 126.652 109.07 126.652C109.44 126.652 109.718 126.374 109.718 126.004ZM110.211 136.242C110.211 135.533 109.626 134.947 108.916 134.947C108.207 134.947 107.621 135.533 107.621 136.242C107.621 136.952 108.207 137.537 108.916 137.537C109.626 137.537 110.211 136.952 110.211 136.242ZM111.352 146.511C111.352 145.432 110.489 144.537 109.379 144.537C108.269 144.537 107.406 145.401 107.406 146.511C107.406 147.621 108.269 148.485 109.379 148.485C110.489 148.485 111.352 147.621 111.352 146.511ZM113.017 156.718C113.017 155.269 111.846 154.097 110.397 154.097C108.947 154.097 107.775 155.269 107.775 156.718C107.775 158.167 108.947 159.339 110.397 159.339C111.846 159.339 113.017 158.167 113.017 156.718ZM115.115 166.863C115.115 165.075 113.665 163.595 111.846 163.595C110.026 163.595 108.577 165.044 108.577 166.863C108.577 168.683 110.026 170.132 111.846 170.132C113.665 170.132 115.115 168.683 115.115 166.863ZM117.581 176.947C117.581 174.788 115.823 173.031 113.665 173.031C111.506 173.031 109.749 174.788 109.749 176.947C109.749 179.106 111.506 180.863 113.665 180.863C115.823 180.863 117.581 179.106 117.581 176.947ZM120.326 187C120.326 184.471 118.291 182.436 115.762 182.436C113.234 182.436 111.198 184.471 111.198 187C111.198 189.529 113.234 191.564 115.762 191.564C118.291 191.564 120.326 189.529 120.326 187ZM123.41 197.176C123.41 194.278 121.066 191.965 118.198 191.965C115.331 191.965 112.986 194.308 112.986 197.176C112.986 200.044 115.331 202.388 118.198 202.388C121.066 202.388 123.41 200.044 123.41 197.176Z" fill="url(#paint0_linear_360_146)"/>
<defs>
<linearGradient id="paint0_linear_360_146" x1="42.6167" y1="-43.3833" x2="248.484" y2="162.484" gradientUnits="userSpaceOnUse">
<stop stop-color="#79E3A3"/>
<stop offset="1" stop-color="#1B3342"/>
</linearGradient>
</defs>
</svg>
