<svg width="130" height="131" viewBox="0 0 130 131" fill="none" xmlns="http://www.w3.org/2000/svg">
<path d="M0.0413049 64.6696C11.9922 64.5319 21.2445 64.1189 28.6381 63.1827C39.4599 61.8059 44.6779 49.2078 38.0002 40.5751C33.4429 34.6823 27.1922 27.8395 18.8349 19.3032C18.9588 19.1104 19.1104 18.9452 19.3031 18.835C27.8395 27.1924 34.6822 33.4431 40.5751 38.0004C49.2078 44.6781 61.8057 39.4599 63.1825 28.638C64.1187 21.2582 64.5319 11.9921 64.6696 0.0412612C64.7797 0.0137246 64.8899 1.94877e-10 65 1.94877e-10C65.1101 1.94877e-10 65.2203 -4.36973e-05 65.3304 0.0412612C65.4681 11.9921 65.8813 21.2445 66.8175 28.638C68.1943 39.4599 80.7922 44.6781 89.4249 38.0004C95.3178 33.4431 102.161 27.1924 110.697 18.835C110.793 18.8901 110.89 18.959 110.958 19.0416C111.041 19.1242 111.11 19.2068 111.165 19.3032C102.808 27.8395 96.5567 34.6823 91.9994 40.5751C85.3218 49.2078 90.5401 61.8059 101.362 63.1827C108.742 64.1189 118.008 64.5319 129.959 64.6696C130.014 64.8899 130.014 65.1103 129.959 65.3443C118.022 65.482 108.756 65.895 101.362 66.8312C90.5401 68.2081 85.3218 80.8061 91.9994 89.4388C96.5567 95.3317 102.808 102.174 111.165 110.711C111.041 110.904 110.89 111.069 110.697 111.179C102.161 102.822 95.3178 96.5708 89.4249 92.0135C80.7922 85.3359 68.1943 90.554 66.8175 101.376C65.8813 108.756 65.4681 118.022 65.3304 129.973C65.2203 130 65.1101 130.014 65 130.014C64.8899 130.014 64.7797 130.014 64.6696 129.973C64.5319 118.022 64.1187 108.769 63.1825 101.376C61.8057 90.554 49.2078 85.3359 40.5751 92.0135C34.6822 96.5708 27.8395 102.822 19.3031 111.179C19.2068 111.124 19.1101 111.055 19.0413 110.972C18.9587 110.89 18.89 110.807 18.8349 110.711C27.1922 102.174 33.4429 95.3317 38.0002 89.4388C44.6779 80.8061 39.4599 68.2081 28.6381 66.8312C21.2583 65.895 11.9922 65.482 0.0413049 65.3443C-0.0137683 65.124 -0.0137683 64.9037 0.0413049 64.6696Z" fill="url(#paint0_linear_360_147)"/>
<defs>
<linearGradient id="paint0_linear_360_147" x1="19.0277" y1="19.0415" x2="110.945" y2="110.959" gradientUnits="userSpaceOnUse">
<stop stop-color="#E69A3F"/>
<stop offset="1" stop-color="#F5D247"/>
</linearGradient>
</defs>
</svg>
