<svg width="122" height="136" viewBox="0 0 122 136" fill="none" xmlns="http://www.w3.org/2000/svg">
<path d="M0 126.714C0 135.441 4.8106 143.15 13.1366 149.811C4.8106 156.471 0 164.181 0 172.908C0 207.414 74.9962 226.04 145.582 226.04C216.168 226.04 291.163 207.414 291.163 172.908C291.163 164.181 286.353 156.471 278.027 149.811C286.353 143.15 291.163 135.441 291.163 126.714C291.163 117.987 286.353 110.277 278.027 103.617C286.353 96.9559 291.163 89.2467 291.163 80.5198C291.163 71.7929 286.353 64.0837 278.027 57.4229C286.353 50.7621 291.163 43.0529 291.163 34.326C291.163 25.5992 286.353 17.89 278.027 11.2292C286.353 4.56837 291.163 -3.14085 291.163 -11.8677C291.163 -46.3743 216.168 -65 145.582 -65C74.9962 -65 0 -46.3743 0 -11.8677C0 -3.14085 4.8106 4.56837 13.1366 11.2292C4.8106 17.89 0 25.5992 0 34.326C0 43.0529 4.8106 50.7621 13.1366 57.4229C4.8106 64.0837 0 71.7929 0 80.5198C0 89.2467 4.8106 96.9559 13.1366 103.617C4.8106 110.277 0 117.987 0 126.714ZM277.256 172.938C277.256 181.665 263.502 191.656 241.392 199.026C215.89 207.537 181.846 212.194 145.551 212.194C109.256 212.194 75.2118 207.507 49.7096 199.026C27.5995 191.656 13.8465 181.665 13.8465 172.938C13.8465 168.066 18.1325 162.824 25.7492 157.828C53.7492 172.291 100.529 179.877 145.551 179.877C190.573 179.877 237.353 172.291 265.353 157.828C272.969 162.824 277.256 168.066 277.256 172.938ZM41.569 149.811C44.1593 148.762 46.8726 147.775 49.7405 146.819C75.2427 138.308 109.287 133.652 145.582 133.652C181.877 133.652 215.921 138.339 241.423 146.819C244.291 147.775 247.005 148.793 249.595 149.811C247.036 150.859 244.291 151.846 241.423 152.802C215.921 161.313 181.877 165.969 145.582 165.969C109.287 165.969 75.2427 161.282 49.7405 152.802C46.8726 151.846 44.1593 150.828 41.569 149.811ZM277.256 126.714C277.256 131.586 272.969 136.828 265.353 141.824C252.925 135.41 236.829 130.353 218.82 126.714C236.829 123.075 252.956 118.018 265.353 111.604C272.969 116.599 277.256 121.842 277.256 126.714ZM145.551 119.775C109.256 119.775 75.2118 115.088 49.7096 106.608C46.8418 105.652 44.1284 104.634 41.5381 103.617C44.1284 102.568 46.8418 101.582 49.7096 100.626C75.2118 92.1146 109.256 87.4581 145.551 87.4581C181.846 87.4581 215.89 92.1454 241.392 100.626C244.26 101.582 246.974 102.599 249.564 103.617C247.005 104.665 244.26 105.652 241.392 106.608C215.89 115.119 181.846 119.775 145.551 119.775ZM277.256 80.4889C277.256 85.3612 272.969 90.6035 265.353 95.5992C252.925 89.185 236.829 84.1277 218.82 80.4889C236.829 76.8502 252.956 71.793 265.353 65.3789C272.969 70.3745 277.256 75.6167 277.256 80.4889ZM145.551 73.5815C109.256 73.5815 75.2118 68.8944 49.7096 60.4142C46.8418 59.4583 44.1284 58.4405 41.5381 57.4229C44.1284 56.3745 46.8418 55.3878 49.7096 54.4318C75.2118 45.9208 109.256 41.2644 145.551 41.2644C181.846 41.2644 215.89 45.9517 241.392 54.4318C244.26 55.3878 246.974 56.4053 249.564 57.4229C247.005 58.4714 244.26 59.4583 241.392 60.4142C215.89 68.9252 181.846 73.5815 145.551 73.5815ZM277.256 34.2952C277.256 39.1674 272.969 44.4098 265.353 49.4054C252.925 42.9913 236.829 37.9339 218.82 34.2952C236.829 30.6564 252.956 25.5991 265.353 19.185C272.969 24.1806 277.256 29.4229 277.256 34.2952ZM145.551 27.3568C109.256 27.3568 75.2118 22.6696 49.7096 14.1894C46.8418 13.2334 44.1284 12.2159 41.5381 11.1983C44.1284 10.1498 46.8418 9.16296 49.7096 8.20701C75.2118 -0.304008 109.256 -4.96027 145.551 -4.96027C181.846 -4.96027 215.89 -0.27317 241.392 8.20701C244.26 9.16296 246.974 10.1807 249.564 11.1983C247.005 12.2467 244.26 13.2334 241.392 14.1894C215.89 22.7004 181.846 27.3568 145.551 27.3568ZM13.8465 -11.9295C13.8465 -20.6563 27.5995 -30.6476 49.7096 -38.0176C75.2118 -46.5286 109.256 -51.1849 145.551 -51.1849C181.846 -51.1849 215.89 -46.4978 241.392 -38.0176C263.502 -30.6476 277.256 -20.6563 277.256 -11.9295C277.256 -7.05721 272.969 -1.81485 265.353 3.18075C237.353 -11.2818 190.573 -18.8678 145.551 -18.8678C100.529 -18.8678 53.7492 -11.2818 25.7492 3.18075C18.1325 -1.81485 13.8465 -7.05721 13.8465 -11.9295ZM13.8465 34.2952C13.8465 29.4229 18.1325 24.1806 25.7492 19.185C38.1765 25.5991 54.2737 30.6564 72.2825 34.2952C54.2737 37.9339 38.1457 42.9913 25.7492 49.4054C18.1325 44.4098 13.8465 39.1674 13.8465 34.2952ZM13.8465 80.4889C13.8465 75.6167 18.1325 70.3745 25.7492 65.3789C38.1765 71.793 54.2737 76.8502 72.2825 80.4889C54.2737 84.1277 38.1457 89.185 25.7492 95.5992C18.1325 90.6035 13.8465 85.3612 13.8465 80.4889ZM72.3134 126.714C54.3046 130.353 38.1765 135.41 25.7801 141.824C18.1633 136.828 13.8766 131.586 13.8766 126.714C13.8766 121.842 18.1633 116.599 25.7801 111.604C38.2074 118.018 54.3046 123.075 72.3134 126.714Z" fill="url(#paint0_linear_544_291)"/>
<defs>
<linearGradient id="paint0_linear_544_291" x1="21.3392" y1="-43.7225" x2="269.762" y2="204.732" gradientUnits="userSpaceOnUse">
<stop stop-color="#79E3A3"/>
<stop offset="1" stop-color="#1B3342"/>
</linearGradient>
</defs>
</svg>
