<svg width="507" height="392" viewBox="0 0 507 392" fill="none" xmlns="http://www.w3.org/2000/svg">
<path d="M523.816 0L528.594 6.78483C343.347 137.214 298.763 393.958 429.193 579.205C559.622 764.452 816.366 809.036 1001.61 678.606L1006.39 685.391C817.422 818.44 555.457 772.95 422.407 583.982C289.358 395.014 334.849 133.049 523.816 0ZM451.154 563.742C573.004 736.805 813.014 778.547 986.15 656.645L981.373 649.86C812.031 769.091 577.221 728.379 457.99 559.038C338.76 389.696 379.471 154.888 548.886 35.6057L544.107 28.8191C371.045 150.67 329.303 390.68 451.205 563.815L451.154 563.742ZM479.973 543.451C590.676 700.681 808.629 738.529 965.859 627.826L961.082 621.041C807.573 729.124 594.842 692.183 486.758 538.674C378.675 385.165 415.616 172.435 569.125 64.3517L564.348 57.5669C407.118 168.27 369.27 386.221 479.973 543.451ZM508.793 523.16C608.297 664.484 804.243 698.511 945.568 599.007L940.789 592.22C803.186 689.105 612.462 655.986 515.578 518.382C418.693 380.779 451.813 190.055 589.416 93.1708L584.639 86.3859C443.315 185.89 409.288 381.835 508.793 523.16ZM537.539 502.92C625.896 628.412 799.835 658.616 925.327 570.259L920.55 563.474C798.852 649.16 630.062 619.913 544.324 498.142C458.587 376.371 487.885 207.654 609.656 121.917L604.879 115.132C479.387 203.489 449.182 377.428 537.539 502.92ZM566.358 482.628C643.517 592.215 795.449 618.598 905.036 541.44L900.259 534.655C794.393 609.194 647.682 583.717 573.144 477.851C498.605 371.985 524.081 225.274 629.947 150.736L625.17 143.951C515.583 221.109 489.2 373.042 566.358 482.628ZM595.105 462.389C661.116 556.143 791.042 578.705 884.796 512.694L880.019 505.909C790.059 569.249 665.281 547.644 601.89 457.611C538.499 367.578 560.155 242.875 650.188 179.484L645.41 172.697C551.655 238.708 529.094 368.634 595.105 462.389ZM623.924 442.097C678.737 519.946 786.656 538.687 864.505 483.875L859.728 477.09C785.6 529.282 682.902 511.448 630.71 437.32C578.517 363.192 596.351 260.495 670.479 208.303L665.702 201.518C587.853 256.33 569.112 364.248 623.924 442.097ZM652.744 421.806C696.357 483.749 782.271 498.669 844.214 455.056L839.436 448.269C781.213 489.263 700.523 475.251 659.529 417.028C618.536 358.806 632.548 278.115 690.77 237.122L685.993 230.337C624.05 273.95 609.13 359.862 652.744 421.806ZM681.49 401.566C713.956 447.677 777.862 458.774 823.973 426.308L819.196 419.523C776.879 449.318 718.122 439.179 688.275 396.789C658.429 354.398 668.62 295.714 711.01 265.868L706.233 259.083C660.122 291.549 649.024 355.455 681.49 401.566ZM710.31 381.275C731.577 411.48 773.476 418.756 803.682 397.489L798.905 390.704C772.42 409.352 735.742 402.982 717.095 376.497C698.447 350.013 704.817 313.336 731.302 294.689L726.524 287.902C696.318 309.169 689.042 351.069 710.31 381.275ZM739.056 361.035C749.176 375.408 769.069 378.863 783.443 368.743L778.665 361.958C768.086 369.407 753.341 366.91 745.841 356.257C738.341 345.605 740.889 330.935 751.542 323.435L746.763 316.648C732.39 326.768 728.936 346.662 739.056 361.035ZM83.0676 822.906C-47.3618 637.659 -2.77815 380.915 182.469 250.486L177.692 243.701C-11.2762 376.75 -56.7669 638.715 76.2824 827.683C209.332 1016.65 471.297 1062.14 660.265 929.092L655.488 922.307C470.241 1052.74 213.497 1008.15 83.0676 822.906ZM197.931 272.447C24.8688 394.298 -16.8731 634.308 105.029 807.443C226.931 980.579 466.89 1022.25 640.025 900.346L635.248 893.561C465.907 1012.79 231.096 972.08 111.866 802.739C-7.3651 633.397 33.3466 398.589 202.761 279.307L197.983 272.52L197.931 272.447ZM218.224 301.268C60.9935 411.971 23.145 629.922 133.848 787.152C244.551 944.382 462.504 982.23 619.734 871.527L614.957 864.742C461.448 972.825 248.717 935.884 140.633 782.375C32.5501 628.866 69.4916 416.136 223.001 308.053L218.224 301.268ZM238.463 330.014C97.1385 429.518 63.1118 625.463 162.616 766.788C262.121 908.112 458.067 942.139 599.392 842.635L594.613 835.848C457.01 932.733 266.286 899.614 169.401 762.01C72.517 624.407 105.637 433.683 243.24 336.799L238.463 330.014ZM258.754 358.833C133.262 447.19 103.057 621.129 191.414 746.621C279.771 872.113 453.71 902.317 579.202 813.96L574.425 807.175C452.727 892.861 283.937 863.615 198.199 741.843C112.462 620.072 141.76 451.355 263.531 365.618L258.754 358.833ZM279.045 387.652C169.459 464.81 143.075 616.743 220.233 726.33C297.392 835.916 449.324 862.299 558.911 785.141L554.134 778.356C448.268 852.895 301.557 827.418 227.019 721.552C152.481 615.686 177.957 468.975 283.822 394.437L279.045 387.652ZM299.285 416.398C205.604 482.358 182.969 612.335 248.98 706.09C314.991 799.844 444.917 822.406 538.671 756.395L533.894 749.61C443.934 812.95 319.156 791.345 255.765 701.312C192.374 611.279 214.03 486.576 304.063 423.185L299.285 416.398ZM319.577 445.219C241.728 500.031 222.987 607.949 277.799 685.798C332.612 763.647 440.531 782.388 518.38 727.576L513.603 720.791C439.475 772.983 336.777 755.149 284.585 681.021C232.392 606.893 250.226 504.196 324.354 452.004L319.577 445.219ZM339.868 474.038C277.925 517.651 263.005 603.564 306.619 665.507C350.232 727.451 436.146 742.37 498.089 698.757L493.311 691.97C435.088 732.964 354.398 718.952 313.404 660.73C272.411 602.507 286.423 521.816 344.645 480.823L339.868 474.038ZM360.108 502.784C313.997 535.25 302.899 599.156 335.365 645.267C367.831 691.378 431.737 702.475 477.848 670.009L473.071 663.224C430.754 693.019 371.997 682.88 342.151 640.49C312.305 598.099 322.495 539.415 364.885 509.569L360.108 502.784ZM385.177 538.39L380.399 531.603C350.193 552.87 342.917 594.77 364.185 624.976C385.452 655.181 427.352 662.457 457.557 641.19L452.78 634.405C426.296 653.053 389.617 646.683 370.97 620.198C352.323 593.714 358.693 557.037 385.177 538.39ZM437.266 612.371L432.489 605.586C421.91 613.035 407.165 610.538 399.665 599.885C392.165 589.233 394.713 574.563 405.365 567.063L400.588 560.278C386.215 570.398 382.76 590.29 392.88 604.663C403 619.036 422.893 622.491 437.266 612.371Z" fill="url(#paint0_linear_1079_3)"/>
<defs>
<linearGradient id="paint0_linear_1079_3" x1="607.937" y1="14.5436" x2="434.331" y2="1014.29" gradientUnits="userSpaceOnUse">
<stop stop-color="#D63278"/>
<stop offset="1" stop-color="#E9732E"/>
</linearGradient>
</defs>
</svg>
