<svg width="23" height="23" viewBox="0 0 23 23" fill="none" xmlns="http://www.w3.org/2000/svg">
<path d="M10.8984 1.57506L9.27148 0.218451C8.77219 -0.198031 8.01227 0.0065579 7.7882 0.615449L7.05753 2.60532C6.90165 3.03154 6.46324 3.28483 6.0151 3.20689L3.9278 2.844C3.28725 2.73196 2.73195 3.28971 2.84399 3.92783L3.20689 6.01511C3.28482 6.46082 3.03153 6.89921 2.60531 7.05752L0.61547 7.78819C0.00657892 8.01227 -0.19804 8.77217 0.218442 9.27146L1.57507 10.8984C1.8649 11.2467 1.8649 11.7533 1.57507 12.1016L0.218442 13.7285C-0.19804 14.2278 0.00657892 14.9877 0.61547 15.2118L2.60531 15.9425C3.03153 16.0983 3.28482 16.5367 3.20689 16.9849L2.84399 19.0722C2.73195 19.7127 3.28969 20.268 3.9278 20.156L6.0151 19.7931C6.46081 19.7152 6.89922 19.9685 7.05753 20.3947L7.7882 22.3845C8.01227 22.9934 8.77219 23.198 9.27148 22.7815L10.8984 21.4249C11.2467 21.1351 11.7533 21.1351 12.1016 21.4249L13.7286 22.7815C14.2279 23.198 14.9877 22.9934 15.2118 22.3845L15.9425 20.3947C16.0983 19.9685 16.5368 19.7152 16.9849 19.7931L19.0722 20.156C19.7128 20.268 20.268 19.7103 20.156 19.0722L19.7931 16.9849C19.7152 16.5392 19.9685 16.1008 20.3947 15.9425L22.3845 15.2118C22.9934 14.9877 23.198 14.2278 22.7816 13.7285L21.4249 12.1016C21.1351 11.7533 21.1351 11.2467 21.4249 10.8984L22.7816 9.27146C23.198 8.77217 22.9934 8.01227 22.3845 7.78819L20.3947 7.05752C19.9685 6.90165 19.7152 6.46325 19.7931 6.01511L20.156 3.92783C20.268 3.28727 19.7103 2.73196 19.0722 2.844L16.9849 3.20689C16.5392 3.28483 16.1008 3.03154 15.9425 2.60532L15.2118 0.615449C14.9877 0.0065579 14.2279 -0.198031 13.7286 0.218451L12.1016 1.57506C11.7533 1.8649 11.2467 1.8649 10.8984 1.57506Z" fill="url(#paint0_linear_544_289)"/>
<defs>
<linearGradient id="paint0_linear_544_289" x1="3.10703" y1="3.10216" x2="19.893" y2="19.8881" gradientUnits="userSpaceOnUse">
<stop stop-color="#E69A3F"/>
<stop offset="1" stop-color="#F5D247"/>
</linearGradient>
</defs>
</svg>
