<svg width="140" height="103" viewBox="0 0 140 103" fill="none" xmlns="http://www.w3.org/2000/svg">
<path d="M122.363 114.15C85.8528 42.3755 75.6564 -25.6992 99.5812 -37.8693C123.506 -50.0395 172.508 -1.73935 209.033 70.0626C245.557 141.865 255.739 209.912 231.814 222.082C207.889 234.253 158.888 185.952 122.363 114.15ZM209.033 70.0626C172.522 -1.71182 162.298 -69.7725 186.251 -81.9566C210.203 -94.1408 259.177 -45.8263 295.702 25.9757C332.226 97.7776 342.408 165.825 318.484 177.995C294.559 190.165 245.557 141.865 209.033 70.0626ZM275.276 148.58C295.25 168.293 308.634 172.054 314.031 169.309C319.427 166.564 324.254 153.504 320.097 125.78C315.955 98.0838 304.199 64.21 287.001 30.4014C269.803 -3.4072 249.348 -32.8557 229.402 -52.5133C209.429 -72.2261 196.045 -75.9877 190.649 -73.2427C185.253 -70.4978 180.425 -57.4375 184.581 -29.7136C188.724 -2.01716 200.479 31.8567 217.677 65.6653C234.875 99.4739 255.33 128.922 275.276 148.58ZM35.7219 158.223C-0.788525 86.4484 -10.9849 18.3737 12.9399 6.20359C36.8647 -5.96654 85.8664 42.3339 122.391 114.136C158.915 185.938 169.125 253.971 145.173 266.155C121.22 278.339 72.2463 230.025 35.7219 158.223ZM11.2847 58.4049C15.4273 86.1013 27.1828 119.975 44.3807 153.784C61.5785 187.592 82.0338 217.041 101.979 236.698C121.953 256.411 135.337 260.173 140.733 257.428C146.13 254.683 150.957 241.622 146.801 213.899C142.658 186.202 130.902 152.328 113.705 118.52C96.5068 84.7111 76.0515 55.2628 56.1059 35.6051C36.1323 15.8924 22.7475 12.131 17.3514 14.8759C11.9552 17.6208 7.12811 30.681 11.2847 58.4049Z" fill="url(#paint0_linear_341_3)"/>
<defs>
<linearGradient id="paint0_linear_341_3" x1="-3.04968" y1="37.1751" x2="334.418" y2="147.052" gradientUnits="userSpaceOnUse">
<stop stop-color="#E6483F"/>
<stop offset="1" stop-color="#E74BF6"/>
</linearGradient>
</defs>
</svg>
