<svg width="106" height="107" viewBox="0 0 106 107" fill="none" xmlns="http://www.w3.org/2000/svg">
<path d="M18.4562 20.6359C8.89048 41.7579 49.0517 39.0669 50.6183 73.4777C50.9501 81.9376 48.5539 90.5818 45.4206 98.2491C42.4901 106.838 31.3027 109.879 24.4647 103.852C18.9539 99.1338 18.3272 90.8398 23.0455 85.329C30.1783 76.9428 35.3942 67.8747 29.8465 57.6639C24.3356 46.1076 6.36543 34.1274 18.4562 20.6359ZM18.8432 20.8202C15.1201 38.5509 36.6658 39.9517 47.2268 47.1951C57.1428 53.2589 57.1613 63.7277 55.1707 74.5468C53.8253 81.6796 58.5251 88.536 65.6579 89.8814C74.597 91.6877 82.7621 83.449 81.0111 74.5468C79.8868 66.3634 77.6382 57.6455 73.1226 50.4942C54.5625 21.4837 21.1286 43.8775 18.8432 20.8018V20.8202ZM19.2855 20.7833C24.9254 37.9979 44.278 28.4323 57.0507 29.446C68.6808 29.7409 73.9155 38.8089 77.6201 49.1672C80.0346 56.0051 87.5357 59.5992 94.3737 57.2031C103.018 54.3095 105.967 43.0849 99.9952 36.247C94.9267 29.7224 88.6233 23.3084 81.1403 19.3642C50.5631 3.51344 32.8139 39.6383 19.2855 20.7833ZM19.6356 20.5437C33.1271 32.6345 45.1075 14.6827 56.6638 9.15334C66.8746 3.58715 75.9427 8.82158 84.3288 15.9544C89.8397 20.6728 98.1338 20.0461 102.852 14.5352C108.879 7.6973 105.838 -3.49034 97.249 -6.42088C89.6001 -9.53573 80.9376 -11.9502 72.4778 -11.6185C38.067 -10.0518 40.7576 30.1094 19.6356 20.5437ZM19.8016 20.1382C37.5323 23.8613 38.9332 2.31541 46.1766 -8.24559C52.2404 -18.1615 62.709 -18.1799 73.528 -16.1894C80.6608 -14.8439 87.5173 -19.5438 88.8628 -26.6767C90.669 -35.6157 82.4302 -43.7807 73.528 -42.0297C65.3446 -40.9054 56.6271 -38.6568 49.4758 -34.1412C20.4653 -15.5811 42.8589 17.8528 19.7832 20.1382H19.8016ZM19.7647 19.7144C36.9794 14.0744 27.4135 -5.27821 28.4272 -18.0509C28.7221 -29.6809 37.7901 -34.9153 48.1484 -38.62C54.9863 -41.0344 58.5806 -48.5359 56.1845 -55.3738C53.2909 -64.018 42.0666 -66.967 35.2287 -60.9953C28.7041 -55.9268 22.2898 -49.6233 18.3455 -42.1403C2.49479 -11.5632 38.6197 6.18595 19.7647 19.7144ZM19.5253 19.3642C31.6161 5.87262 13.6639 -6.10756 8.13462 -17.6638C2.56844 -27.8747 7.80321 -36.9428 14.936 -45.3289C19.6544 -50.8398 19.0277 -59.1338 13.5168 -63.8521C6.67888 -69.8791 -4.509 -66.8379 -7.43954 -58.2491C-10.5544 -50.6002 -12.969 -41.9376 -12.6372 -33.4777C-11.0706 0.933075 29.0911 -1.75784 19.5253 19.3642ZM19.1379 19.1798C22.861 1.44916 1.31525 0.0484009 -9.24575 -7.19501C-19.1617 -13.2588 -19.1802 -23.7277 -17.1896 -34.5467C-15.8442 -41.6795 -20.544 -48.5359 -27.6768 -49.8814C-36.6159 -51.6876 -44.781 -43.4489 -43.03 -34.5467C-41.9057 -26.3633 -39.6571 -17.6454 -35.1415 -10.4942C-16.5814 18.5163 16.8525 -3.87741 19.1379 19.1983V19.1798ZM18.714 19.2167C13.0741 2.00207 -6.27847 11.5678 -19.0512 10.5541C-30.6812 10.2592 -35.9155 1.19111 -39.6201 -9.16715C-42.0346 -16.0051 -49.5362 -19.5991 -56.3741 -17.2031C-65.0183 -14.3094 -67.9669 -3.08488 -61.9952 3.75304C-56.9267 10.2776 -50.6233 16.6917 -43.1403 20.6359C-12.5631 36.4866 5.18564 0.361702 18.714 19.2167ZM18.364 19.4747C4.87241 7.38396 -7.10794 25.3358 -18.6642 30.8651C-28.875 36.4313 -37.9427 31.1969 -46.3288 24.0641C-51.8397 19.3457 -60.1338 19.9724 -64.8521 25.4833C-70.8791 32.3212 -67.8379 43.5089 -59.249 46.4394C-51.6001 49.5543 -42.9376 51.9687 -34.4778 51.637C-0.0669708 50.0703 -2.75805 9.90902 18.364 19.4747ZM18.1799 19.8618C0.449226 16.1387 -0.951637 37.6846 -8.19505 48.2456C-14.2589 58.1615 -24.7279 58.18 -35.5469 56.1895C-42.6797 54.844 -49.5362 59.5439 -50.8817 66.6767C-52.6879 75.6157 -44.4491 83.7807 -35.5469 82.0298C-27.3635 80.9055 -18.6455 78.6569 -11.4943 74.1413C17.5162 55.5812 -4.87778 22.1472 18.1979 19.8618H18.1799ZM18.2164 20.2857C1.00175 25.9256 10.5676 45.2782 9.55386 58.0509C9.25896 69.681 0.190956 74.9154 -10.1673 78.62C-17.0052 81.0345 -20.5995 88.5359 -18.2034 95.3739C-15.3098 104.018 -4.08503 106.967 2.7529 100.995C9.2775 95.9268 15.6913 89.6234 19.6356 82.1404C35.4863 51.5632 -0.638618 33.8141 18.2164 20.2857Z" fill="url(#paint0_linear_725_842)"/>
<defs>
<linearGradient id="paint0_linear_725_842" x1="-43.3062" y1="-42.2878" x2="81.2878" y2="82.3062" gradientUnits="userSpaceOnUse">
<stop stop-color="#D63278"/>
<stop offset="1" stop-color="#E9732E"/>
</linearGradient>
</defs>
</svg>
