<svg width="194" height="949" viewBox="0 0 194 949" fill="none" xmlns="http://www.w3.org/2000/svg">
<path d="M-176.255 860.385C-143.019 836.929 -211.164 683.093 -328.578 516.724C-445.993 350.355 -568.108 234.608 -601.343 258.064C-634.579 281.52 -566.433 435.355 -449.018 601.724C-331.603 768.093 -209.49 883.841 -176.255 860.385ZM-439.002 594.655C-495.323 514.852 -541.99 435.594 -570.472 371.406C-603.702 296.426 -598.951 271.475 -594.294 268.188C-589.637 264.902 -564.534 268.783 -505.021 325.214C-454.085 373.555 -395.043 444.079 -338.722 523.883C-282.401 603.686 -235.733 682.944 -207.252 747.132C-174.022 822.112 -178.775 847.065 -183.432 850.351C-188.089 853.638 -213.19 849.755 -272.703 793.324C-323.638 744.983 -382.681 674.459 -439.002 594.655ZM-569.456 686.723C-686.826 520.418 -755.016 366.519 -721.781 343.063C-688.546 319.607 -566.433 435.355 -449.018 601.724C-331.603 768.093 -263.457 921.928 -296.692 945.384C-329.928 968.84 -452.041 853.092 -569.456 686.723ZM-328.578 516.724C-445.948 350.419 -514.139 196.52 -480.904 173.064C-447.668 149.608 -325.555 265.356 -208.14 431.725C-90.7256 598.093 -22.5795 751.929 -55.815 775.385C-89.0505 798.841 -211.164 683.093 -328.578 516.724ZM-87.6386 346.68C-205.008 180.375 -273.198 26.4753 -239.962 3.01936C-206.727 -20.4366 -84.614 95.3114 32.8009 261.68C150.216 428.049 218.362 581.884 185.126 605.34C151.891 628.796 29.7762 513.049 -87.6386 346.68ZM64.623 690.386C97.8584 666.93 29.7124 513.094 -87.7025 346.725C-205.117 180.357 -327.23 64.6088 -360.466 88.0647C-393.701 111.521 -325.555 265.356 -208.14 431.725C-90.7256 598.093 31.3875 713.842 64.623 690.386ZM-198.061 424.611C-254.382 344.808 -301.049 265.55 -329.53 201.362C-362.761 126.382 -358.009 101.43 -353.352 98.1435C-348.696 94.857 -323.593 98.7388 -264.08 155.17C-213.144 203.51 -154.102 274.035 -97.7805 353.838C-41.4592 433.641 5.20786 512.9 33.6891 577.088C66.9197 652.068 62.1664 677.02 57.5096 680.307C52.8528 683.593 27.7515 679.711 -31.7612 623.279C-82.6972 574.939 -141.74 504.414 -198.061 424.611Z" fill="url(#paint0_linear_754_205)"/>
<defs>
<linearGradient id="paint0_linear_754_205" x1="-735.773" y1="393.649" x2="199.1" y2="554.863" gradientUnits="userSpaceOnUse">
<stop stop-color="#E69A3F"/>
<stop offset="1" stop-color="#F5D247"/>
</linearGradient>
</defs>
</svg>
