<svg width="131" height="125" viewBox="0 0 131 125" fill="none" xmlns="http://www.w3.org/2000/svg">
<path d="M45.2621 124.613C44.5546 124.391 44.1243 123.684 44.2492 122.949L50.9907 82.2922L14.4124 101.268C13.7605 101.615 12.9558 101.421 12.5119 100.824C12.0819 100.228 12.1514 99.3955 12.6785 98.8822L42.03 69.9606L1.27605 63.8157C0.54087 63.7047 0 63.0805 0 62.3453C0 61.6102 0.54087 60.986 1.27605 60.875L42.03 54.73L12.6785 25.8085C12.1514 25.2953 12.0819 24.463 12.5119 23.8665C12.9419 23.27 13.7466 23.0758 14.4124 23.4226L50.9907 42.3985L44.2492 1.74185C44.1243 1.00668 44.5546 0.299224 45.2621 0.0772844C45.9695 -0.144656 46.7321 0.174437 47.0651 0.826386L65.5 37.6823L83.935 0.826386C84.2679 0.160566 85.0308 -0.158527 85.7383 0.0772844C86.4457 0.299224 86.8757 1.00668 86.7509 1.74185L80.0093 42.3985L116.588 23.4226C117.24 23.0758 118.044 23.27 118.488 23.8665C118.918 24.463 118.849 25.2953 118.322 25.8085L88.9704 54.73L129.724 60.875C130.459 60.986 131 61.6102 131 62.3453C131 63.0805 130.459 63.7186 129.724 63.8157L88.9704 69.9606L118.322 98.8822C118.849 99.3955 118.918 100.228 118.488 100.824C118.058 101.421 117.254 101.615 116.588 101.268L80.0093 82.2922L86.7509 122.949C86.8757 123.684 86.4457 124.391 85.7383 124.613C85.0308 124.835 84.2679 124.516 83.935 123.864L65.5 87.0085L47.0651 123.864C46.8015 124.378 46.2883 124.697 45.7335 124.697C45.5809 124.697 45.4285 124.669 45.276 124.627L45.2621 124.613ZM78.7193 78.2696L109.167 94.0689L84.7396 70.0023C84.3373 69.6 84.1986 69.0175 84.365 68.4765C84.5454 67.9355 85.0029 67.5471 85.5578 67.4638L119.473 62.3453L85.5578 57.2268C85.0029 57.1436 84.5315 56.7552 84.365 56.2143C84.1847 55.6733 84.3373 55.0907 84.7396 54.6885L109.167 30.6218L78.7193 46.4212C78.22 46.6847 77.6098 46.6292 77.1521 46.3102C76.6943 45.9773 76.4583 45.4086 76.5554 44.8537L82.1733 11.0217L66.8316 41.691C66.5819 42.1904 66.0687 42.5095 65.5 42.5095C64.9313 42.5095 64.4181 42.1904 64.1684 41.691L48.8267 11.0217L54.4447 44.8537C54.5418 45.4086 54.306 45.9773 53.8483 46.3102C53.3905 46.6431 52.78 46.6847 52.2807 46.4212L21.8333 30.6218L46.2608 54.6885C46.663 55.0907 46.8018 55.6733 46.6353 56.2143C46.455 56.7552 45.9971 57.1436 45.4422 57.2268L11.5271 62.3453L45.4422 67.4638C45.9971 67.5471 46.4688 67.9355 46.6353 68.4765C46.8156 69.0175 46.663 69.6 46.2608 70.0023L21.8333 94.0689L52.2807 78.2696C52.78 78.006 53.3905 78.0615 53.8483 78.3805C54.306 78.7134 54.5418 79.2821 54.4447 79.837L48.8267 113.669L64.1684 82.9996C64.4181 82.5003 64.9452 82.1812 65.5 82.1812C66.0549 82.1812 66.5819 82.5003 66.8316 82.9996L82.1733 113.669L76.5554 79.837C76.4583 79.2821 76.6943 78.7134 77.1521 78.3805C77.4156 78.1863 77.7206 78.0893 78.0258 78.0893C78.2616 78.0893 78.4974 78.1447 78.7193 78.2557V78.2696Z" fill="url(#paint0_linear_360_130)"/>
<defs>
<linearGradient id="paint0_linear_360_130" x1="19.7526" y1="16.598" x2="111.234" y2="108.079" gradientUnits="userSpaceOnUse">
<stop stop-color="#E69A3F"/>
<stop offset="1" stop-color="#F5D247"/>
</linearGradient>
</defs>
</svg>
