<svg width="124" height="115" viewBox="0 0 124 115" fill="none" xmlns="http://www.w3.org/2000/svg">
<path d="M114.778 0.344246C102.079 28.3855 155.396 24.813 157.476 70.4963C157.916 81.7275 154.735 93.2034 150.576 103.382C146.685 114.785 131.833 118.822 122.755 110.821C115.439 104.557 114.607 93.546 120.871 86.2299C130.34 75.0965 137.265 63.0578 129.9 49.5021C122.583 34.1602 98.7265 18.2554 114.778 0.344246ZM115.292 0.588951C110.349 24.128 138.953 25.9876 152.974 35.6038C166.138 43.6541 166.162 57.5524 163.52 71.9156C161.734 81.385 167.973 90.4874 177.442 92.2737C189.31 94.6716 200.15 83.734 197.825 71.9156C196.333 61.0514 193.347 49.4776 187.352 39.9837C162.712 1.46976 118.326 31.1994 115.292 0.564453V0.588951ZM115.879 0.539963C123.367 23.3938 149.059 10.6946 166.016 12.0403C181.455 12.4318 188.405 24.4705 193.323 38.222C196.529 47.2999 206.487 52.0714 215.565 48.8904C227.041 45.0488 230.956 30.1473 223.028 21.0694C216.299 12.4074 207.931 3.89222 197.997 -1.34411C157.403 -22.3873 133.839 25.5716 115.879 0.539963ZM116.344 0.221855C134.255 16.2734 150.16 -7.55921 165.502 -14.8999C179.058 -22.2895 191.096 -15.3403 202.23 -5.87086C209.546 0.393158 220.557 -0.438751 226.821 -7.75494C234.822 -16.8329 230.785 -31.6854 219.382 -35.576C209.228 -39.7112 197.728 -42.9166 186.496 -42.4762C140.813 -40.3964 144.385 12.9212 116.344 0.221855ZM116.564 -0.31646C140.103 4.62624 141.963 -23.9778 151.579 -37.9985C159.63 -51.1627 173.527 -51.1871 187.891 -48.5445C197.36 -46.7583 206.463 -52.9978 208.249 -62.4673C210.647 -74.3347 199.709 -85.1743 187.891 -82.8498C177.026 -81.3572 165.453 -78.372 155.959 -72.3771C117.445 -47.737 147.175 -3.35059 116.54 -0.31646H116.564ZM116.515 -0.879196C139.369 -8.36666 126.67 -34.059 128.015 -51.0159C128.407 -66.4557 140.446 -73.4048 154.197 -78.323C163.275 -81.5285 168.047 -91.4873 164.866 -100.565C161.024 -112.041 146.123 -115.956 137.045 -108.028C128.383 -101.299 119.867 -92.931 114.631 -82.9966C93.5879 -42.4028 141.547 -18.8393 116.515 -0.879196ZM116.197 -1.34411C132.249 -19.2553 108.416 -35.16 101.075 -50.502C93.6857 -64.0577 100.635 -76.0964 110.105 -87.2297C116.369 -94.5459 115.537 -105.557 108.221 -111.821C99.1426 -119.822 84.2898 -115.785 80.3992 -104.382C76.264 -94.2278 73.0584 -82.7275 73.4989 -71.4963C75.5787 -25.813 128.897 -29.3854 116.197 -1.34411ZM115.683 -1.58881C120.626 -25.1278 92.022 -26.9875 78.0013 -36.6037C64.8371 -44.654 64.8125 -58.5522 67.4551 -72.9154C69.2413 -82.3849 63.0019 -91.4873 53.5325 -93.2735C41.6651 -95.6715 30.8252 -84.7339 33.1498 -72.9154C34.6424 -62.0513 37.6276 -50.4776 43.6225 -40.9837C68.2626 -2.4697 112.649 -32.1993 115.683 -1.56432V-1.58881ZM115.12 -1.5399C107.633 -24.3938 81.9407 -11.6944 64.9837 -13.0402C49.5439 -13.4317 42.595 -25.4704 37.6768 -39.2219C34.4713 -48.2998 24.5123 -53.0712 15.4344 -49.8903C3.95849 -46.0487 0.0439555 -31.1471 7.97186 -22.0692C14.7008 -13.4072 23.0691 -4.89208 33.0034 0.344246C73.5972 21.3874 97.1602 -26.5715 115.12 -1.5399ZM114.656 -1.1973C96.7444 -17.2489 80.8395 6.58376 65.4975 13.9244C51.9418 21.314 39.9037 14.3649 28.7704 4.89541C21.4542 -1.36861 10.4431 -0.536621 4.17907 6.77956C-3.82224 15.8575 0.215213 30.7101 11.6177 34.6006C21.7723 38.7358 33.2725 41.9413 44.5037 41.5008C90.187 39.421 86.6143 -13.8966 114.656 -1.1973ZM114.411 -0.683479C90.8723 -5.62618 89.0125 22.9779 79.3962 36.9985C71.346 50.1627 57.4475 50.1873 43.0843 47.5446C33.6148 45.7584 24.5123 51.9979 22.726 61.4673C20.3281 73.3347 31.2658 84.1745 43.0843 81.8499C53.9484 80.3573 65.5223 77.3721 75.0162 71.3773C113.53 46.7372 83.8002 2.35065 114.435 -0.683479H114.411ZM114.46 -0.120667C91.6058 7.36679 104.305 33.059 102.959 50.0159C102.568 65.4558 90.5294 72.4049 76.7779 77.3232C67.7 80.5286 62.9283 90.4874 66.1092 99.5653C69.9508 111.041 84.8526 114.956 93.9306 107.028C102.593 100.299 111.107 91.9311 116.344 81.9967C137.387 41.4029 89.428 17.8394 114.46 -0.120667Z" fill="url(#paint0_linear_915_30)"/>
<defs>
<linearGradient id="paint0_linear_915_30" x1="32.7831" y1="-83.1924" x2="198.192" y2="82.2169" gradientUnits="userSpaceOnUse">
<stop stop-color="#D63278"/>
<stop offset="1" stop-color="#E9732E"/>
</linearGradient>
</defs>
</svg>
