<svg width="558" height="405" viewBox="0 0 558 405" fill="none" xmlns="http://www.w3.org/2000/svg">
<path d="M459.311 110.495C359.128 171.508 332.513 298.154 399.714 393.367L277.998 220.918L96.6867 331.339C-3.49605 392.352 -30.1118 518.999 37.0901 614.212C104.344 709.497 240.014 737.204 340.12 676.238C239.937 737.251 213.321 863.898 280.523 959.11C347.777 1054.4 483.447 1082.1 583.553 1021.14L764.864 910.715L643.147 738.265C710.401 833.551 846.071 861.258 946.177 800.292L1127.49 689.87L640.571 6.69659e-05L459.26 110.422L459.311 110.495ZM702.744 455.393C602.561 516.406 575.946 643.053 643.147 738.265L399.663 393.294C466.916 488.579 602.586 516.286 702.692 455.32L702.744 455.393Z" fill="url(#paint0_linear_864_264)"/>
<defs>
<linearGradient id="paint0_linear_864_264" x1="1136.35" y1="648.425" x2="14.1946" y2="412.007" gradientUnits="userSpaceOnUse">
<stop stop-color="#893DF5"/>
<stop offset="1" stop-color="#E6483F"/>
</linearGradient>
</defs>
</svg>
