<svg width="973" height="600" viewBox="0 0 973 600" fill="none" xmlns="http://www.w3.org/2000/svg">
<path d="M1451.9 289.55C1487.66 211.65 1221.49 -6.79853 857.132 -198.355C492.776 -389.911 168.545 -481.859 132.789 -403.959C97.0334 -326.059 363.204 -107.614 727.56 83.9419C1091.92 275.498 1416.15 367.45 1451.9 289.55ZM738.335 60.4662C563.562 -31.419 406.203 -132.151 295.06 -223.249C165.3 -329.703 149.783 -381.289 154.793 -392.204C159.803 -403.119 207.438 -421.509 365.474 -376.657C500.774 -338.191 671.446 -266.465 846.22 -174.579C1020.99 -82.6943 1178.35 18.0385 1289.5 109.136C1419.26 215.591 1434.77 267.18 1429.76 278.095C1424.75 289.01 1377.12 307.396 1219.08 262.545C1083.78 224.078 913.109 152.351 738.335 60.4662ZM597.99 366.235C233.774 174.752 -32.5369 -43.7658 3.21871 -121.666C38.9743 -199.566 363.204 -107.614 727.56 83.9419C1091.92 275.498 1358.09 493.943 1322.33 571.843C1286.58 649.743 962.346 557.791 597.99 366.235ZM857.132 -198.355C492.916 -389.837 226.605 -608.355 262.361 -686.255C298.116 -764.155 622.346 -672.203 986.702 -480.647C1351.06 -289.091 1617.23 -70.6464 1581.47 7.25382C1545.72 85.1539 1221.49 -6.79853 857.132 -198.355ZM1116.34 -763.09C752.125 -954.572 485.816 -1173.09 521.572 -1250.99C557.327 -1328.89 881.557 -1236.94 1245.91 -1045.39C1610.27 -853.83 1876.44 -635.385 1840.69 -557.485C1804.93 -479.585 1480.7 -571.534 1116.34 -763.09ZM1711.04 -275.039C1746.8 -352.939 1480.63 -571.384 1116.27 -762.94C751.917 -954.496 427.687 -1046.45 391.931 -968.548C356.176 -890.648 622.346 -672.203 986.702 -480.647C1351.06 -289.091 1675.29 -197.139 1711.04 -275.039ZM997.546 -504.273C822.773 -596.158 665.414 -696.89 554.271 -787.988C424.511 -894.442 408.994 -946.028 414.004 -956.943C419.014 -967.858 466.649 -986.248 624.684 -941.396C759.985 -902.93 930.657 -831.204 1105.43 -739.318C1280.2 -647.433 1437.56 -546.7 1548.71 -455.603C1678.47 -349.148 1693.98 -297.559 1688.97 -286.644C1683.96 -275.729 1636.33 -257.343 1478.29 -302.194C1342.99 -340.661 1172.32 -412.388 997.546 -504.273Z" fill="url(#paint0_linear_716_433)"/>
<defs>
<linearGradient id="paint0_linear_716_433" x1="27.0473" y1="-12.6267" x2="1840.95" y2="-590.972" gradientUnits="userSpaceOnUse">
<stop stop-color="#E69A3F"/>
<stop offset="1" stop-color="#F5D247"/>
</linearGradient>
</defs>
</svg>
