<svg width="594" height="333" viewBox="0 0 594 333" fill="none" xmlns="http://www.w3.org/2000/svg">
<path d="M608.582 -283.217L634.328 -258.076C480.492 -91.7341 482.954 168.08 639.67 321.109C796.387 474.138 1049.1 463.36 1202.87 297.088L1228.62 322.229C1060.86 503.623 785.246 515.378 614.277 348.432C443.307 181.485 440.693 -101.951 608.45 -283.345L608.582 -283.217ZM682.399 274.907C815.142 404.526 1029.07 395.401 1159.32 254.565L1133.58 229.424C1017.25 355.208 826.218 363.356 707.663 247.59C589.107 131.824 587.295 -64.6276 703.623 -190.412L677.876 -215.553C547.628 -74.7162 549.656 145.288 682.399 274.907ZM750.456 201.318C844.972 293.61 997.223 287.117 1089.96 186.838L1064.21 161.695C985.46 246.852 855.982 252.375 775.719 174.001C695.456 95.6264 694.228 -37.5266 772.983 -122.684L747.235 -147.826C654.495 -47.5471 655.94 109.026 750.456 201.318ZM818.512 127.729C874.801 182.694 965.436 178.761 1020.6 119.11L994.856 93.9688C953.61 138.568 885.812 141.459 843.776 100.412C801.739 59.3647 801.097 -10.356 842.343 -54.9554L816.595 -80.0978C761.364 -20.3765 762.289 72.8285 818.512 127.729ZM886.569 54.1401C904.565 71.7135 933.65 70.5396 951.373 51.3758L925.626 26.2349C921.888 30.2768 915.707 30.6069 911.832 26.8229C907.957 23.0389 907.898 16.7488 911.701 12.6373L885.954 -12.5036C868.296 6.59053 868.506 36.5027 886.569 54.1401ZM0.132965 374.694L25.8797 399.835C179.716 233.493 432.362 222.784 589.079 375.813C745.796 528.842 748.193 788.726 594.421 954.998L620.168 980.139C787.925 798.745 785.311 515.309 614.341 348.362C443.372 181.415 167.758 193.171 0.00147742 374.565L0.132965 374.694ZM69.4275 442.358L95.1742 467.499C211.502 341.715 402.532 333.567 521.087 449.332C639.643 565.098 641.454 761.55 525.127 887.334L550.873 912.475C681.122 771.639 679.093 551.635 546.351 422.015C413.608 292.396 199.676 301.521 69.4275 442.358ZM138.786 510.085L164.535 535.227C243.289 450.07 372.767 444.547 453.031 522.921C533.294 601.296 534.521 734.449 455.766 819.606L481.515 844.748C574.255 744.47 572.81 587.896 478.294 495.604C383.778 403.312 231.526 409.806 138.786 510.085ZM208.147 577.813L233.895 602.955C275.141 558.356 342.938 555.463 384.974 596.51C427.01 637.558 427.654 707.28 386.408 751.879L412.154 777.02C467.386 717.299 466.461 624.094 410.237 569.193C354.014 514.293 263.314 518.161 208.147 577.813ZM277.507 645.541L303.254 670.682C306.992 666.64 313.172 666.31 317.048 670.094C320.923 673.878 320.981 680.168 317.179 684.279L342.926 709.42C360.584 690.326 360.374 660.414 342.311 642.777C324.249 625.139 295.23 626.377 277.507 645.541Z" fill="url(#paint0_linear_915_163)"/>
<defs>
<linearGradient id="paint0_linear_915_163" x1="620.234" y1="980.203" x2="566.422" y2="-281.419" gradientUnits="userSpaceOnUse">
<stop stop-color="#B04264"/>
<stop offset="1" stop-color="#20276D"/>
</linearGradient>
</defs>
</svg>
