<svg width="119" height="119" viewBox="0 0 119 119" fill="none" xmlns="http://www.w3.org/2000/svg">
<path d="M26.5022 106.821C32.4555 105.032 37.3454 101.043 40.297 95.5773C43.2361 90.1118 43.8867 83.8209 42.0982 77.8801L43.9868 77.3173C45.9253 83.7709 45.2249 90.5871 42.0356 96.5153C38.8464 102.444 33.531 106.771 27.0775 108.709L26.5145 106.821H26.5022ZM32.3428 111.736C38.5587 109.147 43.3988 104.295 45.9627 98.0662C48.5266 91.8378 48.5265 84.984 45.9376 78.7681L44.1117 79.531C46.5005 85.2592 46.5005 91.5876 44.1367 97.3158C41.7729 103.056 37.3079 107.534 31.5798 109.91L32.3428 111.736ZM37.9083 114.2C50.1275 107.571 54.6801 92.238 48.039 80.0063L46.3004 80.9443C52.4162 92.213 48.2265 106.346 36.9578 112.462L37.8958 114.2H37.9083ZM43.6866 116.076C49.2397 112.274 52.9916 106.533 54.2298 99.9172C55.468 93.301 54.0548 86.5849 50.2527 81.0318L48.6268 82.145C52.1287 87.2728 53.4293 93.4512 52.2912 99.5545C51.1531 105.658 47.7012 110.948 42.5733 114.45L43.6866 116.076ZM49.6274 117.352C54.7677 112.999 57.8942 106.896 58.457 100.192C59.0198 93.4886 56.9187 86.9476 52.5663 81.8198L51.0655 83.0955C55.0802 87.8356 57.0064 93.8513 56.5061 100.03C55.9934 106.221 53.1043 111.836 48.3767 115.851L49.6521 117.352H49.6274ZM55.6805 118.015C65.3108 107.984 64.9733 91.9879 54.9428 82.3576L53.5794 83.7833C62.8345 92.6507 63.1347 107.396 54.2674 116.651L55.693 118.015H55.6805ZM61.759 118.04C65.8987 112.724 67.712 106.121 66.8866 99.4294C66.0486 92.7508 62.6719 86.785 57.3565 82.6452L56.1434 84.1961C61.0461 88.0107 64.1603 93.5012 64.9232 99.6671C65.6861 105.833 64.0102 111.924 60.1956 116.814L61.7464 118.027L61.759 118.04ZM67.8121 117.452C75.1786 105.658 71.5893 90.0743 59.7953 82.7078L58.7446 84.3837C69.6131 91.1749 72.9276 105.545 66.1364 116.414L67.8121 117.464V117.452ZM73.7654 116.239C76.7295 110.185 77.1547 103.344 74.9785 96.9781C72.8023 90.5996 68.2624 85.4593 62.2216 82.4951L61.3587 84.2711C66.9367 86.9976 71.1139 91.7377 73.1275 97.6159C75.1411 103.494 74.741 109.798 72.0145 115.376L73.7904 116.239H73.7654ZM79.5687 114.413C81.895 108.097 81.6197 101.243 78.7931 95.1271C75.9666 89.0112 70.9265 84.3587 64.6106 82.0449L63.9351 83.8959C69.7633 86.0346 74.4033 90.3244 77.0047 95.965C79.6062 101.606 79.8564 107.909 77.7177 113.737L79.5687 114.413ZM85.1592 112.011C86.8226 105.483 85.8472 98.704 82.4078 92.9133C78.9684 87.1227 73.4778 83.0204 66.9492 81.357L66.4615 83.2706C72.4773 84.8089 77.5425 88.586 80.7067 93.9264C83.8709 99.2668 84.7715 105.52 83.2456 111.536L85.1592 112.024V112.011ZM90.4621 109.047C91.4501 102.381 89.7742 95.7399 85.7595 90.3244C81.7448 84.9215 75.8666 81.3945 69.2005 80.419L68.9128 82.3701C75.0537 83.2831 80.4816 86.5224 84.1836 91.5001C87.8857 96.4903 89.424 102.606 88.5235 108.76L90.4746 109.047H90.4621ZM95.4398 105.545C96.0401 91.6501 85.2342 79.8562 71.3516 79.2559L71.264 81.2195C84.071 81.7823 94.0265 92.6507 93.4762 105.458L95.4398 105.545ZM98.0538 101.681L100.017 101.568C99.1917 87.6855 87.2229 77.0672 73.3528 77.8926L73.4652 79.8562C86.2597 79.0933 97.2909 88.8861 98.0538 101.681ZM102.231 97.4408L104.182 97.1282C101.931 83.4081 88.9363 74.078 75.2163 76.3168L75.529 78.2678C88.1734 76.1917 100.155 84.7964 102.231 97.4408ZM105.945 92.7883L107.846 92.2755C104.195 78.8557 90.3119 70.9138 76.9046 74.5533L77.4176 76.4544C89.7868 73.09 102.581 80.419 105.945 92.7883ZM109.172 87.7855L111.011 87.0726C106.008 74.1031 91.3752 67.6245 78.4056 72.6273L79.1183 74.4657C91.0749 69.8507 104.557 75.8165 109.172 87.773V87.7855ZM111.861 82.4826L113.612 81.5821C110.548 75.5788 105.345 71.1264 98.9293 69.0503C92.5258 66.9741 85.6969 67.5119 79.6936 70.5636L80.5943 72.3146C86.1224 69.5005 92.4257 69.0002 98.329 70.9138C104.232 72.8273 109.035 76.9296 111.861 82.4701V82.4826ZM113.988 76.9171L115.638 75.8415C111.974 70.1884 106.333 66.2988 99.7546 64.8855C93.1635 63.4722 86.4224 64.7104 80.7693 68.3749L81.845 70.0258C87.0604 66.649 93.2763 65.5108 99.3421 66.8115C105.408 68.1123 110.611 71.7017 113.988 76.9046V76.9171ZM115.538 71.1765L117.077 69.9383C108.359 59.1073 92.4631 57.3814 81.6197 66.0987L82.8578 67.637C92.8508 59.6076 107.509 61.196 115.538 71.1765ZM116.489 65.2982L117.89 63.91C113.149 59.1199 106.834 56.4684 100.092 56.4309C93.3761 56.4059 87.0101 58.9948 82.22 63.7224L83.6084 65.1232C87.9858 60.7833 93.789 58.3945 99.9549 58.3945C99.9924 58.3945 100.03 58.3945 100.067 58.3945C106.271 58.4195 112.099 60.8708 116.464 65.2857L116.489 65.2982ZM84.1085 62.5717C92.238 52.6663 106.921 51.228 116.827 59.3575L118.077 57.8316C107.334 49.0143 91.4126 50.5777 82.5827 61.3211L84.1085 62.5717ZM84.3339 59.9828C87.7607 54.805 93.0009 51.2656 99.0792 50.0274C105.158 48.7892 111.361 49.9898 116.539 53.4167L117.627 51.7783C106.033 44.1116 90.3621 47.3009 82.6829 58.8947L84.3214 59.9828H84.3339ZM84.2963 57.3689C87.1729 51.8659 92.0129 47.8137 97.9412 45.9501C103.869 44.0866 110.16 44.6494 115.663 47.526L116.576 45.7751C110.61 42.6609 103.782 42.048 97.3534 44.0616C90.9249 46.0752 85.6719 50.4776 82.5577 56.4434L84.3088 57.3564L84.2963 57.3689ZM83.9962 54.78C88.7363 42.8734 102.269 37.0327 114.188 41.7603L114.913 39.9343C101.993 34.794 87.2977 41.135 82.1699 54.0546L83.9962 54.78ZM83.4206 52.2411C86.91 39.9093 99.7798 32.7054 112.112 36.1948L112.649 34.2937C99.2669 30.5167 85.3094 38.321 81.5324 51.7033L83.4331 52.2411H83.4206ZM82.5953 49.7647C84.7965 37.1328 96.8531 28.6532 109.485 30.8544L109.823 28.9158C103.182 27.7652 96.5028 29.2535 90.9873 33.1306C85.4843 37.0077 81.8073 42.7984 80.6566 49.427L82.5953 49.7647ZM81.5073 47.3884C82.3953 34.6064 93.5137 24.9261 106.308 25.8141L106.446 23.8506C92.5758 22.8875 80.5067 33.3932 79.5437 47.2633L81.5073 47.4009V47.3884ZM78.2304 45.1997L80.2066 45.1372C79.9939 38.9338 82.2202 33.0181 86.46 28.4781C90.6998 23.9381 96.4529 21.3242 102.656 21.124L102.594 19.148C95.865 19.3731 89.624 22.2122 85.0215 27.1273C80.419 32.0425 78.0178 38.4585 78.2429 45.1997H78.2304ZM76.7046 43.2987L78.6557 43.0361C77.8053 36.8827 79.4059 30.7793 83.158 25.8266C86.9101 20.8739 92.3631 17.6847 98.5164 16.8467L98.2538 14.8956C91.5877 15.8086 85.6719 19.273 81.5946 24.6385C77.5299 30.0039 75.7916 36.6326 76.7046 43.3112V43.2987ZM74.991 41.5727L76.9046 41.11C73.8654 28.6657 81.5198 16.0588 93.9641 13.0071L93.5012 11.0936C79.9938 14.3954 71.6892 28.0653 74.991 41.5727ZM73.1024 40.0219L74.9537 39.359C70.6514 27.2899 76.9674 13.9576 89.0365 9.65527L88.3736 7.80426C75.2789 12.4818 68.4249 26.9272 73.1024 40.0219ZM71.0765 38.6711L72.8524 37.8207C67.3243 26.2519 72.2395 12.3568 83.8084 6.82873L82.958 5.05276C70.4136 11.0435 65.0857 26.1268 71.0765 38.6711ZM68.9128 37.5455L70.5889 36.52C63.9102 25.589 67.362 11.2436 78.293 4.56499L77.2673 2.88908C65.3983 10.143 61.6589 25.6891 68.9003 37.5581L68.9128 37.5455ZM66.649 36.645L68.2124 35.4444C64.4478 30.5042 62.8346 24.4009 63.66 18.2475C64.4855 12.0941 67.6621 6.62862 72.6023 2.86406L71.4017 1.3007C66.0488 5.39044 62.6094 11.3062 61.7089 17.9848C60.8084 24.6635 62.5718 31.2796 66.649 36.645ZM64.3104 35.9697L65.7486 34.6189C56.9688 25.2763 57.4191 10.5433 66.7617 1.76345L65.4109 0.325171C55.2803 9.85539 54.7927 25.8391 64.3104 35.9697ZM61.9089 35.5569L63.1971 34.0686C58.5071 30.0039 55.6682 24.3633 55.2179 18.1724C54.7677 11.9816 56.7562 5.97827 60.8209 1.2882L59.3327 0C54.9303 5.09029 52.7665 11.5938 53.2542 18.3225C53.742 25.0387 56.8186 31.1671 61.9089 35.5695V35.5569ZM59.4826 35.3818L60.6081 33.7685C55.5178 30.2165 52.1161 24.8886 51.0405 18.7727C49.9524 12.6569 51.3157 6.49105 54.8802 1.40076L53.2668 0.275133C49.4021 5.79065 47.9262 12.4818 49.1019 19.1229C50.2775 25.7516 53.9671 31.5297 59.4826 35.3944V35.3818ZM57.0439 35.4569L58.0069 33.731C52.5789 30.7168 48.6517 25.7641 46.9507 19.7983C45.2498 13.8326 45.9629 7.55413 48.977 2.12616L47.2509 1.16313C43.9741 7.05385 43.1987 13.8576 45.0497 20.3361C46.9007 26.8146 51.1656 32.1801 57.0439 35.4569ZM54.6301 35.7946L55.4054 33.9811C43.6239 28.9408 38.1334 15.2583 43.1737 3.46438L41.3602 2.68896C35.8947 15.471 41.8481 30.3166 54.6301 35.7821V35.7946ZM52.2536 36.3699L52.8414 34.4814C46.9132 32.6429 42.0606 28.6032 39.159 23.1001C36.2699 17.6096 35.6945 11.3187 37.5331 5.39045L35.6445 4.80262C33.6434 11.2311 34.269 18.0599 37.4082 24.0256C40.5474 29.9914 45.8126 34.3688 52.2411 36.3699H52.2536ZM49.9648 37.1828L50.3526 35.2443C44.2617 34.0186 39.0213 30.5042 35.5819 25.3388C32.1425 20.1735 30.9169 13.9701 32.1425 7.8793L30.2042 7.49159C28.8785 14.0952 30.2042 20.8239 33.9312 26.427C37.6583 32.03 43.3612 35.8571 49.9648 37.1828ZM47.7639 38.2334L47.9514 36.2699C35.1944 35.0567 25.8017 23.688 27.0149 10.9185L25.0512 10.7309C23.7255 24.5759 33.9188 36.9077 47.7639 38.2209V38.2334ZM45.475 39.4966C45.5376 39.4966 45.6125 39.4966 45.675 39.4966V37.5205C45.6 37.5205 45.5376 37.5205 45.475 37.5205C32.7431 37.5205 22.3373 27.2149 22.2372 14.4579H20.261C20.3736 28.303 31.6675 39.4841 45.475 39.4841V39.4966ZM40.8973 41.135C41.8353 41.135 42.7859 41.085 43.7364 40.9724L43.5239 39.0089C37.358 39.6967 31.2798 37.9332 26.4396 34.0561C21.587 30.179 18.5352 24.651 17.8598 18.4726L15.8962 18.6852C16.6466 25.3764 19.9486 31.3797 25.214 35.582C29.729 39.1964 35.2192 41.11 40.9098 41.11L40.8973 41.135ZM36.5575 43.2237C38.3585 43.2237 40.1595 43.036 41.9605 42.6358L41.5477 40.7098C35.4819 42.023 29.266 40.9099 24.0381 37.5455C18.8103 34.1937 15.2085 28.9909 13.8952 22.925L11.9691 23.3378C13.3949 29.9164 17.3096 35.5444 22.9752 39.1964C27.09 41.8479 31.7799 43.2111 36.5575 43.2111V43.2237ZM32.4802 45.75C35.1192 45.75 37.7832 45.3248 40.3596 44.4869L39.7468 42.6108C33.8436 44.5494 27.5527 44.0616 22.0122 41.2601C16.4716 38.4585 12.3569 33.6684 10.4183 27.7652L8.54227 28.378C10.6434 34.7815 15.1084 39.9719 21.1117 43.0235C24.6887 44.837 28.5656 45.75 32.4677 45.75H32.4802ZM28.7282 48.6641C32.1551 48.6641 35.6447 47.9638 38.9715 46.4754L38.1709 44.6745C26.4645 49.9023 12.6944 44.6244 7.46655 32.9305L5.66564 33.731C9.84292 43.0986 19.0729 48.6641 28.7282 48.6641ZM25.2265 51.991C29.5914 51.991 33.8935 50.8528 37.7831 48.6141L36.7953 46.9007C31.4174 50.0024 25.1514 50.8278 19.1606 49.2144C13.1698 47.6011 8.15451 43.7489 5.05281 38.371L3.33954 39.359C6.70388 45.1997 12.1318 49.3645 18.6479 51.1155C20.8241 51.7033 23.0378 51.991 25.2265 51.991ZM22.0998 55.6304C27.3652 55.6304 32.468 53.992 36.8204 50.8403L35.6695 49.2394C30.6418 52.8789 24.4886 54.3422 18.3603 53.3542C12.2319 52.3662 6.85384 49.0518 3.21434 44.0241L1.61343 45.1747C5.5656 50.6277 11.394 54.2297 18.0476 55.2928C19.3983 55.5054 20.7616 55.6179 22.0998 55.6179V55.6304ZM19.3108 59.5701C25.2891 59.5701 31.2923 57.4564 36.0949 53.1791L34.7816 51.7033C30.1541 55.8431 24.1884 57.9192 17.985 57.569C11.7816 57.2188 6.09092 54.4798 1.96366 49.8398L0.487938 51.153C5.46566 56.7185 12.3695 59.5576 19.3108 59.5576V59.5701ZM16.9468 63.7974C17.3471 63.7974 17.7472 63.7974 18.1474 63.7724C24.8761 63.4597 31.0795 60.5456 35.6195 55.5679L34.1563 54.2422C29.979 58.8322 24.251 61.5211 18.0601 61.8088C11.8567 62.0965 5.91581 59.9578 1.3258 55.768L0 57.2313C4.67756 61.4961 10.6684 63.8099 16.9594 63.8099L16.9468 63.7974ZM15.0583 68.2123C22.8 68.2123 30.4417 64.6729 35.3819 57.9817L33.7935 56.8061C26.1769 67.1242 11.6064 69.3129 1.28824 61.7088L0.112672 63.2971C4.60263 66.6114 9.85544 68.2123 15.0583 68.2123ZM13.6326 72.8399C15.7463 72.8399 17.8722 72.5772 19.9734 72.0269C26.4895 70.3385 31.9676 66.2237 35.3944 60.4206L33.6937 59.42C27.1776 70.4635 12.9071 74.1406 1.86351 67.637L0.863204 69.338C4.79035 71.6517 9.18021 72.8399 13.6326 72.8399ZM12.7071 77.5549C22.2624 77.5549 31.4297 72.0895 35.6695 62.8469L33.8812 62.0214C28.5407 73.6778 14.7205 78.8056 3.06412 73.4652L2.23877 75.2537C5.62813 76.8045 9.19273 77.5424 12.7071 77.5424V77.5549ZM12.3194 82.3576C16.134 82.3576 19.9359 81.4821 23.4629 79.7436C29.5037 76.767 34.0188 71.6017 36.1825 65.2232L34.319 64.5853C32.3304 70.4635 28.1655 75.2162 22.6 77.9677C17.0344 80.7192 10.731 81.1319 4.85281 79.1433L4.21495 81.0068C6.8664 81.9073 9.60539 82.3576 12.3319 82.3576H12.3194ZM12.3444 87.1602C23.8507 87.1602 34.2688 79.2184 36.9328 67.537L35.0066 67.0992C32.1676 79.5936 19.6858 87.4479 7.17892 84.6088L6.74136 86.5349C8.61739 86.9601 10.4934 87.1727 12.3444 87.1727V87.1602ZM12.9447 91.9503C18.5478 91.9503 23.9631 90.0868 28.4406 86.5849C33.7435 82.4326 37.1079 76.4668 37.9208 69.7757L35.9697 69.5381C34.4188 82.2575 22.8251 91.35 10.0931 89.8117L9.85555 91.7627C10.8936 91.8878 11.9191 91.9503 12.9447 91.9503ZM13.9328 96.6529C27.6278 96.6529 38.8963 85.6343 39.134 71.8893L37.1578 71.8518C36.9327 84.6713 26.3145 94.9019 13.5075 94.6768L13.4699 96.6529C13.62 96.6529 13.7702 96.6529 13.9203 96.6529H13.9328ZM17.5847 101.13C24.3009 100.555 30.3791 97.4033 34.719 92.2505C39.0589 87.0976 41.1352 80.5691 40.5599 73.8529L38.5963 74.0155C39.1215 80.2064 37.2079 86.2222 33.2057 90.9748C29.2035 95.7274 23.6006 98.629 17.4097 99.1543L17.5722 101.118L17.5847 101.13ZM22.1248 105.17C28.741 103.907 34.469 100.155 38.2585 94.5768C42.0481 89.0112 43.4362 82.295 42.173 75.6789L40.2347 76.0416C41.3979 82.1449 40.1095 88.3233 36.6201 93.4636C33.1307 98.5914 27.8529 102.068 21.7496 103.231L22.1123 105.17H22.1248Z" fill="url(#paint0_linear_544_263)"/>
<defs>
<linearGradient id="paint0_linear_544_263" x1="17.2595" y1="17.3345" x2="100.755" y2="100.818" gradientUnits="userSpaceOnUse">
<stop stop-color="#893DF5"/>
<stop offset="1" stop-color="#E6483F"/>
</linearGradient>
</defs>
</svg>
