<svg width="979" height="295" viewBox="0 0 979 295" fill="none" xmlns="http://www.w3.org/2000/svg">
<path d="M147.249 824.543C198.523 819.708 244.744 795.259 277.621 755.666C310.397 716.052 325.926 666.006 321.07 614.833L337.328 613.336C342.568 668.919 325.779 723.151 290.218 766.117C254.656 809.083 204.43 835.582 148.847 840.822L147.348 824.563L147.249 824.543ZM186.693 873.983C241.404 863.073 288.624 831.533 319.594 785.11C350.564 738.687 361.724 683.009 350.814 628.298L334.738 631.523C344.817 681.946 334.513 733.356 305.983 776.041C277.433 818.827 233.87 847.93 183.467 857.907L186.693 873.983ZM227.893 903.061C337.951 869.108 399.902 751.958 365.869 641.778L350.217 646.567C381.552 748.069 324.503 856.056 223.002 887.39L227.791 903.04L227.893 903.061ZM271.779 927.71C323.081 905.865 362.908 865.339 383.74 813.608C404.572 761.877 404.027 705.016 382.182 653.714L367.161 660.109C387.26 707.468 387.766 759.777 368.582 807.505C349.398 855.234 312.741 892.59 265.383 912.689L271.779 927.71ZM317.963 947.746C366.808 920.759 402.144 876.268 417.632 822.726C433.12 769.185 426.702 712.626 399.694 663.882L385.425 671.802C410.321 716.846 416.173 768.853 402.049 818.229C387.802 867.687 355.189 908.602 310.246 933.518L318.163 947.787L317.963 947.746ZM366.057 962.987C460.622 897.184 483.928 766.687 418.124 672.121L404.727 681.483C465.473 768.589 443.902 888.866 356.797 949.612L366.158 963.008L366.057 962.987ZM415.395 973.088C457.68 936.649 483.164 885.956 487.353 830.255C491.421 774.635 473.704 720.673 437.264 678.388L424.884 689.011C458.5 727.983 474.859 777.657 471.017 828.988C467.175 880.32 443.642 927.071 404.691 960.586L415.314 972.966L415.395 973.088ZM465.526 978.169C544.573 894.354 540.789 761.914 456.974 682.867L445.71 694.771C522.943 767.638 526.47 889.774 453.603 967.008L465.506 978.271L465.526 978.169ZM515.864 978.008C549.8 933.659 564.394 878.775 557.081 823.517C549.788 768.157 521.277 719.006 477.03 685.09L467.129 698.113C508.003 729.345 534.219 774.653 541.005 825.685C547.792 876.716 534.278 927.272 503.046 968.146L516.067 978.049L515.864 978.008ZM565.981 972.623C595.164 925.103 604.087 868.977 591.084 814.691C578.08 760.406 544.712 714.404 497.171 685.323L488.67 699.26C532.534 726.124 563.242 768.528 575.191 818.586C587.139 868.645 578.908 920.259 552.044 964.123L565.981 972.623ZM615.307 962.219C639.451 911.892 642.564 855.235 624.052 802.594C605.541 749.952 567.617 707.686 517.289 683.543L510.212 698.294C556.577 720.586 591.575 759.518 608.584 808.054C625.593 856.59 622.726 908.857 600.536 955.242L615.287 962.321L615.307 962.219ZM663.212 946.774C682.093 894.23 679.293 837.551 655.496 787.02C631.68 736.591 589.67 698.368 537.105 679.588L531.592 694.97C579.991 712.386 618.812 747.539 640.78 794.005C662.729 840.571 665.267 892.759 647.932 941.281L663.314 946.795L663.212 946.774ZM709.352 926.431C736.854 814.529 668.274 701.124 556.474 673.642L552.565 689.451C655.689 714.877 718.866 819.379 693.542 922.523L709.352 926.431ZM736.88 899.293L753.013 901.575C768.912 787.454 688.971 681.705 574.951 665.826L572.667 681.961C677.847 696.596 751.516 794.112 736.88 899.293ZM777.717 871.652L794.077 872.289C798.129 757.166 707.758 660.212 592.656 656.059L592.019 672.418C698.119 676.141 781.44 765.552 777.717 871.652ZM815.468 839.904L831.747 838.834C823.931 723.869 724.085 636.747 609.242 644.482L610.314 660.761C716.276 653.571 808.278 733.942 815.468 839.904ZM849.828 804.518L865.924 801.72C846.402 688.214 738.079 611.758 624.572 631.28L627.368 647.375C732.014 629.353 831.826 699.771 849.848 804.416L849.828 804.518ZM880.309 765.818L895.998 761.353C880.881 707.595 845.865 662.953 797.124 635.64C748.484 608.348 692.133 601.597 638.395 616.612L642.862 632.304C692.352 618.445 744.373 624.644 789.213 649.801C834.053 674.959 866.389 716.104 880.329 765.716L880.309 765.818ZM906.643 724.067L921.804 718.017C901.239 666.126 861.751 625.344 810.61 603.151C759.367 580.938 702.589 580.019 650.698 600.584L656.749 615.747C704.615 596.807 756.964 597.682 804.123 618.126C851.282 638.569 887.703 676.201 906.663 723.965L906.643 724.067ZM928.589 679.957L943.102 672.403C889.922 570.222 763.595 530.317 661.313 583.477L668.866 597.99C763.12 549.034 879.612 585.805 928.589 679.957ZM945.882 633.752L959.521 624.755C928.813 578.124 881.822 546.3 827.12 535.018C772.601 523.879 716.67 534.545 670.059 565.15L679.057 578.791C721.684 550.663 772.717 540.706 822.807 550.746C823.112 550.807 823.415 550.868 823.72 550.929C874.073 561.233 917.429 590.637 945.699 633.61L945.882 633.752ZM687.274 558.878C769.444 491.647 891.068 503.872 958.299 586.042L970.943 575.683C898.025 486.56 766.14 473.336 676.916 546.234L687.274 558.878ZM693.32 538.214C729.59 501.731 777.922 481.51 829.317 481.349C880.711 481.188 929.152 501.043 965.636 537.313L977.141 525.774C895.441 444.614 762.942 445.006 681.68 526.686L693.219 538.193L693.32 538.214ZM697.272 516.918C729.6 476.897 775.518 451.859 826.711 446.374C877.904 440.888 928.093 455.704 968.113 488.032L978.381 475.295C934.988 440.282 880.513 424.184 825.011 430.075C769.509 435.965 719.667 463.175 684.655 506.568L697.394 516.836L697.272 516.918ZM699.049 495.397C756.943 406.391 876.385 380.978 965.513 438.791L974.38 425.139C877.796 362.344 748.088 389.926 685.394 486.531L699.049 495.397ZM698.507 473.835C746.934 379.338 863.214 341.772 957.711 390.198L965.174 375.63C862.611 323.156 736.517 363.828 684.043 466.392L698.609 473.856L698.507 473.835ZM695.835 452.374C734.285 353.341 846.036 304.087 945.069 342.537L950.969 327.339C898.893 307.178 842.213 308.394 791.094 330.909C740.076 353.445 700.776 394.499 680.636 446.474L695.835 452.374ZM690.866 431.298C718.893 328.908 824.977 268.372 927.469 296.419L931.785 280.692C820.677 250.284 705.525 315.977 675.117 427.085L690.845 431.4L690.866 431.298ZM667.809 408.182L683.965 410.892C692.338 360.152 720.056 315.719 761.891 285.742C803.727 255.764 854.719 243.897 905.439 252.372L908.148 236.218C853.12 227.09 797.798 239.991 752.405 272.427C707.012 304.862 677.059 353.073 667.911 408.203L667.809 408.182ZM658.509 390.255L674.787 391.298C677.898 339.925 700.84 292.95 739.385 258.826C777.929 224.701 827.421 207.672 878.773 210.884L879.817 194.606C824.177 191.169 770.478 209.68 728.619 246.628C686.862 283.596 661.947 334.614 658.489 390.356L658.509 390.255ZM647.399 373.443L663.698 372.8C659.272 266.758 741.981 176.807 848.044 172.28L847.399 155.981C732.293 160.81 642.57 258.337 647.399 373.443ZM634.582 357.77L650.701 355.399C635.402 250.348 708.42 152.325 813.471 137.027L811.1 120.91C697.107 137.587 617.906 243.777 634.582 357.77ZM620.324 343.498L636.135 339.481C610.065 236.498 672.62 131.622 775.602 105.552L771.586 89.74C659.925 117.981 592.083 231.837 620.324 343.498ZM604.58 330.831L619.865 325.228C583.409 225.554 634.809 114.638 734.483 78.1814L728.88 62.8968C620.649 102.499 564.957 222.701 604.458 330.912L604.58 330.831ZM587.656 319.829L602.311 312.621C579.773 266.359 576.605 214.15 593.331 165.506C610.056 116.863 644.761 77.6354 691.024 55.0975L683.816 40.4424C633.671 64.9498 596.098 107.407 577.908 160.196C559.718 212.985 563.27 269.603 587.656 319.829ZM569.757 310.534L583.64 301.903C527.528 211.711 555.176 92.7578 645.369 36.6463L636.737 22.7626C538.922 83.6872 508.934 212.74 569.757 310.534ZM550.92 303.271L563.809 293.278C532.327 252.621 518.449 202.176 524.872 151.151C531.295 100.125 557.225 54.5941 597.882 23.1122L587.889 10.2239C543.837 44.4072 515.669 93.7165 508.675 149.172C501.702 204.526 516.716 259.321 550.9 303.373L550.92 303.271ZM531.495 297.898L543.265 286.624C507.697 249.481 488.738 200.66 489.959 149.225C491.078 97.7704 512.193 49.901 549.438 14.3532L538.164 2.58183C497.788 41.0953 474.903 93.0487 473.64 148.913C472.397 204.676 492.961 257.624 531.475 298L531.495 297.898ZM511.561 294.537L522.195 282.084C483.008 248.76 459.169 202.131 455.065 150.897C450.961 99.6637 466.977 49.821 500.301 10.6339L487.847 -5.73828e-05C451.636 42.5186 434.258 96.5269 438.746 152.17C443.234 207.814 469.144 258.346 511.561 294.537ZM491.403 293.35L500.654 279.88C413.152 219.751 390.828 99.6586 450.978 12.0556L437.509 2.80351C372.296 97.7407 396.486 228.035 491.423 293.248L491.403 293.35ZM471.16 294.154L479.01 279.769C433.845 255.181 401.002 214.462 386.391 165.033C371.861 115.725 377.431 63.6831 402.019 18.5177L387.634 10.6673C360.911 59.632 354.873 116.125 370.661 169.7C386.449 223.276 422.094 267.41 471.059 294.133L471.16 294.154ZM451.243 297.031L457.55 281.914C410.065 262.04 373.216 224.956 353.687 177.395C334.157 129.833 334.301 77.4429 354.176 29.9588L339.061 23.653C317.538 75.1399 317.352 131.96 338.505 183.546C359.659 235.133 399.756 275.508 451.243 297.031ZM431.653 301.982L436.373 286.336C334.715 255.708 276.924 148.058 307.572 46.2987L291.925 41.5772C258.612 151.891 321.339 268.668 431.673 301.88L431.653 301.982ZM411.002 308.516C411.51 308.618 412.119 308.74 412.627 308.842L415.844 292.789C415.235 292.667 414.728 292.565 414.22 292.464C310.789 271.732 243.037 171.069 262.996 67.2724L246.943 64.0546C225.313 176.711 298.854 285.932 411.022 308.415L411.002 308.516ZM371.146 314.372C378.767 315.9 386.57 317.041 394.475 317.674L395.946 301.377C344.736 296.925 298.23 272.702 265.224 233.324C232.115 193.926 216.325 144.049 220.899 92.7586L204.6 91.2885C199.801 146.867 216.851 201.012 252.782 243.724C283.575 280.439 325.06 304.924 371.289 314.19L371.146 314.372ZM332.49 324.273C347.121 327.206 362.057 328.615 377.34 328.296L377.122 311.977C325.707 312.768 277.024 293.604 240.033 257.761C203.021 222.019 182.233 173.888 181.442 122.473L165.123 122.69C165.993 178.454 188.631 230.549 228.71 269.442C257.819 297.681 293.699 316.392 332.51 324.172L332.49 324.273ZM295.254 338.158C316.692 342.455 339.026 343.338 361.32 340.726L359.397 324.488C308.284 330.624 257.974 316.418 217.526 284.638C177.078 252.857 151.451 207.244 145.315 156.131L129.077 158.055C135.719 213.496 163.54 262.931 207.34 297.497C233.445 318.054 263.453 331.783 295.153 338.137L295.254 338.158ZM260.029 355.721C287.868 361.301 317.357 361.294 346.806 354.621L343.235 338.686C239.623 362.094 136.354 296.796 112.926 193.286L96.9921 196.857C115.674 279.758 181.592 340 260.029 355.721ZM226.165 377.046C261.624 384.153 298.426 381.912 333.67 370.059L328.435 354.531C279.696 370.972 227.449 367.474 181.409 344.613C135.369 321.752 100.899 282.292 84.4584 233.553L68.9314 238.79C86.7518 291.716 124.065 334.387 174.148 359.222C190.87 367.54 208.385 373.482 226.165 377.046ZM194.839 401.52C237.613 410.094 281.734 405.093 322.224 386.577L315.481 371.698C268.711 393.077 216.342 394.945 168.166 376.94C119.991 358.935 81.6977 323.253 60.3183 276.483L45.4395 283.224C68.6664 333.957 110.149 372.709 162.47 392.179C173.097 396.105 183.988 399.24 194.859 401.419L194.839 401.52ZM165.767 428.984C214.332 438.718 266.542 431.322 312.522 404.395L304.256 390.267C259.923 416.362 208.079 423.514 158.255 410.568C108.431 397.623 66.6615 366.106 40.6885 321.691L26.5619 329.956C57.9369 383.274 109.398 417.579 165.787 428.882L165.767 428.984ZM139.68 459.475C142.931 460.127 146.182 460.779 149.474 461.227C204.644 469.643 259.783 456.071 304.77 423.026L295.042 409.874C253.633 440.36 202.723 452.877 151.961 445.133C101.099 437.369 56.3192 410.322 25.8537 368.812L12.7007 378.54C43.7552 420.803 88.6553 449.354 139.761 459.597L139.68 459.475ZM117.149 492.265C180.04 504.871 247.882 488.561 298.91 442.249L287.92 430.112C209.244 501.531 87.3146 495.586 15.8753 417.011L3.73904 428C34.8172 462.236 74.8826 483.794 117.149 492.265ZM98.0323 527.537C115.203 530.978 132.901 532.306 150.866 531.257C206.55 528.151 257.752 503.644 295.04 462.081L282.853 451.184C211.936 530.288 90.0199 536.922 10.8956 466.107L-0.000183349 478.296C28.1351 503.487 61.8622 520.287 98.0323 527.537ZM82.8363 564.333C160.46 579.892 243.832 550.42 293.324 482.24L280.14 472.622C217.776 558.619 97.1555 577.772 11.1589 515.408L1.54191 528.593C26.5506 546.71 54.3066 558.509 82.8566 564.232L82.8363 564.333ZM71.8659 602.717C102.854 608.928 135.166 608.007 166.648 599.627C220.568 585.282 265.659 550.673 293.622 502.38L279.522 494.163C253.796 538.678 212.223 570.505 162.53 583.795C112.837 597.085 60.9586 590.174 16.444 564.448L8.22783 578.548C28.3011 590.18 49.8185 598.298 71.9676 602.737L71.8659 602.717ZM64.2492 641.773C157.722 660.508 255.287 612.955 295.949 522.397L281.015 515.705C237.607 612.582 123.42 656.063 26.441 612.635L19.7502 627.569C34.298 634.078 49.1918 638.86 64.2288 641.874L64.2492 641.773ZM61.3261 681.663C106.844 690.787 153.87 684.466 195.946 663.308C245.786 638.211 282.831 595.226 300.331 542.193L284.867 537.086C251.558 637.889 142.568 692.875 41.6431 659.646L36.5363 675.109C44.7656 677.816 52.9948 679.993 61.3261 681.663ZM61.6958 721.475C172.949 743.774 282.433 672.612 306.744 561.339L290.751 557.816C268.049 661.591 165.131 727.411 61.4581 704.729L57.9353 720.721C59.1545 720.965 60.3748 721.21 61.5941 721.454L61.6958 721.475ZM84.0719 763.794C139.569 770.056 194.078 754.35 237.724 719.557C281.37 684.764 308.869 635.109 315.131 579.612L298.914 577.736C293.101 628.884 267.759 674.638 227.508 706.73C187.257 738.821 137.016 753.27 85.8683 747.456L83.9906 763.672L84.0719 763.794ZM114.377 804.004C170.181 804.515 222.823 783.362 262.691 744.218C302.538 705.176 324.751 652.877 325.262 597.073L308.925 596.863C308.436 648.338 287.909 696.431 251.193 732.508C214.496 768.483 165.96 788.134 114.485 787.645L114.275 803.984L114.377 804.004Z" fill="url(#paint0_linear_765_346)"/>
<defs>
<linearGradient id="paint0_linear_765_346" x1="217.875" y1="82.5355" x2="760.23" y2="896.682" gradientUnits="userSpaceOnUse">
<stop stop-color="#893DF5"/>
<stop offset="1" stop-color="#E6483F"/>
</linearGradient>
</defs>
</svg>
