<svg width="218" height="75" viewBox="0 0 218 75" fill="none" xmlns="http://www.w3.org/2000/svg">
<path d="M19.5526 32.6367C17.475 31.9168 15.9398 30.9548 14.9423 29.7471H0.941406C0.990929 29.9245 1.02396 30.0814 1.0782 30.2622C1.33761 31.1117 1.66304 31.9134 2.02149 32.6879H19.7153C19.6611 32.6708 19.6021 32.6571 19.5502 32.6401L19.5526 32.6367Z" fill="#044994"/>
<path d="M38.8255 29.8041C37.7949 31.005 36.2409 31.9602 34.1633 32.6664C34.142 32.6732 34.1208 32.6766 34.0996 32.6835H51.7297C52.0882 31.909 52.416 31.1107 52.6848 30.2578C52.7414 30.077 52.7744 29.9201 52.8263 29.7427H38.8703C38.8538 29.7631 38.842 29.7802 38.8255 29.8007V29.8041Z" fill="#044994"/>
<path d="M52.6829 13.5679C52.2183 12.118 51.6099 10.7806 50.8623 9.55927C50.1148 8.33792 49.0772 7.11656 47.7471 5.89521C46.4171 4.67386 44.863 3.64356 43.0849 2.80431C41.3068 1.96506 39.1042 1.28617 36.4795 0.771022C33.8548 0.255872 30.9282 0 27.7045 0H26.1269C22.9031 0 19.9624 0.255872 17.3023 0.771022C14.6446 1.28617 12.4255 1.96165 10.6474 2.80431C8.86931 3.64356 7.31523 4.67386 5.98519 5.89521C4.65515 7.11656 3.61753 8.33792 2.86762 9.55927C2.12006 10.7806 1.52107 12.1282 1.07301 13.5952C0.624943 15.0656 0.334892 16.3654 0.200473 17.4912C0.0684117 18.617 0 19.8111 0 21.07V22.786C0 24.0073 0.0684117 25.1912 0.200473 26.334C0.235846 26.6411 0.313661 26.9891 0.370258 27.32H13.3382C13.1236 26.8969 12.9325 26.4705 12.7887 26.0475C12.3713 24.8261 12.1661 23.5263 12.1661 22.1514V21.4657C12.1661 14.24 16.8779 10.5213 26.3037 10.3098C26.5891 10.303 27.4569 10.3098 27.8696 10.3235C29.7774 10.3917 31.4824 10.6237 32.9869 11.016C34.8146 11.4936 36.2602 12.0941 37.3237 12.8207C38.3873 13.5474 39.2504 14.4242 39.9154 15.4545C40.5804 16.4848 41.0285 17.4775 41.262 18.4328C41.4955 19.388 41.611 20.3979 41.611 21.4657V22.2674C41.611 23.6423 41.4035 24.9387 40.9884 26.16C40.8564 26.5455 40.6819 26.9311 40.4885 27.3166H53.4022C53.4611 26.9856 53.5413 26.6377 53.5767 26.3306C53.7087 25.1843 53.7747 24.0005 53.7747 22.7826V21.0665C53.7747 19.8077 53.7087 18.6034 53.5767 17.4605C53.4446 16.3142 53.1451 15.0178 52.6782 13.5679H52.6829Z" fill="#044994"/>
<path d="M10.673 41.1959C12.4346 42.0556 14.6443 42.7516 17.3044 43.2838C19.9645 43.816 22.9052 44.0855 26.1289 44.0855H27.7065C30.9302 44.0855 33.8639 43.816 36.5075 43.2838C39.1487 42.7516 41.3513 42.0522 43.1129 41.1959C43.5633 40.9741 43.9618 40.708 44.3863 40.4624H9.4043C9.82878 40.708 10.225 40.9741 10.6777 41.1959H10.673Z" fill="#044994"/>
<path d="M6.00671 38.0438H47.7734C48.8346 37.0647 49.7 36.0856 50.3792 35.1064H3.38672C4.07532 36.0856 4.94551 37.0647 6.00671 38.0438Z" fill="#044994"/>
<path d="M90.8446 38.0438H106.26V35.1064H88.3496L90.8446 38.0438Z" fill="#044994"/>
<path d="M60.4648 0.744629V27.3243H71.3811V15.1176L81.7479 27.3243H95.1686L72.8031 0.744629H60.4648Z" fill="#044994"/>
<path d="M86.2958 32.6844H106.263V29.7471H83.8008L86.2958 32.6844Z" fill="#044994"/>
<path d="M71.3811 40.4624H60.4648V43.3418H71.3811V40.4624Z" fill="#044994"/>
<path d="M95.3478 43.3452H106.264V40.4624H92.9023L95.3478 43.3452Z" fill="#044994"/>
<path d="M71.3811 29.7471H60.4648V32.6844H71.3811V29.7471Z" fill="#044994"/>
<path d="M106.266 0.744629H95.3496V27.3243H106.266V0.744629Z" fill="#044994"/>
<path d="M71.3811 35.1064H60.4648V38.0438H71.3811V35.1064Z" fill="#044994"/>
<path d="M112.99 43.2872H136.492C140.457 43.2872 143.963 42.8471 147.005 41.9669C148.538 41.5234 149.908 41.0219 151.118 40.4624H112.99V43.2872Z" fill="#044994"/>
<path d="M140.029 32.6844H159.178C159.699 31.6883 160.121 30.7057 160.433 29.7471H146.845C145.232 31.2379 142.961 32.2171 140.029 32.6844Z" fill="#044994"/>
<path d="M112.99 38.0438H154.953C155.99 37.1705 156.917 36.1982 157.709 35.1064H112.99V38.0438Z" fill="#044994"/>
<path d="M124.074 29.7471H112.99V32.6844H124.074V29.7471Z" fill="#044994"/>
<path d="M159.518 11.3197C158.853 9.75042 157.886 8.34485 156.618 7.09962C155.349 5.85439 153.825 4.72857 152.05 3.71191C150.272 2.69867 148.052 1.92424 145.39 1.38863C142.725 0.853006 139.744 0.583496 136.445 0.583496H112.99V27.3235H124.074V10.6852H135.587C145.072 10.6852 149.812 14.339 149.812 21.6466V21.9912C149.812 24.0654 149.42 25.8326 148.666 27.3235H160.99C161.256 25.7985 161.421 24.2087 161.421 22.5097V20.7869C161.421 19.064 161.27 17.447 160.971 15.9356C160.669 14.4243 160.185 12.8822 159.518 11.3163V11.3197Z" fill="#044994"/>
<path d="M216.305 40.4624H204.412L205.617 43.2872H217.557L216.305 40.4624Z" fill="#044994"/>
<path d="M211.551 29.7471H168.657L167.426 32.6844H212.855L211.551 29.7471Z" fill="#044994"/>
<path d="M162.982 43.2872H174.257L175.413 40.4624H164.166L162.982 43.2872Z" fill="#044994"/>
<path d="M95.3513 27.5422V27.3247H95.1699L95.3513 27.5422Z" fill="#044994"/>
<path d="M198.62 0.586914H180.87L169.668 27.3269H210.475L198.618 0.586914H198.62ZM181.891 24.6284L187.713 10.4259H188.975V10.4191H191.595L197.674 24.6284H181.891Z" fill="#044994"/>
<path d="M213.926 35.1064H202.137L202.469 35.9218L203.375 38.0438H215.23L213.926 35.1064Z" fill="#044994"/>
<path d="M165.18 38.0438H176.339L177.539 35.1064H166.411L165.18 38.0438Z" fill="#044994"/>
<path d="M44.3379 73.1188V58.0976C44.3379 57.5722 44.5714 57.2617 44.9628 57.2617H53.2567C59.5131 57.2617 61.9633 59.7181 61.9633 65.6065C61.9633 71.4949 59.5131 73.9512 53.2567 73.9512H44.9628C44.569 73.9512 44.3379 73.6408 44.3379 73.1154V73.1188ZM52.9525 70.8057C58.3529 70.8057 59.4424 69.0658 59.4424 65.6065C59.4424 62.1471 58.3529 60.4072 52.9525 60.4072H46.965C46.8565 60.4072 46.7857 60.5027 46.7857 60.646V70.5635C46.7857 70.7068 46.8565 70.8023 46.965 70.8023H52.9525V70.8057Z" fill="#044994"/>
<path d="M69.5996 73.1198V58.0985C69.5996 57.5732 69.8331 57.2627 70.2245 57.2627H71.4225C71.814 57.2627 72.0475 57.5732 72.0475 58.0985V73.1198C72.0475 73.6451 71.814 73.9556 71.4225 73.9556H70.2245C69.8307 73.9556 69.5996 73.6451 69.5996 73.1198Z" fill="#044994"/>
<path d="M97.5896 65.4636V71.7819C97.5896 71.9968 97.5 72.1879 97.3019 72.355C96.427 73.0715 94.1206 74.2382 89.4914 74.2382C82.9662 74.2382 79.6953 71.9252 79.6953 65.6069C79.6953 59.2886 82.9662 56.9756 89.4914 56.9756C94.0852 56.9756 96.3916 58.1424 97.2665 58.8588C97.6415 59.1692 97.6061 59.5513 97.3915 60.029L96.9269 61.1241C96.75 61.53 96.4269 61.4823 96.0709 61.3151C95.1417 60.8648 93.2292 60.029 89.4914 60.029C83.9849 60.029 82.2162 61.8644 82.2162 65.6069C82.2162 69.3494 83.9873 71.2565 89.4914 71.1848C92.3519 71.1371 94.1206 70.6833 95.229 70.2774V67.7732C95.229 67.63 95.1582 67.5344 95.0497 67.5344H91.1186C90.7247 67.5344 90.4937 67.224 90.4937 66.6986V65.4568C90.4937 64.9348 90.7271 64.6244 91.1186 64.6244H96.9646C97.3585 64.6244 97.5896 64.9348 97.5896 65.4568V65.4636Z" fill="#044994"/>
<path d="M105.23 73.1198V58.0985C105.23 57.5732 105.464 57.2627 105.855 57.2627H107.053C107.445 57.2627 107.678 57.5732 107.678 58.0985V73.1198C107.678 73.6451 107.445 73.9556 107.053 73.9556H105.855C105.462 73.9556 105.23 73.6451 105.23 73.1198Z" fill="#044994"/>
<path d="M123.116 73.1198V60.6027C123.116 60.4594 123.045 60.3638 122.939 60.3638H115.949C115.558 60.3638 115.324 60.0534 115.324 59.528V58.0985C115.324 57.5732 115.558 57.2627 115.949 57.2627H132.735C133.129 57.2627 133.36 57.5732 133.36 58.0985V59.528C133.36 60.0534 133.127 60.3638 132.735 60.3638H125.745C125.637 60.3638 125.566 60.4594 125.566 60.6027V73.1198C125.566 73.6451 125.333 73.9556 124.941 73.9556H123.743C123.349 73.9556 123.118 73.6451 123.118 73.1198H123.116Z" fill="#044994"/>
<path d="M160.445 73.975H158.853C158.53 73.975 158.299 73.8317 158.103 73.4496L156.495 70.4474H145.43L143.821 73.4496C143.626 73.8317 143.392 73.975 143.072 73.975H141.48C140.961 73.975 140.782 73.5213 141.086 72.9754L149.344 57.7598C149.559 57.3777 149.79 57.2378 150.13 57.2378H151.792C152.132 57.2378 152.363 57.3811 152.578 57.7598L160.836 72.9754C161.14 73.5213 160.961 73.975 160.442 73.975H160.445ZM155.065 67.7762L150.972 60.1206L146.861 67.7762H155.068H155.065Z" fill="#044994"/>
<path d="M168.625 73.1198V58.0985C168.625 57.5732 168.858 57.2627 169.25 57.2627H170.448C170.839 57.2627 171.073 57.5732 171.073 58.0985V70.6156C171.073 70.7589 171.144 70.8545 171.252 70.8545H183.909C184.303 70.8545 184.534 71.1649 184.534 71.6903V73.1198C184.534 73.6451 184.3 73.9556 183.909 73.9556H169.25C168.856 73.9556 168.625 73.6451 168.625 73.1198Z" fill="#044994"/>
</svg>
